ISO-10303-21;
HEADER;
/* Generated by software containing ST-Developer
 * from STEP Tools, Inc. (www.steptools.com) 
 */

FILE_DESCRIPTION(
/* description */ (''),
/* implementation_level */ '2;1');

FILE_NAME(
/* name */ 'Dovetail Attachment v1.step',
/* time_stamp */ '2026-08-03T03:56:44+08:00',
/* author */ (''),
/* organization */ (''),
/* preprocessor_version */ 'ST-DEVELOPER v20.1',
/* originating_system */ 'Autodesk Translation Framework v15.8.0.0',
/* authorisation */ '');

FILE_SCHEMA (('AUTOMOTIVE_DESIGN { 1 0 10303 214 3 1 1 }'));
ENDSEC;

DATA;
#10=MECHANICAL_DESIGN_GEOMETRIC_PRESENTATION_REPRESENTATION('',(#13),#519);
#11=SHAPE_REPRESENTATION_RELATIONSHIP('SRR','None',#526,#12);
#12=ADVANCED_BREP_SHAPE_REPRESENTATION('',(#14),#518);
#13=STYLED_ITEM('',(#535),#14);
#14=MANIFOLD_SOLID_BREP('Body1',#313);
#15=FACE_BOUND('',#56,.T.);
#16=FACE_BOUND('',#57,.T.);
#17=PLANE('',#335);
#18=PLANE('',#336);
#19=PLANE('',#337);
#20=PLANE('',#338);
#21=PLANE('',#339);
#22=PLANE('',#340);
#23=PLANE('',#341);
#24=PLANE('',#342);
#25=PLANE('',#343);
#26=PLANE('',#344);
#27=PLANE('',#345);
#28=PLANE('',#346);
#29=PLANE('',#347);
#30=PLANE('',#348);
#31=CYLINDRICAL_SURFACE('',#329,0.9);
#32=CYLINDRICAL_SURFACE('',#333,0.9);
#33=FACE_OUTER_BOUND('',#51,.T.);
#34=FACE_OUTER_BOUND('',#52,.T.);
#35=FACE_OUTER_BOUND('',#53,.T.);
#36=FACE_OUTER_BOUND('',#54,.T.);
#37=FACE_OUTER_BOUND('',#55,.T.);
#38=FACE_OUTER_BOUND('',#58,.T.);
#39=FACE_OUTER_BOUND('',#59,.T.);
#40=FACE_OUTER_BOUND('',#60,.T.);
#41=FACE_OUTER_BOUND('',#61,.T.);
#42=FACE_OUTER_BOUND('',#62,.T.);
#43=FACE_OUTER_BOUND('',#63,.T.);
#44=FACE_OUTER_BOUND('',#64,.T.);
#45=FACE_OUTER_BOUND('',#65,.T.);
#46=FACE_OUTER_BOUND('',#66,.T.);
#47=FACE_OUTER_BOUND('',#67,.T.);
#48=FACE_OUTER_BOUND('',#68,.T.);
#49=FACE_OUTER_BOUND('',#69,.T.);
#50=FACE_OUTER_BOUND('',#70,.T.);
#51=EDGE_LOOP('',(#213,#214,#215));
#52=EDGE_LOOP('',(#216,#217,#218,#219));
#53=EDGE_LOOP('',(#220,#221,#222));
#54=EDGE_LOOP('',(#223,#224,#225,#226));
#55=EDGE_LOOP('',(#227,#228,#229,#230));
#56=EDGE_LOOP('',(#231));
#57=EDGE_LOOP('',(#232));
#58=EDGE_LOOP('',(#233,#234,#235,#236));
#59=EDGE_LOOP('',(#237,#238,#239,#240));
#60=EDGE_LOOP('',(#241,#242,#243,#244));
#61=EDGE_LOOP('',(#245,#246,#247,#248));
#62=EDGE_LOOP('',(#249,#250,#251));
#63=EDGE_LOOP('',(#252,#253,#254,#255,#256,#257,#258,#259));
#64=EDGE_LOOP('',(#260,#261,#262,#263));
#65=EDGE_LOOP('',(#264,#265,#266));
#66=EDGE_LOOP('',(#267,#268,#269,#270));
#67=EDGE_LOOP('',(#271,#272,#273,#274,#275,#276));
#68=EDGE_LOOP('',(#277,#278,#279,#280,#281,#282));
#69=EDGE_LOOP('',(#283,#284,#285,#286,#287,#288));
#70=EDGE_LOOP('',(#289,#290,#291,#292));
#71=LINE('',#436,#107);
#72=LINE('',#440,#108);
#73=LINE('',#445,#109);
#74=LINE('',#449,#110);
#75=LINE('',#453,#111);
#76=LINE('',#455,#112);
#77=LINE('',#457,#113);
#78=LINE('',#458,#114);
#79=LINE('',#462,#115);
#80=LINE('',#464,#116);
#81=LINE('',#466,#117);
#82=LINE('',#467,#118);
#83=LINE('',#470,#119);
#84=LINE('',#472,#120);
#85=LINE('',#473,#121);
#86=LINE('',#476,#122);
#87=LINE('',#477,#123);
#88=LINE('',#481,#124);
#89=LINE('',#482,#125);
#90=LINE('',#483,#126);
#91=LINE('',#486,#127);
#92=LINE('',#487,#128);
#93=LINE('',#490,#129);
#94=LINE('',#492,#130);
#95=LINE('',#493,#131);
#96=LINE('',#494,#132);
#97=LINE('',#497,#133);
#98=LINE('',#498,#134);
#99=LINE('',#499,#135);
#100=LINE('',#502,#136);
#101=LINE('',#503,#137);
#102=LINE('',#507,#138);
#103=LINE('',#509,#139);
#104=LINE('',#510,#140);
#105=LINE('',#512,#141);
#106=LINE('',#514,#142);
#107=VECTOR('',#355,0.45);
#108=VECTOR('',#360,0.9);
#109=VECTOR('',#365,0.45);
#110=VECTOR('',#370,0.9);
#111=VECTOR('',#373,10.);
#112=VECTOR('',#374,10.);
#113=VECTOR('',#375,10.);
#114=VECTOR('',#376,10.);
#115=VECTOR('',#379,10.);
#116=VECTOR('',#380,10.);
#117=VECTOR('',#381,10.);
#118=VECTOR('',#382,10.);
#119=VECTOR('',#385,10.);
#120=VECTOR('',#386,10.);
#121=VECTOR('',#387,10.);
#122=VECTOR('',#390,10.);
#123=VECTOR('',#391,10.);
#124=VECTOR('',#394,10.);
#125=VECTOR('',#395,10.);
#126=VECTOR('',#396,10.);
#127=VECTOR('',#399,10.);
#128=VECTOR('',#400,10.);
#129=VECTOR('',#403,10.);
#130=VECTOR('',#404,10.);
#131=VECTOR('',#405,10.);
#132=VECTOR('',#406,10.);
#133=VECTOR('',#409,10.);
#134=VECTOR('',#410,10.);
#135=VECTOR('',#411,10.);
#136=VECTOR('',#414,10.);
#137=VECTOR('',#415,10.);
#138=VECTOR('',#420,10.);
#139=VECTOR('',#421,10.);
#140=VECTOR('',#422,10.);
#141=VECTOR('',#425,10.);
#142=VECTOR('',#428,10.);
#143=CIRCLE('',#328,0.9);
#144=CIRCLE('',#330,0.9);
#145=CIRCLE('',#332,0.9);
#146=CIRCLE('',#334,0.9);
#147=VERTEX_POINT('',#433);
#148=VERTEX_POINT('',#435);
#149=VERTEX_POINT('',#438);
#150=VERTEX_POINT('',#442);
#151=VERTEX_POINT('',#444);
#152=VERTEX_POINT('',#447);
#153=VERTEX_POINT('',#451);
#154=VERTEX_POINT('',#452);
#155=VERTEX_POINT('',#454);
#156=VERTEX_POINT('',#456);
#157=VERTEX_POINT('',#460);
#158=VERTEX_POINT('',#461);
#159=VERTEX_POINT('',#463);
#160=VERTEX_POINT('',#465);
#161=VERTEX_POINT('',#469);
#162=VERTEX_POINT('',#471);
#163=VERTEX_POINT('',#475);
#164=VERTEX_POINT('',#479);
#165=VERTEX_POINT('',#480);
#166=VERTEX_POINT('',#485);
#167=VERTEX_POINT('',#489);
#168=VERTEX_POINT('',#491);
#169=VERTEX_POINT('',#496);
#170=VERTEX_POINT('',#501);
#171=VERTEX_POINT('',#506);
#172=VERTEX_POINT('',#508);
#173=EDGE_CURVE('',#147,#147,#143,.T.);
#174=EDGE_CURVE('',#147,#148,#71,.T.);
#175=EDGE_CURVE('',#149,#149,#144,.T.);
#176=EDGE_CURVE('',#149,#147,#72,.T.);
#177=EDGE_CURVE('',#150,#150,#145,.T.);
#178=EDGE_CURVE('',#150,#151,#73,.T.);
#179=EDGE_CURVE('',#152,#152,#146,.T.);
#180=EDGE_CURVE('',#152,#150,#74,.T.);
#181=EDGE_CURVE('',#153,#154,#75,.T.);
#182=EDGE_CURVE('',#154,#155,#76,.T.);
#183=EDGE_CURVE('',#155,#156,#77,.T.);
#184=EDGE_CURVE('',#156,#153,#78,.T.);
#185=EDGE_CURVE('',#157,#158,#79,.T.);
#186=EDGE_CURVE('',#159,#157,#80,.T.);
#187=EDGE_CURVE('',#160,#159,#81,.T.);
#188=EDGE_CURVE('',#158,#160,#82,.T.);
#189=EDGE_CURVE('',#160,#161,#83,.T.);
#190=EDGE_CURVE('',#162,#161,#84,.T.);
#191=EDGE_CURVE('',#162,#158,#85,.T.);
#192=EDGE_CURVE('',#163,#159,#86,.T.);
#193=EDGE_CURVE('',#161,#163,#87,.T.);
#194=EDGE_CURVE('',#164,#165,#88,.T.);
#195=EDGE_CURVE('',#164,#161,#89,.T.);
#196=EDGE_CURVE('',#165,#163,#90,.T.);
#197=EDGE_CURVE('',#166,#164,#91,.T.);
#198=EDGE_CURVE('',#161,#166,#92,.T.);
#199=EDGE_CURVE('',#157,#167,#93,.T.);
#200=EDGE_CURVE('',#167,#168,#94,.T.);
#201=EDGE_CURVE('',#168,#156,#95,.T.);
#202=EDGE_CURVE('',#165,#155,#96,.T.);
#203=EDGE_CURVE('',#168,#169,#97,.T.);
#204=EDGE_CURVE('',#167,#162,#98,.T.);
#205=EDGE_CURVE('',#169,#162,#99,.T.);
#206=EDGE_CURVE('',#169,#170,#100,.T.);
#207=EDGE_CURVE('',#170,#162,#101,.T.);
#208=EDGE_CURVE('',#166,#171,#102,.T.);
#209=EDGE_CURVE('',#171,#172,#103,.T.);
#210=EDGE_CURVE('',#172,#170,#104,.T.);
#211=EDGE_CURVE('',#171,#154,#105,.T.);
#212=EDGE_CURVE('',#172,#153,#106,.T.);
#213=ORIENTED_EDGE('',*,*,#173,.F.);
#214=ORIENTED_EDGE('',*,*,#174,.T.);
#215=ORIENTED_EDGE('',*,*,#174,.F.);
#216=ORIENTED_EDGE('',*,*,#175,.F.);
#217=ORIENTED_EDGE('',*,*,#176,.T.);
#218=ORIENTED_EDGE('',*,*,#173,.T.);
#219=ORIENTED_EDGE('',*,*,#176,.F.);
#220=ORIENTED_EDGE('',*,*,#177,.F.);
#221=ORIENTED_EDGE('',*,*,#178,.T.);
#222=ORIENTED_EDGE('',*,*,#178,.F.);
#223=ORIENTED_EDGE('',*,*,#179,.F.);
#224=ORIENTED_EDGE('',*,*,#180,.T.);
#225=ORIENTED_EDGE('',*,*,#177,.T.);
#226=ORIENTED_EDGE('',*,*,#180,.F.);
#227=ORIENTED_EDGE('',*,*,#181,.T.);
#228=ORIENTED_EDGE('',*,*,#182,.T.);
#229=ORIENTED_EDGE('',*,*,#183,.T.);
#230=ORIENTED_EDGE('',*,*,#184,.T.);
#231=ORIENTED_EDGE('',*,*,#175,.T.);
#232=ORIENTED_EDGE('',*,*,#179,.T.);
#233=ORIENTED_EDGE('',*,*,#185,.F.);
#234=ORIENTED_EDGE('',*,*,#186,.F.);
#235=ORIENTED_EDGE('',*,*,#187,.F.);
#236=ORIENTED_EDGE('',*,*,#188,.F.);
#237=ORIENTED_EDGE('',*,*,#188,.T.);
#238=ORIENTED_EDGE('',*,*,#189,.T.);
#239=ORIENTED_EDGE('',*,*,#190,.F.);
#240=ORIENTED_EDGE('',*,*,#191,.T.);
#241=ORIENTED_EDGE('',*,*,#187,.T.);
#242=ORIENTED_EDGE('',*,*,#192,.F.);
#243=ORIENTED_EDGE('',*,*,#193,.F.);
#244=ORIENTED_EDGE('',*,*,#189,.F.);
#245=ORIENTED_EDGE('',*,*,#194,.F.);
#246=ORIENTED_EDGE('',*,*,#195,.T.);
#247=ORIENTED_EDGE('',*,*,#193,.T.);
#248=ORIENTED_EDGE('',*,*,#196,.F.);
#249=ORIENTED_EDGE('',*,*,#197,.F.);
#250=ORIENTED_EDGE('',*,*,#198,.F.);
#251=ORIENTED_EDGE('',*,*,#195,.F.);
#252=ORIENTED_EDGE('',*,*,#186,.T.);
#253=ORIENTED_EDGE('',*,*,#199,.T.);
#254=ORIENTED_EDGE('',*,*,#200,.T.);
#255=ORIENTED_EDGE('',*,*,#201,.T.);
#256=ORIENTED_EDGE('',*,*,#183,.F.);
#257=ORIENTED_EDGE('',*,*,#202,.F.);
#258=ORIENTED_EDGE('',*,*,#196,.T.);
#259=ORIENTED_EDGE('',*,*,#192,.T.);
#260=ORIENTED_EDGE('',*,*,#203,.F.);
#261=ORIENTED_EDGE('',*,*,#200,.F.);
#262=ORIENTED_EDGE('',*,*,#204,.T.);
#263=ORIENTED_EDGE('',*,*,#205,.F.);
#264=ORIENTED_EDGE('',*,*,#206,.F.);
#265=ORIENTED_EDGE('',*,*,#205,.T.);
#266=ORIENTED_EDGE('',*,*,#207,.F.);
#267=ORIENTED_EDGE('',*,*,#185,.T.);
#268=ORIENTED_EDGE('',*,*,#191,.F.);
#269=ORIENTED_EDGE('',*,*,#204,.F.);
#270=ORIENTED_EDGE('',*,*,#199,.F.);
#271=ORIENTED_EDGE('',*,*,#207,.T.);
#272=ORIENTED_EDGE('',*,*,#190,.T.);
#273=ORIENTED_EDGE('',*,*,#198,.T.);
#274=ORIENTED_EDGE('',*,*,#208,.T.);
#275=ORIENTED_EDGE('',*,*,#209,.T.);
#276=ORIENTED_EDGE('',*,*,#210,.T.);
#277=ORIENTED_EDGE('',*,*,#197,.T.);
#278=ORIENTED_EDGE('',*,*,#194,.T.);
#279=ORIENTED_EDGE('',*,*,#202,.T.);
#280=ORIENTED_EDGE('',*,*,#182,.F.);
#281=ORIENTED_EDGE('',*,*,#211,.F.);
#282=ORIENTED_EDGE('',*,*,#208,.F.);
#283=ORIENTED_EDGE('',*,*,#206,.T.);
#284=ORIENTED_EDGE('',*,*,#210,.F.);
#285=ORIENTED_EDGE('',*,*,#212,.T.);
#286=ORIENTED_EDGE('',*,*,#184,.F.);
#287=ORIENTED_EDGE('',*,*,#201,.F.);
#288=ORIENTED_EDGE('',*,*,#203,.T.);
#289=ORIENTED_EDGE('',*,*,#209,.F.);
#290=ORIENTED_EDGE('',*,*,#211,.T.);
#291=ORIENTED_EDGE('',*,*,#181,.F.);
#292=ORIENTED_EDGE('',*,*,#212,.F.);
#293=CONICAL_SURFACE('',#327,0.45,1.02974425867665);
#294=CONICAL_SURFACE('',#331,0.45,1.02974425867665);
#295=ADVANCED_FACE('',(#33),#293,.F.);
#296=ADVANCED_FACE('',(#34),#31,.F.);
#297=ADVANCED_FACE('',(#35),#294,.F.);
#298=ADVANCED_FACE('',(#36),#32,.F.);
#299=ADVANCED_FACE('',(#37,#15,#16),#17,.T.);
#300=ADVANCED_FACE('',(#38),#18,.F.);
#301=ADVANCED_FACE('',(#39),#19,.F.);
#302=ADVANCED_FACE('',(#40),#20,.F.);
#303=ADVANCED_FACE('',(#41),#21,.F.);
#304=ADVANCED_FACE('',(#42),#22,.F.);
#305=ADVANCED_FACE('',(#43),#23,.T.);
#306=ADVANCED_FACE('',(#44),#24,.F.);
#307=ADVANCED_FACE('',(#45),#25,.F.);
#308=ADVANCED_FACE('',(#46),#26,.F.);
#309=ADVANCED_FACE('',(#47),#27,.F.);
#310=ADVANCED_FACE('',(#48),#28,.T.);
#311=ADVANCED_FACE('',(#49),#29,.T.);
#312=ADVANCED_FACE('',(#50),#30,.T.);
#313=CLOSED_SHELL('',(#295,#296,#297,#298,#299,#300,#301,#302,#303,#304,
#305,#306,#307,#308,#309,#310,#311,#312));
#314=DERIVED_UNIT_ELEMENT(#316,1.);
#315=DERIVED_UNIT_ELEMENT(#521,-3.);
#316=(
MASS_UNIT()
NAMED_UNIT(*)
SI_UNIT(.KILO.,.GRAM.)
);
#317=DERIVED_UNIT((#314,#315));
#318=MEASURE_REPRESENTATION_ITEM('density measure',
POSITIVE_RATIO_MEASURE(7850.),#317);
#319=PROPERTY_DEFINITION_REPRESENTATION(#324,#321);
#320=PROPERTY_DEFINITION_REPRESENTATION(#325,#322);
#321=REPRESENTATION('material name',(#323),#518);
#322=REPRESENTATION('density',(#318),#518);
#323=DESCRIPTIVE_REPRESENTATION_ITEM('Steel','Steel');
#324=PROPERTY_DEFINITION('material property','material name',#528);
#325=PROPERTY_DEFINITION('material property','density of part',#528);
#326=AXIS2_PLACEMENT_3D('',#431,#349,#350);
#327=AXIS2_PLACEMENT_3D('',#432,#351,#352);
#328=AXIS2_PLACEMENT_3D('',#434,#353,#354);
#329=AXIS2_PLACEMENT_3D('',#437,#356,#357);
#330=AXIS2_PLACEMENT_3D('',#439,#358,#359);
#331=AXIS2_PLACEMENT_3D('',#441,#361,#362);
#332=AXIS2_PLACEMENT_3D('',#443,#363,#364);
#333=AXIS2_PLACEMENT_3D('',#446,#366,#367);
#334=AXIS2_PLACEMENT_3D('',#448,#368,#369);
#335=AXIS2_PLACEMENT_3D('',#450,#371,#372);
#336=AXIS2_PLACEMENT_3D('',#459,#377,#378);
#337=AXIS2_PLACEMENT_3D('',#468,#383,#384);
#338=AXIS2_PLACEMENT_3D('',#474,#388,#389);
#339=AXIS2_PLACEMENT_3D('',#478,#392,#393);
#340=AXIS2_PLACEMENT_3D('',#484,#397,#398);
#341=AXIS2_PLACEMENT_3D('',#488,#401,#402);
#342=AXIS2_PLACEMENT_3D('',#495,#407,#408);
#343=AXIS2_PLACEMENT_3D('',#500,#412,#413);
#344=AXIS2_PLACEMENT_3D('',#504,#416,#417);
#345=AXIS2_PLACEMENT_3D('',#505,#418,#419);
#346=AXIS2_PLACEMENT_3D('',#511,#423,#424);
#347=AXIS2_PLACEMENT_3D('',#513,#426,#427);
#348=AXIS2_PLACEMENT_3D('',#515,#429,#430);
#349=DIRECTION('axis',(0.,0.,1.));
#350=DIRECTION('refdir',(1.,0.,0.));
#351=DIRECTION('center_axis',(0.,0.,1.));
#352=DIRECTION('ref_axis',(1.,0.,0.));
#353=DIRECTION('center_axis',(0.,0.,-1.));
#354=DIRECTION('ref_axis',(1.,0.,0.));
#355=DIRECTION('',(0.857167300702112,-1.04972719113862E-16,-0.515038074910054));
#356=DIRECTION('center_axis',(0.,0.,-1.));
#357=DIRECTION('ref_axis',(1.,0.,0.));
#358=DIRECTION('center_axis',(0.,0.,-1.));
#359=DIRECTION('ref_axis',(1.,0.,0.));
#360=DIRECTION('',(0.,0.,-1.));
#361=DIRECTION('center_axis',(0.,0.,1.));
#362=DIRECTION('ref_axis',(1.,0.,0.));
#363=DIRECTION('center_axis',(0.,0.,-1.));
#364=DIRECTION('ref_axis',(1.,0.,0.));
#365=DIRECTION('',(0.857167300702112,-1.04972719113862E-16,-0.515038074910054));
#366=DIRECTION('center_axis',(0.,0.,-1.));
#367=DIRECTION('ref_axis',(1.,0.,0.));
#368=DIRECTION('center_axis',(0.,0.,-1.));
#369=DIRECTION('ref_axis',(1.,0.,0.));
#370=DIRECTION('',(0.,0.,-1.));
#371=DIRECTION('center_axis',(0.,0.,1.));
#372=DIRECTION('ref_axis',(1.,0.,0.));
#373=DIRECTION('',(1.,0.,0.));
#374=DIRECTION('',(0.,1.,0.));
#375=DIRECTION('',(-1.,0.,0.));
#376=DIRECTION('',(0.,-1.,0.));
#377=DIRECTION('center_axis',(0.,0.,1.));
#378=DIRECTION('ref_axis',(1.,0.,0.));
#379=DIRECTION('',(0.,-1.,0.));
#380=DIRECTION('',(-1.,0.,0.));
#381=DIRECTION('',(0.,1.,0.));
#382=DIRECTION('',(1.,0.,0.));
#383=DIRECTION('center_axis',(0.,1.,0.));
#384=DIRECTION('ref_axis',(0.,0.,1.));
#385=DIRECTION('',(-0.342020165525902,0.,0.939692612705684));
#386=DIRECTION('',(1.,0.,0.));
#387=DIRECTION('',(-0.342020143325678,0.,-0.939692620785905));
#388=DIRECTION('center_axis',(-0.939692612705684,0.,-0.342020165525902));
#389=DIRECTION('ref_axis',(-0.342020165525902,0.,0.939692612705684));
#390=DIRECTION('',(0.342020165525902,0.,-0.939692612705684));
#391=DIRECTION('',(0.,1.,0.));
#392=DIRECTION('center_axis',(-0.342020165525902,0.,0.939692612705684));
#393=DIRECTION('ref_axis',(0.,1.,0.));
#394=DIRECTION('',(0.,1.,0.));
#395=DIRECTION('',(-0.939692612705684,0.,-0.342020165525902));
#396=DIRECTION('',(-0.939692612705684,0.,-0.342020165525902));
#397=DIRECTION('center_axis',(0.,-1.,0.));
#398=DIRECTION('ref_axis',(-0.342020165525868,0.,0.939692612705696));
#399=DIRECTION('',(0.,0.,1.));
#400=DIRECTION('',(1.,0.,0.));
#401=DIRECTION('center_axis',(0.,1.,0.));
#402=DIRECTION('ref_axis',(-1.,0.,0.));
#403=DIRECTION('',(0.342020143325678,0.,0.939692620785905));
#404=DIRECTION('',(-0.939692620785905,0.,0.342020143325678));
#405=DIRECTION('',(0.,0.,1.));
#406=DIRECTION('',(0.,0.,1.));
#407=DIRECTION('center_axis',(0.342020143325679,0.,0.939692620785905));
#408=DIRECTION('ref_axis',(0.,-1.,0.));
#409=DIRECTION('',(0.,-1.,0.));
#410=DIRECTION('',(0.,-1.,0.));
#411=DIRECTION('',(0.939692620785905,0.,-0.342020143325678));
#412=DIRECTION('center_axis',(0.,-1.,0.));
#413=DIRECTION('ref_axis',(-0.342020143325673,0.,-0.939692620785907));
#414=DIRECTION('',(0.,0.,-1.));
#415=DIRECTION('',(1.,0.,0.));
#416=DIRECTION('center_axis',(0.939692620785905,0.,-0.342020143325679));
#417=DIRECTION('ref_axis',(-0.342020143325678,0.,-0.939692620785905));
#418=DIRECTION('center_axis',(0.,0.,1.));
#419=DIRECTION('ref_axis',(-1.,0.,0.));
#420=DIRECTION('',(0.,-1.,0.));
#421=DIRECTION('',(-1.,0.,0.));
#422=DIRECTION('',(0.,1.,0.));
#423=DIRECTION('center_axis',(1.,0.,0.));
#424=DIRECTION('ref_axis',(0.,1.,0.));
#425=DIRECTION('',(0.,0.,1.));
#426=DIRECTION('center_axis',(-1.,0.,0.));
#427=DIRECTION('ref_axis',(0.,-1.,0.));
#428=DIRECTION('',(0.,0.,1.));
#429=DIRECTION('center_axis',(0.,-1.,0.));
#430=DIRECTION('ref_axis',(1.,0.,0.));
#431=CARTESIAN_POINT('',(0.,0.,0.));
#432=CARTESIAN_POINT('Origin',(-41.0999990752334,10.4707174508902,37.2296127214376));
#433=CARTESIAN_POINT('',(-41.9999990752334,10.4707174508902,37.5));
#434=CARTESIAN_POINT('Origin',(-41.0999990752334,10.4707174508902,37.5));
#435=CARTESIAN_POINT('',(-41.0999990752334,10.4707174508902,36.9592254428752));
#436=CARTESIAN_POINT('',(-41.5499990752334,10.4707174508902,37.2296127214376));
#437=CARTESIAN_POINT('Origin',(-41.0999990752334,10.4707174508902,40.));
#438=CARTESIAN_POINT('',(-41.9999990752334,10.4707174508902,39.85));
#439=CARTESIAN_POINT('Origin',(-41.0999990752334,10.4707174508902,39.85));
#440=CARTESIAN_POINT('',(-41.9999990752334,10.4707174508902,40.));
#441=CARTESIAN_POINT('Origin',(-41.0999990798364,-5.55380198818664,37.2296127214376));
#442=CARTESIAN_POINT('',(-41.9999990798364,-5.55380198818664,37.5));
#443=CARTESIAN_POINT('Origin',(-41.0999990798364,-5.55380198818664,37.5));
#444=CARTESIAN_POINT('',(-41.0999990798364,-5.55380198818664,36.9592254428752));
#445=CARTESIAN_POINT('',(-41.5499990798364,-5.55380198818664,37.2296127214376));
#446=CARTESIAN_POINT('Origin',(-41.0999990798364,-5.55380198818664,40.));
#447=CARTESIAN_POINT('',(-41.9999990798364,-5.55380198818664,39.85));
#448=CARTESIAN_POINT('Origin',(-41.0999990798364,-5.55380198818664,39.85));
#449=CARTESIAN_POINT('',(-41.9999990798364,-5.55380198818664,40.));
#450=CARTESIAN_POINT('Origin',(-41.1250006106105,2.59000022351742,39.85));
#451=CARTESIAN_POINT('',(-44.6802981341752,-10.8199997913837,39.85));
#452=CARTESIAN_POINT('',(-37.5697030870458,-10.8199997913837,39.85));
#453=CARTESIAN_POINT('',(-37.5697030870458,-10.8199997913837,39.85));
#454=CARTESIAN_POINT('',(-37.5697030870458,16.0000002086163,39.85));
#455=CARTESIAN_POINT('',(-37.5697030870458,16.0000002384186,39.85));
#456=CARTESIAN_POINT('',(-44.6802981341752,16.0000002086163,39.85));
#457=CARTESIAN_POINT('',(-44.8602981341752,16.0000002086163,39.85));
#458=CARTESIAN_POINT('',(-44.6802981341752,-10.8199997913837,39.85));
#459=CARTESIAN_POINT('Origin',(-48.5000004768372,16.0000002086163,29.25));
#460=CARTESIAN_POINT('',(-48.1961723637754,16.0000002086163,29.25));
#461=CARTESIAN_POINT('',(-48.1961723637754,-10.7999997913837,29.25));
#462=CARTESIAN_POINT('',(-48.1961723637754,16.0000002086163,29.25));
#463=CARTESIAN_POINT('',(-34.0538285984173,16.0000002086163,29.25));
#464=CARTESIAN_POINT('',(-44.8125004768372,16.0000002086163,29.25));
#465=CARTESIAN_POINT('',(-34.0538285984173,-10.7999997913837,29.25));
#466=CARTESIAN_POINT('',(-34.0538285984173,16.0000002086163,29.25));
#467=CARTESIAN_POINT('',(-44.8125004768372,-10.7999997913837,29.25));
#468=CARTESIAN_POINT('Origin',(-41.1250004768372,-10.7999997913837,34.));
#469=CARTESIAN_POINT('',(-37.6025386433711,-10.7999997913837,39.));
#470=CARTESIAN_POINT('',(-35.1727791707279,-10.7999997913837,32.3242912049242));
#471=CARTESIAN_POINT('',(-44.64746257968,-10.7999997913837,39.));
#472=CARTESIAN_POINT('',(-39.3637696269908,-10.7999997913837,39.));
#473=CARTESIAN_POINT('',(-45.2573707112413,-10.7999997913837,37.3242911805931));
#474=CARTESIAN_POINT('Origin',(-33.937938999378,16.0000002086163,28.9315959668949));
#475=CARTESIAN_POINT('',(-37.6025386433711,16.0000002086163,39.));
#476=CARTESIAN_POINT('',(-35.1727791707279,16.0000002086163,32.3242912049242));
#477=CARTESIAN_POINT('',(-37.6025386433712,16.0000002086163,39.));
#478=CARTESIAN_POINT('Origin',(-37.5555540127359,-10.7999997913837,39.0171010082763));
#479=CARTESIAN_POINT('',(-37.5697030870458,-10.7999997913837,39.0119511660065));
#480=CARTESIAN_POINT('',(-37.5697030870458,16.0000002086163,39.0119511660065));
#481=CARTESIAN_POINT('',(-37.5697030870458,2.59000020861625,39.0119511660065));
#482=CARTESIAN_POINT('',(-37.5555540127359,-10.7999997913837,39.0171010082763));
#483=CARTESIAN_POINT('',(-39.9377368954332,16.0000002086163,38.1500572826614));
#484=CARTESIAN_POINT('Origin',(-33.9886454547314,-10.7999997913837,29.2171010082763));
#485=CARTESIAN_POINT('',(-37.5697030870458,-10.7999997913837,39.));
#486=CARTESIAN_POINT('',(-37.5697030870458,-10.7999997913837,39.));
#487=CARTESIAN_POINT('',(-39.3637696269908,-10.7999997913837,39.));
#488=CARTESIAN_POINT('Origin',(-41.1250004768372,16.0000002086163,34.));
#489=CARTESIAN_POINT('',(-44.64746257968,16.0000002086163,39.));
#490=CARTESIAN_POINT('',(-45.2573707112413,16.0000002086163,37.3242911805931));
#491=CARTESIAN_POINT('',(-44.6802981341752,16.0000002086163,39.0119511644619));
#492=CARTESIAN_POINT('',(-42.3122642273858,16.0000002086163,38.1500573086574));
#493=CARTESIAN_POINT('',(-44.6802981341752,16.0000002086163,39.));
#494=CARTESIAN_POINT('',(-37.5697030870458,16.0000002086163,39.));
#495=CARTESIAN_POINT('Origin',(-44.6944472107193,16.0000002086163,39.0171010071663));
#496=CARTESIAN_POINT('',(-44.6802981341752,-10.7999997913837,39.0119511644619));
#497=CARTESIAN_POINT('',(-44.6802981341752,2.60000020861626,39.0119511644619));
#498=CARTESIAN_POINT('',(-44.64746257968,2.50000020861626,39.));
#499=CARTESIAN_POINT('',(-44.6944472107193,-10.7999997913837,39.0171010071663));
#500=CARTESIAN_POINT('Origin',(-44.6944472107192,-10.7999997913837,39.0171010071662));
#501=CARTESIAN_POINT('',(-44.6802981341752,-10.7999997913837,39.));
#502=CARTESIAN_POINT('',(-44.6802981341752,-10.7999997913837,34.1));
#503=CARTESIAN_POINT('',(-39.3637696269908,-10.7999997913837,39.));
#504=CARTESIAN_POINT('Origin',(-44.6723596100179,16.0000002086163,38.9315959713348));
#505=CARTESIAN_POINT('Origin',(-41.1250006106105,2.59000022351742,39.));
#506=CARTESIAN_POINT('',(-37.5697030870458,-10.8199997913837,39.));
#507=CARTESIAN_POINT('',(-37.5697030870458,16.0000002384186,39.));
#508=CARTESIAN_POINT('',(-44.6802981341752,-10.8199997913837,39.));
#509=CARTESIAN_POINT('',(-37.5697030870458,-10.8199997913837,39.));
#510=CARTESIAN_POINT('',(-44.6802981341752,-10.8199997913837,39.));
#511=CARTESIAN_POINT('Origin',(-37.5697030870458,-10.8199997913837,39.));
#512=CARTESIAN_POINT('',(-37.5697030870458,-10.8199997913837,39.));
#513=CARTESIAN_POINT('Origin',(-44.6802981341752,16.0000002086163,39.));
#514=CARTESIAN_POINT('',(-44.6802981341752,-10.8199997913837,39.));
#515=CARTESIAN_POINT('Origin',(-44.6802981341752,-10.8199997913837,39.));
#516=UNCERTAINTY_MEASURE_WITH_UNIT(LENGTH_MEASURE(0.01),#520,
'DISTANCE_ACCURACY_VALUE',
'Maximum model space distance between geometric entities at asserted c
onnectivities');
#517=UNCERTAINTY_MEASURE_WITH_UNIT(LENGTH_MEASURE(0.01),#520,
'DISTANCE_ACCURACY_VALUE',
'Maximum model space distance between geometric entities at asserted c
onnectivities');
#518=(
GEOMETRIC_REPRESENTATION_CONTEXT(3)
GLOBAL_UNCERTAINTY_ASSIGNED_CONTEXT((#516))
GLOBAL_UNIT_ASSIGNED_CONTEXT((#520,#522,#523))
REPRESENTATION_CONTEXT('','3D')
);
#519=(
GEOMETRIC_REPRESENTATION_CONTEXT(3)
GLOBAL_UNCERTAINTY_ASSIGNED_CONTEXT((#517))
GLOBAL_UNIT_ASSIGNED_CONTEXT((#520,#522,#523))
REPRESENTATION_CONTEXT('','3D')
);
#520=(
LENGTH_UNIT()
NAMED_UNIT(*)
SI_UNIT(.MILLI.,.METRE.)
);
#521=(
LENGTH_UNIT()
NAMED_UNIT(*)
SI_UNIT($,.METRE.)
);
#522=(
NAMED_UNIT(*)
PLANE_ANGLE_UNIT()
SI_UNIT($,.RADIAN.)
);
#523=(
NAMED_UNIT(*)
SI_UNIT($,.STERADIAN.)
SOLID_ANGLE_UNIT()
);
#524=SHAPE_DEFINITION_REPRESENTATION(#525,#526);
#525=PRODUCT_DEFINITION_SHAPE('',$,#528);
#526=SHAPE_REPRESENTATION('',(#326),#518);
#527=PRODUCT_DEFINITION_CONTEXT('part definition',#532,'design');
#528=PRODUCT_DEFINITION('Dovetail Attachment','Dovetail Attachment v1',
#529,#527);
#529=PRODUCT_DEFINITION_FORMATION('',$,#534);
#530=PRODUCT_RELATED_PRODUCT_CATEGORY('Dovetail Attachment v1',
'Dovetail Attachment v1',(#534));
#531=APPLICATION_PROTOCOL_DEFINITION('international standard',
'automotive_design',2009,#532);
#532=APPLICATION_CONTEXT(
'Core Data for Automotive Mechanical Design Process');
#533=PRODUCT_CONTEXT('part definition',#532,'mechanical');
#534=PRODUCT('Dovetail Attachment','Dovetail Attachment v1',$,(#533));
#535=PRESENTATION_STYLE_ASSIGNMENT((#536));
#536=SURFACE_STYLE_USAGE(.BOTH.,#537);
#537=SURFACE_SIDE_STYLE('',(#538));
#538=SURFACE_STYLE_FILL_AREA(#539);
#539=FILL_AREA_STYLE('Steel - Satin',(#540));
#540=FILL_AREA_STYLE_COLOUR('Steel - Satin',#541);
#541=COLOUR_RGB('Steel - Satin',0.627450980392157,0.627450980392157,0.627450980392157);
ENDSEC;
END-ISO-10303-21;
