ISO-10303-21;
HEADER;
/* Generated by software containing ST-Developer
 * from STEP Tools, Inc. (www.steptools.com) 
 */

FILE_DESCRIPTION(
/* description */ (''),
/* implementation_level */ '2;1');

FILE_NAME(
/* name */ 'MiniArm Forearm Link v1.step',
/* time_stamp */ '2026-08-03T03:58:34+08:00',
/* author */ (''),
/* organization */ (''),
/* preprocessor_version */ 'ST-DEVELOPER v20.1',
/* originating_system */ 'Autodesk Translation Framework v15.8.0.0',
/* authorisation */ '');

FILE_SCHEMA (('AUTOMOTIVE_DESIGN { 1 0 10303 214 3 1 1 }'));
ENDSEC;

DATA;
#10=MECHANICAL_DESIGN_GEOMETRIC_PRESENTATION_REPRESENTATION('',(#13),#1779);
#11=SHAPE_REPRESENTATION_RELATIONSHIP('SRR','None',#1786,#12);
#12=ADVANCED_BREP_SHAPE_REPRESENTATION('',(#14),#1778);
#13=STYLED_ITEM('',(#1795),#14);
#14=MANIFOLD_SOLID_BREP('MiniArm Forearm Link',#1017);
#15=TOROIDAL_SURFACE('',#1064,3.5,1.);
#16=TOROIDAL_SURFACE('',#1068,3.3,0.8);
#17=B_SPLINE_CURVE_WITH_KNOTS('',3,(#1521,#1522,#1523,#1524,#1525,#1526,
#1527,#1528,#1529,#1530,#1531,#1532),.UNSPECIFIED.,.F.,.F.,(4,2,2,2,2,4),
(0.453727244199522,0.507857431007037,0.619289197039575,0.667760479258721,
0.697025576374685,0.716288099455065),.UNSPECIFIED.);
#18=B_SPLINE_CURVE_WITH_KNOTS('',3,(#1541,#1542,#1543,#1544,#1545,#1546,
#1547,#1548,#1549,#1550,#1551,#1552,#1553,#1554),.UNSPECIFIED.,.F.,.F.,
(4,2,2,2,2,2,4),(0.242988150090185,0.251013462140556,0.270446955672386,
0.29997719195671,0.354566045846657,0.439676762701992,0.462181246361237),
 .UNSPECIFIED.);
#19=B_SPLINE_CURVE_WITH_KNOTS('',3,(#1735,#1736,#1737,#1738,#1739,#1740,
#1741,#1742,#1743,#1744),.UNSPECIFIED.,.F.,.F.,(4,2,2,2,4),(0.702090095631926,
0.797448769766993,0.974848625268593,1.15224848077019,1.24760715490526),
 .UNSPECIFIED.);
#20=CYLINDRICAL_SURFACE('',#1050,0.925);
#21=CYLINDRICAL_SURFACE('',#1054,0.925);
#22=CYLINDRICAL_SURFACE('',#1061,13.5);
#23=CYLINDRICAL_SURFACE('',#1067,2.5);
#24=CYLINDRICAL_SURFACE('',#1073,2.5);
#25=CYLINDRICAL_SURFACE('',#1095,3.5);
#26=CYLINDRICAL_SURFACE('',#1098,3.50000000000001);
#27=CYLINDRICAL_SURFACE('',#1102,0.899999999999999);
#28=CYLINDRICAL_SURFACE('',#1103,0.899999999999999);
#29=CYLINDRICAL_SURFACE('',#1104,0.900000000000001);
#30=CYLINDRICAL_SURFACE('',#1105,3.65);
#31=CYLINDRICAL_SURFACE('',#1109,2.475);
#32=CYLINDRICAL_SURFACE('',#1115,3.5);
#33=CYLINDRICAL_SURFACE('',#1117,3.5);
#34=CYLINDRICAL_SURFACE('',#1119,2.75);
#35=CYLINDRICAL_SURFACE('',#1121,1.8);
#36=CYLINDRICAL_SURFACE('',#1123,1.);
#37=CYLINDRICAL_SURFACE('',#1128,1.);
#38=CYLINDRICAL_SURFACE('',#1131,5.95);
#39=CYLINDRICAL_SURFACE('',#1132,1.8);
#40=CYLINDRICAL_SURFACE('',#1133,0.95);
#41=CYLINDRICAL_SURFACE('',#1136,0.95);
#42=CYLINDRICAL_SURFACE('',#1140,13.5);
#43=CONICAL_SURFACE('',#1048,0.4625,1.02974425867665);
#44=CONICAL_SURFACE('',#1052,0.4625,1.02974425867665);
#45=FACE_BOUND('',#118,.T.);
#46=FACE_BOUND('',#119,.T.);
#47=FACE_BOUND('',#120,.T.);
#48=FACE_BOUND('',#122,.T.);
#49=FACE_BOUND('',#123,.T.);
#50=FACE_BOUND('',#124,.T.);
#51=FACE_BOUND('',#125,.T.);
#52=FACE_BOUND('',#126,.T.);
#53=FACE_BOUND('',#132,.T.);
#54=FACE_BOUND('',#134,.T.);
#55=FACE_BOUND('',#141,.T.);
#56=FACE_BOUND('',#142,.T.);
#57=FACE_BOUND('',#143,.T.);
#58=FACE_BOUND('',#145,.T.);
#59=FACE_BOUND('',#147,.T.);
#60=FACE_BOUND('',#168,.T.);
#61=FACE_OUTER_BOUND('',#117,.T.);
#62=FACE_OUTER_BOUND('',#121,.T.);
#63=FACE_OUTER_BOUND('',#127,.T.);
#64=FACE_OUTER_BOUND('',#128,.T.);
#65=FACE_OUTER_BOUND('',#129,.T.);
#66=FACE_OUTER_BOUND('',#130,.T.);
#67=FACE_OUTER_BOUND('',#131,.T.);
#68=FACE_OUTER_BOUND('',#133,.T.);
#69=FACE_OUTER_BOUND('',#135,.T.);
#70=FACE_OUTER_BOUND('',#136,.T.);
#71=FACE_OUTER_BOUND('',#137,.T.);
#72=FACE_OUTER_BOUND('',#138,.T.);
#73=FACE_OUTER_BOUND('',#139,.T.);
#74=FACE_OUTER_BOUND('',#140,.T.);
#75=FACE_OUTER_BOUND('',#144,.T.);
#76=FACE_OUTER_BOUND('',#146,.T.);
#77=FACE_OUTER_BOUND('',#148,.T.);
#78=FACE_OUTER_BOUND('',#149,.T.);
#79=FACE_OUTER_BOUND('',#150,.T.);
#80=FACE_OUTER_BOUND('',#151,.T.);
#81=FACE_OUTER_BOUND('',#152,.T.);
#82=FACE_OUTER_BOUND('',#153,.T.);
#83=FACE_OUTER_BOUND('',#154,.T.);
#84=FACE_OUTER_BOUND('',#155,.T.);
#85=FACE_OUTER_BOUND('',#156,.T.);
#86=FACE_OUTER_BOUND('',#157,.T.);
#87=FACE_OUTER_BOUND('',#158,.T.);
#88=FACE_OUTER_BOUND('',#159,.T.);
#89=FACE_OUTER_BOUND('',#160,.T.);
#90=FACE_OUTER_BOUND('',#161,.T.);
#91=FACE_OUTER_BOUND('',#162,.T.);
#92=FACE_OUTER_BOUND('',#163,.T.);
#93=FACE_OUTER_BOUND('',#164,.T.);
#94=FACE_OUTER_BOUND('',#165,.T.);
#95=FACE_OUTER_BOUND('',#166,.T.);
#96=FACE_OUTER_BOUND('',#167,.T.);
#97=FACE_OUTER_BOUND('',#169,.T.);
#98=FACE_OUTER_BOUND('',#170,.T.);
#99=FACE_OUTER_BOUND('',#171,.T.);
#100=FACE_OUTER_BOUND('',#172,.T.);
#101=FACE_OUTER_BOUND('',#173,.T.);
#102=FACE_OUTER_BOUND('',#174,.T.);
#103=FACE_OUTER_BOUND('',#175,.T.);
#104=FACE_OUTER_BOUND('',#176,.T.);
#105=FACE_OUTER_BOUND('',#177,.T.);
#106=FACE_OUTER_BOUND('',#178,.T.);
#107=FACE_OUTER_BOUND('',#179,.T.);
#108=FACE_OUTER_BOUND('',#180,.T.);
#109=FACE_OUTER_BOUND('',#181,.T.);
#110=FACE_OUTER_BOUND('',#182,.T.);
#111=FACE_OUTER_BOUND('',#183,.T.);
#112=FACE_OUTER_BOUND('',#184,.T.);
#113=FACE_OUTER_BOUND('',#185,.T.);
#114=FACE_OUTER_BOUND('',#186,.T.);
#115=FACE_OUTER_BOUND('',#187,.T.);
#116=FACE_OUTER_BOUND('',#188,.T.);
#117=EDGE_LOOP('',(#648,#649,#650,#651));
#118=EDGE_LOOP('',(#652));
#119=EDGE_LOOP('',(#653));
#120=EDGE_LOOP('',(#654));
#121=EDGE_LOOP('',(#655,#656,#657,#658));
#122=EDGE_LOOP('',(#659));
#123=EDGE_LOOP('',(#660));
#124=EDGE_LOOP('',(#661,#662,#663,#664));
#125=EDGE_LOOP('',(#665));
#126=EDGE_LOOP('',(#666));
#127=EDGE_LOOP('',(#667,#668,#669));
#128=EDGE_LOOP('',(#670,#671,#672,#673));
#129=EDGE_LOOP('',(#674,#675,#676));
#130=EDGE_LOOP('',(#677,#678,#679,#680));
#131=EDGE_LOOP('',(#681,#682));
#132=EDGE_LOOP('',(#683));
#133=EDGE_LOOP('',(#684));
#134=EDGE_LOOP('',(#685));
#135=EDGE_LOOP('',(#686,#687,#688,#689,#690,#691,#692,#693,#694,#695));
#136=EDGE_LOOP('',(#696,#697,#698,#699));
#137=EDGE_LOOP('',(#700,#701,#702,#703));
#138=EDGE_LOOP('',(#704,#705,#706,#707,#708));
#139=EDGE_LOOP('',(#709,#710,#711,#712,#713));
#140=EDGE_LOOP('',(#714,#715,#716,#717,#718,#719));
#141=EDGE_LOOP('',(#720,#721,#722,#723,#724,#725,#726,#727));
#142=EDGE_LOOP('',(#728,#729,#730,#731,#732,#733,#734,#735));
#143=EDGE_LOOP('',(#736));
#144=EDGE_LOOP('',(#737,#738,#739,#740));
#145=EDGE_LOOP('',(#741));
#146=EDGE_LOOP('',(#742,#743,#744,#745));
#147=EDGE_LOOP('',(#746));
#148=EDGE_LOOP('',(#747,#748,#749,#750));
#149=EDGE_LOOP('',(#751,#752,#753,#754));
#150=EDGE_LOOP('',(#755,#756,#757,#758));
#151=EDGE_LOOP('',(#759,#760,#761,#762));
#152=EDGE_LOOP('',(#763,#764,#765,#766,#767,#768));
#153=EDGE_LOOP('',(#769,#770,#771,#772,#773,#774));
#154=EDGE_LOOP('',(#775,#776,#777,#778));
#155=EDGE_LOOP('',(#779,#780,#781,#782));
#156=EDGE_LOOP('',(#783,#784,#785,#786));
#157=EDGE_LOOP('',(#787,#788,#789,#790));
#158=EDGE_LOOP('',(#791,#792,#793,#794));
#159=EDGE_LOOP('',(#795,#796,#797,#798));
#160=EDGE_LOOP('',(#799,#800,#801,#802));
#161=EDGE_LOOP('',(#803,#804,#805,#806));
#162=EDGE_LOOP('',(#807,#808,#809,#810));
#163=EDGE_LOOP('',(#811,#812,#813,#814,#815,#816,#817,#818));
#164=EDGE_LOOP('',(#819,#820,#821,#822));
#165=EDGE_LOOP('',(#823,#824,#825,#826));
#166=EDGE_LOOP('',(#827,#828,#829,#830));
#167=EDGE_LOOP('',(#831,#832,#833,#834,#835,#836,#837,#838));
#168=EDGE_LOOP('',(#839,#840,#841,#842,#843));
#169=EDGE_LOOP('',(#844,#845,#846,#847));
#170=EDGE_LOOP('',(#848,#849,#850,#851));
#171=EDGE_LOOP('',(#852,#853,#854,#855));
#172=EDGE_LOOP('',(#856,#857,#858,#859));
#173=EDGE_LOOP('',(#860,#861,#862,#863));
#174=EDGE_LOOP('',(#864,#865,#866,#867));
#175=EDGE_LOOP('',(#868,#869,#870,#871,#872,#873));
#176=EDGE_LOOP('',(#874,#875,#876,#877,#878,#879,#880,#881,#882,#883));
#177=EDGE_LOOP('',(#884,#885,#886,#887));
#178=EDGE_LOOP('',(#888,#889,#890,#891,#892,#893));
#179=EDGE_LOOP('',(#894,#895,#896,#897,#898,#899));
#180=EDGE_LOOP('',(#900,#901,#902,#903,#904,#905));
#181=EDGE_LOOP('',(#906,#907,#908,#909));
#182=EDGE_LOOP('',(#910,#911,#912,#913));
#183=EDGE_LOOP('',(#914));
#184=EDGE_LOOP('',(#915,#916,#917,#918));
#185=EDGE_LOOP('',(#919));
#186=EDGE_LOOP('',(#920,#921,#922,#923));
#187=EDGE_LOOP('',(#924,#925,#926,#927));
#188=EDGE_LOOP('',(#928,#929,#930,#931));
#189=CIRCLE('',#1032,3.65);
#190=CIRCLE('',#1033,2.475);
#191=CIRCLE('',#1034,0.899999999999999);
#192=CIRCLE('',#1035,0.899999999999999);
#193=CIRCLE('',#1036,0.900000000000001);
#194=CIRCLE('',#1038,13.5);
#195=CIRCLE('',#1039,13.5);
#196=CIRCLE('',#1040,3.65);
#197=CIRCLE('',#1041,0.899999999999999);
#198=CIRCLE('',#1042,2.75);
#199=CIRCLE('',#1043,1.8);
#200=CIRCLE('',#1044,5.95);
#201=CIRCLE('',#1045,1.8);
#202=CIRCLE('',#1046,0.899999999999999);
#203=CIRCLE('',#1047,0.900000000000001);
#204=CIRCLE('',#1049,0.925);
#205=CIRCLE('',#1051,0.925);
#206=CIRCLE('',#1053,0.925);
#207=CIRCLE('',#1055,0.925);
#208=CIRCLE('',#1057,13.5);
#209=CIRCLE('',#1058,2.5);
#210=CIRCLE('',#1060,2.5);
#211=CIRCLE('',#1062,13.5);
#212=CIRCLE('',#1063,13.5);
#213=CIRCLE('',#1065,2.5);
#214=CIRCLE('',#1066,3.5);
#215=CIRCLE('',#1069,2.5);
#216=CIRCLE('',#1070,0.8);
#217=CIRCLE('',#1071,3.3);
#218=CIRCLE('',#1072,2.5);
#219=CIRCLE('',#1075,13.5);
#220=CIRCLE('',#1076,3.50000000000001);
#221=CIRCLE('',#1077,3.5);
#222=CIRCLE('',#1078,3.5);
#223=CIRCLE('',#1079,3.5);
#224=CIRCLE('',#1081,0.95);
#225=CIRCLE('',#1083,0.95);
#226=CIRCLE('',#1089,1.);
#227=CIRCLE('',#1090,1.);
#228=CIRCLE('',#1092,1.);
#229=CIRCLE('',#1093,1.);
#230=CIRCLE('',#1096,3.5);
#231=CIRCLE('',#1099,3.50000000000001);
#232=CIRCLE('',#1106,3.65);
#233=CIRCLE('',#1107,3.65);
#234=CIRCLE('',#1110,2.475);
#235=CIRCLE('',#1113,3.5);
#236=CIRCLE('',#1114,3.5);
#237=CIRCLE('',#1120,2.75);
#238=CIRCLE('',#1122,1.8);
#239=CIRCLE('',#1125,5.95);
#240=CIRCLE('',#1126,1.8);
#241=CIRCLE('',#1127,5.95);
#242=CIRCLE('',#1134,0.95);
#243=CIRCLE('',#1137,0.95);
#244=LINE('',#1454,#328);
#245=LINE('',#1458,#329);
#246=LINE('',#1471,#330);
#247=LINE('',#1474,#331);
#248=LINE('',#1495,#332);
#249=LINE('',#1499,#333);
#250=LINE('',#1504,#334);
#251=LINE('',#1508,#335);
#252=LINE('',#1519,#336);
#253=LINE('',#1535,#337);
#254=LINE('',#1537,#338);
#255=LINE('',#1555,#339);
#256=LINE('',#1569,#340);
#257=LINE('',#1572,#341);
#258=LINE('',#1575,#342);
#259=LINE('',#1578,#343);
#260=LINE('',#1582,#344);
#261=LINE('',#1586,#345);
#262=LINE('',#1590,#346);
#263=LINE('',#1594,#347);
#264=LINE('',#1596,#348);
#265=LINE('',#1598,#349);
#266=LINE('',#1600,#350);
#267=LINE('',#1602,#351);
#268=LINE('',#1604,#352);
#269=LINE('',#1606,#353);
#270=LINE('',#1607,#354);
#271=LINE('',#1611,#355);
#272=LINE('',#1613,#356);
#273=LINE('',#1615,#357);
#274=LINE('',#1616,#358);
#275=LINE('',#1622,#359);
#276=LINE('',#1624,#360);
#277=LINE('',#1626,#361);
#278=LINE('',#1627,#362);
#279=LINE('',#1631,#363);
#280=LINE('',#1632,#364);
#281=LINE('',#1634,#365);
#282=LINE('',#1636,#366);
#283=LINE('',#1637,#367);
#284=LINE('',#1639,#368);
#285=LINE('',#1642,#369);
#286=LINE('',#1646,#370);
#287=LINE('',#1649,#371);
#288=LINE('',#1652,#372);
#289=LINE('',#1654,#373);
#290=LINE('',#1658,#374);
#291=LINE('',#1662,#375);
#292=LINE('',#1664,#376);
#293=LINE('',#1665,#377);
#294=LINE('',#1668,#378);
#295=LINE('',#1672,#379);
#296=LINE('',#1673,#380);
#297=LINE('',#1676,#381);
#298=LINE('',#1679,#382);
#299=LINE('',#1682,#383);
#300=LINE('',#1683,#384);
#301=LINE('',#1685,#385);
#302=LINE('',#1687,#386);
#303=LINE('',#1689,#387);
#304=LINE('',#1692,#388);
#305=LINE('',#1695,#389);
#306=LINE('',#1697,#390);
#307=LINE('',#1701,#391);
#308=LINE('',#1702,#392);
#309=LINE('',#1706,#393);
#310=LINE('',#1708,#394);
#311=LINE('',#1713,#395);
#312=LINE('',#1716,#396);
#313=LINE('',#1718,#397);
#314=LINE('',#1721,#398);
#315=LINE('',#1724,#399);
#316=LINE('',#1727,#400);
#317=LINE('',#1730,#401);
#318=LINE('',#1745,#402);
#319=LINE('',#1746,#403);
#320=LINE('',#1747,#404);
#321=LINE('',#1753,#405);
#322=LINE('',#1755,#406);
#323=LINE('',#1759,#407);
#324=LINE('',#1763,#408);
#325=LINE('',#1768,#409);
#326=LINE('',#1772,#410);
#327=LINE('',#1774,#411);
#328=VECTOR('',#1146,10.);
#329=VECTOR('',#1149,10.);
#330=VECTOR('',#1162,10.);
#331=VECTOR('',#1165,10.);
#332=VECTOR('',#1186,0.4625);
#333=VECTOR('',#1191,0.925);
#334=VECTOR('',#1196,0.4625);
#335=VECTOR('',#1201,0.925);
#336=VECTOR('',#1214,10.);
#337=VECTOR('',#1217,10.);
#338=VECTOR('',#1218,10.);
#339=VECTOR('',#1221,10.);
#340=VECTOR('',#1242,2.5);
#341=VECTOR('',#1245,10.);
#342=VECTOR('',#1248,10.);
#343=VECTOR('',#1249,10.);
#344=VECTOR('',#1252,10.);
#345=VECTOR('',#1255,10.);
#346=VECTOR('',#1258,10.);
#347=VECTOR('',#1261,10.);
#348=VECTOR('',#1262,10.);
#349=VECTOR('',#1263,10.);
#350=VECTOR('',#1264,10.);
#351=VECTOR('',#1265,10.);
#352=VECTOR('',#1266,10.);
#353=VECTOR('',#1267,10.);
#354=VECTOR('',#1268,10.);
#355=VECTOR('',#1271,10.);
#356=VECTOR('',#1272,10.);
#357=VECTOR('',#1273,10.);
#358=VECTOR('',#1274,10.);
#359=VECTOR('',#1279,10.);
#360=VECTOR('',#1280,10.);
#361=VECTOR('',#1281,10.);
#362=VECTOR('',#1282,10.);
#363=VECTOR('',#1287,10.);
#364=VECTOR('',#1288,10.);
#365=VECTOR('',#1291,10.);
#366=VECTOR('',#1294,10.);
#367=VECTOR('',#1295,10.);
#368=VECTOR('',#1298,10.);
#369=VECTOR('',#1301,10.);
#370=VECTOR('',#1304,10.);
#371=VECTOR('',#1307,10.);
#372=VECTOR('',#1310,10.);
#373=VECTOR('',#1311,10.);
#374=VECTOR('',#1314,10.);
#375=VECTOR('',#1319,10.);
#376=VECTOR('',#1320,10.);
#377=VECTOR('',#1321,10.);
#378=VECTOR('',#1324,10.);
#379=VECTOR('',#1329,10.);
#380=VECTOR('',#1330,10.);
#381=VECTOR('',#1333,10.);
#382=VECTOR('',#1338,10.);
#383=VECTOR('',#1341,10.);
#384=VECTOR('',#1342,10.);
#385=VECTOR('',#1345,0.899999999999999);
#386=VECTOR('',#1348,0.899999999999999);
#387=VECTOR('',#1351,0.900000000000001);
#388=VECTOR('',#1354,3.65);
#389=VECTOR('',#1357,10.);
#390=VECTOR('',#1358,10.);
#391=VECTOR('',#1363,10.);
#392=VECTOR('',#1364,10.);
#393=VECTOR('',#1369,10.);
#394=VECTOR('',#1372,10.);
#395=VECTOR('',#1377,10.);
#396=VECTOR('',#1382,10.);
#397=VECTOR('',#1385,10.);
#398=VECTOR('',#1390,10.);
#399=VECTOR('',#1393,10.);
#400=VECTOR('',#1396,10.);
#401=VECTOR('',#1399,10.);
#402=VECTOR('',#1404,10.);
#403=VECTOR('',#1405,10.);
#404=VECTOR('',#1406,10.);
#405=VECTOR('',#1415,10.);
#406=VECTOR('',#1418,10.);
#407=VECTOR('',#1425,10.);
#408=VECTOR('',#1430,0.95);
#409=VECTOR('',#1437,0.95);
#410=VECTOR('',#1444,10.);
#411=VECTOR('',#1447,10.);
#412=VERTEX_POINT('',#1452);
#413=VERTEX_POINT('',#1453);
#414=VERTEX_POINT('',#1455);
#415=VERTEX_POINT('',#1457);
#416=VERTEX_POINT('',#1460);
#417=VERTEX_POINT('',#1462);
#418=VERTEX_POINT('',#1464);
#419=VERTEX_POINT('',#1467);
#420=VERTEX_POINT('',#1468);
#421=VERTEX_POINT('',#1470);
#422=VERTEX_POINT('',#1472);
#423=VERTEX_POINT('',#1475);
#424=VERTEX_POINT('',#1477);
#425=VERTEX_POINT('',#1479);
#426=VERTEX_POINT('',#1480);
#427=VERTEX_POINT('',#1482);
#428=VERTEX_POINT('',#1484);
#429=VERTEX_POINT('',#1487);
#430=VERTEX_POINT('',#1489);
#431=VERTEX_POINT('',#1492);
#432=VERTEX_POINT('',#1494);
#433=VERTEX_POINT('',#1497);
#434=VERTEX_POINT('',#1501);
#435=VERTEX_POINT('',#1503);
#436=VERTEX_POINT('',#1506);
#437=VERTEX_POINT('',#1510);
#438=VERTEX_POINT('',#1511);
#439=VERTEX_POINT('',#1515);
#440=VERTEX_POINT('',#1518);
#441=VERTEX_POINT('',#1520);
#442=VERTEX_POINT('',#1533);
#443=VERTEX_POINT('',#1536);
#444=VERTEX_POINT('',#1538);
#445=VERTEX_POINT('',#1540);
#446=VERTEX_POINT('',#1561);
#447=VERTEX_POINT('',#1562);
#448=VERTEX_POINT('',#1564);
#449=VERTEX_POINT('',#1571);
#450=VERTEX_POINT('',#1573);
#451=VERTEX_POINT('',#1576);
#452=VERTEX_POINT('',#1577);
#453=VERTEX_POINT('',#1579);
#454=VERTEX_POINT('',#1581);
#455=VERTEX_POINT('',#1583);
#456=VERTEX_POINT('',#1585);
#457=VERTEX_POINT('',#1587);
#458=VERTEX_POINT('',#1589);
#459=VERTEX_POINT('',#1592);
#460=VERTEX_POINT('',#1593);
#461=VERTEX_POINT('',#1595);
#462=VERTEX_POINT('',#1597);
#463=VERTEX_POINT('',#1599);
#464=VERTEX_POINT('',#1601);
#465=VERTEX_POINT('',#1603);
#466=VERTEX_POINT('',#1605);
#467=VERTEX_POINT('',#1609);
#468=VERTEX_POINT('',#1610);
#469=VERTEX_POINT('',#1612);
#470=VERTEX_POINT('',#1614);
#471=VERTEX_POINT('',#1617);
#472=VERTEX_POINT('',#1620);
#473=VERTEX_POINT('',#1621);
#474=VERTEX_POINT('',#1623);
#475=VERTEX_POINT('',#1625);
#476=VERTEX_POINT('',#1628);
#477=VERTEX_POINT('',#1641);
#478=VERTEX_POINT('',#1643);
#479=VERTEX_POINT('',#1645);
#480=VERTEX_POINT('',#1647);
#481=VERTEX_POINT('',#1651);
#482=VERTEX_POINT('',#1653);
#483=VERTEX_POINT('',#1655);
#484=VERTEX_POINT('',#1657);
#485=VERTEX_POINT('',#1661);
#486=VERTEX_POINT('',#1663);
#487=VERTEX_POINT('',#1667);
#488=VERTEX_POINT('',#1671);
#489=VERTEX_POINT('',#1675);
#490=VERTEX_POINT('',#1681);
#491=VERTEX_POINT('',#1691);
#492=VERTEX_POINT('',#1693);
#493=VERTEX_POINT('',#1696);
#494=VERTEX_POINT('',#1700);
#495=VERTEX_POINT('',#1704);
#496=VERTEX_POINT('',#1710);
#497=VERTEX_POINT('',#1712);
#498=VERTEX_POINT('',#1723);
#499=VERTEX_POINT('',#1725);
#500=VERTEX_POINT('',#1729);
#501=VERTEX_POINT('',#1733);
#502=VERTEX_POINT('',#1734);
#503=VERTEX_POINT('',#1749);
#504=VERTEX_POINT('',#1762);
#505=VERTEX_POINT('',#1767);
#506=EDGE_CURVE('',#412,#413,#244,.T.);
#507=EDGE_CURVE('',#412,#414,#189,.T.);
#508=EDGE_CURVE('',#415,#414,#245,.T.);
#509=EDGE_CURVE('',#413,#415,#190,.T.);
#510=EDGE_CURVE('',#416,#416,#191,.T.);
#511=EDGE_CURVE('',#417,#417,#192,.T.);
#512=EDGE_CURVE('',#418,#418,#193,.T.);
#513=EDGE_CURVE('',#419,#420,#194,.T.);
#514=EDGE_CURVE('',#420,#421,#246,.T.);
#515=EDGE_CURVE('',#421,#422,#195,.T.);
#516=EDGE_CURVE('',#422,#419,#247,.T.);
#517=EDGE_CURVE('',#423,#423,#196,.T.);
#518=EDGE_CURVE('',#424,#424,#197,.T.);
#519=EDGE_CURVE('',#425,#426,#198,.T.);
#520=EDGE_CURVE('',#426,#427,#199,.T.);
#521=EDGE_CURVE('',#427,#428,#200,.T.);
#522=EDGE_CURVE('',#428,#425,#201,.T.);
#523=EDGE_CURVE('',#429,#429,#202,.T.);
#524=EDGE_CURVE('',#430,#430,#203,.T.);
#525=EDGE_CURVE('',#431,#431,#204,.T.);
#526=EDGE_CURVE('',#431,#432,#248,.T.);
#527=EDGE_CURVE('',#433,#433,#205,.T.);
#528=EDGE_CURVE('',#433,#431,#249,.T.);
#529=EDGE_CURVE('',#434,#434,#206,.T.);
#530=EDGE_CURVE('',#434,#435,#250,.T.);
#531=EDGE_CURVE('',#436,#436,#207,.T.);
#532=EDGE_CURVE('',#436,#434,#251,.T.);
#533=EDGE_CURVE('',#437,#438,#208,.T.);
#534=EDGE_CURVE('',#438,#437,#209,.T.);
#535=EDGE_CURVE('',#439,#439,#210,.T.);
#536=EDGE_CURVE('',#440,#437,#252,.T.);
#537=EDGE_CURVE('',#441,#440,#17,.T.);
#538=EDGE_CURVE('',#442,#441,#211,.T.);
#539=EDGE_CURVE('',#442,#420,#253,.T.);
#540=EDGE_CURVE('',#443,#419,#254,.T.);
#541=EDGE_CURVE('',#444,#443,#212,.T.);
#542=EDGE_CURVE('',#445,#444,#18,.T.);
#543=EDGE_CURVE('',#438,#445,#255,.T.);
#544=EDGE_CURVE('',#440,#445,#213,.T.);
#545=EDGE_CURVE('',#444,#441,#214,.T.);
#546=EDGE_CURVE('',#446,#447,#215,.T.);
#547=EDGE_CURVE('',#447,#448,#216,.T.);
#548=EDGE_CURVE('',#448,#448,#217,.T.);
#549=EDGE_CURVE('',#447,#446,#218,.T.);
#550=EDGE_CURVE('',#446,#439,#256,.T.);
#551=EDGE_CURVE('',#443,#449,#257,.T.);
#552=EDGE_CURVE('',#449,#450,#219,.T.);
#553=EDGE_CURVE('',#450,#442,#258,.T.);
#554=EDGE_CURVE('',#451,#452,#259,.T.);
#555=EDGE_CURVE('',#453,#451,#220,.T.);
#556=EDGE_CURVE('',#454,#453,#260,.T.);
#557=EDGE_CURVE('',#455,#454,#221,.T.);
#558=EDGE_CURVE('',#456,#455,#261,.T.);
#559=EDGE_CURVE('',#457,#456,#222,.T.);
#560=EDGE_CURVE('',#458,#457,#262,.T.);
#561=EDGE_CURVE('',#452,#458,#223,.T.);
#562=EDGE_CURVE('',#459,#460,#263,.T.);
#563=EDGE_CURVE('',#459,#461,#264,.T.);
#564=EDGE_CURVE('',#462,#461,#265,.T.);
#565=EDGE_CURVE('',#463,#462,#266,.T.);
#566=EDGE_CURVE('',#464,#463,#267,.T.);
#567=EDGE_CURVE('',#464,#465,#268,.T.);
#568=EDGE_CURVE('',#466,#465,#269,.T.);
#569=EDGE_CURVE('',#460,#466,#270,.T.);
#570=EDGE_CURVE('',#467,#468,#271,.T.);
#571=EDGE_CURVE('',#469,#467,#272,.T.);
#572=EDGE_CURVE('',#470,#469,#273,.T.);
#573=EDGE_CURVE('',#468,#470,#274,.T.);
#574=EDGE_CURVE('',#471,#471,#224,.T.);
#575=EDGE_CURVE('',#472,#473,#275,.T.);
#576=EDGE_CURVE('',#474,#472,#276,.T.);
#577=EDGE_CURVE('',#475,#474,#277,.T.);
#578=EDGE_CURVE('',#473,#475,#278,.T.);
#579=EDGE_CURVE('',#476,#476,#225,.T.);
#580=EDGE_CURVE('',#463,#467,#279,.T.);
#581=EDGE_CURVE('',#462,#469,#280,.T.);
#582=EDGE_CURVE('',#464,#468,#281,.T.);
#583=EDGE_CURVE('',#466,#473,#282,.T.);
#584=EDGE_CURVE('',#465,#472,#283,.T.);
#585=EDGE_CURVE('',#460,#475,#284,.T.);
#586=EDGE_CURVE('',#477,#459,#285,.T.);
#587=EDGE_CURVE('',#478,#477,#226,.T.);
#588=EDGE_CURVE('',#479,#478,#286,.F.);
#589=EDGE_CURVE('',#480,#479,#227,.T.);
#590=EDGE_CURVE('',#480,#461,#287,.T.);
#591=EDGE_CURVE('',#481,#465,#288,.T.);
#592=EDGE_CURVE('',#482,#464,#289,.T.);
#593=EDGE_CURVE('',#483,#482,#228,.T.);
#594=EDGE_CURVE('',#484,#483,#290,.F.);
#595=EDGE_CURVE('',#481,#484,#229,.T.);
#596=EDGE_CURVE('',#485,#455,#291,.T.);
#597=EDGE_CURVE('',#485,#486,#292,.T.);
#598=EDGE_CURVE('',#486,#456,#293,.T.);
#599=EDGE_CURVE('',#487,#454,#294,.T.);
#600=EDGE_CURVE('',#485,#487,#230,.T.);
#601=EDGE_CURVE('',#488,#453,#295,.T.);
#602=EDGE_CURVE('',#488,#487,#296,.T.);
#603=EDGE_CURVE('',#489,#451,#297,.T.);
#604=EDGE_CURVE('',#488,#489,#231,.T.);
#605=EDGE_CURVE('',#461,#470,#298,.T.);
#606=EDGE_CURVE('',#490,#452,#299,.T.);
#607=EDGE_CURVE('',#490,#489,#300,.T.);
#608=EDGE_CURVE('',#416,#429,#301,.T.);
#609=EDGE_CURVE('',#417,#424,#302,.T.);
#610=EDGE_CURVE('',#418,#430,#303,.T.);
#611=EDGE_CURVE('',#423,#491,#304,.T.);
#612=EDGE_CURVE('',#492,#491,#232,.T.);
#613=EDGE_CURVE('',#492,#414,#305,.T.);
#614=EDGE_CURVE('',#412,#493,#306,.T.);
#615=EDGE_CURVE('',#491,#493,#233,.T.);
#616=EDGE_CURVE('',#494,#492,#307,.T.);
#617=EDGE_CURVE('',#494,#415,#308,.T.);
#618=EDGE_CURVE('',#495,#494,#234,.T.);
#619=EDGE_CURVE('',#495,#413,#309,.T.);
#620=EDGE_CURVE('',#493,#495,#310,.T.);
#621=EDGE_CURVE('',#490,#496,#235,.T.);
#622=EDGE_CURVE('',#497,#496,#311,.T.);
#623=EDGE_CURVE('',#497,#486,#236,.T.);
#624=EDGE_CURVE('',#496,#458,#312,.T.);
#625=EDGE_CURVE('',#497,#457,#313,.T.);
#626=EDGE_CURVE('',#459,#474,#314,.T.);
#627=EDGE_CURVE('',#498,#425,#315,.T.);
#628=EDGE_CURVE('',#499,#498,#237,.F.);
#629=EDGE_CURVE('',#426,#499,#316,.T.);
#630=EDGE_CURVE('',#428,#500,#317,.T.);
#631=EDGE_CURVE('',#500,#498,#238,.T.);
#632=EDGE_CURVE('',#501,#502,#19,.F.);
#633=EDGE_CURVE('',#501,#483,#318,.T.);
#634=EDGE_CURVE('',#482,#480,#319,.T.);
#635=EDGE_CURVE('',#479,#502,#320,.T.);
#636=EDGE_CURVE('',#501,#503,#239,.F.);
#637=EDGE_CURVE('',#499,#503,#240,.T.);
#638=EDGE_CURVE('',#500,#502,#241,.F.);
#639=EDGE_CURVE('',#484,#478,#321,.T.);
#640=EDGE_CURVE('',#477,#481,#322,.T.);
#641=EDGE_CURVE('',#503,#427,#323,.T.);
#642=EDGE_CURVE('',#476,#504,#324,.T.);
#643=EDGE_CURVE('',#504,#504,#242,.T.);
#644=EDGE_CURVE('',#471,#505,#325,.T.);
#645=EDGE_CURVE('',#505,#505,#243,.T.);
#646=EDGE_CURVE('',#449,#422,#326,.T.);
#647=EDGE_CURVE('',#450,#421,#327,.T.);
#648=ORIENTED_EDGE('',*,*,#506,.F.);
#649=ORIENTED_EDGE('',*,*,#507,.T.);
#650=ORIENTED_EDGE('',*,*,#508,.F.);
#651=ORIENTED_EDGE('',*,*,#509,.F.);
#652=ORIENTED_EDGE('',*,*,#510,.T.);
#653=ORIENTED_EDGE('',*,*,#511,.T.);
#654=ORIENTED_EDGE('',*,*,#512,.T.);
#655=ORIENTED_EDGE('',*,*,#513,.T.);
#656=ORIENTED_EDGE('',*,*,#514,.T.);
#657=ORIENTED_EDGE('',*,*,#515,.T.);
#658=ORIENTED_EDGE('',*,*,#516,.T.);
#659=ORIENTED_EDGE('',*,*,#517,.T.);
#660=ORIENTED_EDGE('',*,*,#518,.T.);
#661=ORIENTED_EDGE('',*,*,#519,.T.);
#662=ORIENTED_EDGE('',*,*,#520,.T.);
#663=ORIENTED_EDGE('',*,*,#521,.T.);
#664=ORIENTED_EDGE('',*,*,#522,.T.);
#665=ORIENTED_EDGE('',*,*,#523,.T.);
#666=ORIENTED_EDGE('',*,*,#524,.T.);
#667=ORIENTED_EDGE('',*,*,#525,.F.);
#668=ORIENTED_EDGE('',*,*,#526,.T.);
#669=ORIENTED_EDGE('',*,*,#526,.F.);
#670=ORIENTED_EDGE('',*,*,#527,.F.);
#671=ORIENTED_EDGE('',*,*,#528,.T.);
#672=ORIENTED_EDGE('',*,*,#525,.T.);
#673=ORIENTED_EDGE('',*,*,#528,.F.);
#674=ORIENTED_EDGE('',*,*,#529,.F.);
#675=ORIENTED_EDGE('',*,*,#530,.T.);
#676=ORIENTED_EDGE('',*,*,#530,.F.);
#677=ORIENTED_EDGE('',*,*,#531,.F.);
#678=ORIENTED_EDGE('',*,*,#532,.T.);
#679=ORIENTED_EDGE('',*,*,#529,.T.);
#680=ORIENTED_EDGE('',*,*,#532,.F.);
#681=ORIENTED_EDGE('',*,*,#533,.T.);
#682=ORIENTED_EDGE('',*,*,#534,.T.);
#683=ORIENTED_EDGE('',*,*,#527,.T.);
#684=ORIENTED_EDGE('',*,*,#535,.T.);
#685=ORIENTED_EDGE('',*,*,#531,.T.);
#686=ORIENTED_EDGE('',*,*,#536,.F.);
#687=ORIENTED_EDGE('',*,*,#537,.F.);
#688=ORIENTED_EDGE('',*,*,#538,.F.);
#689=ORIENTED_EDGE('',*,*,#539,.T.);
#690=ORIENTED_EDGE('',*,*,#513,.F.);
#691=ORIENTED_EDGE('',*,*,#540,.F.);
#692=ORIENTED_EDGE('',*,*,#541,.F.);
#693=ORIENTED_EDGE('',*,*,#542,.F.);
#694=ORIENTED_EDGE('',*,*,#543,.F.);
#695=ORIENTED_EDGE('',*,*,#533,.F.);
#696=ORIENTED_EDGE('',*,*,#537,.T.);
#697=ORIENTED_EDGE('',*,*,#544,.T.);
#698=ORIENTED_EDGE('',*,*,#542,.T.);
#699=ORIENTED_EDGE('',*,*,#545,.T.);
#700=ORIENTED_EDGE('',*,*,#543,.T.);
#701=ORIENTED_EDGE('',*,*,#544,.F.);
#702=ORIENTED_EDGE('',*,*,#536,.T.);
#703=ORIENTED_EDGE('',*,*,#534,.F.);
#704=ORIENTED_EDGE('',*,*,#546,.T.);
#705=ORIENTED_EDGE('',*,*,#547,.T.);
#706=ORIENTED_EDGE('',*,*,#548,.T.);
#707=ORIENTED_EDGE('',*,*,#547,.F.);
#708=ORIENTED_EDGE('',*,*,#549,.T.);
#709=ORIENTED_EDGE('',*,*,#546,.F.);
#710=ORIENTED_EDGE('',*,*,#550,.T.);
#711=ORIENTED_EDGE('',*,*,#535,.F.);
#712=ORIENTED_EDGE('',*,*,#550,.F.);
#713=ORIENTED_EDGE('',*,*,#549,.F.);
#714=ORIENTED_EDGE('',*,*,#545,.F.);
#715=ORIENTED_EDGE('',*,*,#541,.T.);
#716=ORIENTED_EDGE('',*,*,#551,.T.);
#717=ORIENTED_EDGE('',*,*,#552,.T.);
#718=ORIENTED_EDGE('',*,*,#553,.T.);
#719=ORIENTED_EDGE('',*,*,#538,.T.);
#720=ORIENTED_EDGE('',*,*,#554,.F.);
#721=ORIENTED_EDGE('',*,*,#555,.F.);
#722=ORIENTED_EDGE('',*,*,#556,.F.);
#723=ORIENTED_EDGE('',*,*,#557,.F.);
#724=ORIENTED_EDGE('',*,*,#558,.F.);
#725=ORIENTED_EDGE('',*,*,#559,.F.);
#726=ORIENTED_EDGE('',*,*,#560,.F.);
#727=ORIENTED_EDGE('',*,*,#561,.F.);
#728=ORIENTED_EDGE('',*,*,#562,.F.);
#729=ORIENTED_EDGE('',*,*,#563,.T.);
#730=ORIENTED_EDGE('',*,*,#564,.F.);
#731=ORIENTED_EDGE('',*,*,#565,.F.);
#732=ORIENTED_EDGE('',*,*,#566,.F.);
#733=ORIENTED_EDGE('',*,*,#567,.T.);
#734=ORIENTED_EDGE('',*,*,#568,.F.);
#735=ORIENTED_EDGE('',*,*,#569,.F.);
#736=ORIENTED_EDGE('',*,*,#548,.F.);
#737=ORIENTED_EDGE('',*,*,#570,.F.);
#738=ORIENTED_EDGE('',*,*,#571,.F.);
#739=ORIENTED_EDGE('',*,*,#572,.F.);
#740=ORIENTED_EDGE('',*,*,#573,.F.);
#741=ORIENTED_EDGE('',*,*,#574,.F.);
#742=ORIENTED_EDGE('',*,*,#575,.F.);
#743=ORIENTED_EDGE('',*,*,#576,.F.);
#744=ORIENTED_EDGE('',*,*,#577,.F.);
#745=ORIENTED_EDGE('',*,*,#578,.F.);
#746=ORIENTED_EDGE('',*,*,#579,.F.);
#747=ORIENTED_EDGE('',*,*,#571,.T.);
#748=ORIENTED_EDGE('',*,*,#580,.F.);
#749=ORIENTED_EDGE('',*,*,#565,.T.);
#750=ORIENTED_EDGE('',*,*,#581,.T.);
#751=ORIENTED_EDGE('',*,*,#570,.T.);
#752=ORIENTED_EDGE('',*,*,#582,.F.);
#753=ORIENTED_EDGE('',*,*,#566,.T.);
#754=ORIENTED_EDGE('',*,*,#580,.T.);
#755=ORIENTED_EDGE('',*,*,#575,.T.);
#756=ORIENTED_EDGE('',*,*,#583,.F.);
#757=ORIENTED_EDGE('',*,*,#568,.T.);
#758=ORIENTED_EDGE('',*,*,#584,.T.);
#759=ORIENTED_EDGE('',*,*,#578,.T.);
#760=ORIENTED_EDGE('',*,*,#585,.F.);
#761=ORIENTED_EDGE('',*,*,#569,.T.);
#762=ORIENTED_EDGE('',*,*,#583,.T.);
#763=ORIENTED_EDGE('',*,*,#586,.F.);
#764=ORIENTED_EDGE('',*,*,#587,.F.);
#765=ORIENTED_EDGE('',*,*,#588,.F.);
#766=ORIENTED_EDGE('',*,*,#589,.F.);
#767=ORIENTED_EDGE('',*,*,#590,.T.);
#768=ORIENTED_EDGE('',*,*,#563,.F.);
#769=ORIENTED_EDGE('',*,*,#591,.T.);
#770=ORIENTED_EDGE('',*,*,#567,.F.);
#771=ORIENTED_EDGE('',*,*,#592,.F.);
#772=ORIENTED_EDGE('',*,*,#593,.F.);
#773=ORIENTED_EDGE('',*,*,#594,.F.);
#774=ORIENTED_EDGE('',*,*,#595,.F.);
#775=ORIENTED_EDGE('',*,*,#558,.T.);
#776=ORIENTED_EDGE('',*,*,#596,.F.);
#777=ORIENTED_EDGE('',*,*,#597,.T.);
#778=ORIENTED_EDGE('',*,*,#598,.T.);
#779=ORIENTED_EDGE('',*,*,#557,.T.);
#780=ORIENTED_EDGE('',*,*,#599,.F.);
#781=ORIENTED_EDGE('',*,*,#600,.F.);
#782=ORIENTED_EDGE('',*,*,#596,.T.);
#783=ORIENTED_EDGE('',*,*,#556,.T.);
#784=ORIENTED_EDGE('',*,*,#601,.F.);
#785=ORIENTED_EDGE('',*,*,#602,.T.);
#786=ORIENTED_EDGE('',*,*,#599,.T.);
#787=ORIENTED_EDGE('',*,*,#555,.T.);
#788=ORIENTED_EDGE('',*,*,#603,.F.);
#789=ORIENTED_EDGE('',*,*,#604,.F.);
#790=ORIENTED_EDGE('',*,*,#601,.T.);
#791=ORIENTED_EDGE('',*,*,#572,.T.);
#792=ORIENTED_EDGE('',*,*,#581,.F.);
#793=ORIENTED_EDGE('',*,*,#564,.T.);
#794=ORIENTED_EDGE('',*,*,#605,.T.);
#795=ORIENTED_EDGE('',*,*,#554,.T.);
#796=ORIENTED_EDGE('',*,*,#606,.F.);
#797=ORIENTED_EDGE('',*,*,#607,.T.);
#798=ORIENTED_EDGE('',*,*,#603,.T.);
#799=ORIENTED_EDGE('',*,*,#510,.F.);
#800=ORIENTED_EDGE('',*,*,#608,.T.);
#801=ORIENTED_EDGE('',*,*,#523,.F.);
#802=ORIENTED_EDGE('',*,*,#608,.F.);
#803=ORIENTED_EDGE('',*,*,#511,.F.);
#804=ORIENTED_EDGE('',*,*,#609,.T.);
#805=ORIENTED_EDGE('',*,*,#518,.F.);
#806=ORIENTED_EDGE('',*,*,#609,.F.);
#807=ORIENTED_EDGE('',*,*,#512,.F.);
#808=ORIENTED_EDGE('',*,*,#610,.T.);
#809=ORIENTED_EDGE('',*,*,#524,.F.);
#810=ORIENTED_EDGE('',*,*,#610,.F.);
#811=ORIENTED_EDGE('',*,*,#517,.F.);
#812=ORIENTED_EDGE('',*,*,#611,.T.);
#813=ORIENTED_EDGE('',*,*,#612,.F.);
#814=ORIENTED_EDGE('',*,*,#613,.T.);
#815=ORIENTED_EDGE('',*,*,#507,.F.);
#816=ORIENTED_EDGE('',*,*,#614,.T.);
#817=ORIENTED_EDGE('',*,*,#615,.F.);
#818=ORIENTED_EDGE('',*,*,#611,.F.);
#819=ORIENTED_EDGE('',*,*,#508,.T.);
#820=ORIENTED_EDGE('',*,*,#613,.F.);
#821=ORIENTED_EDGE('',*,*,#616,.F.);
#822=ORIENTED_EDGE('',*,*,#617,.T.);
#823=ORIENTED_EDGE('',*,*,#509,.T.);
#824=ORIENTED_EDGE('',*,*,#617,.F.);
#825=ORIENTED_EDGE('',*,*,#618,.F.);
#826=ORIENTED_EDGE('',*,*,#619,.T.);
#827=ORIENTED_EDGE('',*,*,#506,.T.);
#828=ORIENTED_EDGE('',*,*,#619,.F.);
#829=ORIENTED_EDGE('',*,*,#620,.F.);
#830=ORIENTED_EDGE('',*,*,#614,.F.);
#831=ORIENTED_EDGE('',*,*,#604,.T.);
#832=ORIENTED_EDGE('',*,*,#607,.F.);
#833=ORIENTED_EDGE('',*,*,#621,.T.);
#834=ORIENTED_EDGE('',*,*,#622,.F.);
#835=ORIENTED_EDGE('',*,*,#623,.T.);
#836=ORIENTED_EDGE('',*,*,#597,.F.);
#837=ORIENTED_EDGE('',*,*,#600,.T.);
#838=ORIENTED_EDGE('',*,*,#602,.F.);
#839=ORIENTED_EDGE('',*,*,#620,.T.);
#840=ORIENTED_EDGE('',*,*,#618,.T.);
#841=ORIENTED_EDGE('',*,*,#616,.T.);
#842=ORIENTED_EDGE('',*,*,#612,.T.);
#843=ORIENTED_EDGE('',*,*,#615,.T.);
#844=ORIENTED_EDGE('',*,*,#561,.T.);
#845=ORIENTED_EDGE('',*,*,#624,.F.);
#846=ORIENTED_EDGE('',*,*,#621,.F.);
#847=ORIENTED_EDGE('',*,*,#606,.T.);
#848=ORIENTED_EDGE('',*,*,#560,.T.);
#849=ORIENTED_EDGE('',*,*,#625,.F.);
#850=ORIENTED_EDGE('',*,*,#622,.T.);
#851=ORIENTED_EDGE('',*,*,#624,.T.);
#852=ORIENTED_EDGE('',*,*,#559,.T.);
#853=ORIENTED_EDGE('',*,*,#598,.F.);
#854=ORIENTED_EDGE('',*,*,#623,.F.);
#855=ORIENTED_EDGE('',*,*,#625,.T.);
#856=ORIENTED_EDGE('',*,*,#577,.T.);
#857=ORIENTED_EDGE('',*,*,#626,.F.);
#858=ORIENTED_EDGE('',*,*,#562,.T.);
#859=ORIENTED_EDGE('',*,*,#585,.T.);
#860=ORIENTED_EDGE('',*,*,#627,.F.);
#861=ORIENTED_EDGE('',*,*,#628,.F.);
#862=ORIENTED_EDGE('',*,*,#629,.F.);
#863=ORIENTED_EDGE('',*,*,#519,.F.);
#864=ORIENTED_EDGE('',*,*,#630,.T.);
#865=ORIENTED_EDGE('',*,*,#631,.T.);
#866=ORIENTED_EDGE('',*,*,#627,.T.);
#867=ORIENTED_EDGE('',*,*,#522,.F.);
#868=ORIENTED_EDGE('',*,*,#632,.F.);
#869=ORIENTED_EDGE('',*,*,#633,.T.);
#870=ORIENTED_EDGE('',*,*,#593,.T.);
#871=ORIENTED_EDGE('',*,*,#634,.T.);
#872=ORIENTED_EDGE('',*,*,#589,.T.);
#873=ORIENTED_EDGE('',*,*,#635,.T.);
#874=ORIENTED_EDGE('',*,*,#633,.F.);
#875=ORIENTED_EDGE('',*,*,#636,.T.);
#876=ORIENTED_EDGE('',*,*,#637,.F.);
#877=ORIENTED_EDGE('',*,*,#628,.T.);
#878=ORIENTED_EDGE('',*,*,#631,.F.);
#879=ORIENTED_EDGE('',*,*,#638,.T.);
#880=ORIENTED_EDGE('',*,*,#635,.F.);
#881=ORIENTED_EDGE('',*,*,#588,.T.);
#882=ORIENTED_EDGE('',*,*,#639,.F.);
#883=ORIENTED_EDGE('',*,*,#594,.T.);
#884=ORIENTED_EDGE('',*,*,#595,.T.);
#885=ORIENTED_EDGE('',*,*,#639,.T.);
#886=ORIENTED_EDGE('',*,*,#587,.T.);
#887=ORIENTED_EDGE('',*,*,#640,.T.);
#888=ORIENTED_EDGE('',*,*,#576,.T.);
#889=ORIENTED_EDGE('',*,*,#584,.F.);
#890=ORIENTED_EDGE('',*,*,#591,.F.);
#891=ORIENTED_EDGE('',*,*,#640,.F.);
#892=ORIENTED_EDGE('',*,*,#586,.T.);
#893=ORIENTED_EDGE('',*,*,#626,.T.);
#894=ORIENTED_EDGE('',*,*,#573,.T.);
#895=ORIENTED_EDGE('',*,*,#605,.F.);
#896=ORIENTED_EDGE('',*,*,#590,.F.);
#897=ORIENTED_EDGE('',*,*,#634,.F.);
#898=ORIENTED_EDGE('',*,*,#592,.T.);
#899=ORIENTED_EDGE('',*,*,#582,.T.);
#900=ORIENTED_EDGE('',*,*,#641,.F.);
#901=ORIENTED_EDGE('',*,*,#636,.F.);
#902=ORIENTED_EDGE('',*,*,#632,.T.);
#903=ORIENTED_EDGE('',*,*,#638,.F.);
#904=ORIENTED_EDGE('',*,*,#630,.F.);
#905=ORIENTED_EDGE('',*,*,#521,.F.);
#906=ORIENTED_EDGE('',*,*,#629,.T.);
#907=ORIENTED_EDGE('',*,*,#637,.T.);
#908=ORIENTED_EDGE('',*,*,#641,.T.);
#909=ORIENTED_EDGE('',*,*,#520,.F.);
#910=ORIENTED_EDGE('',*,*,#579,.T.);
#911=ORIENTED_EDGE('',*,*,#642,.T.);
#912=ORIENTED_EDGE('',*,*,#643,.T.);
#913=ORIENTED_EDGE('',*,*,#642,.F.);
#914=ORIENTED_EDGE('',*,*,#643,.F.);
#915=ORIENTED_EDGE('',*,*,#574,.T.);
#916=ORIENTED_EDGE('',*,*,#644,.T.);
#917=ORIENTED_EDGE('',*,*,#645,.T.);
#918=ORIENTED_EDGE('',*,*,#644,.F.);
#919=ORIENTED_EDGE('',*,*,#645,.F.);
#920=ORIENTED_EDGE('',*,*,#540,.T.);
#921=ORIENTED_EDGE('',*,*,#516,.F.);
#922=ORIENTED_EDGE('',*,*,#646,.F.);
#923=ORIENTED_EDGE('',*,*,#551,.F.);
#924=ORIENTED_EDGE('',*,*,#646,.T.);
#925=ORIENTED_EDGE('',*,*,#515,.F.);
#926=ORIENTED_EDGE('',*,*,#647,.F.);
#927=ORIENTED_EDGE('',*,*,#552,.F.);
#928=ORIENTED_EDGE('',*,*,#647,.T.);
#929=ORIENTED_EDGE('',*,*,#514,.F.);
#930=ORIENTED_EDGE('',*,*,#539,.F.);
#931=ORIENTED_EDGE('',*,*,#553,.F.);
#932=PLANE('',#1031);
#933=PLANE('',#1037);
#934=PLANE('',#1056);
#935=PLANE('',#1059);
#936=PLANE('',#1074);
#937=PLANE('',#1080);
#938=PLANE('',#1082);
#939=PLANE('',#1084);
#940=PLANE('',#1085);
#941=PLANE('',#1086);
#942=PLANE('',#1087);
#943=PLANE('',#1088);
#944=PLANE('',#1091);
#945=PLANE('',#1094);
#946=PLANE('',#1097);
#947=PLANE('',#1100);
#948=PLANE('',#1101);
#949=PLANE('',#1108);
#950=PLANE('',#1111);
#951=PLANE('',#1112);
#952=PLANE('',#1116);
#953=PLANE('',#1118);
#954=PLANE('',#1124);
#955=PLANE('',#1129);
#956=PLANE('',#1130);
#957=PLANE('',#1135);
#958=PLANE('',#1138);
#959=PLANE('',#1139);
#960=PLANE('',#1141);
#961=ADVANCED_FACE('',(#61,#45,#46,#47),#932,.T.);
#962=ADVANCED_FACE('',(#62,#48,#49,#50,#51,#52),#933,.T.);
#963=ADVANCED_FACE('',(#63),#43,.F.);
#964=ADVANCED_FACE('',(#64),#20,.F.);
#965=ADVANCED_FACE('',(#65),#44,.F.);
#966=ADVANCED_FACE('',(#66),#21,.F.);
#967=ADVANCED_FACE('',(#67,#53),#934,.T.);
#968=ADVANCED_FACE('',(#68,#54),#935,.T.);
#969=ADVANCED_FACE('',(#69),#22,.T.);
#970=ADVANCED_FACE('',(#70),#15,.F.);
#971=ADVANCED_FACE('',(#71),#23,.T.);
#972=ADVANCED_FACE('',(#72),#16,.F.);
#973=ADVANCED_FACE('',(#73),#24,.T.);
#974=ADVANCED_FACE('',(#74,#55,#56,#57),#936,.F.);
#975=ADVANCED_FACE('',(#75,#58),#937,.T.);
#976=ADVANCED_FACE('',(#76,#59),#938,.T.);
#977=ADVANCED_FACE('',(#77),#939,.T.);
#978=ADVANCED_FACE('',(#78),#940,.T.);
#979=ADVANCED_FACE('',(#79),#941,.T.);
#980=ADVANCED_FACE('',(#80),#942,.T.);
#981=ADVANCED_FACE('',(#81),#943,.T.);
#982=ADVANCED_FACE('',(#82),#944,.T.);
#983=ADVANCED_FACE('',(#83),#945,.T.);
#984=ADVANCED_FACE('',(#84),#25,.T.);
#985=ADVANCED_FACE('',(#85),#946,.T.);
#986=ADVANCED_FACE('',(#86),#26,.T.);
#987=ADVANCED_FACE('',(#87),#947,.T.);
#988=ADVANCED_FACE('',(#88),#948,.T.);
#989=ADVANCED_FACE('',(#89),#27,.F.);
#990=ADVANCED_FACE('',(#90),#28,.F.);
#991=ADVANCED_FACE('',(#91),#29,.F.);
#992=ADVANCED_FACE('',(#92),#30,.F.);
#993=ADVANCED_FACE('',(#93),#949,.F.);
#994=ADVANCED_FACE('',(#94),#31,.F.);
#995=ADVANCED_FACE('',(#95),#950,.F.);
#996=ADVANCED_FACE('',(#96,#60),#951,.T.);
#997=ADVANCED_FACE('',(#97),#32,.T.);
#998=ADVANCED_FACE('',(#98),#952,.T.);
#999=ADVANCED_FACE('',(#99),#33,.T.);
#1000=ADVANCED_FACE('',(#100),#953,.T.);
#1001=ADVANCED_FACE('',(#101),#34,.F.);
#1002=ADVANCED_FACE('',(#102),#35,.T.);
#1003=ADVANCED_FACE('',(#103),#36,.F.);
#1004=ADVANCED_FACE('',(#104),#954,.F.);
#1005=ADVANCED_FACE('',(#105),#37,.F.);
#1006=ADVANCED_FACE('',(#106),#955,.T.);
#1007=ADVANCED_FACE('',(#107),#956,.T.);
#1008=ADVANCED_FACE('',(#108),#38,.F.);
#1009=ADVANCED_FACE('',(#109),#39,.T.);
#1010=ADVANCED_FACE('',(#110),#40,.F.);
#1011=ADVANCED_FACE('',(#111),#957,.T.);
#1012=ADVANCED_FACE('',(#112),#41,.F.);
#1013=ADVANCED_FACE('',(#113),#958,.T.);
#1014=ADVANCED_FACE('',(#114),#959,.T.);
#1015=ADVANCED_FACE('',(#115),#42,.T.);
#1016=ADVANCED_FACE('',(#116),#960,.T.);
#1017=CLOSED_SHELL('',(#961,#962,#963,#964,#965,#966,#967,#968,#969,#970,
#971,#972,#973,#974,#975,#976,#977,#978,#979,#980,#981,#982,#983,#984,#985,
#986,#987,#988,#989,#990,#991,#992,#993,#994,#995,#996,#997,#998,#999,#1000,
#1001,#1002,#1003,#1004,#1005,#1006,#1007,#1008,#1009,#1010,#1011,#1012,
#1013,#1014,#1015,#1016));
#1018=DERIVED_UNIT_ELEMENT(#1020,1.);
#1019=DERIVED_UNIT_ELEMENT(#1781,-3.);
#1020=(
MASS_UNIT()
NAMED_UNIT(*)
SI_UNIT(.KILO.,.GRAM.)
);
#1021=DERIVED_UNIT((#1018,#1019));
#1022=MEASURE_REPRESENTATION_ITEM('density measure',
POSITIVE_RATIO_MEASURE(7850.),#1021);
#1023=PROPERTY_DEFINITION_REPRESENTATION(#1028,#1025);
#1024=PROPERTY_DEFINITION_REPRESENTATION(#1029,#1026);
#1025=REPRESENTATION('material name',(#1027),#1778);
#1026=REPRESENTATION('density',(#1022),#1778);
#1027=DESCRIPTIVE_REPRESENTATION_ITEM('Steel','Steel');
#1028=PROPERTY_DEFINITION('material property','material name',#1788);
#1029=PROPERTY_DEFINITION('material property','density of part',#1788);
#1030=AXIS2_PLACEMENT_3D('',#1450,#1142,#1143);
#1031=AXIS2_PLACEMENT_3D('',#1451,#1144,#1145);
#1032=AXIS2_PLACEMENT_3D('',#1456,#1147,#1148);
#1033=AXIS2_PLACEMENT_3D('',#1459,#1150,#1151);
#1034=AXIS2_PLACEMENT_3D('',#1461,#1152,#1153);
#1035=AXIS2_PLACEMENT_3D('',#1463,#1154,#1155);
#1036=AXIS2_PLACEMENT_3D('',#1465,#1156,#1157);
#1037=AXIS2_PLACEMENT_3D('',#1466,#1158,#1159);
#1038=AXIS2_PLACEMENT_3D('',#1469,#1160,#1161);
#1039=AXIS2_PLACEMENT_3D('',#1473,#1163,#1164);
#1040=AXIS2_PLACEMENT_3D('',#1476,#1166,#1167);
#1041=AXIS2_PLACEMENT_3D('',#1478,#1168,#1169);
#1042=AXIS2_PLACEMENT_3D('',#1481,#1170,#1171);
#1043=AXIS2_PLACEMENT_3D('',#1483,#1172,#1173);
#1044=AXIS2_PLACEMENT_3D('',#1485,#1174,#1175);
#1045=AXIS2_PLACEMENT_3D('',#1486,#1176,#1177);
#1046=AXIS2_PLACEMENT_3D('',#1488,#1178,#1179);
#1047=AXIS2_PLACEMENT_3D('',#1490,#1180,#1181);
#1048=AXIS2_PLACEMENT_3D('',#1491,#1182,#1183);
#1049=AXIS2_PLACEMENT_3D('',#1493,#1184,#1185);
#1050=AXIS2_PLACEMENT_3D('',#1496,#1187,#1188);
#1051=AXIS2_PLACEMENT_3D('',#1498,#1189,#1190);
#1052=AXIS2_PLACEMENT_3D('',#1500,#1192,#1193);
#1053=AXIS2_PLACEMENT_3D('',#1502,#1194,#1195);
#1054=AXIS2_PLACEMENT_3D('',#1505,#1197,#1198);
#1055=AXIS2_PLACEMENT_3D('',#1507,#1199,#1200);
#1056=AXIS2_PLACEMENT_3D('',#1509,#1202,#1203);
#1057=AXIS2_PLACEMENT_3D('',#1512,#1204,#1205);
#1058=AXIS2_PLACEMENT_3D('',#1513,#1206,#1207);
#1059=AXIS2_PLACEMENT_3D('',#1514,#1208,#1209);
#1060=AXIS2_PLACEMENT_3D('',#1516,#1210,#1211);
#1061=AXIS2_PLACEMENT_3D('',#1517,#1212,#1213);
#1062=AXIS2_PLACEMENT_3D('',#1534,#1215,#1216);
#1063=AXIS2_PLACEMENT_3D('',#1539,#1219,#1220);
#1064=AXIS2_PLACEMENT_3D('',#1556,#1222,#1223);
#1065=AXIS2_PLACEMENT_3D('',#1557,#1224,#1225);
#1066=AXIS2_PLACEMENT_3D('',#1558,#1226,#1227);
#1067=AXIS2_PLACEMENT_3D('',#1559,#1228,#1229);
#1068=AXIS2_PLACEMENT_3D('',#1560,#1230,#1231);
#1069=AXIS2_PLACEMENT_3D('',#1563,#1232,#1233);
#1070=AXIS2_PLACEMENT_3D('',#1565,#1234,#1235);
#1071=AXIS2_PLACEMENT_3D('',#1566,#1236,#1237);
#1072=AXIS2_PLACEMENT_3D('',#1567,#1238,#1239);
#1073=AXIS2_PLACEMENT_3D('',#1568,#1240,#1241);
#1074=AXIS2_PLACEMENT_3D('',#1570,#1243,#1244);
#1075=AXIS2_PLACEMENT_3D('',#1574,#1246,#1247);
#1076=AXIS2_PLACEMENT_3D('',#1580,#1250,#1251);
#1077=AXIS2_PLACEMENT_3D('',#1584,#1253,#1254);
#1078=AXIS2_PLACEMENT_3D('',#1588,#1256,#1257);
#1079=AXIS2_PLACEMENT_3D('',#1591,#1259,#1260);
#1080=AXIS2_PLACEMENT_3D('',#1608,#1269,#1270);
#1081=AXIS2_PLACEMENT_3D('',#1618,#1275,#1276);
#1082=AXIS2_PLACEMENT_3D('',#1619,#1277,#1278);
#1083=AXIS2_PLACEMENT_3D('',#1629,#1283,#1284);
#1084=AXIS2_PLACEMENT_3D('',#1630,#1285,#1286);
#1085=AXIS2_PLACEMENT_3D('',#1633,#1289,#1290);
#1086=AXIS2_PLACEMENT_3D('',#1635,#1292,#1293);
#1087=AXIS2_PLACEMENT_3D('',#1638,#1296,#1297);
#1088=AXIS2_PLACEMENT_3D('',#1640,#1299,#1300);
#1089=AXIS2_PLACEMENT_3D('',#1644,#1302,#1303);
#1090=AXIS2_PLACEMENT_3D('',#1648,#1305,#1306);
#1091=AXIS2_PLACEMENT_3D('',#1650,#1308,#1309);
#1092=AXIS2_PLACEMENT_3D('',#1656,#1312,#1313);
#1093=AXIS2_PLACEMENT_3D('',#1659,#1315,#1316);
#1094=AXIS2_PLACEMENT_3D('',#1660,#1317,#1318);
#1095=AXIS2_PLACEMENT_3D('',#1666,#1322,#1323);
#1096=AXIS2_PLACEMENT_3D('',#1669,#1325,#1326);
#1097=AXIS2_PLACEMENT_3D('',#1670,#1327,#1328);
#1098=AXIS2_PLACEMENT_3D('',#1674,#1331,#1332);
#1099=AXIS2_PLACEMENT_3D('',#1677,#1334,#1335);
#1100=AXIS2_PLACEMENT_3D('',#1678,#1336,#1337);
#1101=AXIS2_PLACEMENT_3D('',#1680,#1339,#1340);
#1102=AXIS2_PLACEMENT_3D('',#1684,#1343,#1344);
#1103=AXIS2_PLACEMENT_3D('',#1686,#1346,#1347);
#1104=AXIS2_PLACEMENT_3D('',#1688,#1349,#1350);
#1105=AXIS2_PLACEMENT_3D('',#1690,#1352,#1353);
#1106=AXIS2_PLACEMENT_3D('',#1694,#1355,#1356);
#1107=AXIS2_PLACEMENT_3D('',#1698,#1359,#1360);
#1108=AXIS2_PLACEMENT_3D('',#1699,#1361,#1362);
#1109=AXIS2_PLACEMENT_3D('',#1703,#1365,#1366);
#1110=AXIS2_PLACEMENT_3D('',#1705,#1367,#1368);
#1111=AXIS2_PLACEMENT_3D('',#1707,#1370,#1371);
#1112=AXIS2_PLACEMENT_3D('',#1709,#1373,#1374);
#1113=AXIS2_PLACEMENT_3D('',#1711,#1375,#1376);
#1114=AXIS2_PLACEMENT_3D('',#1714,#1378,#1379);
#1115=AXIS2_PLACEMENT_3D('',#1715,#1380,#1381);
#1116=AXIS2_PLACEMENT_3D('',#1717,#1383,#1384);
#1117=AXIS2_PLACEMENT_3D('',#1719,#1386,#1387);
#1118=AXIS2_PLACEMENT_3D('',#1720,#1388,#1389);
#1119=AXIS2_PLACEMENT_3D('',#1722,#1391,#1392);
#1120=AXIS2_PLACEMENT_3D('',#1726,#1394,#1395);
#1121=AXIS2_PLACEMENT_3D('',#1728,#1397,#1398);
#1122=AXIS2_PLACEMENT_3D('',#1731,#1400,#1401);
#1123=AXIS2_PLACEMENT_3D('',#1732,#1402,#1403);
#1124=AXIS2_PLACEMENT_3D('',#1748,#1407,#1408);
#1125=AXIS2_PLACEMENT_3D('',#1750,#1409,#1410);
#1126=AXIS2_PLACEMENT_3D('',#1751,#1411,#1412);
#1127=AXIS2_PLACEMENT_3D('',#1752,#1413,#1414);
#1128=AXIS2_PLACEMENT_3D('',#1754,#1416,#1417);
#1129=AXIS2_PLACEMENT_3D('',#1756,#1419,#1420);
#1130=AXIS2_PLACEMENT_3D('',#1757,#1421,#1422);
#1131=AXIS2_PLACEMENT_3D('',#1758,#1423,#1424);
#1132=AXIS2_PLACEMENT_3D('',#1760,#1426,#1427);
#1133=AXIS2_PLACEMENT_3D('',#1761,#1428,#1429);
#1134=AXIS2_PLACEMENT_3D('',#1764,#1431,#1432);
#1135=AXIS2_PLACEMENT_3D('',#1765,#1433,#1434);
#1136=AXIS2_PLACEMENT_3D('',#1766,#1435,#1436);
#1137=AXIS2_PLACEMENT_3D('',#1769,#1438,#1439);
#1138=AXIS2_PLACEMENT_3D('',#1770,#1440,#1441);
#1139=AXIS2_PLACEMENT_3D('',#1771,#1442,#1443);
#1140=AXIS2_PLACEMENT_3D('',#1773,#1445,#1446);
#1141=AXIS2_PLACEMENT_3D('',#1775,#1448,#1449);
#1142=DIRECTION('axis',(0.,0.,1.));
#1143=DIRECTION('refdir',(1.,0.,0.));
#1144=DIRECTION('center_axis',(-1.,-5.45287388438055E-17,-3.09247845251556E-16));
#1145=DIRECTION('ref_axis',(-2.22044604925031E-16,0.819152044288992,0.573576436351046));
#1146=DIRECTION('',(-2.38369096395358E-16,0.772907870672365,0.634518260929274));
#1147=DIRECTION('center_axis',(1.,5.45287388438055E-17,3.09247845251556E-16));
#1148=DIRECTION('ref_axis',(-2.22044604925031E-16,0.819152044288992,0.573576436351046));
#1149=DIRECTION('',(2.05764997215746E-16,-0.857709164830094,-0.514135185108414));
#1150=DIRECTION('center_axis',(1.,5.45287388438055E-17,3.09247845251556E-16));
#1151=DIRECTION('ref_axis',(-2.22044604925031E-16,0.819152044288992,0.573576436351046));
#1152=DIRECTION('center_axis',(1.,5.45287388438055E-17,3.09247845251556E-16));
#1153=DIRECTION('ref_axis',(-2.22044604925031E-16,0.819152044288992,0.573576436351046));
#1154=DIRECTION('center_axis',(1.,5.45287388438055E-17,3.09247845251556E-16));
#1155=DIRECTION('ref_axis',(-2.22044604925031E-16,0.819152044288992,0.573576436351046));
#1156=DIRECTION('center_axis',(1.,5.45287388438055E-17,3.09247845251556E-16));
#1157=DIRECTION('ref_axis',(-2.22044604925031E-16,0.819152044288992,0.573576436351046));
#1158=DIRECTION('center_axis',(1.,0.,0.));
#1159=DIRECTION('ref_axis',(0.,1.,0.));
#1160=DIRECTION('center_axis',(1.,0.,0.));
#1161=DIRECTION('ref_axis',(0.,1.,0.));
#1162=DIRECTION('',(0.,-0.819151838751029,-0.573576729889566));
#1163=DIRECTION('center_axis',(1.,0.,0.));
#1164=DIRECTION('ref_axis',(0.,1.,0.));
#1165=DIRECTION('',(0.,0.819151838751029,0.573576729889566));
#1166=DIRECTION('center_axis',(-1.,0.,0.));
#1167=DIRECTION('ref_axis',(0.,0.819152044288992,0.573576436351046));
#1168=DIRECTION('center_axis',(-1.,0.,0.));
#1169=DIRECTION('ref_axis',(0.,0.819152044288992,0.573576436351046));
#1170=DIRECTION('center_axis',(-1.,0.,0.));
#1171=DIRECTION('ref_axis',(0.,-0.819152044288993,-0.573576436351044));
#1172=DIRECTION('center_axis',(1.,0.,0.));
#1173=DIRECTION('ref_axis',(0.,0.885551409397706,-0.464541388160126));
#1174=DIRECTION('center_axis',(-1.,0.,0.));
#1175=DIRECTION('ref_axis',(0.,-0.819152044288993,-0.573576436351044));
#1176=DIRECTION('center_axis',(1.,0.,0.));
#1177=DIRECTION('ref_axis',(0.,-0.146014485508371,0.989282452094307));
#1178=DIRECTION('center_axis',(-1.,0.,0.));
#1179=DIRECTION('ref_axis',(0.,0.819152044288992,0.573576436351046));
#1180=DIRECTION('center_axis',(-1.,0.,0.));
#1181=DIRECTION('ref_axis',(0.,0.819152044288992,0.573576436351046));
#1182=DIRECTION('center_axis',(-1.,0.,0.));
#1183=DIRECTION('ref_axis',(0.,-1.,0.));
#1184=DIRECTION('center_axis',(1.,0.,0.));
#1185=DIRECTION('ref_axis',(0.,-1.,0.));
#1186=DIRECTION('',(0.515038074910054,-0.857167300702112,-1.04972719113862E-16));
#1187=DIRECTION('center_axis',(1.,0.,0.));
#1188=DIRECTION('ref_axis',(0.,-1.,0.));
#1189=DIRECTION('center_axis',(1.,0.,0.));
#1190=DIRECTION('ref_axis',(0.,-1.,0.));
#1191=DIRECTION('',(1.,0.,0.));
#1192=DIRECTION('center_axis',(-1.,0.,0.));
#1193=DIRECTION('ref_axis',(0.,-1.,0.));
#1194=DIRECTION('center_axis',(1.,0.,0.));
#1195=DIRECTION('ref_axis',(0.,-1.,0.));
#1196=DIRECTION('',(0.515038074910054,-0.857167300702112,-1.04972719113862E-16));
#1197=DIRECTION('center_axis',(1.,0.,0.));
#1198=DIRECTION('ref_axis',(0.,-1.,0.));
#1199=DIRECTION('center_axis',(1.,0.,0.));
#1200=DIRECTION('ref_axis',(0.,-1.,0.));
#1201=DIRECTION('',(1.,0.,0.));
#1202=DIRECTION('center_axis',(-1.,0.,0.));
#1203=DIRECTION('ref_axis',(0.,-1.,0.));
#1204=DIRECTION('center_axis',(-1.,0.,0.));
#1205=DIRECTION('ref_axis',(0.,1.,0.));
#1206=DIRECTION('center_axis',(-1.,0.,0.));
#1207=DIRECTION('ref_axis',(0.,-1.,0.));
#1208=DIRECTION('center_axis',(-1.,0.,0.));
#1209=DIRECTION('ref_axis',(0.,-1.,0.));
#1210=DIRECTION('center_axis',(-1.,0.,0.));
#1211=DIRECTION('ref_axis',(0.,-1.,0.));
#1212=DIRECTION('center_axis',(1.,0.,0.));
#1213=DIRECTION('ref_axis',(0.,1.,0.));
#1214=DIRECTION('',(-1.,0.,0.));
#1215=DIRECTION('center_axis',(-1.,0.,0.));
#1216=DIRECTION('ref_axis',(0.,1.,0.));
#1217=DIRECTION('',(1.,0.,0.));
#1218=DIRECTION('',(1.,0.,0.));
#1219=DIRECTION('center_axis',(-1.,0.,0.));
#1220=DIRECTION('ref_axis',(0.,1.,0.));
#1221=DIRECTION('',(1.,0.,0.));
#1222=DIRECTION('center_axis',(1.,0.,0.));
#1223=DIRECTION('ref_axis',(0.,0.,-1.));
#1224=DIRECTION('center_axis',(1.,0.,0.));
#1225=DIRECTION('ref_axis',(0.,0.136940733166099,-0.990579242463687));
#1226=DIRECTION('center_axis',(-1.,0.,0.));
#1227=DIRECTION('ref_axis',(0.,0.136940733166099,-0.990579242463687));
#1228=DIRECTION('center_axis',(1.,0.,0.));
#1229=DIRECTION('ref_axis',(0.,0.136940733166105,-0.990579242463686));
#1230=DIRECTION('center_axis',(1.,0.,0.));
#1231=DIRECTION('ref_axis',(0.,0.,-1.));
#1232=DIRECTION('center_axis',(1.,0.,0.));
#1233=DIRECTION('ref_axis',(0.,-1.,0.));
#1234=DIRECTION('center_axis',(0.,-1.,0.));
#1235=DIRECTION('ref_axis',(0.,0.,1.));
#1236=DIRECTION('center_axis',(-1.,0.,0.));
#1237=DIRECTION('ref_axis',(0.,-1.,0.));
#1238=DIRECTION('center_axis',(1.,0.,0.));
#1239=DIRECTION('ref_axis',(0.,-1.,0.));
#1240=DIRECTION('center_axis',(1.,0.,0.));
#1241=DIRECTION('ref_axis',(0.,-1.,0.));
#1242=DIRECTION('',(-1.,0.,0.));
#1243=DIRECTION('center_axis',(1.,0.,0.));
#1244=DIRECTION('ref_axis',(0.,1.,0.));
#1245=DIRECTION('',(0.,-0.819151838751029,-0.573576729889566));
#1246=DIRECTION('center_axis',(-1.,0.,0.));
#1247=DIRECTION('ref_axis',(0.,1.,0.));
#1248=DIRECTION('',(0.,0.819151838751029,0.573576729889566));
#1249=DIRECTION('',(0.,0.819152044288992,0.573576436351046));
#1250=DIRECTION('center_axis',(-1.,0.,0.));
#1251=DIRECTION('ref_axis',(2.22044604925031E-16,-0.819152044288992,-0.573576436351045));
#1252=DIRECTION('',(0.,-0.573576436351046,0.819152044288992));
#1253=DIRECTION('center_axis',(-1.,0.,0.));
#1254=DIRECTION('ref_axis',(2.22044604925031E-16,0.573576436351046,-0.819152044288992));
#1255=DIRECTION('',(0.,-0.819152044288992,-0.573576436351046));
#1256=DIRECTION('center_axis',(-1.,0.,0.));
#1257=DIRECTION('ref_axis',(-2.22044604925031E-16,0.819152044288992,0.573576436351046));
#1258=DIRECTION('',(0.,0.573576436351046,-0.819152044288992));
#1259=DIRECTION('center_axis',(-1.,0.,0.));
#1260=DIRECTION('ref_axis',(-2.22044604925032E-16,-0.573576436351045,0.819152044288993));
#1261=DIRECTION('',(0.,-0.819152044288993,-0.573576436351044));
#1262=DIRECTION('',(0.,0.819152044288993,0.573576436351044));
#1263=DIRECTION('',(0.,-0.819152044288993,-0.573576436351044));
#1264=DIRECTION('',(0.,0.573576436351044,-0.819152044288993));
#1265=DIRECTION('',(0.,0.819152044288993,0.573576436351044));
#1266=DIRECTION('',(0.,-0.819152044288993,-0.573576436351044));
#1267=DIRECTION('',(0.,0.819152044288993,0.573576436351044));
#1268=DIRECTION('',(0.,-0.573576436351044,0.819152044288993));
#1269=DIRECTION('center_axis',(-1.,-3.70843097655923E-15,5.20059287930371E-15));
#1270=DIRECTION('ref_axis',(5.48312849294806E-17,-0.819152044288993,-0.573576436351044));
#1271=DIRECTION('',(5.48312849294805E-17,-0.819152044288993,-0.573576436351044));
#1272=DIRECTION('',(6.38714491258507E-15,-0.573576436351044,0.819152044288993));
#1273=DIRECTION('',(-5.48312849294805E-17,0.819152044288993,0.573576436351044));
#1274=DIRECTION('',(-6.38714491258507E-15,0.573576436351044,-0.819152044288993));
#1275=DIRECTION('center_axis',(-1.,-3.70843097655923E-15,5.20059287930371E-15));
#1276=DIRECTION('ref_axis',(-5.48312849294806E-17,0.819152044288993,0.573576436351044));
#1277=DIRECTION('center_axis',(-1.,-3.70843097655923E-15,5.20059287930371E-15));
#1278=DIRECTION('ref_axis',(5.48312849294806E-17,-0.819152044288993,-0.573576436351044));
#1279=DIRECTION('',(5.48312849294805E-17,-0.819152044288993,-0.573576436351044));
#1280=DIRECTION('',(6.38714491258507E-15,-0.573576436351044,0.819152044288993));
#1281=DIRECTION('',(-5.48312849294805E-17,0.819152044288993,0.573576436351044));
#1282=DIRECTION('',(-6.38714491258507E-15,0.573576436351044,-0.819152044288993));
#1283=DIRECTION('center_axis',(-1.,-3.70843097655923E-15,5.20059287930371E-15));
#1284=DIRECTION('ref_axis',(-5.48312849294806E-17,0.819152044288993,0.573576436351044));
#1285=DIRECTION('center_axis',(-5.48312849294806E-17,0.819152044288993,
0.573576436351044));
#1286=DIRECTION('ref_axis',(-6.38714491258507E-15,0.573576436351044,-0.819152044288993));
#1287=DIRECTION('',(-1.,-3.70843097655923E-15,5.20059287930371E-15));
#1288=DIRECTION('',(-1.,-3.70843097655923E-15,5.20059287930371E-15));
#1289=DIRECTION('center_axis',(6.38714491258508E-15,-0.573576436351044,
0.819152044288993));
#1290=DIRECTION('ref_axis',(-5.48312849294806E-17,0.819152044288993,0.573576436351044));
#1291=DIRECTION('',(-1.,-3.70843097655923E-15,5.20059287930371E-15));
#1292=DIRECTION('center_axis',(6.38714491258508E-15,-0.573576436351044,
0.819152044288993));
#1293=DIRECTION('ref_axis',(-5.48312849294806E-17,0.819152044288993,0.573576436351044));
#1294=DIRECTION('',(-1.,-3.70843097655923E-15,5.20059287930371E-15));
#1295=DIRECTION('',(-1.,-3.70843097655923E-15,5.20059287930371E-15));
#1296=DIRECTION('center_axis',(5.48312849294806E-17,-0.819152044288993,
-0.573576436351044));
#1297=DIRECTION('ref_axis',(6.38714491258507E-15,-0.573576436351044,0.819152044288993));
#1298=DIRECTION('',(-1.,-3.70843097655923E-15,5.20059287930371E-15));
#1299=DIRECTION('center_axis',(0.,-0.573576436351044,0.819152044288993));
#1300=DIRECTION('ref_axis',(0.,0.819152044288993,0.573576436351044));
#1301=DIRECTION('',(-1.,-3.70843097655923E-15,5.20059287930371E-15));
#1302=DIRECTION('center_axis',(-6.38714491258508E-15,0.573576436351044,
-0.819152044288993));
#1303=DIRECTION('ref_axis',(0.707106781186546,-0.579227965339569,-0.405579787672642));
#1304=DIRECTION('',(-5.48312849294806E-17,0.819152044288993,0.573576436351044));
#1305=DIRECTION('center_axis',(-6.38714491258508E-15,0.573576436351044,
-0.819152044288993));
#1306=DIRECTION('ref_axis',(0.707106781186546,0.579227965339574,0.405579787672635));
#1307=DIRECTION('',(-1.,-3.70843097655923E-15,5.20059287930371E-15));
#1308=DIRECTION('center_axis',(0.,0.573576436351044,-0.819152044288993));
#1309=DIRECTION('ref_axis',(0.,-0.819152044288993,-0.573576436351044));
#1310=DIRECTION('',(-1.,-3.70843097655923E-15,5.20059287930371E-15));
#1311=DIRECTION('',(-1.,-3.70843097655923E-15,5.20059287930371E-15));
#1312=DIRECTION('center_axis',(6.38714491258508E-15,-0.573576436351044,
0.819152044288993));
#1313=DIRECTION('ref_axis',(0.707106781186546,0.579227965339574,0.405579787672635));
#1314=DIRECTION('',(5.48312849294806E-17,-0.819152044288993,-0.573576436351044));
#1315=DIRECTION('center_axis',(6.38714491258508E-15,-0.573576436351044,
0.819152044288993));
#1316=DIRECTION('ref_axis',(0.707106781186546,-0.579227965339569,-0.405579787672642));
#1317=DIRECTION('center_axis',(2.22044604925031E-16,0.573576436351046,-0.819152044288992));
#1318=DIRECTION('ref_axis',(-2.22044604925031E-16,0.819152044288992,0.573576436351046));
#1319=DIRECTION('',(1.,5.45287388438055E-17,3.09247845251556E-16));
#1320=DIRECTION('',(-2.22044604925031E-16,0.819152044288992,0.573576436351046));
#1321=DIRECTION('',(1.,5.45287388438055E-17,3.09247845251556E-16));
#1322=DIRECTION('center_axis',(1.,5.45287388438055E-17,3.09247845251556E-16));
#1323=DIRECTION('ref_axis',(2.22044604925031E-16,0.573576436351046,-0.819152044288992));
#1324=DIRECTION('',(1.,5.45287388438055E-17,3.09247845251556E-16));
#1325=DIRECTION('center_axis',(-1.,-5.45287388438055E-17,-3.09247845251556E-16));
#1326=DIRECTION('ref_axis',(2.22044604925031E-16,0.573576436351046,-0.819152044288992));
#1327=DIRECTION('center_axis',(2.22044604925031E-16,-0.819152044288992,
-0.573576436351046));
#1328=DIRECTION('ref_axis',(2.22044604925031E-16,0.573576436351046,-0.819152044288992));
#1329=DIRECTION('',(1.,5.45287388438055E-17,3.09247845251556E-16));
#1330=DIRECTION('',(2.22044604925031E-16,0.573576436351046,-0.819152044288992));
#1331=DIRECTION('center_axis',(1.,5.45287388438055E-17,3.09247845251556E-16));
#1332=DIRECTION('ref_axis',(2.22044604925031E-16,-0.819152044288992,-0.573576436351045));
#1333=DIRECTION('',(1.,5.45287388438055E-17,3.09247845251556E-16));
#1334=DIRECTION('center_axis',(-1.,-5.45287388438055E-17,-3.09247845251556E-16));
#1335=DIRECTION('ref_axis',(2.22044604925031E-16,-0.819152044288992,-0.573576436351045));
#1336=DIRECTION('center_axis',(-6.38714491258508E-15,0.573576436351044,
-0.819152044288993));
#1337=DIRECTION('ref_axis',(5.48312849294806E-17,-0.819152044288993,-0.573576436351044));
#1338=DIRECTION('',(-1.,-3.70843097655923E-15,5.20059287930371E-15));
#1339=DIRECTION('center_axis',(-2.22044604925031E-16,-0.573576436351046,
0.819152044288992));
#1340=DIRECTION('ref_axis',(2.22044604925031E-16,-0.819152044288992,-0.573576436351046));
#1341=DIRECTION('',(1.,5.45287388438055E-17,3.09247845251556E-16));
#1342=DIRECTION('',(2.22044604925031E-16,-0.819152044288992,-0.573576436351046));
#1343=DIRECTION('center_axis',(1.,5.45287388438055E-17,3.09247845251556E-16));
#1344=DIRECTION('ref_axis',(-2.22044604925031E-16,0.819152044288992,0.573576436351046));
#1345=DIRECTION('',(1.,5.45287388438055E-17,3.09247845251556E-16));
#1346=DIRECTION('center_axis',(1.,5.45287388438055E-17,3.09247845251556E-16));
#1347=DIRECTION('ref_axis',(-2.22044604925031E-16,0.819152044288992,0.573576436351046));
#1348=DIRECTION('',(1.,5.45287388438055E-17,3.09247845251556E-16));
#1349=DIRECTION('center_axis',(1.,5.45287388438055E-17,3.09247845251556E-16));
#1350=DIRECTION('ref_axis',(-2.22044604925031E-16,0.819152044288992,0.573576436351046));
#1351=DIRECTION('',(1.,5.45287388438055E-17,3.09247845251556E-16));
#1352=DIRECTION('center_axis',(1.,5.45287388438055E-17,3.09247845251556E-16));
#1353=DIRECTION('ref_axis',(-2.22044604925031E-16,0.819152044288992,0.573576436351046));
#1354=DIRECTION('',(-1.,-5.45287388438055E-17,-3.09247845251556E-16));
#1355=DIRECTION('center_axis',(1.,5.45287388438055E-17,3.09247845251556E-16));
#1356=DIRECTION('ref_axis',(-2.22044604925031E-16,0.819152044288992,0.573576436351046));
#1357=DIRECTION('',(1.,5.45287388438055E-17,3.09247845251556E-16));
#1358=DIRECTION('',(-1.,-5.45287388438055E-17,-3.09247845251556E-16));
#1359=DIRECTION('center_axis',(1.,5.45287388438055E-17,3.09247845251556E-16));
#1360=DIRECTION('ref_axis',(-2.22044604925031E-16,0.819152044288992,0.573576436351046));
#1361=DIRECTION('center_axis',(-2.3720956783703E-16,-0.514135185108414,
0.857709164830094));
#1362=DIRECTION('ref_axis',(2.05764997215746E-16,-0.857709164830094,-0.514135185108414));
#1363=DIRECTION('',(2.05764997215746E-16,-0.857709164830094,-0.514135185108414));
#1364=DIRECTION('',(1.,5.45287388438055E-17,3.09247845251556E-16));
#1365=DIRECTION('center_axis',(1.,5.45287388438055E-17,3.09247845251556E-16));
#1366=DIRECTION('ref_axis',(-2.22044604925031E-16,0.819152044288992,0.573576436351046));
#1367=DIRECTION('center_axis',(1.,5.45287388438055E-17,3.09247845251556E-16));
#1368=DIRECTION('ref_axis',(-2.22044604925031E-16,0.819152044288992,0.573576436351046));
#1369=DIRECTION('',(1.,5.45287388438055E-17,3.09247845251556E-16));
#1370=DIRECTION('center_axis',(2.0442061304156E-16,0.634518260929274,-0.772907870672365));
#1371=DIRECTION('ref_axis',(-2.38369096395358E-16,0.772907870672365,0.634518260929274));
#1372=DIRECTION('',(-2.38369096395358E-16,0.772907870672365,0.634518260929274));
#1373=DIRECTION('center_axis',(-1.,-5.45287388438055E-17,-3.09247845251556E-16));
#1374=DIRECTION('ref_axis',(-2.22044604925031E-16,0.819152044288992,0.573576436351046));
#1375=DIRECTION('center_axis',(-1.,-5.45287388438055E-17,-3.09247845251556E-16));
#1376=DIRECTION('ref_axis',(-2.22044604925032E-16,-0.573576436351045,0.819152044288993));
#1377=DIRECTION('',(-2.22044604925031E-16,-0.573576436351046,0.819152044288992));
#1378=DIRECTION('center_axis',(-1.,-5.45287388438055E-17,-3.09247845251556E-16));
#1379=DIRECTION('ref_axis',(-2.22044604925031E-16,0.819152044288992,0.573576436351046));
#1380=DIRECTION('center_axis',(1.,5.45287388438055E-17,3.09247845251556E-16));
#1381=DIRECTION('ref_axis',(-2.22044604925032E-16,-0.573576436351045,0.819152044288993));
#1382=DIRECTION('',(1.,5.45287388438055E-17,3.09247845251556E-16));
#1383=DIRECTION('center_axis',(-2.22044604925031E-16,0.819152044288992,
0.573576436351046));
#1384=DIRECTION('ref_axis',(-2.22044604925031E-16,-0.573576436351046,0.819152044288992));
#1385=DIRECTION('',(1.,5.45287388438055E-17,3.09247845251556E-16));
#1386=DIRECTION('center_axis',(1.,5.45287388438055E-17,3.09247845251556E-16));
#1387=DIRECTION('ref_axis',(-2.22044604925031E-16,0.819152044288992,0.573576436351046));
#1388=DIRECTION('center_axis',(-6.38714491258508E-15,0.573576436351044,
-0.819152044288993));
#1389=DIRECTION('ref_axis',(5.48312849294806E-17,-0.819152044288993,-0.573576436351044));
#1390=DIRECTION('',(-1.,-3.70843097655923E-15,5.20059287930371E-15));
#1391=DIRECTION('center_axis',(-1.,-3.70843097655923E-15,5.20059287930371E-15));
#1392=DIRECTION('ref_axis',(5.48312849294806E-17,-0.819152044288993,-0.573576436351044));
#1393=DIRECTION('',(1.,0.,0.));
#1394=DIRECTION('center_axis',(-1.,-3.70843097655923E-15,5.20059287930371E-15));
#1395=DIRECTION('ref_axis',(5.48312849294806E-17,-0.819152044288993,-0.573576436351044));
#1396=DIRECTION('',(-1.,-3.70843097655923E-15,5.20059287930371E-15));
#1397=DIRECTION('center_axis',(-1.,-3.70843097655923E-15,5.20059287930371E-15));
#1398=DIRECTION('ref_axis',(5.4381708730676E-15,-0.146014485508371,0.989282452094307));
#1399=DIRECTION('',(-1.,-3.70843097655923E-15,5.20059287930371E-15));
#1400=DIRECTION('center_axis',(1.,3.70843097655923E-15,-5.20059287930371E-15));
#1401=DIRECTION('ref_axis',(5.4381708730676E-15,-0.146014485508371,0.989282452094307));
#1402=DIRECTION('center_axis',(6.38714491258508E-15,-0.573576436351044,
0.819152044288993));
#1403=DIRECTION('ref_axis',(0.707106781186546,0.579227965339574,0.405579787672635));
#1404=DIRECTION('',(6.38714491258507E-15,-0.573576436351044,0.819152044288993));
#1405=DIRECTION('',(-6.38714491258507E-15,0.573576436351044,-0.819152044288993));
#1406=DIRECTION('',(6.38714491258507E-15,-0.573576436351044,0.819152044288993));
#1407=DIRECTION('center_axis',(1.,3.70843097655923E-15,-5.20059287930371E-15));
#1408=DIRECTION('ref_axis',(5.48312849294806E-17,-0.819152044288993,-0.573576436351044));
#1409=DIRECTION('center_axis',(-1.,-3.70843097655923E-15,5.20059287930371E-15));
#1410=DIRECTION('ref_axis',(5.48312849294806E-17,-0.819152044288993,-0.573576436351044));
#1411=DIRECTION('center_axis',(1.,3.70843097655923E-15,-5.20059287930371E-15));
#1412=DIRECTION('ref_axis',(-5.45329932395622E-15,0.885551409397706,-0.464541388160126));
#1413=DIRECTION('center_axis',(-1.,-3.70843097655923E-15,5.20059287930371E-15));
#1414=DIRECTION('ref_axis',(5.48312849294806E-17,-0.819152044288993,-0.573576436351044));
#1415=DIRECTION('',(-6.38714491258507E-15,0.573576436351044,-0.819152044288993));
#1416=DIRECTION('center_axis',(-6.38714491258508E-15,0.573576436351044,
-0.819152044288993));
#1417=DIRECTION('ref_axis',(0.707106781186546,-0.579227965339569,-0.405579787672642));
#1418=DIRECTION('',(6.38714491258507E-15,-0.573576436351044,0.819152044288993));
#1419=DIRECTION('center_axis',(-5.48312849294806E-17,0.819152044288993,
0.573576436351044));
#1420=DIRECTION('ref_axis',(-6.38714491258507E-15,0.573576436351044,-0.819152044288993));
#1421=DIRECTION('center_axis',(5.48312849294806E-17,-0.819152044288993,
-0.573576436351044));
#1422=DIRECTION('ref_axis',(6.38714491258507E-15,-0.573576436351044,0.819152044288993));
#1423=DIRECTION('center_axis',(-1.,-3.70843097655923E-15,5.20059287930371E-15));
#1424=DIRECTION('ref_axis',(-1.49505362491228E-17,0.815554814265701,0.578679829377211));
#1425=DIRECTION('',(1.,3.70843097655923E-15,-5.20059287930371E-15));
#1426=DIRECTION('center_axis',(1.,3.70843097655923E-15,-5.20059287930371E-15));
#1427=DIRECTION('ref_axis',(-5.45329932395622E-15,0.885551409397706,-0.464541388160126));
#1428=DIRECTION('center_axis',(1.,3.54923153505438E-15,-4.97323251424411E-15));
#1429=DIRECTION('ref_axis',(-5.48312849294806E-17,0.819152044288993,0.573576436351044));
#1430=DIRECTION('',(1.,3.54923153505438E-15,-4.97323251424411E-15));
#1431=DIRECTION('center_axis',(1.,3.54923153505438E-15,-4.97323251424411E-15));
#1432=DIRECTION('ref_axis',(-5.48312849294806E-17,0.819152044288993,0.573576436351044));
#1433=DIRECTION('center_axis',(-1.,-3.54923153505438E-15,4.97323251424411E-15));
#1434=DIRECTION('ref_axis',(-5.48312849294806E-17,0.819152044288993,0.573576436351044));
#1435=DIRECTION('center_axis',(1.,3.54923153505438E-15,-4.97323251424411E-15));
#1436=DIRECTION('ref_axis',(-5.48312849294806E-17,0.819152044288993,0.573576436351044));
#1437=DIRECTION('',(1.,3.54923153505438E-15,-4.97323251424411E-15));
#1438=DIRECTION('center_axis',(1.,3.54923153505438E-15,-4.97323251424411E-15));
#1439=DIRECTION('ref_axis',(-5.48312849294806E-17,0.819152044288993,0.573576436351044));
#1440=DIRECTION('center_axis',(-1.,-3.54923153505438E-15,4.97323251424411E-15));
#1441=DIRECTION('ref_axis',(-5.48312849294806E-17,0.819152044288993,0.573576436351044));
#1442=DIRECTION('center_axis',(0.,0.573576729889566,-0.819151838751029));
#1443=DIRECTION('ref_axis',(0.,0.819151838751029,0.573576729889566));
#1444=DIRECTION('',(1.,0.,0.));
#1445=DIRECTION('center_axis',(1.,0.,0.));
#1446=DIRECTION('ref_axis',(0.,-0.81915183875103,-0.573576729889565));
#1447=DIRECTION('',(1.,0.,0.));
#1448=DIRECTION('center_axis',(0.,-0.573576729889566,0.819151838751029));
#1449=DIRECTION('ref_axis',(0.,-0.819151838751029,-0.573576729889566));
#1450=CARTESIAN_POINT('',(0.,0.,0.));
#1451=CARTESIAN_POINT('Origin',(-8.59999989569188,142.717339913158,124.045586393524));
#1452=CARTESIAN_POINT('',(-8.59999989569188,138.5357240099,116.620186643762));
#1453=CARTESIAN_POINT('',(-8.59999989569188,150.868858110925,126.74506581569));
#1454=CARTESIAN_POINT('',(-8.59999989569188,141.605542324229,119.140352179769));
#1455=CARTESIAN_POINT('',(-8.59999989569188,134.373705670794,122.590059726118));
#1456=CARTESIAN_POINT('Origin',(-8.59999989569188,136.219732357508,119.441300371716));
#1457=CARTESIAN_POINT('',(-8.59999989569188,147.878785938436,130.685387639146));
#1458=CARTESIAN_POINT('',(-8.59999989569188,144.516233649075,128.669778485582));
#1459=CARTESIAN_POINT('Origin',(-8.59999989569188,149.298425415125,128.658012795604));
#1460=CARTESIAN_POINT('',(-8.59999989569188,144.847135246606,125.536885231803));
#1461=CARTESIAN_POINT('Origin',(-8.59999989569188,145.584372086466,126.053104024519));
#1462=CARTESIAN_POINT('',(-8.59999989569188,142.799255135884,124.102944140925));
#1463=CARTESIAN_POINT('Origin',(-8.59999989569188,143.536491975744,124.619162933641));
#1464=CARTESIAN_POINT('',(-8.59999989569188,140.37347105369,122.400474838163));
#1465=CARTESIAN_POINT('Origin',(-8.59999989569188,141.11070789355,122.916693630879));
#1466=CARTESIAN_POINT('Origin',(-5.8,154.963047320886,132.622687434053));
#1467=CARTESIAN_POINT('',(-5.8,181.137249546293,134.469614033429));
#1468=CARTESIAN_POINT('',(-5.8,165.650677839275,156.586713679707));
#1469=CARTESIAN_POINT('Origin',(-5.8,173.393963692784,145.528163856568));
#1470=CARTESIAN_POINT('',(-5.8,128.788845095479,130.775760834676));
#1471=CARTESIAN_POINT('',(-5.8,165.650677839275,156.586713679707));
#1472=CARTESIAN_POINT('',(-5.8,144.275416802497,108.658661188398));
#1473=CARTESIAN_POINT('Origin',(-5.8,136.532130948988,119.717211011537));
#1474=CARTESIAN_POINT('',(-5.8,181.137249546293,134.469614033429));
#1475=CARTESIAN_POINT('',(-5.8,133.229827395853,117.347746379035));
#1476=CARTESIAN_POINT('Origin',(-5.8,136.219732357508,119.441300371716));
#1477=CARTESIAN_POINT('',(-5.8,142.799255135884,124.102944140925));
#1478=CARTESIAN_POINT('Origin',(-5.8,143.536491975744,124.619162933641));
#1479=CARTESIAN_POINT('',(-5.8,170.003685827109,139.641660590168));
#1480=CARTESIAN_POINT('',(-5.8,166.820954390783,144.127201322084));
#1481=CARTESIAN_POINT('Origin',(-5.8,168.407410723959,141.880947484486));
#1482=CARTESIAN_POINT('',(-5.8,167.582450068662,145.578834240019));
#1483=CARTESIAN_POINT('Origin',(-5.8,165.782546609068,145.59747656124));
#1484=CARTESIAN_POINT('',(-5.8,171.62535900989,139.881013643429));
#1485=CARTESIAN_POINT('Origin',(-5.8,173.532130948988,145.517211011537));
#1486=CARTESIAN_POINT('Origin',(-5.8,171.048520440079,138.175945532069));
#1487=CARTESIAN_POINT('',(-5.8,144.847135246606,125.536885231803));
#1488=CARTESIAN_POINT('Origin',(-5.8,145.584372086466,126.053104024519));
#1489=CARTESIAN_POINT('',(-5.8,140.37347105369,122.400474838163));
#1490=CARTESIAN_POINT('Origin',(-5.8,141.11070789355,122.916693630879));
#1491=CARTESIAN_POINT('Origin',(-21.5221019636998,171.809924542864,156.563921378686));
#1492=CARTESIAN_POINT('',(-21.8,172.734924542864,156.563921378686));
#1493=CARTESIAN_POINT('Origin',(-21.8,171.809924542864,156.563921378686));
#1494=CARTESIAN_POINT('',(-21.2442039273995,171.809924542864,156.563921378686));
#1495=CARTESIAN_POINT('',(-21.5221019636998,172.272424542864,156.563921378686));
#1496=CARTESIAN_POINT('Origin',(-24.3,171.809924542864,156.563921378686));
#1497=CARTESIAN_POINT('',(-24.25,172.734924542864,156.563921378686));
#1498=CARTESIAN_POINT('Origin',(-24.25,171.809924542864,156.563921378686));
#1499=CARTESIAN_POINT('',(-24.3,172.734924542864,156.563921378686));
#1500=CARTESIAN_POINT('Origin',(-21.5221019636998,137.513142799185,109.776344317489));
#1501=CARTESIAN_POINT('',(-21.8,138.438142799185,109.776344317489));
#1502=CARTESIAN_POINT('Origin',(-21.8,137.513142799185,109.776344317489));
#1503=CARTESIAN_POINT('',(-21.2442039273995,137.513142799185,109.776344317489));
#1504=CARTESIAN_POINT('',(-21.5221019636998,137.975642799185,109.776344317489));
#1505=CARTESIAN_POINT('Origin',(-24.3,137.513142799185,109.776344317489));
#1506=CARTESIAN_POINT('',(-24.25,138.438142799185,109.776344317489));
#1507=CARTESIAN_POINT('Origin',(-24.25,137.513142799185,109.776344317489));
#1508=CARTESIAN_POINT('',(-24.3,138.438142799185,109.776344317489));
#1509=CARTESIAN_POINT('Origin',(-24.25,171.858788980448,156.633056962048));
#1510=CARTESIAN_POINT('',(-24.25,170.460842454296,158.705674994879));
#1511=CARTESIAN_POINT('',(-24.25,172.642000825634,159.007205063064));
#1512=CARTESIAN_POINT('Origin',(-24.25,173.393963692784,145.528163856568));
#1513=CARTESIAN_POINT('Origin',(-24.25,171.858788980448,156.633056962048));
#1514=CARTESIAN_POINT('Origin',(-24.25,137.499996926636,109.799997545779));
#1515=CARTESIAN_POINT('',(-24.25,139.999996926636,109.799997545779));
#1516=CARTESIAN_POINT('Origin',(-24.25,137.499996926636,109.799997545779));
#1517=CARTESIAN_POINT('Origin',(-9.8,173.393963692784,145.528163856568));
#1518=CARTESIAN_POINT('',(-10.8,170.460842454296,158.705674994879));
#1519=CARTESIAN_POINT('',(-9.8,170.460842454296,158.705674994879));
#1520=CARTESIAN_POINT('',(-9.8,168.727063154605,158.195840808825));
#1521=CARTESIAN_POINT('Ctrl Pts',(-9.8,168.727063154605,158.195840808825));
#1522=CARTESIAN_POINT('Ctrl Pts',(-9.8,168.88713081185,158.25481135556));
#1523=CARTESIAN_POINT('Ctrl Pts',(-9.82050092095867,169.049504866737,158.311115307427));
#1524=CARTESIAN_POINT('Ctrl Pts',(-9.93505230337967,169.537570342263,158.470250626402));
#1525=CARTESIAN_POINT('Ctrl Pts',(-10.0799282230212,169.836787754481,158.553032040791));
#1526=CARTESIAN_POINT('Ctrl Pts',(-10.3016829441777,170.14983458344,158.632942293595));
#1527=CARTESIAN_POINT('Ctrl Pts',(-10.3828568574334,170.246654367023,158.656396029251));
#1528=CARTESIAN_POINT('Ctrl Pts',(-10.528678377577,170.367984945631,158.684745969818));
#1529=CARTESIAN_POINT('Ctrl Pts',(-10.5913205168298,170.409387719595,158.69414204578));
#1530=CARTESIAN_POINT('Ctrl Pts',(-10.7048538916491,170.45143450019,158.703588501247));
#1531=CARTESIAN_POINT('Ctrl Pts',(-10.7515219600724,170.460842454296,158.705674994879));
#1532=CARTESIAN_POINT('Ctrl Pts',(-10.8,170.460842454296,158.705674994879));
#1533=CARTESIAN_POINT('',(-9.8,165.650677839275,156.586713679707));
#1534=CARTESIAN_POINT('Origin',(-9.8,173.393963692784,145.528163856568));
#1535=CARTESIAN_POINT('',(-9.8,165.650677839275,156.586713679707));
#1536=CARTESIAN_POINT('',(-9.8,181.137249546293,134.469614033429));
#1537=CARTESIAN_POINT('',(-9.8,181.137249546293,134.469614033429));
#1538=CARTESIAN_POINT('',(-9.8,174.449072491006,158.986869047778));
#1539=CARTESIAN_POINT('Origin',(-9.8,173.393963692784,145.528163856568));
#1540=CARTESIAN_POINT('',(-10.8,172.642000825634,159.007205063064));
#1541=CARTESIAN_POINT('Ctrl Pts',(-10.8,172.642000825634,159.007205063064));
#1542=CARTESIAN_POINT('Ctrl Pts',(-10.7791588480429,172.642000825634,159.007205063064));
#1543=CARTESIAN_POINT('Ctrl Pts',(-10.758211748151,172.643779688156,159.007304669147));
#1544=CARTESIAN_POINT('Ctrl Pts',(-10.6860686872646,172.656138097449,159.007989156838));
#1545=CARTESIAN_POINT('Ctrl Pts',(-10.6374682261183,172.675113707064,159.00903563429));
#1546=CARTESIAN_POINT('Ctrl Pts',(-10.5223492367348,172.739225193075,159.012332963487));
#1547=CARTESIAN_POINT('Ctrl Pts',(-10.4582066578424,172.793687095309,159.014934422393));
#1548=CARTESIAN_POINT('Ctrl Pts',(-10.2989419425864,172.957497107191,159.021525771572));
#1549=CARTESIAN_POINT('Ctrl Pts',(-10.1983985461812,173.100094389035,159.025939737829));
#1550=CARTESIAN_POINT('Ctrl Pts',(-9.97407894369685,173.515196428201,159.029988389142));
#1551=CARTESIAN_POINT('Ctrl Pts',(-9.85831524569369,173.834669772145,159.025406436352));
#1552=CARTESIAN_POINT('Ctrl Pts',(-9.80545188800779,174.271529657851,158.999921437471));
#1553=CARTESIAN_POINT('Ctrl Pts',(-9.8,174.361360241253,158.993745338262));
#1554=CARTESIAN_POINT('Ctrl Pts',(-9.8,174.449072491006,158.986869047778));
#1555=CARTESIAN_POINT('',(-9.8,172.642000825634,159.007205063064));
#1556=CARTESIAN_POINT('Origin',(-10.8,171.858788980448,156.633056962048));
#1557=CARTESIAN_POINT('Origin',(-10.8,171.858788980448,156.633056962048));
#1558=CARTESIAN_POINT('Origin',(-9.8,171.858788980448,156.633056962048));
#1559=CARTESIAN_POINT('Origin',(-30.8,171.858788980448,156.633056962048));
#1560=CARTESIAN_POINT('Origin',(-10.6,137.499996926636,109.799997545779));
#1561=CARTESIAN_POINT('',(-10.6,139.999996926636,109.799997545779));
#1562=CARTESIAN_POINT('',(-10.6,137.499996926636,112.299997545779));
#1563=CARTESIAN_POINT('Origin',(-10.6,137.499996926636,109.799997545779));
#1564=CARTESIAN_POINT('',(-9.8,137.499996926636,113.099997545779));
#1565=CARTESIAN_POINT('Origin',(-10.6,137.499996926636,113.099997545779));
#1566=CARTESIAN_POINT('Origin',(-9.8,137.499996926636,109.799997545779));
#1567=CARTESIAN_POINT('Origin',(-10.6,137.499996926636,109.799997545779));
#1568=CARTESIAN_POINT('Origin',(-30.8,137.499996926636,109.799997545779));
#1569=CARTESIAN_POINT('',(-30.8,139.999996926636,109.799997545779));
#1570=CARTESIAN_POINT('Origin',(-9.8,154.963047320886,132.622687434053));
#1571=CARTESIAN_POINT('',(-9.8,144.275416802497,108.658661188398));
#1572=CARTESIAN_POINT('',(-9.8,153.490874988446,115.111399399656));
#1573=CARTESIAN_POINT('',(-9.8,128.788845095479,130.775760834676));
#1574=CARTESIAN_POINT('Origin',(-9.8,136.532130948988,119.717211011537));
#1575=CARTESIAN_POINT('',(-9.8,156.435219653326,150.133975468449));
#1576=CARTESIAN_POINT('',(-9.8,132.477089332802,122.979158687809));
#1577=CARTESIAN_POINT('',(-9.8,147.221826130004,133.303534542128));
#1578=CARTESIAN_POINT('',(-9.8,149.659098072194,135.010130728717));
#1579=CARTESIAN_POINT('',(-9.8,131.617574705019,118.104609005569));
#1580=CARTESIAN_POINT('Origin',(-9.8,134.484606860031,120.112126532798));
#1581=CARTESIAN_POINT('',(-9.8,133.338304014072,115.647152872702));
#1582=CARTESIAN_POINT('',(-9.8,132.047154594656,117.491105342448));
#1583=CARTESIAN_POINT('',(-9.8,138.212853696312,114.787638244919));
#1584=CARTESIAN_POINT('Origin',(-9.8,136.205336169084,117.654670399931));
#1585=CARTESIAN_POINT('',(-9.8,152.957590493514,125.112014099238));
#1586=CARTESIAN_POINT('',(-9.8,148.022494037104,121.656422358667));
#1587=CARTESIAN_POINT('',(-9.8,153.817105121297,129.986563781478));
#1588=CARTESIAN_POINT('Origin',(-9.8,150.950072966286,127.97904625425));
#1589=CARTESIAN_POINT('',(-9.8,152.096375812244,132.444019914345));
#1590=CARTESIAN_POINT('',(-9.8,153.386320356407,130.601788184791));
#1591=CARTESIAN_POINT('Origin',(-9.8,149.229343657232,130.436502387117));
#1592=CARTESIAN_POINT('',(-9.8,163.580538560826,130.613996058965));
#1593=CARTESIAN_POINT('',(-9.8,159.48477827835,127.746113834475));
#1594=CARTESIAN_POINT('',(-9.8,170.581463618941,135.516096559098));
#1595=CARTESIAN_POINT('',(-9.8,182.421035860218,143.806254291619));
#1596=CARTESIAN_POINT('',(-9.8,170.581463618941,135.516096559098));
#1597=CARTESIAN_POINT('',(-9.8,186.516796142695,146.674136516109));
#1598=CARTESIAN_POINT('',(-9.8,170.581463618941,135.516096559098));
#1599=CARTESIAN_POINT('',(-9.8,179.060302359021,157.323113250548));
#1600=CARTESIAN_POINT('',(-9.8,180.899127222469,154.696999187066));
#1601=CARTESIAN_POINT('',(-9.8,174.964542076544,154.455231026058));
#1602=CARTESIAN_POINT('',(-9.8,153.704721185571,139.56894417721));
#1603=CARTESIAN_POINT('',(-9.8,156.124044777152,141.262972793404));
#1604=CARTESIAN_POINT('',(-9.8,153.704721185571,139.56894417721));
#1605=CARTESIAN_POINT('',(-9.8,152.028284494676,138.395090568914));
#1606=CARTESIAN_POINT('',(-9.8,153.704721185571,139.56894417721));
#1607=CARTESIAN_POINT('',(-9.8,157.595356249961,130.444488138213));
#1608=CARTESIAN_POINT('Origin',(-13.7325196985039,180.740669109619,150.564683771084));
#1609=CARTESIAN_POINT('',(-13.7325196985038,179.060302359021,157.323113250548));
#1610=CARTESIAN_POINT('',(-13.7325196985038,174.964542076544,154.455231026058));
#1611=CARTESIAN_POINT('',(-13.7325196985038,166.568233497467,148.576072465854));
#1612=CARTESIAN_POINT('',(-13.7325196985039,186.516796142695,146.674136516109));
#1613=CARTESIAN_POINT('',(-13.7325196985039,180.924425804939,154.660869066939));
#1614=CARTESIAN_POINT('',(-13.7325196985039,182.421035860218,143.806254291619));
#1615=CARTESIAN_POINT('',(-13.7325196985039,183.444975930837,144.523224847742));
#1616=CARTESIAN_POINT('',(-13.7325196985039,180.5569124143,146.468498475229));
#1617=CARTESIAN_POINT('',(-13.7325196985039,179.839601436427,149.933749393877));
#1618=CARTESIAN_POINT('Origin',(-13.7325196985039,180.617795878502,150.478647008411));
#1619=CARTESIAN_POINT('Origin',(-13.7325196985039,157.804411527751,134.50454331394));
#1620=CARTESIAN_POINT('',(-13.7325196985038,156.124044777152,141.262972793404));
#1621=CARTESIAN_POINT('',(-13.7325196985038,152.028284494676,138.395090568914));
#1622=CARTESIAN_POINT('',(-13.7325196985038,155.100104706533,140.546002237282));
#1623=CARTESIAN_POINT('',(-13.7325196985039,163.580538560826,130.613996058965));
#1624=CARTESIAN_POINT('',(-13.7325196985039,157.988168223071,138.600728609795));
#1625=CARTESIAN_POINT('',(-13.7325196985039,159.48477827835,127.746113834475));
#1626=CARTESIAN_POINT('',(-13.7325196985039,171.976847139903,136.49315461917));
#1627=CARTESIAN_POINT('',(-13.7325196985039,157.620654832431,130.408358018085));
#1628=CARTESIAN_POINT('',(-13.7325196985039,157.149090316794,134.045682462079));
#1629=CARTESIAN_POINT('Origin',(-13.7325196985039,157.927284758869,134.590580076613));
#1630=CARTESIAN_POINT('Origin',(-6.23251969850384,179.060302359021,157.323113250548));
#1631=CARTESIAN_POINT('',(-6.23251969850384,179.060302359021,157.323113250548));
#1632=CARTESIAN_POINT('',(-6.23251969850392,186.516796142695,146.674136516109));
#1633=CARTESIAN_POINT('Origin',(-6.23251969850384,156.124044777152,141.262972793404));
#1634=CARTESIAN_POINT('',(-6.23251969850384,174.964542076544,154.455231026058));
#1635=CARTESIAN_POINT('Origin',(-6.23251969850384,156.124044777152,141.262972793404));
#1636=CARTESIAN_POINT('',(-6.23251969850384,152.028284494676,138.395090568914));
#1637=CARTESIAN_POINT('',(-6.23251969850384,156.124044777152,141.262972793404));
#1638=CARTESIAN_POINT('Origin',(-6.23251969850392,159.48477827835,127.746113834475));
#1639=CARTESIAN_POINT('',(-6.23251969850392,159.48477827835,127.746113834475));
#1640=CARTESIAN_POINT('Origin',(-6.8,159.48477827835,127.746113834475));
#1641=CARTESIAN_POINT('',(-9.73251969850393,163.580538560826,130.613996058965));
#1642=CARTESIAN_POINT('',(-6.23251969850392,163.580538560826,130.613996058965));
#1643=CARTESIAN_POINT('',(-8.73251969850392,164.399690605115,131.187572495316));
#1644=CARTESIAN_POINT('Origin',(-9.73251969850393,164.399690605115,131.187572495316));
#1645=CARTESIAN_POINT('',(-8.73251969850392,181.601883815929,143.232677855268));
#1646=CARTESIAN_POINT('',(-8.73251969850392,177.71091153537,140.508189733456));
#1647=CARTESIAN_POINT('',(-9.73251969850392,182.421035860218,143.806254291619));
#1648=CARTESIAN_POINT('Origin',(-9.73251969850392,181.601883815929,143.232677855268));
#1649=CARTESIAN_POINT('',(-6.23251969850392,182.421035860218,143.806254291619));
#1650=CARTESIAN_POINT('Origin',(-6.8,179.060302359021,157.323113250548));
#1651=CARTESIAN_POINT('',(-9.73251969850384,156.124044777152,141.262972793404));
#1652=CARTESIAN_POINT('',(-6.23251969850384,156.124044777152,141.262972793404));
#1653=CARTESIAN_POINT('',(-9.73251969850384,174.964542076544,154.455231026058));
#1654=CARTESIAN_POINT('',(-6.23251969850384,174.964542076544,154.455231026058));
#1655=CARTESIAN_POINT('',(-8.73251969850384,174.145390032255,153.881654589707));
#1656=CARTESIAN_POINT('Origin',(-9.73251969850384,174.145390032255,153.881654589707));
#1657=CARTESIAN_POINT('',(-8.73251969850384,156.943196821441,141.836549229755));
#1658=CARTESIAN_POINT('',(-8.73251969850384,160.834169102,144.561037351568));
#1659=CARTESIAN_POINT('Origin',(-9.73251969850384,156.943196821441,141.836549229755));
#1660=CARTESIAN_POINT('Origin',(-11.2999998956919,138.212853696312,114.787638244919));
#1661=CARTESIAN_POINT('',(-11.2999998956919,138.212853696312,114.787638244919));
#1662=CARTESIAN_POINT('',(-11.2999998956919,138.212853696312,114.787638244919));
#1663=CARTESIAN_POINT('',(-11.2999998956919,152.957590493514,125.112014099238));
#1664=CARTESIAN_POINT('',(-11.2999998956919,138.212853696312,114.787638244919));
#1665=CARTESIAN_POINT('',(-11.2999998956919,152.957590493514,125.112014099238));
#1666=CARTESIAN_POINT('Origin',(-11.2999998956919,136.205336169084,117.654670399931));
#1667=CARTESIAN_POINT('',(-11.2999998956919,133.338304014072,115.647152872702));
#1668=CARTESIAN_POINT('',(-11.2999998956919,133.338304014072,115.647152872702));
#1669=CARTESIAN_POINT('Origin',(-11.2999998956919,136.205336169084,117.654670399931));
#1670=CARTESIAN_POINT('Origin',(-11.2999998956919,131.617574705019,118.104609005569));
#1671=CARTESIAN_POINT('',(-11.2999998956919,131.617574705019,118.104609005569));
#1672=CARTESIAN_POINT('',(-11.2999998956919,131.617574705019,118.104609005569));
#1673=CARTESIAN_POINT('',(-11.2999998956919,131.617574705019,118.104609005569));
#1674=CARTESIAN_POINT('Origin',(-11.2999998956919,134.484606860031,120.112126532798));
#1675=CARTESIAN_POINT('',(-11.2999998956919,132.477089332802,122.979158687809));
#1676=CARTESIAN_POINT('',(-11.2999998956919,132.477089332802,122.979158687809));
#1677=CARTESIAN_POINT('Origin',(-11.2999998956919,134.484606860031,120.112126532798));
#1678=CARTESIAN_POINT('Origin',(-6.23251969850392,182.421035860218,143.806254291619));
#1679=CARTESIAN_POINT('',(-6.23251969850392,182.421035860218,143.806254291619));
#1680=CARTESIAN_POINT('Origin',(-11.2999998956919,147.221826130004,133.303534542128));
#1681=CARTESIAN_POINT('',(-11.2999998956919,147.221826130004,133.303534542128));
#1682=CARTESIAN_POINT('',(-11.2999998956919,147.221826130004,133.303534542128));
#1683=CARTESIAN_POINT('',(-11.2999998956919,147.221826130004,133.303534542128));
#1684=CARTESIAN_POINT('Origin',(-11.2999998956919,145.584372086466,126.053104024519));
#1685=CARTESIAN_POINT('',(-11.2999998956919,144.847135246606,125.536885231803));
#1686=CARTESIAN_POINT('Origin',(-11.2999998956919,143.536491975744,124.619162933641));
#1687=CARTESIAN_POINT('',(-11.2999998956919,142.799255135884,124.102944140925));
#1688=CARTESIAN_POINT('Origin',(-11.2999998956919,141.11070789355,122.916693630879));
#1689=CARTESIAN_POINT('',(-11.2999998956919,140.37347105369,122.400474838163));
#1690=CARTESIAN_POINT('Origin',(-11.2999998956919,136.219732357508,119.441300371716));
#1691=CARTESIAN_POINT('',(-11.2999998956919,133.229827395853,117.347746379035));
#1692=CARTESIAN_POINT('',(-11.2999998956919,133.229827395853,117.347746379035));
#1693=CARTESIAN_POINT('',(-11.2999998956919,134.373705670794,122.590059726118));
#1694=CARTESIAN_POINT('Origin',(-11.2999998956919,136.219732357508,119.441300371716));
#1695=CARTESIAN_POINT('',(-11.2999998956919,134.373705670794,122.590059726119));
#1696=CARTESIAN_POINT('',(-11.2999998956919,138.5357240099,116.620186643762));
#1697=CARTESIAN_POINT('',(-11.2999998956919,138.5357240099,116.620186643762));
#1698=CARTESIAN_POINT('Origin',(-11.2999998956919,136.219732357508,119.441300371716));
#1699=CARTESIAN_POINT('Origin',(-11.2999998956919,147.878785938436,130.685387639146));
#1700=CARTESIAN_POINT('',(-11.2999998956919,147.878785938436,130.685387639146));
#1701=CARTESIAN_POINT('',(-11.2999998956919,144.516233649075,128.669778485582));
#1702=CARTESIAN_POINT('',(-11.2999998956919,147.878785938436,130.685387639146));
#1703=CARTESIAN_POINT('Origin',(-11.2999998956919,149.298425415125,128.658012795604));
#1704=CARTESIAN_POINT('',(-11.2999998956919,150.868858110925,126.74506581569));
#1705=CARTESIAN_POINT('Origin',(-11.2999998956919,149.298425415125,128.658012795604));
#1706=CARTESIAN_POINT('',(-11.2999998956919,150.868858110925,126.74506581569));
#1707=CARTESIAN_POINT('Origin',(-11.2999998956919,138.5357240099,116.620186643762));
#1708=CARTESIAN_POINT('',(-11.2999998956919,141.605542324229,119.140352179769));
#1709=CARTESIAN_POINT('Origin',(-11.2999998956919,142.717339913158,124.045586393524));
#1710=CARTESIAN_POINT('',(-11.2999998956919,152.096375812244,132.444019914345));
#1711=CARTESIAN_POINT('Origin',(-11.2999998956919,149.229343657232,130.436502387117));
#1712=CARTESIAN_POINT('',(-11.2999998956919,153.817105121297,129.986563781478));
#1713=CARTESIAN_POINT('',(-11.2999998956919,153.817105121297,129.986563781478));
#1714=CARTESIAN_POINT('Origin',(-11.2999998956919,150.950072966286,127.97904625425));
#1715=CARTESIAN_POINT('Origin',(-11.2999998956919,149.229343657232,130.436502387117));
#1716=CARTESIAN_POINT('',(-11.2999998956919,152.096375812244,132.444019914345));
#1717=CARTESIAN_POINT('Origin',(-11.2999998956919,153.817105121297,129.986563781478));
#1718=CARTESIAN_POINT('',(-11.2999998956919,153.817105121297,129.986563781478));
#1719=CARTESIAN_POINT('Origin',(-11.2999998956919,150.950072966286,127.97904625425));
#1720=CARTESIAN_POINT('Origin',(-6.23251969850392,182.421035860218,143.806254291619));
#1721=CARTESIAN_POINT('',(-6.23251969850392,163.580538560826,130.613996058965));
#1722=CARTESIAN_POINT('Origin',(-6.23251969850388,168.407410723959,141.880947484486));
#1723=CARTESIAN_POINT('',(-8.7325196985039,170.003685827109,139.641660590168));
#1724=CARTESIAN_POINT('',(-6.8,170.003685827109,139.641660590168));
#1725=CARTESIAN_POINT('',(-8.73251969850386,166.820954390783,144.127201322084));
#1726=CARTESIAN_POINT('Origin',(-8.73251969850388,168.407410723959,141.880947484486));
#1727=CARTESIAN_POINT('',(-6.23251969850386,166.820954390783,144.127201322084));
#1728=CARTESIAN_POINT('Origin',(-6.23251969850391,171.048520440079,138.175945532069));
#1729=CARTESIAN_POINT('',(-8.7325196985039,171.62535900989,139.881013643429));
#1730=CARTESIAN_POINT('',(-6.2325196985039,171.62535900989,139.881013643429));
#1731=CARTESIAN_POINT('Origin',(-8.73251969850391,171.048520440079,138.175945532069));
#1732=CARTESIAN_POINT('Origin',(-9.73251969850391,179.737760370011,145.894922038878));
#1733=CARTESIAN_POINT('',(-8.73251969850386,176.322592677989,150.77228697093));
#1734=CARTESIAN_POINT('',(-8.7325196985039,179.424681170196,146.342045474046));
#1735=CARTESIAN_POINT('Ctrl Pts',(-8.7325196985039,179.424681170196,146.342045474043));
#1736=CARTESIAN_POINT('Ctrl Pts',(-8.73251969850372,179.380034608641,146.660996873541));
#1737=CARTESIAN_POINT('Ctrl Pts',(-8.76425938326839,179.308316696902,146.982517578846));
#1738=CARTESIAN_POINT('Ctrl Pts',(-8.87850399618156,179.025852313985,147.883327788247));
#1739=CARTESIAN_POINT('Ctrl Pts',(-8.97258534425191,178.745260202267,148.445599293524));
#1740=CARTESIAN_POINT('Ctrl Pts',(-8.9725853442519,178.066911022748,149.414382322128));
#1741=CARTESIAN_POINT('Ctrl Pts',(-8.87850399618154,177.634516792627,149.870360839783));
#1742=CARTESIAN_POINT('Ctrl Pts',(-8.76425938326837,176.884640594855,150.443885772974));
#1743=CARTESIAN_POINT('Ctrl Pts',(-8.73251969850368,176.607038931101,150.621245123124));
#1744=CARTESIAN_POINT('Ctrl Pts',(-8.73251969850387,176.322592677986,150.772286970931));
#1745=CARTESIAN_POINT('',(-8.7325196985039,179.737760370011,145.894922038878));
#1746=CARTESIAN_POINT('',(-9.73251969850391,180.5569124143,146.468498475229));
#1747=CARTESIAN_POINT('',(-8.7325196985039,179.737760370011,145.894922038878));
#1748=CARTESIAN_POINT('Origin',(-8.73251969850388,169.272540318685,142.534613542512));
#1749=CARTESIAN_POINT('',(-8.73251969850386,167.582450068662,145.578834240019));
#1750=CARTESIAN_POINT('Origin',(-8.73251969850388,173.532130948988,145.517211011537));
#1751=CARTESIAN_POINT('Origin',(-8.73251969850386,165.782546609068,145.59747656124));
#1752=CARTESIAN_POINT('Origin',(-8.73251969850388,173.532130948988,145.517211011537));
#1753=CARTESIAN_POINT('',(-8.73251969850386,158.80732026736,139.174305046146));
#1754=CARTESIAN_POINT('Origin',(-9.73251969850386,158.80732026736,139.174305046146));
#1755=CARTESIAN_POINT('',(-9.73251969850386,157.988168223071,138.600728609795));
#1756=CARTESIAN_POINT('Origin',(-6.23251969850384,156.124044777152,141.262972793404));
#1757=CARTESIAN_POINT('Origin',(-6.23251969850392,182.421035860218,143.806254291619));
#1758=CARTESIAN_POINT('Origin',(-6.23251969850388,173.532130948988,145.517211011537));
#1759=CARTESIAN_POINT('',(-6.23251969850386,167.582450068662,145.578834240019));
#1760=CARTESIAN_POINT('Origin',(-6.23251969850386,165.782546609068,145.59747656124));
#1761=CARTESIAN_POINT('Origin',(-14.2325196985039,157.927284758869,134.590580076613));
#1762=CARTESIAN_POINT('',(-7.23251969850388,157.149090316794,134.045682462079));
#1763=CARTESIAN_POINT('',(-14.2325196985039,157.149090316794,134.045682462079));
#1764=CARTESIAN_POINT('Origin',(-7.23251969850388,157.927284758869,134.590580076613));
#1765=CARTESIAN_POINT('Origin',(-7.23251969850388,157.927284758869,134.590580076613));
#1766=CARTESIAN_POINT('Origin',(-14.2325196985039,180.617795878502,150.478647008411));
#1767=CARTESIAN_POINT('',(-7.23251969850388,179.839601436427,149.933749393877));
#1768=CARTESIAN_POINT('',(-14.2325196985039,179.839601436427,149.933749393877));
#1769=CARTESIAN_POINT('Origin',(-7.23251969850388,180.617795878502,150.478647008411));
#1770=CARTESIAN_POINT('Origin',(-7.23251969850388,180.617795878502,150.478647008411));
#1771=CARTESIAN_POINT('Origin',(-9.8,144.275416802497,108.658661188398));
#1772=CARTESIAN_POINT('',(-9.8,144.275416802497,108.658661188398));
#1773=CARTESIAN_POINT('Origin',(-9.8,136.532130948988,119.717211011537));
#1774=CARTESIAN_POINT('',(-9.8,128.788845095479,130.775760834676));
#1775=CARTESIAN_POINT('Origin',(-9.8,165.650677839275,156.586713679707));
#1776=UNCERTAINTY_MEASURE_WITH_UNIT(LENGTH_MEASURE(0.01),#1780,
'DISTANCE_ACCURACY_VALUE',
'Maximum model space distance between geometric entities at asserted c
onnectivities');
#1777=UNCERTAINTY_MEASURE_WITH_UNIT(LENGTH_MEASURE(0.01),#1780,
'DISTANCE_ACCURACY_VALUE',
'Maximum model space distance between geometric entities at asserted c
onnectivities');
#1778=(
GEOMETRIC_REPRESENTATION_CONTEXT(3)
GLOBAL_UNCERTAINTY_ASSIGNED_CONTEXT((#1776))
GLOBAL_UNIT_ASSIGNED_CONTEXT((#1780,#1782,#1783))
REPRESENTATION_CONTEXT('','3D')
);
#1779=(
GEOMETRIC_REPRESENTATION_CONTEXT(3)
GLOBAL_UNCERTAINTY_ASSIGNED_CONTEXT((#1777))
GLOBAL_UNIT_ASSIGNED_CONTEXT((#1780,#1782,#1783))
REPRESENTATION_CONTEXT('','3D')
);
#1780=(
LENGTH_UNIT()
NAMED_UNIT(*)
SI_UNIT(.MILLI.,.METRE.)
);
#1781=(
LENGTH_UNIT()
NAMED_UNIT(*)
SI_UNIT($,.METRE.)
);
#1782=(
NAMED_UNIT(*)
PLANE_ANGLE_UNIT()
SI_UNIT($,.RADIAN.)
);
#1783=(
NAMED_UNIT(*)
SI_UNIT($,.STERADIAN.)
SOLID_ANGLE_UNIT()
);
#1784=SHAPE_DEFINITION_REPRESENTATION(#1785,#1786);
#1785=PRODUCT_DEFINITION_SHAPE('',$,#1788);
#1786=SHAPE_REPRESENTATION('',(#1030),#1778);
#1787=PRODUCT_DEFINITION_CONTEXT('part definition',#1792,'design');
#1788=PRODUCT_DEFINITION('MiniArm Forearm Link',
'MiniArm Forearm Link v1',#1789,#1787);
#1789=PRODUCT_DEFINITION_FORMATION('',$,#1794);
#1790=PRODUCT_RELATED_PRODUCT_CATEGORY('MiniArm Forearm Link v1',
'MiniArm Forearm Link v1',(#1794));
#1791=APPLICATION_PROTOCOL_DEFINITION('international standard',
'automotive_design',2009,#1792);
#1792=APPLICATION_CONTEXT(
'Core Data for Automotive Mechanical Design Process');
#1793=PRODUCT_CONTEXT('part definition',#1792,'mechanical');
#1794=PRODUCT('MiniArm Forearm Link','MiniArm Forearm Link v1',$,(#1793));
#1795=PRESENTATION_STYLE_ASSIGNMENT((#1796));
#1796=SURFACE_STYLE_USAGE(.BOTH.,#1797);
#1797=SURFACE_SIDE_STYLE('',(#1798));
#1798=SURFACE_STYLE_FILL_AREA(#1799);
#1799=FILL_AREA_STYLE('Steel - Satin',(#1800));
#1800=FILL_AREA_STYLE_COLOUR('Steel - Satin',#1801);
#1801=COLOUR_RGB('Steel - Satin',0.627450980392157,0.627450980392157,0.627450980392157);
ENDSEC;
END-ISO-10303-21;
