ISO-10303-21;
HEADER;
/* Generated by software containing ST-Developer
 * from STEP Tools, Inc. (www.steptools.com) 
 */

FILE_DESCRIPTION(
/* description */ (''),
/* implementation_level */ '2;1');

FILE_NAME(
/* name */ 'MiniArm Shoulder Housing Facepate v1.step',
/* time_stamp */ '2026-08-03T03:57:41+08:00',
/* author */ (''),
/* organization */ (''),
/* preprocessor_version */ 'ST-DEVELOPER v20.1',
/* originating_system */ 'Autodesk Translation Framework v15.8.0.0',
/* authorisation */ '');

FILE_SCHEMA (('AUTOMOTIVE_DESIGN { 1 0 10303 214 3 1 1 }'));
ENDSEC;

DATA;
#10=MECHANICAL_DESIGN_GEOMETRIC_PRESENTATION_REPRESENTATION('',(#13),#1689);
#11=SHAPE_REPRESENTATION_RELATIONSHIP('SRR','None',#1696,#12);
#12=ADVANCED_BREP_SHAPE_REPRESENTATION('',(#14),#1688);
#13=STYLED_ITEM('',(#1705),#14);
#14=MANIFOLD_SOLID_BREP('MiniArm Shoulder Facepate',#1017);
#15=CYLINDRICAL_SURFACE('',#1063,11.5);
#16=CYLINDRICAL_SURFACE('',#1066,11.0000000000163);
#17=CYLINDRICAL_SURFACE('',#1071,11.5);
#18=CYLINDRICAL_SURFACE('',#1074,5.92000000000001);
#19=CYLINDRICAL_SURFACE('',#1076,6.16999999999977);
#20=CYLINDRICAL_SURFACE('',#1079,12.58);
#21=CYLINDRICAL_SURFACE('',#1083,7.00000000000001);
#22=CYLINDRICAL_SURFACE('',#1086,7.24999999999977);
#23=CYLINDRICAL_SURFACE('',#1092,12.0800000000163);
#24=CYLINDRICAL_SURFACE('',#1094,12.58);
#25=CYLINDRICAL_SURFACE('',#1100,13.5);
#26=CYLINDRICAL_SURFACE('',#1108,5.00000000000001);
#27=CYLINDRICAL_SURFACE('',#1109,5.24999999999977);
#28=CYLINDRICAL_SURFACE('',#1111,13.0000000000163);
#29=CYLINDRICAL_SURFACE('',#1112,13.5);
#30=FACE_BOUND('',#118,.T.);
#31=FACE_BOUND('',#123,.T.);
#32=FACE_BOUND('',#154,.T.);
#33=FACE_BOUND('',#156,.T.);
#34=CIRCLE('',#1033,13.5);
#35=CIRCLE('',#1034,5.24999999999977);
#36=CIRCLE('',#1035,5.00000000000001);
#37=CIRCLE('',#1036,13.5);
#38=CIRCLE('',#1037,13.0000000000163);
#39=CIRCLE('',#1042,13.0000000000163);
#40=CIRCLE('',#1043,13.5);
#41=CIRCLE('',#1044,5.00000000000001);
#42=CIRCLE('',#1045,5.24999999999977);
#43=CIRCLE('',#1046,13.5);
#44=CIRCLE('',#1047,12.58);
#45=CIRCLE('',#1048,12.0800000000163);
#46=CIRCLE('',#1049,12.58);
#47=CIRCLE('',#1050,6.16999999999977);
#48=CIRCLE('',#1051,5.92000000000001);
#49=CIRCLE('',#1064,11.5);
#50=CIRCLE('',#1065,11.5);
#51=CIRCLE('',#1067,11.0000000000163);
#52=CIRCLE('',#1068,11.0000000000163);
#53=CIRCLE('',#1072,11.5);
#54=CIRCLE('',#1073,11.5);
#55=CIRCLE('',#1075,5.92000000000001);
#56=CIRCLE('',#1077,6.16999999999977);
#57=CIRCLE('',#1080,12.58);
#58=CIRCLE('',#1084,7.00000000000001);
#59=CIRCLE('',#1085,7.00000000000001);
#60=CIRCLE('',#1087,7.24999999999977);
#61=CIRCLE('',#1088,7.24999999999977);
#62=CIRCLE('',#1093,12.0800000000163);
#63=CIRCLE('',#1095,12.58);
#64=FACE_OUTER_BOUND('',#116,.T.);
#65=FACE_OUTER_BOUND('',#117,.T.);
#66=FACE_OUTER_BOUND('',#119,.T.);
#67=FACE_OUTER_BOUND('',#120,.T.);
#68=FACE_OUTER_BOUND('',#121,.T.);
#69=FACE_OUTER_BOUND('',#122,.T.);
#70=FACE_OUTER_BOUND('',#124,.T.);
#71=FACE_OUTER_BOUND('',#125,.T.);
#72=FACE_OUTER_BOUND('',#126,.T.);
#73=FACE_OUTER_BOUND('',#127,.T.);
#74=FACE_OUTER_BOUND('',#128,.T.);
#75=FACE_OUTER_BOUND('',#129,.T.);
#76=FACE_OUTER_BOUND('',#130,.T.);
#77=FACE_OUTER_BOUND('',#131,.T.);
#78=FACE_OUTER_BOUND('',#132,.T.);
#79=FACE_OUTER_BOUND('',#133,.T.);
#80=FACE_OUTER_BOUND('',#134,.T.);
#81=FACE_OUTER_BOUND('',#135,.T.);
#82=FACE_OUTER_BOUND('',#136,.T.);
#83=FACE_OUTER_BOUND('',#137,.T.);
#84=FACE_OUTER_BOUND('',#138,.T.);
#85=FACE_OUTER_BOUND('',#139,.T.);
#86=FACE_OUTER_BOUND('',#140,.T.);
#87=FACE_OUTER_BOUND('',#141,.T.);
#88=FACE_OUTER_BOUND('',#142,.T.);
#89=FACE_OUTER_BOUND('',#143,.T.);
#90=FACE_OUTER_BOUND('',#144,.T.);
#91=FACE_OUTER_BOUND('',#145,.T.);
#92=FACE_OUTER_BOUND('',#146,.T.);
#93=FACE_OUTER_BOUND('',#147,.T.);
#94=FACE_OUTER_BOUND('',#148,.T.);
#95=FACE_OUTER_BOUND('',#149,.T.);
#96=FACE_OUTER_BOUND('',#150,.T.);
#97=FACE_OUTER_BOUND('',#151,.T.);
#98=FACE_OUTER_BOUND('',#152,.T.);
#99=FACE_OUTER_BOUND('',#153,.T.);
#100=FACE_OUTER_BOUND('',#155,.T.);
#101=FACE_OUTER_BOUND('',#157,.T.);
#102=FACE_OUTER_BOUND('',#158,.T.);
#103=FACE_OUTER_BOUND('',#159,.T.);
#104=FACE_OUTER_BOUND('',#160,.T.);
#105=FACE_OUTER_BOUND('',#161,.T.);
#106=FACE_OUTER_BOUND('',#162,.T.);
#107=FACE_OUTER_BOUND('',#163,.T.);
#108=FACE_OUTER_BOUND('',#164,.T.);
#109=FACE_OUTER_BOUND('',#165,.T.);
#110=FACE_OUTER_BOUND('',#166,.T.);
#111=FACE_OUTER_BOUND('',#167,.T.);
#112=FACE_OUTER_BOUND('',#168,.T.);
#113=FACE_OUTER_BOUND('',#169,.T.);
#114=FACE_OUTER_BOUND('',#170,.T.);
#115=FACE_OUTER_BOUND('',#171,.T.);
#116=EDGE_LOOP('',(#640,#641,#642,#643));
#117=EDGE_LOOP('',(#644,#645,#646,#647,#648,#649,#650,#651,#652,#653,#654,
#655,#656,#657,#658));
#118=EDGE_LOOP('',(#659,#660,#661,#662));
#119=EDGE_LOOP('',(#663,#664,#665,#666));
#120=EDGE_LOOP('',(#667,#668,#669,#670));
#121=EDGE_LOOP('',(#671,#672,#673,#674));
#122=EDGE_LOOP('',(#675,#676,#677,#678,#679,#680,#681,#682,#683,#684,#685,
#686,#687,#688,#689));
#123=EDGE_LOOP('',(#690,#691,#692,#693,#694,#695,#696,#697,#698,#699,#700,
#701,#702,#703,#704,#705,#706));
#124=EDGE_LOOP('',(#707,#708,#709,#710));
#125=EDGE_LOOP('',(#711,#712,#713,#714));
#126=EDGE_LOOP('',(#715,#716,#717,#718));
#127=EDGE_LOOP('',(#719,#720,#721,#722));
#128=EDGE_LOOP('',(#723,#724,#725,#726));
#129=EDGE_LOOP('',(#727,#728,#729,#730));
#130=EDGE_LOOP('',(#731,#732,#733,#734));
#131=EDGE_LOOP('',(#735,#736,#737,#738));
#132=EDGE_LOOP('',(#739,#740,#741,#742));
#133=EDGE_LOOP('',(#743,#744,#745,#746));
#134=EDGE_LOOP('',(#747,#748,#749,#750));
#135=EDGE_LOOP('',(#751,#752,#753,#754));
#136=EDGE_LOOP('',(#755,#756,#757,#758));
#137=EDGE_LOOP('',(#759,#760,#761,#762));
#138=EDGE_LOOP('',(#763,#764,#765,#766));
#139=EDGE_LOOP('',(#767,#768,#769,#770));
#140=EDGE_LOOP('',(#771,#772,#773,#774));
#141=EDGE_LOOP('',(#775,#776,#777,#778));
#142=EDGE_LOOP('',(#779,#780,#781,#782));
#143=EDGE_LOOP('',(#783,#784,#785,#786));
#144=EDGE_LOOP('',(#787,#788,#789,#790));
#145=EDGE_LOOP('',(#791,#792,#793,#794));
#146=EDGE_LOOP('',(#795,#796,#797,#798));
#147=EDGE_LOOP('',(#799,#800,#801,#802));
#148=EDGE_LOOP('',(#803,#804,#805,#806));
#149=EDGE_LOOP('',(#807,#808,#809,#810));
#150=EDGE_LOOP('',(#811,#812,#813,#814));
#151=EDGE_LOOP('',(#815,#816,#817,#818));
#152=EDGE_LOOP('',(#819,#820,#821,#822));
#153=EDGE_LOOP('',(#823,#824,#825,#826,#827,#828,#829,#830,#831,#832,#833,
#834,#835,#836,#837,#838,#839));
#154=EDGE_LOOP('',(#840,#841,#842,#843,#844,#845,#846,#847,#848,#849,#850,
#851));
#155=EDGE_LOOP('',(#852,#853,#854,#855,#856,#857,#858,#859,#860,#861,#862,
#863));
#156=EDGE_LOOP('',(#864,#865,#866,#867));
#157=EDGE_LOOP('',(#868,#869,#870,#871));
#158=EDGE_LOOP('',(#872,#873,#874,#875));
#159=EDGE_LOOP('',(#876,#877,#878,#879));
#160=EDGE_LOOP('',(#880,#881,#882,#883));
#161=EDGE_LOOP('',(#884,#885,#886,#887));
#162=EDGE_LOOP('',(#888,#889,#890,#891));
#163=EDGE_LOOP('',(#892,#893,#894,#895));
#164=EDGE_LOOP('',(#896,#897,#898,#899));
#165=EDGE_LOOP('',(#900,#901,#902,#903));
#166=EDGE_LOOP('',(#904,#905,#906,#907));
#167=EDGE_LOOP('',(#908,#909,#910,#911));
#168=EDGE_LOOP('',(#912,#913,#914,#915));
#169=EDGE_LOOP('',(#916,#917,#918,#919));
#170=EDGE_LOOP('',(#920,#921,#922,#923));
#171=EDGE_LOOP('',(#924,#925,#926,#927));
#172=LINE('',#1397,#286);
#173=LINE('',#1399,#287);
#174=LINE('',#1401,#288);
#175=LINE('',#1402,#289);
#176=LINE('',#1406,#290);
#177=LINE('',#1410,#291);
#178=LINE('',#1412,#292);
#179=LINE('',#1418,#293);
#180=LINE('',#1420,#294);
#181=LINE('',#1422,#295);
#182=LINE('',#1424,#296);
#183=LINE('',#1426,#297);
#184=LINE('',#1428,#298);
#185=LINE('',#1433,#299);
#186=LINE('',#1435,#300);
#187=LINE('',#1437,#301);
#188=LINE('',#1438,#302);
#189=LINE('',#1442,#303);
#190=LINE('',#1444,#304);
#191=LINE('',#1446,#305);
#192=LINE('',#1447,#306);
#193=LINE('',#1451,#307);
#194=LINE('',#1453,#308);
#195=LINE('',#1455,#309);
#196=LINE('',#1456,#310);
#197=LINE('',#1458,#311);
#198=LINE('',#1459,#312);
#199=LINE('',#1463,#313);
#200=LINE('',#1465,#314);
#201=LINE('',#1471,#315);
#202=LINE('',#1473,#316);
#203=LINE('',#1475,#317);
#204=LINE('',#1477,#318);
#205=LINE('',#1479,#319);
#206=LINE('',#1481,#320);
#207=LINE('',#1487,#321);
#208=LINE('',#1489,#322);
#209=LINE('',#1492,#323);
#210=LINE('',#1498,#324);
#211=LINE('',#1500,#325);
#212=LINE('',#1502,#326);
#213=LINE('',#1504,#327);
#214=LINE('',#1508,#328);
#215=LINE('',#1510,#329);
#216=LINE('',#1516,#330);
#217=LINE('',#1517,#331);
#218=LINE('',#1520,#332);
#219=LINE('',#1521,#333);
#220=LINE('',#1524,#334);
#221=LINE('',#1525,#335);
#222=LINE('',#1528,#336);
#223=LINE('',#1529,#337);
#224=LINE('',#1532,#338);
#225=LINE('',#1534,#339);
#226=LINE('',#1535,#340);
#227=LINE('',#1538,#341);
#228=LINE('',#1540,#342);
#229=LINE('',#1541,#343);
#230=LINE('',#1544,#344);
#231=LINE('',#1545,#345);
#232=LINE('',#1549,#346);
#233=LINE('',#1550,#347);
#234=LINE('',#1551,#348);
#235=LINE('',#1553,#349);
#236=LINE('',#1555,#350);
#237=LINE('',#1558,#351);
#238=LINE('',#1559,#352);
#239=LINE('',#1563,#353);
#240=LINE('',#1565,#354);
#241=LINE('',#1567,#355);
#242=LINE('',#1568,#356);
#243=LINE('',#1573,#357);
#244=LINE('',#1579,#358);
#245=LINE('',#1583,#359);
#246=LINE('',#1585,#360);
#247=LINE('',#1586,#361);
#248=LINE('',#1589,#362);
#249=LINE('',#1591,#363);
#250=LINE('',#1592,#364);
#251=LINE('',#1597,#365);
#252=LINE('',#1601,#366);
#253=LINE('',#1607,#367);
#254=LINE('',#1608,#368);
#255=LINE('',#1611,#369);
#256=LINE('',#1615,#370);
#257=LINE('',#1617,#371);
#258=LINE('',#1618,#372);
#259=LINE('',#1621,#373);
#260=LINE('',#1623,#374);
#261=LINE('',#1624,#375);
#262=LINE('',#1630,#376);
#263=LINE('',#1636,#377);
#264=LINE('',#1639,#378);
#265=LINE('',#1641,#379);
#266=LINE('',#1642,#380);
#267=LINE('',#1644,#381);
#268=LINE('',#1645,#382);
#269=LINE('',#1647,#383);
#270=LINE('',#1650,#384);
#271=LINE('',#1657,#385);
#272=LINE('',#1658,#386);
#273=LINE('',#1660,#387);
#274=LINE('',#1662,#388);
#275=LINE('',#1664,#389);
#276=LINE('',#1665,#390);
#277=LINE('',#1667,#391);
#278=LINE('',#1669,#392);
#279=LINE('',#1671,#393);
#280=LINE('',#1672,#394);
#281=LINE('',#1674,#395);
#282=LINE('',#1675,#396);
#283=LINE('',#1677,#397);
#284=LINE('',#1680,#398);
#285=LINE('',#1684,#399);
#286=VECTOR('',#1117,10.);
#287=VECTOR('',#1118,10.);
#288=VECTOR('',#1119,10.);
#289=VECTOR('',#1120,10.);
#290=VECTOR('',#1123,10.);
#291=VECTOR('',#1126,10.);
#292=VECTOR('',#1127,10.);
#293=VECTOR('',#1132,10.);
#294=VECTOR('',#1133,10.);
#295=VECTOR('',#1134,10.);
#296=VECTOR('',#1135,10.);
#297=VECTOR('',#1136,10.);
#298=VECTOR('',#1137,10.);
#299=VECTOR('',#1142,10.);
#300=VECTOR('',#1143,10.);
#301=VECTOR('',#1144,10.);
#302=VECTOR('',#1145,10.);
#303=VECTOR('',#1148,10.);
#304=VECTOR('',#1149,10.);
#305=VECTOR('',#1150,10.);
#306=VECTOR('',#1151,10.);
#307=VECTOR('',#1154,10.);
#308=VECTOR('',#1155,10.);
#309=VECTOR('',#1156,10.);
#310=VECTOR('',#1157,10.);
#311=VECTOR('',#1160,10.);
#312=VECTOR('',#1161,10.);
#313=VECTOR('',#1164,10.);
#314=VECTOR('',#1165,10.);
#315=VECTOR('',#1170,10.);
#316=VECTOR('',#1171,10.);
#317=VECTOR('',#1172,10.);
#318=VECTOR('',#1173,10.);
#319=VECTOR('',#1174,10.);
#320=VECTOR('',#1175,10.);
#321=VECTOR('',#1180,10.);
#322=VECTOR('',#1181,10.);
#323=VECTOR('',#1184,10.);
#324=VECTOR('',#1189,10.);
#325=VECTOR('',#1190,10.);
#326=VECTOR('',#1191,10.);
#327=VECTOR('',#1192,10.);
#328=VECTOR('',#1195,10.);
#329=VECTOR('',#1196,10.);
#330=VECTOR('',#1201,10.);
#331=VECTOR('',#1202,10.);
#332=VECTOR('',#1205,10.);
#333=VECTOR('',#1206,10.);
#334=VECTOR('',#1209,10.);
#335=VECTOR('',#1210,10.);
#336=VECTOR('',#1213,10.);
#337=VECTOR('',#1214,10.);
#338=VECTOR('',#1217,10.);
#339=VECTOR('',#1218,10.);
#340=VECTOR('',#1219,10.);
#341=VECTOR('',#1222,10.);
#342=VECTOR('',#1223,10.);
#343=VECTOR('',#1224,10.);
#344=VECTOR('',#1227,10.);
#345=VECTOR('',#1228,10.);
#346=VECTOR('',#1231,10.);
#347=VECTOR('',#1232,10.);
#348=VECTOR('',#1233,10.);
#349=VECTOR('',#1236,10.);
#350=VECTOR('',#1239,10.);
#351=VECTOR('',#1242,10.);
#352=VECTOR('',#1243,10.);
#353=VECTOR('',#1246,10.);
#354=VECTOR('',#1247,10.);
#355=VECTOR('',#1248,10.);
#356=VECTOR('',#1249,10.);
#357=VECTOR('',#1254,10.);
#358=VECTOR('',#1261,10.);
#359=VECTOR('',#1266,10.);
#360=VECTOR('',#1267,10.);
#361=VECTOR('',#1268,10.);
#362=VECTOR('',#1271,10.);
#363=VECTOR('',#1272,10.);
#364=VECTOR('',#1273,10.);
#365=VECTOR('',#1278,10.);
#366=VECTOR('',#1283,10.);
#367=VECTOR('',#1292,10.);
#368=VECTOR('',#1293,10.);
#369=VECTOR('',#1296,10.);
#370=VECTOR('',#1301,10.);
#371=VECTOR('',#1302,10.);
#372=VECTOR('',#1303,10.);
#373=VECTOR('',#1306,10.);
#374=VECTOR('',#1307,10.);
#375=VECTOR('',#1308,10.);
#376=VECTOR('',#1315,10.);
#377=VECTOR('',#1322,10.);
#378=VECTOR('',#1325,10.);
#379=VECTOR('',#1326,10.);
#380=VECTOR('',#1327,10.);
#381=VECTOR('',#1330,10.);
#382=VECTOR('',#1331,10.);
#383=VECTOR('',#1334,10.);
#384=VECTOR('',#1337,10.);
#385=VECTOR('',#1350,10.);
#386=VECTOR('',#1351,10.);
#387=VECTOR('',#1354,10.);
#388=VECTOR('',#1357,10.);
#389=VECTOR('',#1360,10.);
#390=VECTOR('',#1361,10.);
#391=VECTOR('',#1364,10.);
#392=VECTOR('',#1367,10.);
#393=VECTOR('',#1370,10.);
#394=VECTOR('',#1371,10.);
#395=VECTOR('',#1374,10.);
#396=VECTOR('',#1375,10.);
#397=VECTOR('',#1378,10.);
#398=VECTOR('',#1383,10.);
#399=VECTOR('',#1390,10.);
#400=VERTEX_POINT('',#1395);
#401=VERTEX_POINT('',#1396);
#402=VERTEX_POINT('',#1398);
#403=VERTEX_POINT('',#1400);
#404=VERTEX_POINT('',#1404);
#405=VERTEX_POINT('',#1405);
#406=VERTEX_POINT('',#1407);
#407=VERTEX_POINT('',#1409);
#408=VERTEX_POINT('',#1411);
#409=VERTEX_POINT('',#1413);
#410=VERTEX_POINT('',#1415);
#411=VERTEX_POINT('',#1417);
#412=VERTEX_POINT('',#1419);
#413=VERTEX_POINT('',#1421);
#414=VERTEX_POINT('',#1423);
#415=VERTEX_POINT('',#1425);
#416=VERTEX_POINT('',#1427);
#417=VERTEX_POINT('',#1429);
#418=VERTEX_POINT('',#1431);
#419=VERTEX_POINT('',#1434);
#420=VERTEX_POINT('',#1436);
#421=VERTEX_POINT('',#1440);
#422=VERTEX_POINT('',#1441);
#423=VERTEX_POINT('',#1443);
#424=VERTEX_POINT('',#1445);
#425=VERTEX_POINT('',#1449);
#426=VERTEX_POINT('',#1450);
#427=VERTEX_POINT('',#1452);
#428=VERTEX_POINT('',#1454);
#429=VERTEX_POINT('',#1461);
#430=VERTEX_POINT('',#1462);
#431=VERTEX_POINT('',#1464);
#432=VERTEX_POINT('',#1466);
#433=VERTEX_POINT('',#1468);
#434=VERTEX_POINT('',#1470);
#435=VERTEX_POINT('',#1472);
#436=VERTEX_POINT('',#1474);
#437=VERTEX_POINT('',#1476);
#438=VERTEX_POINT('',#1478);
#439=VERTEX_POINT('',#1480);
#440=VERTEX_POINT('',#1482);
#441=VERTEX_POINT('',#1484);
#442=VERTEX_POINT('',#1486);
#443=VERTEX_POINT('',#1488);
#444=VERTEX_POINT('',#1491);
#445=VERTEX_POINT('',#1493);
#446=VERTEX_POINT('',#1495);
#447=VERTEX_POINT('',#1497);
#448=VERTEX_POINT('',#1499);
#449=VERTEX_POINT('',#1501);
#450=VERTEX_POINT('',#1503);
#451=VERTEX_POINT('',#1505);
#452=VERTEX_POINT('',#1507);
#453=VERTEX_POINT('',#1509);
#454=VERTEX_POINT('',#1511);
#455=VERTEX_POINT('',#1513);
#456=VERTEX_POINT('',#1515);
#457=VERTEX_POINT('',#1519);
#458=VERTEX_POINT('',#1523);
#459=VERTEX_POINT('',#1527);
#460=VERTEX_POINT('',#1531);
#461=VERTEX_POINT('',#1533);
#462=VERTEX_POINT('',#1537);
#463=VERTEX_POINT('',#1539);
#464=VERTEX_POINT('',#1543);
#465=VERTEX_POINT('',#1547);
#466=VERTEX_POINT('',#1548);
#467=VERTEX_POINT('',#1557);
#468=VERTEX_POINT('',#1561);
#469=VERTEX_POINT('',#1562);
#470=VERTEX_POINT('',#1564);
#471=VERTEX_POINT('',#1566);
#472=VERTEX_POINT('',#1570);
#473=VERTEX_POINT('',#1572);
#474=VERTEX_POINT('',#1576);
#475=VERTEX_POINT('',#1578);
#476=VERTEX_POINT('',#1582);
#477=VERTEX_POINT('',#1584);
#478=VERTEX_POINT('',#1588);
#479=VERTEX_POINT('',#1590);
#480=VERTEX_POINT('',#1594);
#481=VERTEX_POINT('',#1596);
#482=VERTEX_POINT('',#1600);
#483=VERTEX_POINT('',#1606);
#484=VERTEX_POINT('',#1610);
#485=VERTEX_POINT('',#1614);
#486=VERTEX_POINT('',#1616);
#487=VERTEX_POINT('',#1620);
#488=VERTEX_POINT('',#1622);
#489=VERTEX_POINT('',#1626);
#490=VERTEX_POINT('',#1628);
#491=VERTEX_POINT('',#1632);
#492=VERTEX_POINT('',#1634);
#493=VERTEX_POINT('',#1638);
#494=VERTEX_POINT('',#1640);
#495=VERTEX_POINT('',#1649);
#496=EDGE_CURVE('',#400,#401,#172,.T.);
#497=EDGE_CURVE('',#402,#400,#173,.T.);
#498=EDGE_CURVE('',#403,#402,#174,.T.);
#499=EDGE_CURVE('',#401,#403,#175,.T.);
#500=EDGE_CURVE('',#404,#405,#176,.F.);
#501=EDGE_CURVE('',#405,#406,#34,.F.);
#502=EDGE_CURVE('',#406,#407,#177,.F.);
#503=EDGE_CURVE('',#408,#407,#178,.T.);
#504=EDGE_CURVE('',#408,#409,#35,.F.);
#505=EDGE_CURVE('',#409,#410,#36,.F.);
#506=EDGE_CURVE('',#410,#411,#179,.T.);
#507=EDGE_CURVE('',#412,#411,#180,.T.);
#508=EDGE_CURVE('',#413,#412,#181,.T.);
#509=EDGE_CURVE('',#413,#414,#182,.T.);
#510=EDGE_CURVE('',#415,#414,#183,.T.);
#511=EDGE_CURVE('',#416,#415,#184,.T.);
#512=EDGE_CURVE('',#416,#417,#37,.F.);
#513=EDGE_CURVE('',#417,#418,#38,.F.);
#514=EDGE_CURVE('',#404,#418,#185,.T.);
#515=EDGE_CURVE('',#419,#403,#186,.T.);
#516=EDGE_CURVE('',#402,#420,#187,.T.);
#517=EDGE_CURVE('',#420,#419,#188,.T.);
#518=EDGE_CURVE('',#421,#422,#189,.T.);
#519=EDGE_CURVE('',#421,#423,#190,.T.);
#520=EDGE_CURVE('',#423,#424,#191,.T.);
#521=EDGE_CURVE('',#422,#424,#192,.T.);
#522=EDGE_CURVE('',#425,#426,#193,.T.);
#523=EDGE_CURVE('',#425,#427,#194,.T.);
#524=EDGE_CURVE('',#428,#427,#195,.T.);
#525=EDGE_CURVE('',#426,#428,#196,.T.);
#526=EDGE_CURVE('',#428,#422,#197,.T.);
#527=EDGE_CURVE('',#427,#421,#198,.T.);
#528=EDGE_CURVE('',#429,#430,#199,.F.);
#529=EDGE_CURVE('',#431,#429,#200,.T.);
#530=EDGE_CURVE('',#432,#431,#39,.F.);
#531=EDGE_CURVE('',#433,#432,#40,.F.);
#532=EDGE_CURVE('',#434,#433,#201,.T.);
#533=EDGE_CURVE('',#435,#434,#202,.T.);
#534=EDGE_CURVE('',#435,#436,#203,.T.);
#535=EDGE_CURVE('',#437,#436,#204,.T.);
#536=EDGE_CURVE('',#438,#437,#205,.T.);
#537=EDGE_CURVE('',#439,#438,#206,.T.);
#538=EDGE_CURVE('',#439,#440,#41,.T.);
#539=EDGE_CURVE('',#440,#441,#42,.T.);
#540=EDGE_CURVE('',#442,#441,#207,.T.);
#541=EDGE_CURVE('',#443,#442,#208,.F.);
#542=EDGE_CURVE('',#430,#443,#43,.F.);
#543=EDGE_CURVE('',#424,#444,#209,.T.);
#544=EDGE_CURVE('',#444,#445,#44,.F.);
#545=EDGE_CURVE('',#445,#446,#45,.F.);
#546=EDGE_CURVE('',#446,#447,#210,.T.);
#547=EDGE_CURVE('',#447,#448,#211,.T.);
#548=EDGE_CURVE('',#448,#449,#212,.T.);
#549=EDGE_CURVE('',#449,#450,#213,.T.);
#550=EDGE_CURVE('',#450,#451,#46,.F.);
#551=EDGE_CURVE('',#451,#452,#214,.F.);
#552=EDGE_CURVE('',#452,#453,#215,.T.);
#553=EDGE_CURVE('',#453,#454,#47,.F.);
#554=EDGE_CURVE('',#454,#455,#48,.F.);
#555=EDGE_CURVE('',#455,#456,#216,.T.);
#556=EDGE_CURVE('',#456,#426,#217,.T.);
#557=EDGE_CURVE('',#457,#423,#218,.T.);
#558=EDGE_CURVE('',#457,#444,#219,.T.);
#559=EDGE_CURVE('',#458,#456,#220,.T.);
#560=EDGE_CURVE('',#425,#458,#221,.T.);
#561=EDGE_CURVE('',#455,#459,#222,.T.);
#562=EDGE_CURVE('',#459,#458,#223,.T.);
#563=EDGE_CURVE('',#452,#460,#224,.T.);
#564=EDGE_CURVE('',#460,#461,#225,.T.);
#565=EDGE_CURVE('',#461,#453,#226,.T.);
#566=EDGE_CURVE('',#447,#462,#227,.T.);
#567=EDGE_CURVE('',#462,#463,#228,.T.);
#568=EDGE_CURVE('',#463,#448,#229,.T.);
#569=EDGE_CURVE('',#464,#463,#230,.T.);
#570=EDGE_CURVE('',#464,#449,#231,.T.);
#571=EDGE_CURVE('',#465,#466,#232,.T.);
#572=EDGE_CURVE('',#419,#465,#233,.T.);
#573=EDGE_CURVE('',#420,#466,#234,.T.);
#574=EDGE_CURVE('',#466,#400,#235,.T.);
#575=EDGE_CURVE('',#401,#465,#236,.T.);
#576=EDGE_CURVE('',#467,#446,#237,.F.);
#577=EDGE_CURVE('',#467,#462,#238,.T.);
#578=EDGE_CURVE('',#468,#469,#239,.T.);
#579=EDGE_CURVE('',#470,#468,#240,.T.);
#580=EDGE_CURVE('',#471,#470,#241,.T.);
#581=EDGE_CURVE('',#469,#471,#242,.T.);
#582=EDGE_CURVE('',#472,#468,#49,.T.);
#583=EDGE_CURVE('',#473,#472,#243,.T.);
#584=EDGE_CURVE('',#470,#473,#50,.T.);
#585=EDGE_CURVE('',#474,#472,#51,.T.);
#586=EDGE_CURVE('',#475,#474,#244,.T.);
#587=EDGE_CURVE('',#473,#475,#52,.T.);
#588=EDGE_CURVE('',#476,#474,#245,.T.);
#589=EDGE_CURVE('',#477,#476,#246,.T.);
#590=EDGE_CURVE('',#475,#477,#247,.T.);
#591=EDGE_CURVE('',#478,#476,#248,.T.);
#592=EDGE_CURVE('',#479,#478,#249,.F.);
#593=EDGE_CURVE('',#477,#479,#250,.T.);
#594=EDGE_CURVE('',#480,#478,#53,.T.);
#595=EDGE_CURVE('',#481,#480,#251,.T.);
#596=EDGE_CURVE('',#479,#481,#54,.T.);
#597=EDGE_CURVE('',#482,#454,#252,.F.);
#598=EDGE_CURVE('',#459,#482,#55,.T.);
#599=EDGE_CURVE('',#482,#461,#56,.T.);
#600=EDGE_CURVE('',#483,#451,#253,.T.);
#601=EDGE_CURVE('',#483,#460,#254,.F.);
#602=EDGE_CURVE('',#484,#450,#255,.F.);
#603=EDGE_CURVE('',#484,#483,#57,.F.);
#604=EDGE_CURVE('',#469,#485,#256,.T.);
#605=EDGE_CURVE('',#486,#471,#257,.T.);
#606=EDGE_CURVE('',#486,#485,#258,.T.);
#607=EDGE_CURVE('',#485,#487,#259,.T.);
#608=EDGE_CURVE('',#488,#486,#260,.T.);
#609=EDGE_CURVE('',#488,#487,#261,.T.);
#610=EDGE_CURVE('',#487,#489,#58,.T.);
#611=EDGE_CURVE('',#490,#488,#59,.T.);
#612=EDGE_CURVE('',#490,#489,#262,.F.);
#613=EDGE_CURVE('',#489,#491,#60,.T.);
#614=EDGE_CURVE('',#492,#490,#61,.T.);
#615=EDGE_CURVE('',#492,#491,#263,.T.);
#616=EDGE_CURVE('',#491,#493,#264,.T.);
#617=EDGE_CURVE('',#494,#492,#265,.T.);
#618=EDGE_CURVE('',#494,#493,#266,.T.);
#619=EDGE_CURVE('',#493,#480,#267,.T.);
#620=EDGE_CURVE('',#481,#494,#268,.T.);
#621=EDGE_CURVE('',#464,#484,#269,.T.);
#622=EDGE_CURVE('',#495,#445,#270,.F.);
#623=EDGE_CURVE('',#495,#467,#62,.F.);
#624=EDGE_CURVE('',#457,#495,#63,.F.);
#625=EDGE_CURVE('',#429,#404,#271,.T.);
#626=EDGE_CURVE('',#431,#418,#272,.F.);
#627=EDGE_CURVE('',#430,#405,#273,.F.);
#628=EDGE_CURVE('',#443,#406,#274,.T.);
#629=EDGE_CURVE('',#411,#438,#275,.T.);
#630=EDGE_CURVE('',#439,#410,#276,.F.);
#631=EDGE_CURVE('',#412,#437,#277,.T.);
#632=EDGE_CURVE('',#436,#413,#278,.T.);
#633=EDGE_CURVE('',#441,#408,#279,.T.);
#634=EDGE_CURVE('',#407,#442,#280,.T.);
#635=EDGE_CURVE('',#415,#434,#281,.T.);
#636=EDGE_CURVE('',#414,#435,#282,.T.);
#637=EDGE_CURVE('',#433,#416,#283,.T.);
#638=EDGE_CURVE('',#440,#409,#284,.T.);
#639=EDGE_CURVE('',#432,#417,#285,.F.);
#640=ORIENTED_EDGE('',*,*,#496,.F.);
#641=ORIENTED_EDGE('',*,*,#497,.F.);
#642=ORIENTED_EDGE('',*,*,#498,.F.);
#643=ORIENTED_EDGE('',*,*,#499,.F.);
#644=ORIENTED_EDGE('',*,*,#500,.T.);
#645=ORIENTED_EDGE('',*,*,#501,.T.);
#646=ORIENTED_EDGE('',*,*,#502,.T.);
#647=ORIENTED_EDGE('',*,*,#503,.F.);
#648=ORIENTED_EDGE('',*,*,#504,.T.);
#649=ORIENTED_EDGE('',*,*,#505,.T.);
#650=ORIENTED_EDGE('',*,*,#506,.T.);
#651=ORIENTED_EDGE('',*,*,#507,.F.);
#652=ORIENTED_EDGE('',*,*,#508,.F.);
#653=ORIENTED_EDGE('',*,*,#509,.T.);
#654=ORIENTED_EDGE('',*,*,#510,.F.);
#655=ORIENTED_EDGE('',*,*,#511,.F.);
#656=ORIENTED_EDGE('',*,*,#512,.T.);
#657=ORIENTED_EDGE('',*,*,#513,.T.);
#658=ORIENTED_EDGE('',*,*,#514,.F.);
#659=ORIENTED_EDGE('',*,*,#515,.T.);
#660=ORIENTED_EDGE('',*,*,#498,.T.);
#661=ORIENTED_EDGE('',*,*,#516,.T.);
#662=ORIENTED_EDGE('',*,*,#517,.T.);
#663=ORIENTED_EDGE('',*,*,#518,.F.);
#664=ORIENTED_EDGE('',*,*,#519,.T.);
#665=ORIENTED_EDGE('',*,*,#520,.T.);
#666=ORIENTED_EDGE('',*,*,#521,.F.);
#667=ORIENTED_EDGE('',*,*,#522,.F.);
#668=ORIENTED_EDGE('',*,*,#523,.T.);
#669=ORIENTED_EDGE('',*,*,#524,.F.);
#670=ORIENTED_EDGE('',*,*,#525,.F.);
#671=ORIENTED_EDGE('',*,*,#526,.F.);
#672=ORIENTED_EDGE('',*,*,#524,.T.);
#673=ORIENTED_EDGE('',*,*,#527,.T.);
#674=ORIENTED_EDGE('',*,*,#518,.T.);
#675=ORIENTED_EDGE('',*,*,#528,.F.);
#676=ORIENTED_EDGE('',*,*,#529,.F.);
#677=ORIENTED_EDGE('',*,*,#530,.F.);
#678=ORIENTED_EDGE('',*,*,#531,.F.);
#679=ORIENTED_EDGE('',*,*,#532,.F.);
#680=ORIENTED_EDGE('',*,*,#533,.F.);
#681=ORIENTED_EDGE('',*,*,#534,.T.);
#682=ORIENTED_EDGE('',*,*,#535,.F.);
#683=ORIENTED_EDGE('',*,*,#536,.F.);
#684=ORIENTED_EDGE('',*,*,#537,.F.);
#685=ORIENTED_EDGE('',*,*,#538,.T.);
#686=ORIENTED_EDGE('',*,*,#539,.T.);
#687=ORIENTED_EDGE('',*,*,#540,.F.);
#688=ORIENTED_EDGE('',*,*,#541,.F.);
#689=ORIENTED_EDGE('',*,*,#542,.F.);
#690=ORIENTED_EDGE('',*,*,#543,.T.);
#691=ORIENTED_EDGE('',*,*,#544,.T.);
#692=ORIENTED_EDGE('',*,*,#545,.T.);
#693=ORIENTED_EDGE('',*,*,#546,.T.);
#694=ORIENTED_EDGE('',*,*,#547,.T.);
#695=ORIENTED_EDGE('',*,*,#548,.T.);
#696=ORIENTED_EDGE('',*,*,#549,.T.);
#697=ORIENTED_EDGE('',*,*,#550,.T.);
#698=ORIENTED_EDGE('',*,*,#551,.T.);
#699=ORIENTED_EDGE('',*,*,#552,.T.);
#700=ORIENTED_EDGE('',*,*,#553,.T.);
#701=ORIENTED_EDGE('',*,*,#554,.T.);
#702=ORIENTED_EDGE('',*,*,#555,.T.);
#703=ORIENTED_EDGE('',*,*,#556,.T.);
#704=ORIENTED_EDGE('',*,*,#525,.T.);
#705=ORIENTED_EDGE('',*,*,#526,.T.);
#706=ORIENTED_EDGE('',*,*,#521,.T.);
#707=ORIENTED_EDGE('',*,*,#543,.F.);
#708=ORIENTED_EDGE('',*,*,#520,.F.);
#709=ORIENTED_EDGE('',*,*,#557,.F.);
#710=ORIENTED_EDGE('',*,*,#558,.T.);
#711=ORIENTED_EDGE('',*,*,#522,.T.);
#712=ORIENTED_EDGE('',*,*,#556,.F.);
#713=ORIENTED_EDGE('',*,*,#559,.F.);
#714=ORIENTED_EDGE('',*,*,#560,.F.);
#715=ORIENTED_EDGE('',*,*,#555,.F.);
#716=ORIENTED_EDGE('',*,*,#561,.T.);
#717=ORIENTED_EDGE('',*,*,#562,.T.);
#718=ORIENTED_EDGE('',*,*,#559,.T.);
#719=ORIENTED_EDGE('',*,*,#552,.F.);
#720=ORIENTED_EDGE('',*,*,#563,.T.);
#721=ORIENTED_EDGE('',*,*,#564,.T.);
#722=ORIENTED_EDGE('',*,*,#565,.T.);
#723=ORIENTED_EDGE('',*,*,#547,.F.);
#724=ORIENTED_EDGE('',*,*,#566,.T.);
#725=ORIENTED_EDGE('',*,*,#567,.T.);
#726=ORIENTED_EDGE('',*,*,#568,.T.);
#727=ORIENTED_EDGE('',*,*,#569,.F.);
#728=ORIENTED_EDGE('',*,*,#570,.T.);
#729=ORIENTED_EDGE('',*,*,#548,.F.);
#730=ORIENTED_EDGE('',*,*,#568,.F.);
#731=ORIENTED_EDGE('',*,*,#571,.F.);
#732=ORIENTED_EDGE('',*,*,#572,.F.);
#733=ORIENTED_EDGE('',*,*,#517,.F.);
#734=ORIENTED_EDGE('',*,*,#573,.T.);
#735=ORIENTED_EDGE('',*,*,#574,.F.);
#736=ORIENTED_EDGE('',*,*,#573,.F.);
#737=ORIENTED_EDGE('',*,*,#516,.F.);
#738=ORIENTED_EDGE('',*,*,#497,.T.);
#739=ORIENTED_EDGE('',*,*,#575,.F.);
#740=ORIENTED_EDGE('',*,*,#499,.T.);
#741=ORIENTED_EDGE('',*,*,#515,.F.);
#742=ORIENTED_EDGE('',*,*,#572,.T.);
#743=ORIENTED_EDGE('',*,*,#546,.F.);
#744=ORIENTED_EDGE('',*,*,#576,.F.);
#745=ORIENTED_EDGE('',*,*,#577,.T.);
#746=ORIENTED_EDGE('',*,*,#566,.F.);
#747=ORIENTED_EDGE('',*,*,#578,.F.);
#748=ORIENTED_EDGE('',*,*,#579,.F.);
#749=ORIENTED_EDGE('',*,*,#580,.F.);
#750=ORIENTED_EDGE('',*,*,#581,.F.);
#751=ORIENTED_EDGE('',*,*,#582,.F.);
#752=ORIENTED_EDGE('',*,*,#583,.F.);
#753=ORIENTED_EDGE('',*,*,#584,.F.);
#754=ORIENTED_EDGE('',*,*,#579,.T.);
#755=ORIENTED_EDGE('',*,*,#585,.F.);
#756=ORIENTED_EDGE('',*,*,#586,.F.);
#757=ORIENTED_EDGE('',*,*,#587,.F.);
#758=ORIENTED_EDGE('',*,*,#583,.T.);
#759=ORIENTED_EDGE('',*,*,#588,.F.);
#760=ORIENTED_EDGE('',*,*,#589,.F.);
#761=ORIENTED_EDGE('',*,*,#590,.F.);
#762=ORIENTED_EDGE('',*,*,#586,.T.);
#763=ORIENTED_EDGE('',*,*,#591,.F.);
#764=ORIENTED_EDGE('',*,*,#592,.F.);
#765=ORIENTED_EDGE('',*,*,#593,.F.);
#766=ORIENTED_EDGE('',*,*,#589,.T.);
#767=ORIENTED_EDGE('',*,*,#594,.F.);
#768=ORIENTED_EDGE('',*,*,#595,.F.);
#769=ORIENTED_EDGE('',*,*,#596,.F.);
#770=ORIENTED_EDGE('',*,*,#592,.T.);
#771=ORIENTED_EDGE('',*,*,#554,.F.);
#772=ORIENTED_EDGE('',*,*,#597,.F.);
#773=ORIENTED_EDGE('',*,*,#598,.F.);
#774=ORIENTED_EDGE('',*,*,#561,.F.);
#775=ORIENTED_EDGE('',*,*,#553,.F.);
#776=ORIENTED_EDGE('',*,*,#565,.F.);
#777=ORIENTED_EDGE('',*,*,#599,.F.);
#778=ORIENTED_EDGE('',*,*,#597,.T.);
#779=ORIENTED_EDGE('',*,*,#551,.F.);
#780=ORIENTED_EDGE('',*,*,#600,.F.);
#781=ORIENTED_EDGE('',*,*,#601,.T.);
#782=ORIENTED_EDGE('',*,*,#563,.F.);
#783=ORIENTED_EDGE('',*,*,#550,.F.);
#784=ORIENTED_EDGE('',*,*,#602,.F.);
#785=ORIENTED_EDGE('',*,*,#603,.T.);
#786=ORIENTED_EDGE('',*,*,#600,.T.);
#787=ORIENTED_EDGE('',*,*,#604,.F.);
#788=ORIENTED_EDGE('',*,*,#581,.T.);
#789=ORIENTED_EDGE('',*,*,#605,.F.);
#790=ORIENTED_EDGE('',*,*,#606,.T.);
#791=ORIENTED_EDGE('',*,*,#607,.F.);
#792=ORIENTED_EDGE('',*,*,#606,.F.);
#793=ORIENTED_EDGE('',*,*,#608,.F.);
#794=ORIENTED_EDGE('',*,*,#609,.T.);
#795=ORIENTED_EDGE('',*,*,#610,.F.);
#796=ORIENTED_EDGE('',*,*,#609,.F.);
#797=ORIENTED_EDGE('',*,*,#611,.F.);
#798=ORIENTED_EDGE('',*,*,#612,.T.);
#799=ORIENTED_EDGE('',*,*,#613,.F.);
#800=ORIENTED_EDGE('',*,*,#612,.F.);
#801=ORIENTED_EDGE('',*,*,#614,.F.);
#802=ORIENTED_EDGE('',*,*,#615,.T.);
#803=ORIENTED_EDGE('',*,*,#616,.F.);
#804=ORIENTED_EDGE('',*,*,#615,.F.);
#805=ORIENTED_EDGE('',*,*,#617,.F.);
#806=ORIENTED_EDGE('',*,*,#618,.T.);
#807=ORIENTED_EDGE('',*,*,#619,.F.);
#808=ORIENTED_EDGE('',*,*,#618,.F.);
#809=ORIENTED_EDGE('',*,*,#620,.F.);
#810=ORIENTED_EDGE('',*,*,#595,.T.);
#811=ORIENTED_EDGE('',*,*,#549,.F.);
#812=ORIENTED_EDGE('',*,*,#570,.F.);
#813=ORIENTED_EDGE('',*,*,#621,.T.);
#814=ORIENTED_EDGE('',*,*,#602,.T.);
#815=ORIENTED_EDGE('',*,*,#545,.F.);
#816=ORIENTED_EDGE('',*,*,#622,.F.);
#817=ORIENTED_EDGE('',*,*,#623,.T.);
#818=ORIENTED_EDGE('',*,*,#576,.T.);
#819=ORIENTED_EDGE('',*,*,#544,.F.);
#820=ORIENTED_EDGE('',*,*,#558,.F.);
#821=ORIENTED_EDGE('',*,*,#624,.T.);
#822=ORIENTED_EDGE('',*,*,#622,.T.);
#823=ORIENTED_EDGE('',*,*,#527,.F.);
#824=ORIENTED_EDGE('',*,*,#523,.F.);
#825=ORIENTED_EDGE('',*,*,#560,.T.);
#826=ORIENTED_EDGE('',*,*,#562,.F.);
#827=ORIENTED_EDGE('',*,*,#598,.T.);
#828=ORIENTED_EDGE('',*,*,#599,.T.);
#829=ORIENTED_EDGE('',*,*,#564,.F.);
#830=ORIENTED_EDGE('',*,*,#601,.F.);
#831=ORIENTED_EDGE('',*,*,#603,.F.);
#832=ORIENTED_EDGE('',*,*,#621,.F.);
#833=ORIENTED_EDGE('',*,*,#569,.T.);
#834=ORIENTED_EDGE('',*,*,#567,.F.);
#835=ORIENTED_EDGE('',*,*,#577,.F.);
#836=ORIENTED_EDGE('',*,*,#623,.F.);
#837=ORIENTED_EDGE('',*,*,#624,.F.);
#838=ORIENTED_EDGE('',*,*,#557,.T.);
#839=ORIENTED_EDGE('',*,*,#519,.F.);
#840=ORIENTED_EDGE('',*,*,#596,.T.);
#841=ORIENTED_EDGE('',*,*,#620,.T.);
#842=ORIENTED_EDGE('',*,*,#617,.T.);
#843=ORIENTED_EDGE('',*,*,#614,.T.);
#844=ORIENTED_EDGE('',*,*,#611,.T.);
#845=ORIENTED_EDGE('',*,*,#608,.T.);
#846=ORIENTED_EDGE('',*,*,#605,.T.);
#847=ORIENTED_EDGE('',*,*,#580,.T.);
#848=ORIENTED_EDGE('',*,*,#584,.T.);
#849=ORIENTED_EDGE('',*,*,#587,.T.);
#850=ORIENTED_EDGE('',*,*,#590,.T.);
#851=ORIENTED_EDGE('',*,*,#593,.T.);
#852=ORIENTED_EDGE('',*,*,#594,.T.);
#853=ORIENTED_EDGE('',*,*,#591,.T.);
#854=ORIENTED_EDGE('',*,*,#588,.T.);
#855=ORIENTED_EDGE('',*,*,#585,.T.);
#856=ORIENTED_EDGE('',*,*,#582,.T.);
#857=ORIENTED_EDGE('',*,*,#578,.T.);
#858=ORIENTED_EDGE('',*,*,#604,.T.);
#859=ORIENTED_EDGE('',*,*,#607,.T.);
#860=ORIENTED_EDGE('',*,*,#610,.T.);
#861=ORIENTED_EDGE('',*,*,#613,.T.);
#862=ORIENTED_EDGE('',*,*,#616,.T.);
#863=ORIENTED_EDGE('',*,*,#619,.T.);
#864=ORIENTED_EDGE('',*,*,#575,.T.);
#865=ORIENTED_EDGE('',*,*,#571,.T.);
#866=ORIENTED_EDGE('',*,*,#574,.T.);
#867=ORIENTED_EDGE('',*,*,#496,.T.);
#868=ORIENTED_EDGE('',*,*,#625,.T.);
#869=ORIENTED_EDGE('',*,*,#514,.T.);
#870=ORIENTED_EDGE('',*,*,#626,.F.);
#871=ORIENTED_EDGE('',*,*,#529,.T.);
#872=ORIENTED_EDGE('',*,*,#528,.T.);
#873=ORIENTED_EDGE('',*,*,#627,.T.);
#874=ORIENTED_EDGE('',*,*,#500,.F.);
#875=ORIENTED_EDGE('',*,*,#625,.F.);
#876=ORIENTED_EDGE('',*,*,#501,.F.);
#877=ORIENTED_EDGE('',*,*,#627,.F.);
#878=ORIENTED_EDGE('',*,*,#542,.T.);
#879=ORIENTED_EDGE('',*,*,#628,.T.);
#880=ORIENTED_EDGE('',*,*,#537,.T.);
#881=ORIENTED_EDGE('',*,*,#629,.F.);
#882=ORIENTED_EDGE('',*,*,#506,.F.);
#883=ORIENTED_EDGE('',*,*,#630,.F.);
#884=ORIENTED_EDGE('',*,*,#631,.F.);
#885=ORIENTED_EDGE('',*,*,#507,.T.);
#886=ORIENTED_EDGE('',*,*,#629,.T.);
#887=ORIENTED_EDGE('',*,*,#536,.T.);
#888=ORIENTED_EDGE('',*,*,#631,.T.);
#889=ORIENTED_EDGE('',*,*,#535,.T.);
#890=ORIENTED_EDGE('',*,*,#632,.T.);
#891=ORIENTED_EDGE('',*,*,#508,.T.);
#892=ORIENTED_EDGE('',*,*,#540,.T.);
#893=ORIENTED_EDGE('',*,*,#633,.T.);
#894=ORIENTED_EDGE('',*,*,#503,.T.);
#895=ORIENTED_EDGE('',*,*,#634,.T.);
#896=ORIENTED_EDGE('',*,*,#635,.F.);
#897=ORIENTED_EDGE('',*,*,#510,.T.);
#898=ORIENTED_EDGE('',*,*,#636,.T.);
#899=ORIENTED_EDGE('',*,*,#533,.T.);
#900=ORIENTED_EDGE('',*,*,#532,.T.);
#901=ORIENTED_EDGE('',*,*,#637,.T.);
#902=ORIENTED_EDGE('',*,*,#511,.T.);
#903=ORIENTED_EDGE('',*,*,#635,.T.);
#904=ORIENTED_EDGE('',*,*,#509,.F.);
#905=ORIENTED_EDGE('',*,*,#632,.F.);
#906=ORIENTED_EDGE('',*,*,#534,.F.);
#907=ORIENTED_EDGE('',*,*,#636,.F.);
#908=ORIENTED_EDGE('',*,*,#538,.F.);
#909=ORIENTED_EDGE('',*,*,#630,.T.);
#910=ORIENTED_EDGE('',*,*,#505,.F.);
#911=ORIENTED_EDGE('',*,*,#638,.F.);
#912=ORIENTED_EDGE('',*,*,#539,.F.);
#913=ORIENTED_EDGE('',*,*,#638,.T.);
#914=ORIENTED_EDGE('',*,*,#504,.F.);
#915=ORIENTED_EDGE('',*,*,#633,.F.);
#916=ORIENTED_EDGE('',*,*,#541,.T.);
#917=ORIENTED_EDGE('',*,*,#634,.F.);
#918=ORIENTED_EDGE('',*,*,#502,.F.);
#919=ORIENTED_EDGE('',*,*,#628,.F.);
#920=ORIENTED_EDGE('',*,*,#530,.T.);
#921=ORIENTED_EDGE('',*,*,#626,.T.);
#922=ORIENTED_EDGE('',*,*,#513,.F.);
#923=ORIENTED_EDGE('',*,*,#639,.F.);
#924=ORIENTED_EDGE('',*,*,#531,.T.);
#925=ORIENTED_EDGE('',*,*,#639,.T.);
#926=ORIENTED_EDGE('',*,*,#512,.F.);
#927=ORIENTED_EDGE('',*,*,#637,.F.);
#928=PLANE('',#1031);
#929=PLANE('',#1032);
#930=PLANE('',#1038);
#931=PLANE('',#1039);
#932=PLANE('',#1040);
#933=PLANE('',#1041);
#934=PLANE('',#1052);
#935=PLANE('',#1053);
#936=PLANE('',#1054);
#937=PLANE('',#1055);
#938=PLANE('',#1056);
#939=PLANE('',#1057);
#940=PLANE('',#1058);
#941=PLANE('',#1059);
#942=PLANE('',#1060);
#943=PLANE('',#1061);
#944=PLANE('',#1062);
#945=PLANE('',#1069);
#946=PLANE('',#1070);
#947=PLANE('',#1078);
#948=PLANE('',#1081);
#949=PLANE('',#1082);
#950=PLANE('',#1089);
#951=PLANE('',#1090);
#952=PLANE('',#1091);
#953=PLANE('',#1096);
#954=PLANE('',#1097);
#955=PLANE('',#1098);
#956=PLANE('',#1099);
#957=PLANE('',#1101);
#958=PLANE('',#1102);
#959=PLANE('',#1103);
#960=PLANE('',#1104);
#961=PLANE('',#1105);
#962=PLANE('',#1106);
#963=PLANE('',#1107);
#964=PLANE('',#1110);
#965=ADVANCED_FACE('',(#64),#928,.F.);
#966=ADVANCED_FACE('',(#65,#30),#929,.T.);
#967=ADVANCED_FACE('',(#66),#930,.T.);
#968=ADVANCED_FACE('',(#67),#931,.T.);
#969=ADVANCED_FACE('',(#68),#932,.T.);
#970=ADVANCED_FACE('',(#69,#31),#933,.F.);
#971=ADVANCED_FACE('',(#70),#934,.T.);
#972=ADVANCED_FACE('',(#71),#935,.T.);
#973=ADVANCED_FACE('',(#72),#936,.T.);
#974=ADVANCED_FACE('',(#73),#937,.T.);
#975=ADVANCED_FACE('',(#74),#938,.T.);
#976=ADVANCED_FACE('',(#75),#939,.T.);
#977=ADVANCED_FACE('',(#76),#940,.F.);
#978=ADVANCED_FACE('',(#77),#941,.F.);
#979=ADVANCED_FACE('',(#78),#942,.F.);
#980=ADVANCED_FACE('',(#79),#943,.T.);
#981=ADVANCED_FACE('',(#80),#944,.F.);
#982=ADVANCED_FACE('',(#81),#15,.F.);
#983=ADVANCED_FACE('',(#82),#16,.F.);
#984=ADVANCED_FACE('',(#83),#945,.F.);
#985=ADVANCED_FACE('',(#84),#946,.F.);
#986=ADVANCED_FACE('',(#85),#17,.F.);
#987=ADVANCED_FACE('',(#86),#18,.F.);
#988=ADVANCED_FACE('',(#87),#19,.F.);
#989=ADVANCED_FACE('',(#88),#947,.T.);
#990=ADVANCED_FACE('',(#89),#20,.T.);
#991=ADVANCED_FACE('',(#90),#948,.T.);
#992=ADVANCED_FACE('',(#91),#949,.F.);
#993=ADVANCED_FACE('',(#92),#21,.T.);
#994=ADVANCED_FACE('',(#93),#22,.T.);
#995=ADVANCED_FACE('',(#94),#950,.F.);
#996=ADVANCED_FACE('',(#95),#951,.F.);
#997=ADVANCED_FACE('',(#96),#952,.T.);
#998=ADVANCED_FACE('',(#97),#23,.T.);
#999=ADVANCED_FACE('',(#98),#24,.T.);
#1000=ADVANCED_FACE('',(#99,#32),#953,.F.);
#1001=ADVANCED_FACE('',(#100,#33),#954,.F.);
#1002=ADVANCED_FACE('',(#101),#955,.T.);
#1003=ADVANCED_FACE('',(#102),#956,.T.);
#1004=ADVANCED_FACE('',(#103),#25,.T.);
#1005=ADVANCED_FACE('',(#104),#957,.T.);
#1006=ADVANCED_FACE('',(#105),#958,.T.);
#1007=ADVANCED_FACE('',(#106),#959,.T.);
#1008=ADVANCED_FACE('',(#107),#960,.T.);
#1009=ADVANCED_FACE('',(#108),#961,.T.);
#1010=ADVANCED_FACE('',(#109),#962,.T.);
#1011=ADVANCED_FACE('',(#110),#963,.T.);
#1012=ADVANCED_FACE('',(#111),#26,.F.);
#1013=ADVANCED_FACE('',(#112),#27,.F.);
#1014=ADVANCED_FACE('',(#113),#964,.T.);
#1015=ADVANCED_FACE('',(#114),#28,.T.);
#1016=ADVANCED_FACE('',(#115),#29,.T.);
#1017=CLOSED_SHELL('',(#965,#966,#967,#968,#969,#970,#971,#972,#973,#974,
#975,#976,#977,#978,#979,#980,#981,#982,#983,#984,#985,#986,#987,#988,#989,
#990,#991,#992,#993,#994,#995,#996,#997,#998,#999,#1000,#1001,#1002,#1003,
#1004,#1005,#1006,#1007,#1008,#1009,#1010,#1011,#1012,#1013,#1014,#1015,
#1016));
#1018=DERIVED_UNIT_ELEMENT(#1020,1.);
#1019=DERIVED_UNIT_ELEMENT(#1691,-3.);
#1020=(
MASS_UNIT()
NAMED_UNIT(*)
SI_UNIT(.KILO.,.GRAM.)
);
#1021=DERIVED_UNIT((#1018,#1019));
#1022=MEASURE_REPRESENTATION_ITEM('density measure',
POSITIVE_RATIO_MEASURE(7850.),#1021);
#1023=PROPERTY_DEFINITION_REPRESENTATION(#1028,#1025);
#1024=PROPERTY_DEFINITION_REPRESENTATION(#1029,#1026);
#1025=REPRESENTATION('material name',(#1027),#1688);
#1026=REPRESENTATION('density',(#1022),#1688);
#1027=DESCRIPTIVE_REPRESENTATION_ITEM('Steel','Steel');
#1028=PROPERTY_DEFINITION('material property','material name',#1698);
#1029=PROPERTY_DEFINITION('material property','density of part',#1698);
#1030=AXIS2_PLACEMENT_3D('',#1393,#1113,#1114);
#1031=AXIS2_PLACEMENT_3D('',#1394,#1115,#1116);
#1032=AXIS2_PLACEMENT_3D('',#1403,#1121,#1122);
#1033=AXIS2_PLACEMENT_3D('',#1408,#1124,#1125);
#1034=AXIS2_PLACEMENT_3D('',#1414,#1128,#1129);
#1035=AXIS2_PLACEMENT_3D('',#1416,#1130,#1131);
#1036=AXIS2_PLACEMENT_3D('',#1430,#1138,#1139);
#1037=AXIS2_PLACEMENT_3D('',#1432,#1140,#1141);
#1038=AXIS2_PLACEMENT_3D('',#1439,#1146,#1147);
#1039=AXIS2_PLACEMENT_3D('',#1448,#1152,#1153);
#1040=AXIS2_PLACEMENT_3D('',#1457,#1158,#1159);
#1041=AXIS2_PLACEMENT_3D('',#1460,#1162,#1163);
#1042=AXIS2_PLACEMENT_3D('',#1467,#1166,#1167);
#1043=AXIS2_PLACEMENT_3D('',#1469,#1168,#1169);
#1044=AXIS2_PLACEMENT_3D('',#1483,#1176,#1177);
#1045=AXIS2_PLACEMENT_3D('',#1485,#1178,#1179);
#1046=AXIS2_PLACEMENT_3D('',#1490,#1182,#1183);
#1047=AXIS2_PLACEMENT_3D('',#1494,#1185,#1186);
#1048=AXIS2_PLACEMENT_3D('',#1496,#1187,#1188);
#1049=AXIS2_PLACEMENT_3D('',#1506,#1193,#1194);
#1050=AXIS2_PLACEMENT_3D('',#1512,#1197,#1198);
#1051=AXIS2_PLACEMENT_3D('',#1514,#1199,#1200);
#1052=AXIS2_PLACEMENT_3D('',#1518,#1203,#1204);
#1053=AXIS2_PLACEMENT_3D('',#1522,#1207,#1208);
#1054=AXIS2_PLACEMENT_3D('',#1526,#1211,#1212);
#1055=AXIS2_PLACEMENT_3D('',#1530,#1215,#1216);
#1056=AXIS2_PLACEMENT_3D('',#1536,#1220,#1221);
#1057=AXIS2_PLACEMENT_3D('',#1542,#1225,#1226);
#1058=AXIS2_PLACEMENT_3D('',#1546,#1229,#1230);
#1059=AXIS2_PLACEMENT_3D('',#1552,#1234,#1235);
#1060=AXIS2_PLACEMENT_3D('',#1554,#1237,#1238);
#1061=AXIS2_PLACEMENT_3D('',#1556,#1240,#1241);
#1062=AXIS2_PLACEMENT_3D('',#1560,#1244,#1245);
#1063=AXIS2_PLACEMENT_3D('',#1569,#1250,#1251);
#1064=AXIS2_PLACEMENT_3D('',#1571,#1252,#1253);
#1065=AXIS2_PLACEMENT_3D('',#1574,#1255,#1256);
#1066=AXIS2_PLACEMENT_3D('',#1575,#1257,#1258);
#1067=AXIS2_PLACEMENT_3D('',#1577,#1259,#1260);
#1068=AXIS2_PLACEMENT_3D('',#1580,#1262,#1263);
#1069=AXIS2_PLACEMENT_3D('',#1581,#1264,#1265);
#1070=AXIS2_PLACEMENT_3D('',#1587,#1269,#1270);
#1071=AXIS2_PLACEMENT_3D('',#1593,#1274,#1275);
#1072=AXIS2_PLACEMENT_3D('',#1595,#1276,#1277);
#1073=AXIS2_PLACEMENT_3D('',#1598,#1279,#1280);
#1074=AXIS2_PLACEMENT_3D('',#1599,#1281,#1282);
#1075=AXIS2_PLACEMENT_3D('',#1602,#1284,#1285);
#1076=AXIS2_PLACEMENT_3D('',#1603,#1286,#1287);
#1077=AXIS2_PLACEMENT_3D('',#1604,#1288,#1289);
#1078=AXIS2_PLACEMENT_3D('',#1605,#1290,#1291);
#1079=AXIS2_PLACEMENT_3D('',#1609,#1294,#1295);
#1080=AXIS2_PLACEMENT_3D('',#1612,#1297,#1298);
#1081=AXIS2_PLACEMENT_3D('',#1613,#1299,#1300);
#1082=AXIS2_PLACEMENT_3D('',#1619,#1304,#1305);
#1083=AXIS2_PLACEMENT_3D('',#1625,#1309,#1310);
#1084=AXIS2_PLACEMENT_3D('',#1627,#1311,#1312);
#1085=AXIS2_PLACEMENT_3D('',#1629,#1313,#1314);
#1086=AXIS2_PLACEMENT_3D('',#1631,#1316,#1317);
#1087=AXIS2_PLACEMENT_3D('',#1633,#1318,#1319);
#1088=AXIS2_PLACEMENT_3D('',#1635,#1320,#1321);
#1089=AXIS2_PLACEMENT_3D('',#1637,#1323,#1324);
#1090=AXIS2_PLACEMENT_3D('',#1643,#1328,#1329);
#1091=AXIS2_PLACEMENT_3D('',#1646,#1332,#1333);
#1092=AXIS2_PLACEMENT_3D('',#1648,#1335,#1336);
#1093=AXIS2_PLACEMENT_3D('',#1651,#1338,#1339);
#1094=AXIS2_PLACEMENT_3D('',#1652,#1340,#1341);
#1095=AXIS2_PLACEMENT_3D('',#1653,#1342,#1343);
#1096=AXIS2_PLACEMENT_3D('',#1654,#1344,#1345);
#1097=AXIS2_PLACEMENT_3D('',#1655,#1346,#1347);
#1098=AXIS2_PLACEMENT_3D('',#1656,#1348,#1349);
#1099=AXIS2_PLACEMENT_3D('',#1659,#1352,#1353);
#1100=AXIS2_PLACEMENT_3D('',#1661,#1355,#1356);
#1101=AXIS2_PLACEMENT_3D('',#1663,#1358,#1359);
#1102=AXIS2_PLACEMENT_3D('',#1666,#1362,#1363);
#1103=AXIS2_PLACEMENT_3D('',#1668,#1365,#1366);
#1104=AXIS2_PLACEMENT_3D('',#1670,#1368,#1369);
#1105=AXIS2_PLACEMENT_3D('',#1673,#1372,#1373);
#1106=AXIS2_PLACEMENT_3D('',#1676,#1376,#1377);
#1107=AXIS2_PLACEMENT_3D('',#1678,#1379,#1380);
#1108=AXIS2_PLACEMENT_3D('',#1679,#1381,#1382);
#1109=AXIS2_PLACEMENT_3D('',#1681,#1384,#1385);
#1110=AXIS2_PLACEMENT_3D('',#1682,#1386,#1387);
#1111=AXIS2_PLACEMENT_3D('',#1683,#1388,#1389);
#1112=AXIS2_PLACEMENT_3D('',#1685,#1391,#1392);
#1113=DIRECTION('axis',(0.,0.,1.));
#1114=DIRECTION('refdir',(1.,0.,0.));
#1115=DIRECTION('center_axis',(0.,-0.81915204428899,-0.573576436351048));
#1116=DIRECTION('ref_axis',(-1.,0.,0.));
#1117=DIRECTION('',(1.70207928267315E-31,-0.573576436351048,0.81915204428899));
#1118=DIRECTION('',(1.,0.,0.));
#1119=DIRECTION('',(-1.70207928267315E-31,0.573576436351048,-0.81915204428899));
#1120=DIRECTION('',(-1.,0.,0.));
#1121=DIRECTION('center_axis',(-1.,2.12072429867891E-45,2.07785513634473E-31));
#1122=DIRECTION('ref_axis',(-2.12072429867891E-45,-1.,0.));
#1123=DIRECTION('',(-1.28273311274389E-31,-0.786700230630853,-0.617335198352858));
#1124=DIRECTION('center_axis',(1.,-2.12072429867891E-45,-2.07785513634473E-31));
#1125=DIRECTION('ref_axis',(0.,-0.573576436351044,0.819152044288993));
#1126=DIRECTION('',(1.18608369323345E-31,0.821074415389946,0.570821166734432));
#1127=DIRECTION('',(0.,0.819152044151195,0.573576436547841));
#1128=DIRECTION('center_axis',(-1.,2.12072429867891E-45,2.07785513634473E-31));
#1129=DIRECTION('ref_axis',(0.,-0.641197374164553,0.767376001295637));
#1130=DIRECTION('center_axis',(-1.,2.12072429867891E-45,2.07785513634473E-31));
#1131=DIRECTION('ref_axis',(0.,-1.,0.));
#1132=DIRECTION('',(0.,0.,-1.));
#1133=DIRECTION('',(0.,1.,0.));
#1134=DIRECTION('',(0.,0.00263132763882679,0.999996538051436));
#1135=DIRECTION('',(0.,-0.999996538051436,0.002631327638829));
#1136=DIRECTION('',(0.,-0.00263132763882679,-0.999996538051436));
#1137=DIRECTION('',(0.,-2.69124805951115E-16,-1.));
#1138=DIRECTION('center_axis',(1.,-2.12072429867891E-45,-2.07785513634473E-31));
#1139=DIRECTION('ref_axis',(0.,-1.,1.4210854715202E-15));
#1140=DIRECTION('center_axis',(1.,-2.12072429867891E-45,-2.07785513634473E-31));
#1141=DIRECTION('ref_axis',(0.,-0.603941023597662,0.797029008264949));
#1142=DIRECTION('',(9.38881941625442E-17,-0.819152044288993,-0.573576436351045));
#1143=DIRECTION('',(-1.19180874435835E-31,-0.81915204428899,-0.573576436351048));
#1144=DIRECTION('',(1.19180874435835E-31,0.81915204428899,0.573576436351048));
#1145=DIRECTION('',(1.70207928267315E-31,-0.573576436351047,0.819152044288991));
#1146=DIRECTION('center_axis',(0.,0.,-1.));
#1147=DIRECTION('ref_axis',(-1.,0.,0.));
#1148=DIRECTION('',(-1.,0.,0.));
#1149=DIRECTION('',(0.,-1.,0.));
#1150=DIRECTION('',(-1.,0.,0.));
#1151=DIRECTION('',(-2.12072429867891E-45,-1.,0.));
#1152=DIRECTION('center_axis',(0.,0.999996538051436,-0.00263132763878029));
#1153=DIRECTION('ref_axis',(1.,0.,0.));
#1154=DIRECTION('',(-1.,0.,0.));
#1155=DIRECTION('',(0.,-0.00263132763878029,-0.999996538051436));
#1156=DIRECTION('',(1.,0.,0.));
#1157=DIRECTION('',(-2.07784794291712E-31,-0.00263132763878029,-0.999996538051436));
#1158=DIRECTION('center_axis',(0.,-0.00263132763878029,-0.999996538051436));
#1159=DIRECTION('ref_axis',(-1.,0.,0.));
#1160=DIRECTION('',(5.46751764962426E-34,-0.999996538051436,0.00263132763878029));
#1161=DIRECTION('',(5.46751764972047E-34,-0.999996538051436,0.00263132763882659));
#1162=DIRECTION('center_axis',(-1.,2.12072429867891E-45,2.07785513634473E-31));
#1163=DIRECTION('ref_axis',(-2.12072429867891E-45,-1.,0.));
#1164=DIRECTION('',(-1.28273311274389E-31,-0.786700230630853,-0.617335198352858));
#1165=DIRECTION('',(-9.38881941625442E-17,0.819152044288993,0.573576436351045));
#1166=DIRECTION('center_axis',(1.,-2.12072429867891E-45,-2.07785513634473E-31));
#1167=DIRECTION('ref_axis',(0.,-0.603941023597662,0.797029008264949));
#1168=DIRECTION('center_axis',(1.,-2.12072429867891E-45,-2.07785513634473E-31));
#1169=DIRECTION('ref_axis',(0.,-1.,1.4210854715202E-15));
#1170=DIRECTION('',(0.,2.69124805951115E-16,1.));
#1171=DIRECTION('',(0.,0.00263132763882679,0.999996538051436));
#1172=DIRECTION('',(0.,0.999996538051436,-0.002631327638829));
#1173=DIRECTION('',(0.,-0.00263132763882679,-0.999996538051436));
#1174=DIRECTION('',(0.,-1.,0.));
#1175=DIRECTION('',(-1.98155197385465E-43,0.,-1.));
#1176=DIRECTION('center_axis',(-1.,2.12072429867891E-45,2.07785513634473E-31));
#1177=DIRECTION('ref_axis',(0.,-1.,0.));
#1178=DIRECTION('center_axis',(-1.,2.12072429867891E-45,2.07785513634473E-31));
#1179=DIRECTION('ref_axis',(0.,-0.641197374164553,0.767376001295637));
#1180=DIRECTION('',(0.,-0.819152044151195,-0.573576436547841));
#1181=DIRECTION('',(1.18608369323345E-31,0.821074415389946,0.570821166734432));
#1182=DIRECTION('center_axis',(1.,-2.12072429867891E-45,-2.07785513634473E-31));
#1183=DIRECTION('ref_axis',(0.,-0.573576436351044,0.819152044288993));
#1184=DIRECTION('',(2.07785513634473E-31,0.,1.));
#1185=DIRECTION('center_axis',(1.,-2.12072429867891E-45,-2.07785513634473E-31));
#1186=DIRECTION('ref_axis',(0.,-1.,1.4210854715202E-15));
#1187=DIRECTION('center_axis',(1.,-2.12072429867891E-45,-2.07785513634473E-31));
#1188=DIRECTION('ref_axis',(0.,-0.603941023597662,0.797029008264949));
#1189=DIRECTION('',(1.70207928267321E-31,-0.573576436351003,0.819152044289022));
#1190=DIRECTION('',(1.19180874435825E-31,0.819152044289022,0.573576436351003));
#1191=DIRECTION('',(-1.70207928267317E-31,0.573576436351033,-0.819152044289001));
#1192=DIRECTION('',(1.28273311274389E-31,0.786700230630853,0.617335198352858));
#1193=DIRECTION('center_axis',(1.,-2.12072429867891E-45,-2.07785513634473E-31));
#1194=DIRECTION('ref_axis',(0.,-0.573576436351044,0.819152044288993));
#1195=DIRECTION('',(1.18608369323345E-31,0.821074415389946,0.570821166734432));
#1196=DIRECTION('',(-1.19180874476732E-31,-0.819152044151172,-0.573576436547873));
#1197=DIRECTION('center_axis',(-1.,2.12072429867891E-45,2.07785513634473E-31));
#1198=DIRECTION('ref_axis',(0.,-0.641197374164553,0.767376001295637));
#1199=DIRECTION('center_axis',(-1.,2.12072429867891E-45,2.07785513634473E-31));
#1200=DIRECTION('ref_axis',(0.,-1.,0.));
#1201=DIRECTION('',(-2.07785513634473E-31,0.,-1.));
#1202=DIRECTION('',(-2.12072429867891E-45,-1.,0.));
#1203=DIRECTION('center_axis',(0.,-1.,0.));
#1204=DIRECTION('ref_axis',(0.,0.,-1.));
#1205=DIRECTION('',(0.,0.,-1.));
#1206=DIRECTION('',(-1.,0.,0.));
#1207=DIRECTION('center_axis',(0.,0.,-1.));
#1208=DIRECTION('ref_axis',(-1.,0.,0.));
#1209=DIRECTION('',(-1.,0.,0.));
#1210=DIRECTION('',(0.,1.,0.));
#1211=DIRECTION('center_axis',(0.,1.,0.));
#1212=DIRECTION('ref_axis',(0.,0.,1.));
#1213=DIRECTION('',(1.,0.,0.));
#1214=DIRECTION('',(-1.98155197385465E-43,0.,-1.));
#1215=DIRECTION('center_axis',(0.,0.573576436547873,-0.819152044151172));
#1216=DIRECTION('ref_axis',(-1.,0.,0.));
#1217=DIRECTION('',(1.,0.,0.));
#1218=DIRECTION('',(0.,-0.819152044151195,-0.573576436547841));
#1219=DIRECTION('',(-1.,0.,0.));
#1220=DIRECTION('center_axis',(0.,-0.573576436351003,0.819152044289022));
#1221=DIRECTION('ref_axis',(1.,0.,0.));
#1222=DIRECTION('',(1.,0.,0.));
#1223=DIRECTION('',(1.19180874435825E-31,0.819152044289022,0.573576436351003));
#1224=DIRECTION('',(-1.,0.,0.));
#1225=DIRECTION('center_axis',(0.,0.819152044289001,0.573576436351033));
#1226=DIRECTION('ref_axis',(-1.,0.,0.));
#1227=DIRECTION('',(0.,-0.573576436351033,0.819152044289001));
#1228=DIRECTION('',(-1.,0.,0.));
#1229=DIRECTION('center_axis',(0.,0.819152044288991,0.573576436351047));
#1230=DIRECTION('ref_axis',(0.,-0.573576436351047,0.819152044288991));
#1231=DIRECTION('',(-1.70207928267315E-31,0.573576436351047,-0.819152044288991));
#1232=DIRECTION('',(1.,0.,0.));
#1233=DIRECTION('',(1.,0.,0.));
#1234=DIRECTION('center_axis',(0.,0.573576436351048,-0.819152044288991));
#1235=DIRECTION('ref_axis',(0.,0.819152044288991,0.573576436351048));
#1236=DIRECTION('',(-1.19180874435835E-31,-0.81915204428899,-0.573576436351048));
#1237=DIRECTION('center_axis',(0.,-0.573576436351049,0.81915204428899));
#1238=DIRECTION('ref_axis',(0.,-0.81915204428899,-0.573576436351049));
#1239=DIRECTION('',(1.19180874435835E-31,0.81915204428899,0.573576436351048));
#1240=DIRECTION('center_axis',(0.,-0.819152044289001,-0.573576436351033));
#1241=DIRECTION('ref_axis',(1.,0.,0.));
#1242=DIRECTION('',(1.,0.,0.));
#1243=DIRECTION('',(0.,-0.573576436351033,0.819152044289001));
#1244=DIRECTION('center_axis',(0.,-1.,2.69124805951115E-16));
#1245=DIRECTION('ref_axis',(0.,2.69124805951115E-16,1.));
#1246=DIRECTION('',(-2.07785513634473E-31,-2.69124805951115E-16,-1.));
#1247=DIRECTION('',(-1.,0.,0.));
#1248=DIRECTION('',(2.07785513634473E-31,2.69124805951115E-16,1.));
#1249=DIRECTION('',(1.,0.,0.));
#1250=DIRECTION('center_axis',(-1.,0.,0.));
#1251=DIRECTION('ref_axis',(0.,-1.,1.4210854715202E-15));
#1252=DIRECTION('center_axis',(1.,-2.12072429867891E-45,-2.07785513634473E-31));
#1253=DIRECTION('ref_axis',(0.,-1.,1.4210854715202E-15));
#1254=DIRECTION('',(-1.,0.,0.));
#1255=DIRECTION('center_axis',(-1.,2.12072429867891E-45,2.07785513634473E-31));
#1256=DIRECTION('ref_axis',(0.,-1.,1.4210854715202E-15));
#1257=DIRECTION('center_axis',(-1.,0.,0.));
#1258=DIRECTION('ref_axis',(0.,-0.603941023597662,0.797029008264949));
#1259=DIRECTION('center_axis',(1.,-2.12072429867891E-45,-2.07785513634473E-31));
#1260=DIRECTION('ref_axis',(0.,-0.603941023597662,0.797029008264949));
#1261=DIRECTION('',(-1.,0.,0.));
#1262=DIRECTION('center_axis',(-1.,2.12072429867891E-45,2.07785513634473E-31));
#1263=DIRECTION('ref_axis',(0.,-0.603941023597662,0.797029008264949));
#1264=DIRECTION('center_axis',(0.,-0.573576436351045,0.819152044288993));
#1265=DIRECTION('ref_axis',(-9.38881941625442E-17,0.819152044288993,0.573576436351045));
#1266=DIRECTION('',(-1.19180874435834E-31,-0.819152044288993,-0.573576436351045));
#1267=DIRECTION('',(-1.,0.,0.));
#1268=DIRECTION('',(1.19180874435834E-31,0.819152044288993,0.573576436351045));
#1269=DIRECTION('center_axis',(0.,-0.617335198352858,0.786700230630853));
#1270=DIRECTION('ref_axis',(2.22515068493211E-14,0.786700230630853,0.617335198352858));
#1271=DIRECTION('',(-1.28273311274389E-31,-0.786700230630853,-0.617335198352858));
#1272=DIRECTION('',(1.,0.,0.));
#1273=DIRECTION('',(1.28273311274389E-31,0.786700230630853,0.617335198352858));
#1274=DIRECTION('center_axis',(-1.,0.,0.));
#1275=DIRECTION('ref_axis',(0.,-0.573576436351044,0.819152044288993));
#1276=DIRECTION('center_axis',(1.,-2.12072429867891E-45,-2.07785513634473E-31));
#1277=DIRECTION('ref_axis',(0.,-0.573576436351044,0.819152044288993));
#1278=DIRECTION('',(-1.,0.,0.));
#1279=DIRECTION('center_axis',(-1.,2.12072429867891E-45,2.07785513634473E-31));
#1280=DIRECTION('ref_axis',(0.,-0.573576436351044,0.819152044288993));
#1281=DIRECTION('center_axis',(-1.,0.,0.));
#1282=DIRECTION('ref_axis',(0.,-1.,0.));
#1283=DIRECTION('',(1.,0.,0.));
#1284=DIRECTION('center_axis',(-1.,2.12072429867891E-45,2.07785513634473E-31));
#1285=DIRECTION('ref_axis',(0.,-1.,0.));
#1286=DIRECTION('center_axis',(-1.,0.,0.));
#1287=DIRECTION('ref_axis',(0.,-0.641197374164553,0.767376001295637));
#1288=DIRECTION('center_axis',(-1.,2.12072429867891E-45,2.07785513634473E-31));
#1289=DIRECTION('ref_axis',(0.,-0.641197374164553,0.767376001295637));
#1290=DIRECTION('center_axis',(0.,0.570821166734432,-0.821074415389946));
#1291=DIRECTION('ref_axis',(1.17403590206807E-28,-0.821074415389946,-0.570821166734432));
#1292=DIRECTION('',(-1.,0.,0.));
#1293=DIRECTION('',(1.18608369323345E-31,0.821074415389946,0.570821166734432));
#1294=DIRECTION('center_axis',(-1.,0.,0.));
#1295=DIRECTION('ref_axis',(0.,0.838933080982017,0.544234586951271));
#1296=DIRECTION('',(1.,0.,0.));
#1297=DIRECTION('center_axis',(1.,-2.12072429867891E-45,-2.07785513634473E-31));
#1298=DIRECTION('ref_axis',(0.,-0.573576436351044,0.819152044288993));
#1299=DIRECTION('center_axis',(0.,0.00263132763882659,0.999996538051436));
#1300=DIRECTION('ref_axis',(1.,0.,0.));
#1301=DIRECTION('',(-5.46751764972047E-34,0.999996538051436,-0.00263132763882659));
#1302=DIRECTION('',(5.46751764972047E-34,-0.999996538051436,0.00263132763882659));
#1303=DIRECTION('',(-1.,0.,0.));
#1304=DIRECTION('center_axis',(0.,1.,0.));
#1305=DIRECTION('ref_axis',(-1.98155197385465E-43,0.,-1.));
#1306=DIRECTION('',(2.07785513634473E-31,0.,1.));
#1307=DIRECTION('',(-2.07785513634473E-31,0.,-1.));
#1308=DIRECTION('',(-1.,0.,0.));
#1309=DIRECTION('center_axis',(-1.,0.,0.));
#1310=DIRECTION('ref_axis',(0.,-1.,0.));
#1311=DIRECTION('center_axis',(-1.,2.12072429867891E-45,2.07785513634473E-31));
#1312=DIRECTION('ref_axis',(0.,-1.,0.));
#1313=DIRECTION('center_axis',(1.,-2.12072429867891E-45,-2.07785513634473E-31));
#1314=DIRECTION('ref_axis',(0.,-1.,0.));
#1315=DIRECTION('',(1.,0.,0.));
#1316=DIRECTION('center_axis',(-1.,0.,0.));
#1317=DIRECTION('ref_axis',(0.,-0.641197374164553,0.767376001295637));
#1318=DIRECTION('center_axis',(-1.,2.12072429867891E-45,2.07785513634473E-31));
#1319=DIRECTION('ref_axis',(0.,-0.641197374164553,0.767376001295637));
#1320=DIRECTION('center_axis',(1.,-2.12072429867891E-45,-2.07785513634473E-31));
#1321=DIRECTION('ref_axis',(0.,-0.641197374164553,0.767376001295637));
#1322=DIRECTION('',(-1.,0.,0.));
#1323=DIRECTION('center_axis',(0.,0.573576436547841,-0.819152044151195));
#1324=DIRECTION('ref_axis',(0.,-0.819152044151195,-0.573576436547841));
#1325=DIRECTION('',(1.19180874476725E-31,0.819152044151195,0.573576436547841));
#1326=DIRECTION('',(-1.19180874476725E-31,-0.819152044151195,-0.573576436547841));
#1327=DIRECTION('',(-1.,0.,0.));
#1328=DIRECTION('center_axis',(0.,0.570821166734432,-0.821074415389946));
#1329=DIRECTION('ref_axis',(1.17403590206807E-28,-0.821074415389946,-0.570821166734432));
#1330=DIRECTION('',(1.18608369323345E-31,0.821074415389946,0.570821166734432));
#1331=DIRECTION('',(-1.18608369323345E-31,-0.821074415389946,-0.570821166734432));
#1332=DIRECTION('center_axis',(0.,-0.617335198352858,0.786700230630853));
#1333=DIRECTION('ref_axis',(2.22515068493211E-14,0.786700230630853,0.617335198352858));
#1334=DIRECTION('',(2.22515068493211E-14,0.786700230630853,0.617335198352858));
#1335=DIRECTION('center_axis',(-1.,0.,0.));
#1336=DIRECTION('ref_axis',(0.,-0.603941023597662,0.797029008264949));
#1337=DIRECTION('',(1.,0.,0.));
#1338=DIRECTION('center_axis',(1.,-2.12072429867891E-45,-2.07785513634473E-31));
#1339=DIRECTION('ref_axis',(0.,-0.603941023597662,0.797029008264949));
#1340=DIRECTION('center_axis',(-1.,0.,0.));
#1341=DIRECTION('ref_axis',(0.,-1.,1.4210854715202E-15));
#1342=DIRECTION('center_axis',(1.,-2.12072429867891E-45,-2.07785513634473E-31));
#1343=DIRECTION('ref_axis',(0.,-1.,1.4210854715202E-15));
#1344=DIRECTION('center_axis',(-1.,2.12072429867891E-45,2.07785513634473E-31));
#1345=DIRECTION('ref_axis',(-2.12072429867891E-45,-1.,0.));
#1346=DIRECTION('center_axis',(-1.,2.12072429867891E-45,2.07785513634473E-31));
#1347=DIRECTION('ref_axis',(-2.12072429867891E-45,-1.,0.));
#1348=DIRECTION('center_axis',(0.,-0.573576436351048,0.81915204428899));
#1349=DIRECTION('ref_axis',(1.,0.,0.));
#1350=DIRECTION('',(-1.,0.,0.));
#1351=DIRECTION('',(1.,0.,0.));
#1352=DIRECTION('center_axis',(0.,-0.617335198352858,0.786700230630853));
#1353=DIRECTION('ref_axis',(2.22515068493211E-14,0.786700230630853,0.617335198352858));
#1354=DIRECTION('',(1.,0.,0.));
#1355=DIRECTION('center_axis',(-1.,0.,0.));
#1356=DIRECTION('ref_axis',(0.,0.818598028337935,0.574366840965985));
#1357=DIRECTION('',(-1.,0.,0.));
#1358=DIRECTION('center_axis',(0.,1.,0.));
#1359=DIRECTION('ref_axis',(1.,0.,0.));
#1360=DIRECTION('',(1.,0.,0.));
#1361=DIRECTION('',(1.,0.,0.));
#1362=DIRECTION('center_axis',(0.,0.,-1.));
#1363=DIRECTION('ref_axis',(-1.,0.,0.));
#1364=DIRECTION('',(1.,0.,0.));
#1365=DIRECTION('center_axis',(0.,0.999996538051436,-0.002631327638829));
#1366=DIRECTION('ref_axis',(0.,0.002631327638829,0.999996538051436));
#1367=DIRECTION('',(-1.,0.,0.));
#1368=DIRECTION('center_axis',(0.,0.57357643654784,-0.819152044151195));
#1369=DIRECTION('ref_axis',(-1.,0.,0.));
#1370=DIRECTION('',(-1.,0.,0.));
#1371=DIRECTION('',(1.,0.,0.));
#1372=DIRECTION('center_axis',(0.,-0.999996538051436,0.002631327638829));
#1373=DIRECTION('ref_axis',(0.,-0.002631327638829,-0.999996538051436));
#1374=DIRECTION('',(1.,0.,0.));
#1375=DIRECTION('',(1.,0.,0.));
#1376=DIRECTION('center_axis',(0.,-1.,0.));
#1377=DIRECTION('ref_axis',(0.,0.,-1.));
#1378=DIRECTION('',(-1.,0.,0.));
#1379=DIRECTION('center_axis',(0.,-0.00263132763882679,-0.999996538051436));
#1380=DIRECTION('ref_axis',(-1.,0.,0.));
#1381=DIRECTION('center_axis',(-1.,0.,0.));
#1382=DIRECTION('ref_axis',(0.,-1.,0.));
#1383=DIRECTION('',(-1.,0.,0.));
#1384=DIRECTION('center_axis',(-1.,0.,0.));
#1385=DIRECTION('ref_axis',(0.,-0.641197374164553,0.767376001295637));
#1386=DIRECTION('center_axis',(0.,0.570821166734432,-0.821074415389946));
#1387=DIRECTION('ref_axis',(1.17403590206807E-28,-0.821074415389946,-0.570821166734432));
#1388=DIRECTION('center_axis',(-1.,0.,0.));
#1389=DIRECTION('ref_axis',(0.,-0.603941023597662,0.797029008264949));
#1390=DIRECTION('',(1.,0.,0.));
#1391=DIRECTION('center_axis',(-1.,0.,0.));
#1392=DIRECTION('ref_axis',(0.,-1.,1.4210854715202E-15));
#1393=CARTESIAN_POINT('',(0.,0.,0.));
#1394=CARTESIAN_POINT('Origin',(-28.4325196985039,49.123241889177,66.1831214103616));
#1395=CARTESIAN_POINT('',(-27.4325196985039,56.5797355617406,55.5341448346047));
#1396=CARTESIAN_POINT('',(-27.4325196985039,49.123241889177,66.1831214103616));
#1397=CARTESIAN_POINT('',(-27.4325196985039,51.4592598726069,62.8469419836125));
#1398=CARTESIAN_POINT('',(-28.4325196985039,56.5797355617406,55.5341448346047));
#1399=CARTESIAN_POINT('',(-28.4325196985039,56.5797355617406,55.5341448346047));
#1400=CARTESIAN_POINT('',(-28.4325196985039,49.123241889177,66.1831214103616));
#1401=CARTESIAN_POINT('',(-28.4325196985039,51.4592598726069,62.8469419836125));
#1402=CARTESIAN_POINT('',(-28.4325196985039,49.123241889177,66.1831214103616));
#1403=CARTESIAN_POINT('Origin',(-28.4325196985039,60.4496567484414,64.1702088194287));
#1404=CARTESIAN_POINT('',(-28.4325196985039,62.7665275284861,84.2601339060343));
#1405=CARTESIAN_POINT('',(-28.4325196985039,62.9231222088819,84.3830160462946));
#1406=CARTESIAN_POINT('',(-28.4325196985039,57.1604425953452,79.8609569140455));
#1407=CARTESIAN_POINT('',(-28.4325196985039,78.4310176677006,62.280882460537));
#1408=CARTESIAN_POINT('Origin',(-28.4325196985039,70.6891383310837,73.3404170048686));
#1409=CARTESIAN_POINT('',(-28.4325196985039,78.3634595641721,62.2339186616413));
#1410=CARTESIAN_POINT('',(-28.4325196985039,72.8119064670019,58.3744063221105));
#1411=CARTESIAN_POINT('',(-28.4325196985039,66.1294709419762,53.6675910463749));
#1412=CARTESIAN_POINT('',(-28.4325196985039,78.3634579456704,62.2339209731013));
#1413=CARTESIAN_POINT('',(-28.4325196985039,65.7655395176565,53.3882954642799));
#1414=CARTESIAN_POINT('Origin',(-28.4325196985039,69.1407472338522,49.3670428145813));
#1415=CARTESIAN_POINT('',(-28.4325196985039,63.8724818860521,49.4707823347999));
#1416=CARTESIAN_POINT('Origin',(-28.4325196985039,68.8724818860521,49.4707823347999));
#1417=CARTESIAN_POINT('',(-28.4325196985039,63.8724818860521,45.9338039800471));
#1418=CARTESIAN_POINT('',(-28.4325196985039,63.8724818860521,46.4338039800471));
#1419=CARTESIAN_POINT('',(-28.4325196985039,63.8711696796385,45.9338039800471));
#1420=CARTESIAN_POINT('',(-28.4325196985039,62.8724818860521,45.9338039800471));
#1421=CARTESIAN_POINT('',(-28.4325196985039,63.8619531135483,42.4311865002025));
#1422=CARTESIAN_POINT('',(-28.4325196985039,63.8724784241036,46.4311726524082));
#1423=CARTESIAN_POINT('',(-28.4325196985039,36.69965353121,42.502659657264));
#1424=CARTESIAN_POINT('',(-28.4325196985039,37.6996500692614,42.5000283296252));
#1425=CARTESIAN_POINT('',(-28.4325196985039,36.7101753798167,46.5000144818309));
#1426=CARTESIAN_POINT('',(-28.4325196985039,36.7101788417653,46.5026458094698));
#1427=CARTESIAN_POINT('',(-28.4325196985039,36.7101753798167,59.0012372361149));
#1428=CARTESIAN_POINT('',(-28.4325196985039,36.7101753798167,42.5000006339887));
#1429=CARTESIAN_POINT('',(-28.4325196985039,43.0586560742107,70.4513801008238));
#1430=CARTESIAN_POINT('Origin',(-28.4325196985039,50.2101753798168,59.0012372361149));
#1431=CARTESIAN_POINT('',(-28.4325196985039,43.4159882134885,70.7107404092497));
#1432=CARTESIAN_POINT('Origin',(-28.4325196985039,50.8724818860617,60.0617638334797));
#1433=CARTESIAN_POINT('',(-28.4325196985039,43.4159882134885,70.7107404092497));
#1434=CARTESIAN_POINT('',(-28.4325196985039,73.1243967868444,82.9889109954474));
#1435=CARTESIAN_POINT('',(-28.4325196985039,53.2695833796683,69.0864209779953));
#1436=CARTESIAN_POINT('',(-28.4325196985039,80.5808904594081,72.3399344196905));
#1437=CARTESIAN_POINT('',(-28.4325196985039,60.7260770522319,58.4374444022384));
#1438=CARTESIAN_POINT('',(-28.4325196985039,79.1886616065562,74.3282432808197));
#1439=CARTESIAN_POINT('Origin',(-27.4325196985039,37.7101753798167,47.5200182899875));
#1440=CARTESIAN_POINT('',(-25.4325196985039,37.7099648736056,47.5200185669434));
#1441=CARTESIAN_POINT('',(-27.4325196985039,37.7099648736056,47.5200185669434));
#1442=CARTESIAN_POINT('',(-25.4325196985039,37.7099648736056,47.5200185669434));
#1443=CARTESIAN_POINT('',(-25.4325196985039,37.6301753798167,47.5200182899875));
#1444=CARTESIAN_POINT('',(-25.4325196985039,37.7101753798167,47.5200182899875));
#1445=CARTESIAN_POINT('',(-27.4325196985039,37.6301753798167,47.5200182899875));
#1446=CARTESIAN_POINT('',(-25.4325196985039,37.6301753798167,47.5200182899875));
#1447=CARTESIAN_POINT('',(-27.4325196985039,49.0799160641291,47.5200182899875));
#1448=CARTESIAN_POINT('Origin',(-27.4325196985039,62.8724818860521,47.5338077882037));
#1449=CARTESIAN_POINT('',(-25.4325196985039,62.8724818860521,47.5338077882037));
#1450=CARTESIAN_POINT('',(-27.4325196985039,62.8724818860521,47.5338077882037));
#1451=CARTESIAN_POINT('',(-25.4325196985039,62.8724818860521,47.5338077882037));
#1452=CARTESIAN_POINT('',(-25.4325196985039,62.872271379841,47.4538080651596));
#1453=CARTESIAN_POINT('',(-25.4325196985039,62.8724818860521,47.5338077882037));
#1454=CARTESIAN_POINT('',(-27.4325196985039,62.872271379841,47.4538080651596));
#1455=CARTESIAN_POINT('',(-25.4325196985039,62.872271379841,47.4538080651596));
#1456=CARTESIAN_POINT('',(-27.4325196985039,62.8943613335175,55.8487630972123));
#1457=CARTESIAN_POINT('Origin',(-25.4325196985039,62.8751658402437,47.4538004488595));
#1458=CARTESIAN_POINT('',(-27.4325196985039,61.6404265937717,47.4570494636134));
#1459=CARTESIAN_POINT('',(-25.4325196985039,61.6404265937713,47.4570494636134));
#1460=CARTESIAN_POINT('Origin',(-27.4325196985039,60.4496567484414,64.1702088194287));
#1461=CARTESIAN_POINT('',(-27.4325196985039,62.7665275284861,84.2601339060343));
#1462=CARTESIAN_POINT('',(-27.4325196985039,62.9231222088819,84.3830160462946));
#1463=CARTESIAN_POINT('',(-27.4325196985039,57.1604425953452,79.8609569140455));
#1464=CARTESIAN_POINT('',(-27.4325196985039,43.4159882134885,70.7107404092497));
#1465=CARTESIAN_POINT('',(-27.4325196985039,43.4159882134885,70.7107404092497));
#1466=CARTESIAN_POINT('',(-27.4325196985039,43.0586560742107,70.4513801008238));
#1467=CARTESIAN_POINT('Origin',(-27.4325196985039,50.8724818860617,60.0617638334797));
#1468=CARTESIAN_POINT('',(-27.4325196985039,36.7101753798167,59.0012372361149));
#1469=CARTESIAN_POINT('Origin',(-27.4325196985039,50.2101753798168,59.0012372361149));
#1470=CARTESIAN_POINT('',(-27.4325196985039,36.7101753798167,46.5000144818309));
#1471=CARTESIAN_POINT('',(-27.4325196985039,36.7101753798167,42.5000006339887));
#1472=CARTESIAN_POINT('',(-27.4325196985039,36.69965353121,42.502659657264));
#1473=CARTESIAN_POINT('',(-27.4325196985039,36.7101788417653,46.5026458094698));
#1474=CARTESIAN_POINT('',(-27.4325196985039,63.8619531135483,42.4311865002025));
#1475=CARTESIAN_POINT('',(-27.4325196985039,62.8619565754968,42.4338178278413));
#1476=CARTESIAN_POINT('',(-27.4325196985039,63.8711696796385,45.9338039800471));
#1477=CARTESIAN_POINT('',(-27.4325196985039,63.8724784241036,46.4311726524082));
#1478=CARTESIAN_POINT('',(-27.4325196985039,63.8724818860521,45.9338039800471));
#1479=CARTESIAN_POINT('',(-27.4325196985039,62.8724818860521,45.9338039800471));
#1480=CARTESIAN_POINT('',(-27.4325196985039,63.8724818860521,49.4707823347999));
#1481=CARTESIAN_POINT('',(-27.4325196985039,63.8724818860521,49.4707823347999));
#1482=CARTESIAN_POINT('',(-27.4325196985039,65.7655395176565,53.3882954642799));
#1483=CARTESIAN_POINT('Origin',(-27.4325196985039,68.8724818860521,49.4707823347999));
#1484=CARTESIAN_POINT('',(-27.4325196985039,66.1294709419762,53.6675910463749));
#1485=CARTESIAN_POINT('Origin',(-27.4325196985039,69.1407472338522,49.3670428145813));
#1486=CARTESIAN_POINT('',(-27.4325196985039,78.3634595641721,62.2339186616413));
#1487=CARTESIAN_POINT('',(-27.4325196985039,78.3634579456704,62.2339209731013));
#1488=CARTESIAN_POINT('',(-27.4325196985039,78.4310176677006,62.280882460537));
#1489=CARTESIAN_POINT('',(-27.4325196985039,72.8119064670019,58.3744063221105));
#1490=CARTESIAN_POINT('Origin',(-27.4325196985039,70.6891383310837,73.3404170048686));
#1491=CARTESIAN_POINT('',(-27.4325196985039,37.6301753798167,59.0012372361149));
#1492=CARTESIAN_POINT('',(-27.4325196985039,37.6301753798167,55.8851135547081));
#1493=CARTESIAN_POINT('',(-27.4325196985039,43.57986131274,69.6921368882454));
#1494=CARTESIAN_POINT('Origin',(-27.4325196985039,50.2101753798168,59.0012372361149));
#1495=CARTESIAN_POINT('',(-27.4325196985039,43.9436785349315,69.9571205285039));
#1496=CARTESIAN_POINT('Origin',(-27.4325196985039,50.8724818860617,60.0617638334797));
#1497=CARTESIAN_POINT('',(-27.4325196985039,43.937942770568,69.9653120489468));
#1498=CARTESIAN_POINT('',(-27.4325196985039,48.0383835625415,64.1092757051252));
#1499=CARTESIAN_POINT('',(-27.4325196985039,63.3108036153283,83.5303352491356));
#1500=CARTESIAN_POINT('',(-27.4325196985039,48.1163020249853,72.8910306962377));
#1501=CARTESIAN_POINT('',(-27.4325196985039,63.3624254945999,83.4566115651496));
#1502=CARTESIAN_POINT('',(-27.4325196985039,67.4141122894839,77.6702031450924));
#1503=CARTESIAN_POINT('',(-27.4325196985039,64.2202456329817,84.1297555972218));
#1504=CARTESIAN_POINT('',(-27.4325196985039,57.777777793698,79.0742566834147));
#1505=CARTESIAN_POINT('',(-27.4325196985039,77.9046196427742,63.0354070853855));
#1506=CARTESIAN_POINT('Origin',(-27.4325196985039,70.6891383310837,73.3404170048686));
#1507=CARTESIAN_POINT('',(-27.4325196985039,77.8357677535265,62.9875406688036));
#1508=CARTESIAN_POINT('',(-27.4325196985039,72.2867509936062,59.1297947842692));
#1509=CARTESIAN_POINT('',(-27.4325196985039,65.6017806203522,54.421210926994));
#1510=CARTESIAN_POINT('',(-27.4325196985039,72.2804759638229,59.0976837542892));
#1511=CARTESIAN_POINT('',(-27.4325196985039,65.183846431125,54.1011568855954));
#1512=CARTESIAN_POINT('Origin',(-27.4325196985039,69.1407472338522,49.3670428145813));
#1513=CARTESIAN_POINT('',(-27.4325196985039,62.9524818860521,49.4707823347999));
#1514=CARTESIAN_POINT('Origin',(-27.4325196985039,68.8724818860521,49.4707823347999));
#1515=CARTESIAN_POINT('',(-27.4325196985039,62.9524818860521,47.5338077882037));
#1516=CARTESIAN_POINT('',(-27.4325196985039,62.9524818860521,56.8204955771143));
#1517=CARTESIAN_POINT('',(-27.4325196985039,61.6610693172468,47.5338077882037));
#1518=CARTESIAN_POINT('Origin',(-25.4325196985039,37.6301753798167,42.5000006339887));
#1519=CARTESIAN_POINT('',(-25.4325196985039,37.6301753798167,59.0012372361149));
#1520=CARTESIAN_POINT('',(-25.4325196985039,37.6301753798167,47.6000182899875));
#1521=CARTESIAN_POINT('',(-25.4325196985039,37.6301753798167,59.0012372361149));
#1522=CARTESIAN_POINT('Origin',(-25.4325196985039,62.8724818860521,47.5338077882037));
#1523=CARTESIAN_POINT('',(-25.4325196985039,62.9524818860521,47.5338077882037));
#1524=CARTESIAN_POINT('',(-25.4325196985039,62.9524818860521,47.5338077882037));
#1525=CARTESIAN_POINT('',(-25.4325196985039,62.8724818860521,47.5338077882037));
#1526=CARTESIAN_POINT('Origin',(-25.4325196985039,62.9524818860521,49.4707823347999));
#1527=CARTESIAN_POINT('',(-25.4325196985039,62.9524818860521,49.4707823347999));
#1528=CARTESIAN_POINT('',(-25.4325196985039,62.9524818860521,49.4707823347999));
#1529=CARTESIAN_POINT('',(-25.4325196985039,62.9524818860521,49.4707823347999));
#1530=CARTESIAN_POINT('Origin',(-25.4325196985039,77.8357676240464,62.9875408537204));
#1531=CARTESIAN_POINT('',(-25.4325196985039,77.8357677535265,62.9875406688036));
#1532=CARTESIAN_POINT('',(-25.4325196985039,77.8357676240464,62.9875408537205));
#1533=CARTESIAN_POINT('',(-25.4325196985039,65.6017806203522,54.421210926994));
#1534=CARTESIAN_POINT('',(-25.4325196985039,77.8357676240464,62.9875408537205));
#1535=CARTESIAN_POINT('',(-25.4325196985039,65.6017806203522,54.421210926994));
#1536=CARTESIAN_POINT('Origin',(-25.4325196985039,43.937942770568,69.9653120489467));
#1537=CARTESIAN_POINT('',(-25.4325196985039,43.937942770568,69.9653120489467));
#1538=CARTESIAN_POINT('',(-26.6825196985039,43.937942770568,69.9653120489467));
#1539=CARTESIAN_POINT('',(-25.4325196985039,63.3108036153283,83.5303352491356));
#1540=CARTESIAN_POINT('',(-25.4325196985039,48.1163020249853,72.8910306962377));
#1541=CARTESIAN_POINT('',(-25.4325196985039,63.310803615329,83.5303352491346));
#1542=CARTESIAN_POINT('Origin',(-25.4325196985039,63.3624254945999,83.4566115651496));
#1543=CARTESIAN_POINT('',(-25.4325196985039,63.3624254945999,83.4566115651496));
#1544=CARTESIAN_POINT('',(-25.4325196985039,63.3624254945999,83.4566115651496));
#1545=CARTESIAN_POINT('',(-25.4325196985039,63.3624254945999,83.4566115651496));
#1546=CARTESIAN_POINT('Origin',(-28.4325196985039,80.5808904594081,72.3399344196905));
#1547=CARTESIAN_POINT('',(-27.4325196985039,73.1243967868444,82.9889109954474));
#1548=CARTESIAN_POINT('',(-27.4325196985039,80.5808904594081,72.3399344196905));
#1549=CARTESIAN_POINT('',(-27.4325196985039,79.1886616065562,74.3282432808197));
#1550=CARTESIAN_POINT('',(-28.4325196985039,73.1243967868444,82.9889109954474));
#1551=CARTESIAN_POINT('',(-28.4325196985039,80.5808904594081,72.3399344196905));
#1552=CARTESIAN_POINT('Origin',(-28.4325196985039,58.2180396503186,56.6812977073068));
#1553=CARTESIAN_POINT('',(-27.4325196985039,60.7260770522319,58.4374444022384));
#1554=CARTESIAN_POINT('Origin',(-28.4325196985039,73.1243967868444,82.9889109954474));
#1555=CARTESIAN_POINT('',(-27.4325196985039,53.2695833796683,69.0864209779953));
#1556=CARTESIAN_POINT('Origin',(-27.9325196985039,43.9895646498396,69.8915883649607));
#1557=CARTESIAN_POINT('',(-25.4325196985039,43.9436785349315,69.9571205285039));
#1558=CARTESIAN_POINT('',(-25.4325196985039,43.9436785349315,69.9571205285039));
#1559=CARTESIAN_POINT('',(-25.4325196985039,43.9895646498396,69.8915883649607));
#1560=CARTESIAN_POINT('Origin',(-25.4325196985039,38.7101753798167,42.5000006339887));
#1561=CARTESIAN_POINT('',(-27.4325196985039,38.7101753798167,59.0012372361149));
#1562=CARTESIAN_POINT('',(-27.4325196985039,38.7101753798167,48.5973904151997));
#1563=CARTESIAN_POINT('',(-27.4325196985039,38.7101753798167,53.3351047267087));
#1564=CARTESIAN_POINT('',(-25.4325196985039,38.7101753798167,59.0012372361149));
#1565=CARTESIAN_POINT('',(-25.4325196985039,38.7101753798167,59.0012372361149));
#1566=CARTESIAN_POINT('',(-25.4325196985039,38.7101753798167,48.5973904151997));
#1567=CARTESIAN_POINT('',(-25.4325196985039,38.7101753798167,53.3351047267087));
#1568=CARTESIAN_POINT('',(-25.4325196985039,38.7101753798167,48.5973904151997));
#1569=CARTESIAN_POINT('Origin',(-25.4325196985039,50.2101753798168,59.0012372361149));
#1570=CARTESIAN_POINT('',(-27.4325196985039,44.1918901892913,68.8007394359974));
#1571=CARTESIAN_POINT('Origin',(-27.4325196985039,50.2101753798168,59.0012372361149));
#1572=CARTESIAN_POINT('',(-25.4325196985039,44.1918901895341,68.800739436197));
#1573=CARTESIAN_POINT('',(-25.4325196985039,44.1918901892913,68.8007394359974));
#1574=CARTESIAN_POINT('Origin',(-25.4325196985039,50.2101753798168,59.0012372361149));
#1575=CARTESIAN_POINT('Origin',(-25.4325196985039,50.8724818860617,60.0617638334797));
#1576=CARTESIAN_POINT('',(-27.4325196985039,44.5631410861906,69.0724363206717));
#1577=CARTESIAN_POINT('Origin',(-27.4325196985039,50.8724818860617,60.0617638334797));
#1578=CARTESIAN_POINT('',(-25.4325196985039,44.5631410861906,69.0724363206717));
#1579=CARTESIAN_POINT('',(-25.4325196985039,44.5631410861906,69.0724363206717));
#1580=CARTESIAN_POINT('Origin',(-25.4325196985039,50.8724818860617,60.0617638334797));
#1581=CARTESIAN_POINT('Origin',(-25.4325196985039,44.5631410861906,69.0724363206717));
#1582=CARTESIAN_POINT('',(-27.4325196985039,63.9583234607138,82.6530892242649));
#1583=CARTESIAN_POINT('',(-27.4325196985039,48.7415003406075,71.9981549679627));
#1584=CARTESIAN_POINT('',(-25.4325196985039,63.9583234607137,82.6530892242648));
#1585=CARTESIAN_POINT('',(-25.4325196985039,63.9583234607138,82.6530892242649));
#1586=CARTESIAN_POINT('',(-25.4325196985039,48.7415003406075,71.9981549679627));
#1587=CARTESIAN_POINT('Origin',(-25.4325196985039,63.9797606929528,82.6699113345187));
#1588=CARTESIAN_POINT('',(-27.4325196985039,64.1148836938919,82.7759443332887));
#1589=CARTESIAN_POINT('',(-27.4325196985039,58.3951129920509,78.2875564527838));
#1590=CARTESIAN_POINT('',(-25.4325196985039,64.1148836938917,82.7759443332885));
#1591=CARTESIAN_POINT('',(-25.4325196985039,64.1148836938919,82.7759443332887));
#1592=CARTESIAN_POINT('',(-25.4325196985039,58.3951129920509,78.2875564527838));
#1593=CARTESIAN_POINT('Origin',(-25.4325196985039,70.6891383310837,73.3404170048686));
#1594=CARTESIAN_POINT('',(-27.4325196985039,77.286614622382,63.9211120100319));
#1595=CARTESIAN_POINT('Origin',(-27.4325196985039,70.6891383310837,73.3404170048686));
#1596=CARTESIAN_POINT('',(-25.4325196985039,77.286614622382,63.9211120100319));
#1597=CARTESIAN_POINT('',(-25.4325196985039,77.286614622382,63.9211120100319));
#1598=CARTESIAN_POINT('Origin',(-25.4325196985039,70.6891383310837,73.3404170048686));
#1599=CARTESIAN_POINT('Origin',(-25.4325196985039,68.8724818860521,49.4707823347999));
#1600=CARTESIAN_POINT('',(-25.4325196985039,65.183846431125,54.1011568855954));
#1601=CARTESIAN_POINT('',(-25.4325196985039,65.1838464311248,54.1011568855953));
#1602=CARTESIAN_POINT('Origin',(-25.4325196985039,68.8724818860521,49.4707823347999));
#1603=CARTESIAN_POINT('Origin',(-25.4325196985039,69.1407472338522,49.3670428145813));
#1604=CARTESIAN_POINT('Origin',(-25.4325196985039,69.1407472338522,49.3670428145813));
#1605=CARTESIAN_POINT('Origin',(-25.4325196985039,77.9045094788105,63.035330498025));
#1606=CARTESIAN_POINT('',(-25.4325196985039,77.9046196427742,63.0354070853855));
#1607=CARTESIAN_POINT('',(-25.4325196985039,77.9046196427742,63.0354070853855));
#1608=CARTESIAN_POINT('',(-25.4325196985039,72.2867509936062,59.1297947842692));
#1609=CARTESIAN_POINT('Origin',(-25.4325196985039,70.6891383310837,73.3404170048686));
#1610=CARTESIAN_POINT('',(-25.4325196985039,64.2202456329818,84.1297555972219));
#1611=CARTESIAN_POINT('',(-25.4325196985039,64.2202456329818,84.1297555972219));
#1612=CARTESIAN_POINT('Origin',(-25.4325196985039,70.6891383310837,73.3404170048686));
#1613=CARTESIAN_POINT('Origin',(-25.4325196985039,62.8780076740937,48.5337967099551));
#1614=CARTESIAN_POINT('',(-27.4325196985039,61.8724818860521,48.5364425869126));
#1615=CARTESIAN_POINT('',(-27.4325196985039,61.6432684276213,48.537045724709));
#1616=CARTESIAN_POINT('',(-25.4325196985039,61.8724818860521,48.5364425869126));
#1617=CARTESIAN_POINT('',(-25.4325196985039,61.6432684276213,48.537045724709));
#1618=CARTESIAN_POINT('',(-25.4325196985039,61.8724818860521,48.5364425869126));
#1619=CARTESIAN_POINT('Origin',(-25.4325196985039,61.8724818860521,49.4707823347999));
#1620=CARTESIAN_POINT('',(-27.4325196985039,61.8724818860521,49.4707823347999));
#1621=CARTESIAN_POINT('',(-27.4325196985039,61.8724818860521,56.8204955771143));
#1622=CARTESIAN_POINT('',(-25.4325196985039,61.8724818860521,49.4707823347999));
#1623=CARTESIAN_POINT('',(-25.4325196985039,61.8724818860521,56.8204955771143));
#1624=CARTESIAN_POINT('',(-25.4325196985039,61.8724818860521,49.4707823347999));
#1625=CARTESIAN_POINT('Origin',(-25.4325196985039,68.8724818860521,49.4707823347999));
#1626=CARTESIAN_POINT('',(-27.4325196985039,64.5009712666109,54.9379474963908));
#1627=CARTESIAN_POINT('Origin',(-27.4325196985039,68.8724818860521,49.4707823347999));
#1628=CARTESIAN_POINT('',(-25.4325196985039,64.5009712666143,54.9379474964019));
#1629=CARTESIAN_POINT('Origin',(-25.4325196985039,68.8724818860521,49.4707823347999));
#1630=CARTESIAN_POINT('',(-25.4325196985039,64.5009712666109,54.9379474963908));
#1631=CARTESIAN_POINT('Origin',(-25.4325196985039,69.1407472338522,49.3670428145813));
#1632=CARTESIAN_POINT('',(-27.4325196985039,64.9823180688805,55.3058951346773));
#1633=CARTESIAN_POINT('Origin',(-27.4325196985039,69.1407472338522,49.3670428145813));
#1634=CARTESIAN_POINT('',(-25.4325196985039,64.9823180688805,55.3058951346773));
#1635=CARTESIAN_POINT('Origin',(-25.4325196985039,69.1407472338522,49.3670428145813));
#1636=CARTESIAN_POINT('',(-25.4325196985039,64.9823180688805,55.3058951346773));
#1637=CARTESIAN_POINT('Origin',(-25.4325196985039,77.2163050725747,63.8722250614037));
#1638=CARTESIAN_POINT('',(-27.4325196985039,77.2176810928715,63.8731885611887));
#1639=CARTESIAN_POINT('',(-27.4325196985039,71.6610134123509,59.9823679619725));
#1640=CARTESIAN_POINT('',(-25.4325196985039,77.2176810928715,63.8731885611887));
#1641=CARTESIAN_POINT('',(-25.4325196985039,71.6610134123509,59.9823679619725));
#1642=CARTESIAN_POINT('',(-25.4325196985039,77.2176810928715,63.8731885611887));
#1643=CARTESIAN_POINT('Origin',(-25.4325196985039,77.2880226187373,63.9220908666461));
#1644=CARTESIAN_POINT('',(-27.4325196985039,71.670264133533,60.0165551528903));
#1645=CARTESIAN_POINT('',(-25.4325196985039,71.670264133533,60.0165551528903));
#1646=CARTESIAN_POINT('Origin',(-25.4325196985039,63.3624254945999,83.4566115651496));
#1647=CARTESIAN_POINT('',(-25.4325196985039,63.3624254945999,83.4566115651496));
#1648=CARTESIAN_POINT('Origin',(-25.4325196985039,50.8724818860617,60.0617638334797));
#1649=CARTESIAN_POINT('',(-25.4325196985039,43.57986131274,69.6921368882454));
#1650=CARTESIAN_POINT('',(-25.4325196985039,43.5798613127399,69.6921368882454));
#1651=CARTESIAN_POINT('Origin',(-25.4325196985039,50.8724818860617,60.0617638334797));
#1652=CARTESIAN_POINT('Origin',(-25.4325196985039,50.2101753798168,59.0012372361149));
#1653=CARTESIAN_POINT('Origin',(-25.4325196985039,50.2101753798168,59.0012372361149));
#1654=CARTESIAN_POINT('Origin',(-25.4325196985039,60.4496567484414,64.1702088194287));
#1655=CARTESIAN_POINT('Origin',(-27.4325196985039,60.4496567484414,64.1702088194287));
#1656=CARTESIAN_POINT('Origin',(-27.4325196985039,43.4159882134885,70.7107404092497));
#1657=CARTESIAN_POINT('',(-27.4325196985039,62.7665275284874,84.2601339060354));
#1658=CARTESIAN_POINT('',(-27.4325196985039,43.4159882134885,70.7107404092497));
#1659=CARTESIAN_POINT('Origin',(-27.4325196985039,62.745090296247,84.2433117957804));
#1660=CARTESIAN_POINT('',(-27.4325196985039,62.9231222088819,84.3830160462946));
#1661=CARTESIAN_POINT('Origin',(-27.4325196985039,70.6891383310837,73.3404170048686));
#1662=CARTESIAN_POINT('',(-27.4325196985039,78.4310176677006,62.280882460537));
#1663=CARTESIAN_POINT('Origin',(-28.4325196985039,63.8724818860521,46.4338039800471));
#1664=CARTESIAN_POINT('',(-27.4325196985039,63.8724818860521,45.9338039800471));
#1665=CARTESIAN_POINT('',(-27.4325196985039,63.8724818860521,49.4707823347999));
#1666=CARTESIAN_POINT('Origin',(-27.4325196985039,62.8724818860521,45.9338039800471));
#1667=CARTESIAN_POINT('',(-27.9325196985039,63.8711696796385,45.9338039800471));
#1668=CARTESIAN_POINT('Origin',(-28.4325196985039,63.8724784241036,46.4311726524083));
#1669=CARTESIAN_POINT('',(-27.4325196985039,63.8619531135483,42.4311865002025));
#1670=CARTESIAN_POINT('Origin',(-27.4325196985039,78.3634579456704,62.2339209731013));
#1671=CARTESIAN_POINT('',(-27.4325196985039,66.1294709419762,53.6675910463749));
#1672=CARTESIAN_POINT('',(-27.4325196985039,78.3634579456704,62.2339209731013));
#1673=CARTESIAN_POINT('Origin',(-27.4325196985039,36.7101788417653,46.5026458094698));
#1674=CARTESIAN_POINT('',(-27.4325196985039,36.7101753798167,46.5000144818309));
#1675=CARTESIAN_POINT('',(-27.4325196985039,36.69965353121,42.502659657264));
#1676=CARTESIAN_POINT('Origin',(-27.4325196985039,36.7101753798167,42.5000006339887));
#1677=CARTESIAN_POINT('',(-27.4325196985039,36.7101753798167,59.0012372361149));
#1678=CARTESIAN_POINT('Origin',(-27.4325196985039,62.8619565754968,42.4338178278413));
#1679=CARTESIAN_POINT('Origin',(-27.4325196985039,68.8724818860521,49.4707823347999));
#1680=CARTESIAN_POINT('',(-27.4325196985039,65.7655395176376,53.388295464242));
#1681=CARTESIAN_POINT('Origin',(-27.4325196985039,69.1407472338522,49.3670428145813));
#1682=CARTESIAN_POINT('Origin',(-27.4325196985039,78.4296649522062,62.2799420358662));
#1683=CARTESIAN_POINT('Origin',(-27.4325196985039,50.8724818860617,60.0617638334797));
#1684=CARTESIAN_POINT('',(-27.4325196985039,43.0586560740418,70.4513801006878));
#1685=CARTESIAN_POINT('Origin',(-27.4325196985039,50.2101753798168,59.0012372361149));
#1686=UNCERTAINTY_MEASURE_WITH_UNIT(LENGTH_MEASURE(0.01),#1690,
'DISTANCE_ACCURACY_VALUE',
'Maximum model space distance between geometric entities at asserted c
onnectivities');
#1687=UNCERTAINTY_MEASURE_WITH_UNIT(LENGTH_MEASURE(0.01),#1690,
'DISTANCE_ACCURACY_VALUE',
'Maximum model space distance between geometric entities at asserted c
onnectivities');
#1688=(
GEOMETRIC_REPRESENTATION_CONTEXT(3)
GLOBAL_UNCERTAINTY_ASSIGNED_CONTEXT((#1686))
GLOBAL_UNIT_ASSIGNED_CONTEXT((#1690,#1692,#1693))
REPRESENTATION_CONTEXT('','3D')
);
#1689=(
GEOMETRIC_REPRESENTATION_CONTEXT(3)
GLOBAL_UNCERTAINTY_ASSIGNED_CONTEXT((#1687))
GLOBAL_UNIT_ASSIGNED_CONTEXT((#1690,#1692,#1693))
REPRESENTATION_CONTEXT('','3D')
);
#1690=(
LENGTH_UNIT()
NAMED_UNIT(*)
SI_UNIT(.MILLI.,.METRE.)
);
#1691=(
LENGTH_UNIT()
NAMED_UNIT(*)
SI_UNIT($,.METRE.)
);
#1692=(
NAMED_UNIT(*)
PLANE_ANGLE_UNIT()
SI_UNIT($,.RADIAN.)
);
#1693=(
NAMED_UNIT(*)
SI_UNIT($,.STERADIAN.)
SOLID_ANGLE_UNIT()
);
#1694=SHAPE_DEFINITION_REPRESENTATION(#1695,#1696);
#1695=PRODUCT_DEFINITION_SHAPE('',$,#1698);
#1696=SHAPE_REPRESENTATION('',(#1030),#1688);
#1697=PRODUCT_DEFINITION_CONTEXT('part definition',#1702,'design');
#1698=PRODUCT_DEFINITION('MiniArm Shoulder Housing Facepate',
'MiniArm Shoulder Housing Facepate v1',#1699,#1697);
#1699=PRODUCT_DEFINITION_FORMATION('',$,#1704);
#1700=PRODUCT_RELATED_PRODUCT_CATEGORY(
'MiniArm Shoulder Housing Facepate v1',
'MiniArm Shoulder Housing Facepate v1',(#1704));
#1701=APPLICATION_PROTOCOL_DEFINITION('international standard',
'automotive_design',2009,#1702);
#1702=APPLICATION_CONTEXT(
'Core Data for Automotive Mechanical Design Process');
#1703=PRODUCT_CONTEXT('part definition',#1702,'mechanical');
#1704=PRODUCT('MiniArm Shoulder Housing Facepate',
'MiniArm Shoulder Housing Facepate v1',$,(#1703));
#1705=PRESENTATION_STYLE_ASSIGNMENT((#1706));
#1706=SURFACE_STYLE_USAGE(.BOTH.,#1707);
#1707=SURFACE_SIDE_STYLE('',(#1708));
#1708=SURFACE_STYLE_FILL_AREA(#1709);
#1709=FILL_AREA_STYLE('Steel - Satin',(#1710));
#1710=FILL_AREA_STYLE_COLOUR('Steel - Satin',#1711);
#1711=COLOUR_RGB('Steel - Satin',0.627450980392157,0.627450980392157,0.627450980392157);
ENDSEC;
END-ISO-10303-21;
