ISO-10303-21;
HEADER;
/* Generated by software containing ST-Developer
 * from STEP Tools, Inc. (www.steptools.com) 
 */

FILE_DESCRIPTION(
/* description */ (''),
/* implementation_level */ '2;1');

FILE_NAME(
/* name */ 'MiniArm Forearm Fairing v1.step',
/* time_stamp */ '2026-08-03T03:58:42+08:00',
/* author */ (''),
/* organization */ (''),
/* preprocessor_version */ 'ST-DEVELOPER v20.1',
/* originating_system */ 'Autodesk Translation Framework v15.8.0.0',
/* authorisation */ '');

FILE_SCHEMA (('AUTOMOTIVE_DESIGN { 1 0 10303 214 3 1 1 }'));
ENDSEC;

DATA;
#10=MECHANICAL_DESIGN_GEOMETRIC_PRESENTATION_REPRESENTATION('',(#13),#1160);
#11=SHAPE_REPRESENTATION_RELATIONSHIP('SRR','None',#1167,#12);
#12=ADVANCED_BREP_SHAPE_REPRESENTATION('',(#14),#1159);
#13=STYLED_ITEM('',(#1176),#14);
#14=MANIFOLD_SOLID_BREP('MiniArm Forearm Fairing',#582);
#15=CYLINDRICAL_SURFACE('',#604,2.5);
#16=CYLINDRICAL_SURFACE('',#606,0.925);
#17=CYLINDRICAL_SURFACE('',#608,0.925);
#18=CYLINDRICAL_SURFACE('',#614,2.5);
#19=CYLINDRICAL_SURFACE('',#625,13.65);
#20=CYLINDRICAL_SURFACE('',#628,13.65);
#21=CYLINDRICAL_SURFACE('',#630,14.55);
#22=CYLINDRICAL_SURFACE('',#637,1.8);
#23=CYLINDRICAL_SURFACE('',#639,1.8);
#24=CYLINDRICAL_SURFACE('',#652,2.);
#25=CYLINDRICAL_SURFACE('',#653,14.55);
#26=CYLINDRICAL_SURFACE('',#654,2.);
#27=FACE_BOUND('',#124,.T.);
#28=FACE_BOUND('',#129,.T.);
#29=FACE_BOUND('',#132,.T.);
#30=FACE_BOUND('',#133,.T.);
#31=FACE_BOUND('',#135,.T.);
#32=FACE_BOUND('',#137,.T.);
#33=FACE_BOUND('',#140,.T.);
#34=FACE_BOUND('',#152,.T.);
#35=FACE_BOUND('',#156,.T.);
#36=FACE_BOUND('',#157,.T.);
#37=FACE_BOUND('',#160,.T.);
#38=PLANE('',#601);
#39=PLANE('',#611);
#40=PLANE('',#616);
#41=PLANE('',#620);
#42=PLANE('',#622);
#43=PLANE('',#624);
#44=PLANE('',#627);
#45=PLANE('',#633);
#46=PLANE('',#634);
#47=PLANE('',#635);
#48=PLANE('',#636);
#49=PLANE('',#642);
#50=PLANE('',#643);
#51=PLANE('',#645);
#52=PLANE('',#651);
#53=CIRCLE('',#597,2.);
#54=CIRCLE('',#598,14.55);
#55=CIRCLE('',#599,2.);
#56=CIRCLE('',#600,12.55);
#57=CIRCLE('',#602,2.5);
#58=CIRCLE('',#603,0.925);
#59=CIRCLE('',#605,2.5);
#60=CIRCLE('',#607,0.925);
#61=CIRCLE('',#609,0.925);
#62=CIRCLE('',#610,0.925);
#63=CIRCLE('',#612,13.65);
#64=CIRCLE('',#613,2.5);
#65=CIRCLE('',#615,2.5);
#66=CIRCLE('',#617,13.65);
#67=CIRCLE('',#618,13.65);
#68=CIRCLE('',#619,13.65);
#69=CIRCLE('',#621,1.8);
#70=CIRCLE('',#623,1.8);
#71=CIRCLE('',#626,13.65);
#72=CIRCLE('',#629,13.65);
#73=CIRCLE('',#631,14.55);
#74=CIRCLE('',#632,14.55);
#75=CIRCLE('',#638,1.8);
#76=CIRCLE('',#640,1.8);
#77=CIRCLE('',#641,1.8);
#78=CIRCLE('',#644,14.55);
#79=CIRCLE('',#647,12.55);
#80=CIRCLE('',#648,2.);
#81=CIRCLE('',#649,2.00000000001106);
#82=CIRCLE('',#650,12.55);
#83=TOROIDAL_SURFACE('',#596,12.55,2.);
#84=TOROIDAL_SURFACE('',#646,12.55,2.);
#85=FACE_OUTER_BOUND('',#118,.T.);
#86=FACE_OUTER_BOUND('',#119,.T.);
#87=FACE_OUTER_BOUND('',#120,.T.);
#88=FACE_OUTER_BOUND('',#121,.T.);
#89=FACE_OUTER_BOUND('',#122,.T.);
#90=FACE_OUTER_BOUND('',#123,.T.);
#91=FACE_OUTER_BOUND('',#125,.T.);
#92=FACE_OUTER_BOUND('',#126,.T.);
#93=FACE_OUTER_BOUND('',#127,.T.);
#94=FACE_OUTER_BOUND('',#128,.T.);
#95=FACE_OUTER_BOUND('',#130,.T.);
#96=FACE_OUTER_BOUND('',#131,.T.);
#97=FACE_OUTER_BOUND('',#134,.T.);
#98=FACE_OUTER_BOUND('',#136,.T.);
#99=FACE_OUTER_BOUND('',#138,.T.);
#100=FACE_OUTER_BOUND('',#139,.T.);
#101=FACE_OUTER_BOUND('',#141,.T.);
#102=FACE_OUTER_BOUND('',#142,.T.);
#103=FACE_OUTER_BOUND('',#143,.T.);
#104=FACE_OUTER_BOUND('',#144,.T.);
#105=FACE_OUTER_BOUND('',#145,.T.);
#106=FACE_OUTER_BOUND('',#146,.T.);
#107=FACE_OUTER_BOUND('',#147,.T.);
#108=FACE_OUTER_BOUND('',#148,.T.);
#109=FACE_OUTER_BOUND('',#149,.T.);
#110=FACE_OUTER_BOUND('',#150,.T.);
#111=FACE_OUTER_BOUND('',#151,.T.);
#112=FACE_OUTER_BOUND('',#153,.T.);
#113=FACE_OUTER_BOUND('',#154,.T.);
#114=FACE_OUTER_BOUND('',#155,.T.);
#115=FACE_OUTER_BOUND('',#158,.T.);
#116=FACE_OUTER_BOUND('',#159,.T.);
#117=FACE_OUTER_BOUND('',#161,.T.);
#118=EDGE_LOOP('',(#385,#386,#387,#388));
#119=EDGE_LOOP('',(#389,#390,#391,#392));
#120=EDGE_LOOP('',(#393,#394,#395,#396));
#121=EDGE_LOOP('',(#397,#398,#399,#400));
#122=EDGE_LOOP('',(#401,#402,#403,#404));
#123=EDGE_LOOP('',(#405));
#124=EDGE_LOOP('',(#406));
#125=EDGE_LOOP('',(#407,#408,#409,#410));
#126=EDGE_LOOP('',(#411,#412,#413,#414));
#127=EDGE_LOOP('',(#415,#416,#417,#418));
#128=EDGE_LOOP('',(#419,#420));
#129=EDGE_LOOP('',(#421));
#130=EDGE_LOOP('',(#422,#423,#424,#425));
#131=EDGE_LOOP('',(#426,#427,#428,#429,#430,#431));
#132=EDGE_LOOP('',(#432,#433,#434,#435));
#133=EDGE_LOOP('',(#436));
#134=EDGE_LOOP('',(#437));
#135=EDGE_LOOP('',(#438));
#136=EDGE_LOOP('',(#439));
#137=EDGE_LOOP('',(#440));
#138=EDGE_LOOP('',(#441,#442,#443,#444));
#139=EDGE_LOOP('',(#445,#446,#447,#448));
#140=EDGE_LOOP('',(#449,#450,#451,#452));
#141=EDGE_LOOP('',(#453,#454,#455,#456));
#142=EDGE_LOOP('',(#457,#458,#459,#460,#461,#462,#463,#464));
#143=EDGE_LOOP('',(#465,#466,#467,#468));
#144=EDGE_LOOP('',(#469,#470,#471,#472));
#145=EDGE_LOOP('',(#473,#474,#475,#476));
#146=EDGE_LOOP('',(#477,#478,#479,#480));
#147=EDGE_LOOP('',(#481,#482,#483,#484));
#148=EDGE_LOOP('',(#485,#486,#487,#488));
#149=EDGE_LOOP('',(#489,#490,#491,#492,#493,#494));
#150=EDGE_LOOP('',(#495,#496,#497,#498));
#151=EDGE_LOOP('',(#499,#500,#501,#502));
#152=EDGE_LOOP('',(#503,#504,#505,#506));
#153=EDGE_LOOP('',(#507,#508,#509,#510));
#154=EDGE_LOOP('',(#511,#512,#513,#514,#515,#516));
#155=EDGE_LOOP('',(#517,#518,#519,#520,#521,#522,#523));
#156=EDGE_LOOP('',(#524));
#157=EDGE_LOOP('',(#525,#526,#527,#528));
#158=EDGE_LOOP('',(#529,#530,#531,#532));
#159=EDGE_LOOP('',(#533,#534,#535,#536));
#160=EDGE_LOOP('',(#537,#538,#539,#540));
#161=EDGE_LOOP('',(#541,#542,#543,#544));
#162=LINE('',#884,#203);
#163=LINE('',#898,#204);
#164=LINE('',#927,#205);
#165=LINE('',#980,#206);
#166=LINE('',#1021,#207);
#167=LINE('',#1026,#208);
#168=LINE('',#1031,#209);
#169=LINE('',#1040,#210);
#170=LINE('',#1042,#211);
#171=LINE('',#1048,#212);
#172=LINE('',#1052,#213);
#173=LINE('',#1056,#214);
#174=LINE('',#1058,#215);
#175=LINE('',#1060,#216);
#176=LINE('',#1061,#217);
#177=LINE('',#1071,#218);
#178=LINE('',#1072,#219);
#179=LINE('',#1073,#220);
#180=LINE('',#1077,#221);
#181=LINE('',#1080,#222);
#182=LINE('',#1081,#223);
#183=LINE('',#1089,#224);
#184=LINE('',#1092,#225);
#185=LINE('',#1095,#226);
#186=LINE('',#1097,#227);
#187=LINE('',#1098,#228);
#188=LINE('',#1101,#229);
#189=LINE('',#1102,#230);
#190=LINE('',#1105,#231);
#191=LINE('',#1106,#232);
#192=LINE('',#1108,#233);
#193=LINE('',#1112,#234);
#194=LINE('',#1130,#235);
#195=LINE('',#1133,#236);
#196=LINE('',#1135,#237);
#197=LINE('',#1136,#238);
#198=LINE('',#1139,#239);
#199=LINE('',#1142,#240);
#200=LINE('',#1143,#241);
#201=LINE('',#1152,#242);
#202=LINE('',#1153,#243);
#203=VECTOR('',#657,10.);
#204=VECTOR('',#658,10.);
#205=VECTOR('',#659,10.);
#206=VECTOR('',#660,10.);
#207=VECTOR('',#679,2.5);
#208=VECTOR('',#686,0.925);
#209=VECTOR('',#691,0.925);
#210=VECTOR('',#702,10.);
#211=VECTOR('',#703,10.);
#212=VECTOR('',#710,10.);
#213=VECTOR('',#713,10.);
#214=VECTOR('',#716,10.);
#215=VECTOR('',#717,10.);
#216=VECTOR('',#718,10.);
#217=VECTOR('',#719,10.);
#218=VECTOR('',#730,10.);
#219=VECTOR('',#731,10.);
#220=VECTOR('',#732,10.);
#221=VECTOR('',#737,10.);
#222=VECTOR('',#740,10.);
#223=VECTOR('',#741,10.);
#224=VECTOR('',#750,10.);
#225=VECTOR('',#753,10.);
#226=VECTOR('',#756,10.);
#227=VECTOR('',#757,10.);
#228=VECTOR('',#758,10.);
#229=VECTOR('',#761,10.);
#230=VECTOR('',#762,10.);
#231=VECTOR('',#765,10.);
#232=VECTOR('',#766,10.);
#233=VECTOR('',#769,10.);
#234=VECTOR('',#774,1.8);
#235=VECTOR('',#779,1.8);
#236=VECTOR('',#784,10.);
#237=VECTOR('',#785,10.);
#238=VECTOR('',#786,10.);
#239=VECTOR('',#789,10.);
#240=VECTOR('',#794,10.);
#241=VECTOR('',#795,10.);
#242=VECTOR('',#808,10.);
#243=VECTOR('',#809,10.);
#244=B_SPLINE_CURVE_WITH_KNOTS('',3,(#867,#868,#869,#870,#871,#872,#873,
#874,#875,#876,#877,#878,#879,#880,#881,#882),.UNSPECIFIED.,.F.,.F.,(4,
3,3,3,3,4),(1.04687190151943E-7,0.161296117469772,0.32259223357704,0.465950326825477,
0.609308420073914,0.752743320152902),.UNSPECIFIED.);
#245=B_SPLINE_CURVE_WITH_KNOTS('',3,(#886,#887,#888,#889,#890,#891,#892,
#893,#894,#895,#896,#897),.UNSPECIFIED.,.F.,.F.,(4,2,2,2,2,4),(1.70047014585909E-7,
0.152381450527262,0.304681133549829,0.456980816572397,0.628337360170789,
0.799693903769185),.UNSPECIFIED.);
#246=B_SPLINE_CURVE_WITH_KNOTS('',3,(#916,#917,#918,#919,#920,#921),
 .UNSPECIFIED.,.F.,.F.,(4,2,4),(8.2350468336539E-7,0.199997360081,0.399993700595119),
 .UNSPECIFIED.);
#247=B_SPLINE_CURVE_WITH_KNOTS('',3,(#923,#924,#925,#926),.UNSPECIFIED.,
 .F.,.F.,(4,4),(0.,0.39999989606851),.UNSPECIFIED.);
#248=B_SPLINE_CURVE_WITH_KNOTS('',3,(#961,#962,#963,#964,#965,#966,#967,
#968,#969,#970),.UNSPECIFIED.,.F.,.F.,(4,3,3,4),(0.,0.188185530534101,0.376371218827139,
0.752742545727341),.UNSPECIFIED.);
#249=B_SPLINE_CURVE_WITH_KNOTS('',3,(#972,#973,#974,#975,#976,#977,#978,
#979),.UNSPECIFIED.,.F.,.F.,(4,2,2,4),(5.27848467870928E-8,0.399846144931828,
0.599769217397741,0.79969212226509),.UNSPECIFIED.);
#250=B_SPLINE_CURVE_WITH_KNOTS('',3,(#997,#998,#999,#1000),
 .UNSPECIFIED.,.F.,.F.,(4,4),(0.,0.399991173346236),.UNSPECIFIED.);
#251=B_SPLINE_CURVE_WITH_KNOTS('',3,(#1001,#1002,#1003,#1004),
 .UNSPECIFIED.,.F.,.F.,(4,4),(-9.85738623374873E-7,0.400000015607474),
 .UNSPECIFIED.);
#252=B_SPLINE_CURVE_WITH_KNOTS('',3,(#1116,#1117,#1118,#1119,#1120,#1121,
#1122,#1123,#1124,#1125,#1126,#1127),.UNSPECIFIED.,.F.,.F.,(4,2,2,2,2,4),
(0.395381272745348,0.452942082917439,0.53560527239672,0.618181863049909,
0.703335075561906,0.707485642293038),.UNSPECIFIED.);
#253=VERTEX_POINT('',#865);
#254=VERTEX_POINT('',#866);
#255=VERTEX_POINT('',#883);
#256=VERTEX_POINT('',#885);
#257=VERTEX_POINT('',#915);
#258=VERTEX_POINT('',#922);
#259=VERTEX_POINT('',#960);
#260=VERTEX_POINT('',#971);
#261=VERTEX_POINT('',#1006);
#262=VERTEX_POINT('',#1007);
#263=VERTEX_POINT('',#1009);
#264=VERTEX_POINT('',#1011);
#265=VERTEX_POINT('',#1015);
#266=VERTEX_POINT('',#1017);
#267=VERTEX_POINT('',#1020);
#268=VERTEX_POINT('',#1024);
#269=VERTEX_POINT('',#1028);
#270=VERTEX_POINT('',#1030);
#271=VERTEX_POINT('',#1034);
#272=VERTEX_POINT('',#1035);
#273=VERTEX_POINT('',#1039);
#274=VERTEX_POINT('',#1041);
#275=VERTEX_POINT('',#1045);
#276=VERTEX_POINT('',#1047);
#277=VERTEX_POINT('',#1049);
#278=VERTEX_POINT('',#1051);
#279=VERTEX_POINT('',#1054);
#280=VERTEX_POINT('',#1055);
#281=VERTEX_POINT('',#1057);
#282=VERTEX_POINT('',#1059);
#283=VERTEX_POINT('',#1063);
#284=VERTEX_POINT('',#1066);
#285=VERTEX_POINT('',#1069);
#286=VERTEX_POINT('',#1070);
#287=VERTEX_POINT('',#1075);
#288=VERTEX_POINT('',#1079);
#289=VERTEX_POINT('',#1085);
#290=VERTEX_POINT('',#1086);
#291=VERTEX_POINT('',#1088);
#292=VERTEX_POINT('',#1090);
#293=VERTEX_POINT('',#1094);
#294=VERTEX_POINT('',#1096);
#295=VERTEX_POINT('',#1100);
#296=VERTEX_POINT('',#1104);
#297=VERTEX_POINT('',#1110);
#298=VERTEX_POINT('',#1114);
#299=VERTEX_POINT('',#1115);
#300=VERTEX_POINT('',#1128);
#301=VERTEX_POINT('',#1134);
#302=VERTEX_POINT('',#1138);
#303=VERTEX_POINT('',#1145);
#304=VERTEX_POINT('',#1148);
#305=EDGE_CURVE('',#253,#254,#244,.T.);
#306=EDGE_CURVE('',#253,#255,#162,.T.);
#307=EDGE_CURVE('',#256,#255,#245,.T.);
#308=EDGE_CURVE('',#254,#256,#163,.T.);
#309=EDGE_CURVE('',#254,#257,#246,.T.);
#310=EDGE_CURVE('',#258,#256,#247,.T.);
#311=EDGE_CURVE('',#257,#258,#164,.T.);
#312=EDGE_CURVE('',#257,#259,#248,.T.);
#313=EDGE_CURVE('',#260,#258,#249,.T.);
#314=EDGE_CURVE('',#259,#260,#165,.T.);
#315=EDGE_CURVE('',#259,#253,#250,.T.);
#316=EDGE_CURVE('',#255,#260,#251,.T.);
#317=EDGE_CURVE('',#261,#262,#53,.T.);
#318=EDGE_CURVE('',#262,#263,#54,.T.);
#319=EDGE_CURVE('',#263,#264,#55,.T.);
#320=EDGE_CURVE('',#264,#261,#56,.T.);
#321=EDGE_CURVE('',#265,#265,#57,.T.);
#322=EDGE_CURVE('',#266,#266,#58,.T.);
#323=EDGE_CURVE('',#265,#267,#166,.T.);
#324=EDGE_CURVE('',#267,#267,#59,.T.);
#325=EDGE_CURVE('',#268,#268,#60,.T.);
#326=EDGE_CURVE('',#268,#266,#167,.T.);
#327=EDGE_CURVE('',#269,#269,#61,.T.);
#328=EDGE_CURVE('',#269,#270,#168,.T.);
#329=EDGE_CURVE('',#270,#270,#62,.T.);
#330=EDGE_CURVE('',#271,#272,#63,.T.);
#331=EDGE_CURVE('',#272,#271,#64,.T.);
#332=EDGE_CURVE('',#272,#273,#169,.T.);
#333=EDGE_CURVE('',#274,#271,#170,.T.);
#334=EDGE_CURVE('',#273,#274,#65,.T.);
#335=EDGE_CURVE('',#275,#274,#66,.F.);
#336=EDGE_CURVE('',#276,#275,#171,.F.);
#337=EDGE_CURVE('',#277,#276,#67,.F.);
#338=EDGE_CURVE('',#278,#277,#172,.F.);
#339=EDGE_CURVE('',#273,#278,#68,.F.);
#340=EDGE_CURVE('',#279,#280,#173,.T.);
#341=EDGE_CURVE('',#280,#281,#174,.T.);
#342=EDGE_CURVE('',#281,#282,#175,.T.);
#343=EDGE_CURVE('',#282,#279,#176,.T.);
#344=EDGE_CURVE('',#283,#283,#69,.T.);
#345=EDGE_CURVE('',#284,#284,#70,.T.);
#346=EDGE_CURVE('',#285,#286,#177,.T.);
#347=EDGE_CURVE('',#285,#276,#178,.T.);
#348=EDGE_CURVE('',#286,#275,#179,.T.);
#349=EDGE_CURVE('',#287,#285,#71,.T.);
#350=EDGE_CURVE('',#287,#277,#180,.T.);
#351=EDGE_CURVE('',#288,#287,#181,.T.);
#352=EDGE_CURVE('',#288,#278,#182,.T.);
#353=EDGE_CURVE('',#286,#288,#72,.T.);
#354=EDGE_CURVE('',#289,#290,#73,.T.);
#355=EDGE_CURVE('',#291,#289,#183,.T.);
#356=EDGE_CURVE('',#291,#292,#74,.T.);
#357=EDGE_CURVE('',#292,#290,#184,.T.);
#358=EDGE_CURVE('',#293,#280,#185,.T.);
#359=EDGE_CURVE('',#294,#293,#186,.T.);
#360=EDGE_CURVE('',#294,#281,#187,.T.);
#361=EDGE_CURVE('',#295,#294,#188,.T.);
#362=EDGE_CURVE('',#295,#282,#189,.T.);
#363=EDGE_CURVE('',#296,#295,#190,.T.);
#364=EDGE_CURVE('',#296,#279,#191,.T.);
#365=EDGE_CURVE('',#293,#296,#192,.T.);
#366=EDGE_CURVE('',#297,#297,#75,.T.);
#367=EDGE_CURVE('',#297,#283,#193,.T.);
#368=EDGE_CURVE('',#298,#299,#252,.T.);
#369=EDGE_CURVE('',#300,#298,#76,.T.);
#370=EDGE_CURVE('',#300,#284,#194,.T.);
#371=EDGE_CURVE('',#299,#300,#77,.T.);
#372=EDGE_CURVE('',#263,#289,#195,.T.);
#373=EDGE_CURVE('',#301,#263,#196,.T.);
#374=EDGE_CURVE('',#291,#301,#197,.T.);
#375=EDGE_CURVE('',#292,#302,#198,.T.);
#376=EDGE_CURVE('',#302,#301,#78,.T.);
#377=EDGE_CURVE('',#290,#262,#199,.T.);
#378=EDGE_CURVE('',#302,#262,#200,.T.);
#379=EDGE_CURVE('',#299,#303,#79,.T.);
#380=EDGE_CURVE('',#289,#303,#80,.T.);
#381=EDGE_CURVE('',#290,#304,#81,.T.);
#382=EDGE_CURVE('',#304,#298,#82,.T.);
#383=EDGE_CURVE('',#261,#304,#201,.T.);
#384=EDGE_CURVE('',#303,#264,#202,.T.);
#385=ORIENTED_EDGE('',*,*,#305,.F.);
#386=ORIENTED_EDGE('',*,*,#306,.T.);
#387=ORIENTED_EDGE('',*,*,#307,.F.);
#388=ORIENTED_EDGE('',*,*,#308,.F.);
#389=ORIENTED_EDGE('',*,*,#309,.F.);
#390=ORIENTED_EDGE('',*,*,#308,.T.);
#391=ORIENTED_EDGE('',*,*,#310,.F.);
#392=ORIENTED_EDGE('',*,*,#311,.F.);
#393=ORIENTED_EDGE('',*,*,#312,.F.);
#394=ORIENTED_EDGE('',*,*,#311,.T.);
#395=ORIENTED_EDGE('',*,*,#313,.F.);
#396=ORIENTED_EDGE('',*,*,#314,.F.);
#397=ORIENTED_EDGE('',*,*,#315,.F.);
#398=ORIENTED_EDGE('',*,*,#314,.T.);
#399=ORIENTED_EDGE('',*,*,#316,.F.);
#400=ORIENTED_EDGE('',*,*,#306,.F.);
#401=ORIENTED_EDGE('',*,*,#317,.T.);
#402=ORIENTED_EDGE('',*,*,#318,.T.);
#403=ORIENTED_EDGE('',*,*,#319,.T.);
#404=ORIENTED_EDGE('',*,*,#320,.T.);
#405=ORIENTED_EDGE('',*,*,#321,.T.);
#406=ORIENTED_EDGE('',*,*,#322,.T.);
#407=ORIENTED_EDGE('',*,*,#321,.F.);
#408=ORIENTED_EDGE('',*,*,#323,.T.);
#409=ORIENTED_EDGE('',*,*,#324,.F.);
#410=ORIENTED_EDGE('',*,*,#323,.F.);
#411=ORIENTED_EDGE('',*,*,#325,.F.);
#412=ORIENTED_EDGE('',*,*,#326,.T.);
#413=ORIENTED_EDGE('',*,*,#322,.F.);
#414=ORIENTED_EDGE('',*,*,#326,.F.);
#415=ORIENTED_EDGE('',*,*,#327,.F.);
#416=ORIENTED_EDGE('',*,*,#328,.T.);
#417=ORIENTED_EDGE('',*,*,#329,.F.);
#418=ORIENTED_EDGE('',*,*,#328,.F.);
#419=ORIENTED_EDGE('',*,*,#330,.F.);
#420=ORIENTED_EDGE('',*,*,#331,.F.);
#421=ORIENTED_EDGE('',*,*,#329,.T.);
#422=ORIENTED_EDGE('',*,*,#332,.F.);
#423=ORIENTED_EDGE('',*,*,#331,.T.);
#424=ORIENTED_EDGE('',*,*,#333,.F.);
#425=ORIENTED_EDGE('',*,*,#334,.F.);
#426=ORIENTED_EDGE('',*,*,#334,.T.);
#427=ORIENTED_EDGE('',*,*,#335,.F.);
#428=ORIENTED_EDGE('',*,*,#336,.F.);
#429=ORIENTED_EDGE('',*,*,#337,.F.);
#430=ORIENTED_EDGE('',*,*,#338,.F.);
#431=ORIENTED_EDGE('',*,*,#339,.F.);
#432=ORIENTED_EDGE('',*,*,#340,.T.);
#433=ORIENTED_EDGE('',*,*,#341,.T.);
#434=ORIENTED_EDGE('',*,*,#342,.T.);
#435=ORIENTED_EDGE('',*,*,#343,.T.);
#436=ORIENTED_EDGE('',*,*,#324,.T.);
#437=ORIENTED_EDGE('',*,*,#344,.F.);
#438=ORIENTED_EDGE('',*,*,#325,.T.);
#439=ORIENTED_EDGE('',*,*,#345,.F.);
#440=ORIENTED_EDGE('',*,*,#327,.T.);
#441=ORIENTED_EDGE('',*,*,#346,.F.);
#442=ORIENTED_EDGE('',*,*,#347,.T.);
#443=ORIENTED_EDGE('',*,*,#336,.T.);
#444=ORIENTED_EDGE('',*,*,#348,.F.);
#445=ORIENTED_EDGE('',*,*,#349,.F.);
#446=ORIENTED_EDGE('',*,*,#350,.T.);
#447=ORIENTED_EDGE('',*,*,#337,.T.);
#448=ORIENTED_EDGE('',*,*,#347,.F.);
#449=ORIENTED_EDGE('',*,*,#312,.T.);
#450=ORIENTED_EDGE('',*,*,#315,.T.);
#451=ORIENTED_EDGE('',*,*,#305,.T.);
#452=ORIENTED_EDGE('',*,*,#309,.T.);
#453=ORIENTED_EDGE('',*,*,#351,.F.);
#454=ORIENTED_EDGE('',*,*,#352,.T.);
#455=ORIENTED_EDGE('',*,*,#338,.T.);
#456=ORIENTED_EDGE('',*,*,#350,.F.);
#457=ORIENTED_EDGE('',*,*,#332,.T.);
#458=ORIENTED_EDGE('',*,*,#339,.T.);
#459=ORIENTED_EDGE('',*,*,#352,.F.);
#460=ORIENTED_EDGE('',*,*,#353,.F.);
#461=ORIENTED_EDGE('',*,*,#348,.T.);
#462=ORIENTED_EDGE('',*,*,#335,.T.);
#463=ORIENTED_EDGE('',*,*,#333,.T.);
#464=ORIENTED_EDGE('',*,*,#330,.T.);
#465=ORIENTED_EDGE('',*,*,#354,.F.);
#466=ORIENTED_EDGE('',*,*,#355,.F.);
#467=ORIENTED_EDGE('',*,*,#356,.T.);
#468=ORIENTED_EDGE('',*,*,#357,.T.);
#469=ORIENTED_EDGE('',*,*,#341,.F.);
#470=ORIENTED_EDGE('',*,*,#358,.F.);
#471=ORIENTED_EDGE('',*,*,#359,.F.);
#472=ORIENTED_EDGE('',*,*,#360,.T.);
#473=ORIENTED_EDGE('',*,*,#342,.F.);
#474=ORIENTED_EDGE('',*,*,#360,.F.);
#475=ORIENTED_EDGE('',*,*,#361,.F.);
#476=ORIENTED_EDGE('',*,*,#362,.T.);
#477=ORIENTED_EDGE('',*,*,#343,.F.);
#478=ORIENTED_EDGE('',*,*,#362,.F.);
#479=ORIENTED_EDGE('',*,*,#363,.F.);
#480=ORIENTED_EDGE('',*,*,#364,.T.);
#481=ORIENTED_EDGE('',*,*,#340,.F.);
#482=ORIENTED_EDGE('',*,*,#364,.F.);
#483=ORIENTED_EDGE('',*,*,#365,.F.);
#484=ORIENTED_EDGE('',*,*,#358,.T.);
#485=ORIENTED_EDGE('',*,*,#366,.F.);
#486=ORIENTED_EDGE('',*,*,#367,.T.);
#487=ORIENTED_EDGE('',*,*,#344,.T.);
#488=ORIENTED_EDGE('',*,*,#367,.F.);
#489=ORIENTED_EDGE('',*,*,#368,.F.);
#490=ORIENTED_EDGE('',*,*,#369,.F.);
#491=ORIENTED_EDGE('',*,*,#370,.T.);
#492=ORIENTED_EDGE('',*,*,#345,.T.);
#493=ORIENTED_EDGE('',*,*,#370,.F.);
#494=ORIENTED_EDGE('',*,*,#371,.F.);
#495=ORIENTED_EDGE('',*,*,#372,.F.);
#496=ORIENTED_EDGE('',*,*,#373,.F.);
#497=ORIENTED_EDGE('',*,*,#374,.F.);
#498=ORIENTED_EDGE('',*,*,#355,.T.);
#499=ORIENTED_EDGE('',*,*,#375,.F.);
#500=ORIENTED_EDGE('',*,*,#356,.F.);
#501=ORIENTED_EDGE('',*,*,#374,.T.);
#502=ORIENTED_EDGE('',*,*,#376,.F.);
#503=ORIENTED_EDGE('',*,*,#353,.T.);
#504=ORIENTED_EDGE('',*,*,#351,.T.);
#505=ORIENTED_EDGE('',*,*,#349,.T.);
#506=ORIENTED_EDGE('',*,*,#346,.T.);
#507=ORIENTED_EDGE('',*,*,#377,.F.);
#508=ORIENTED_EDGE('',*,*,#357,.F.);
#509=ORIENTED_EDGE('',*,*,#375,.T.);
#510=ORIENTED_EDGE('',*,*,#378,.T.);
#511=ORIENTED_EDGE('',*,*,#368,.T.);
#512=ORIENTED_EDGE('',*,*,#379,.T.);
#513=ORIENTED_EDGE('',*,*,#380,.F.);
#514=ORIENTED_EDGE('',*,*,#354,.T.);
#515=ORIENTED_EDGE('',*,*,#381,.T.);
#516=ORIENTED_EDGE('',*,*,#382,.T.);
#517=ORIENTED_EDGE('',*,*,#379,.F.);
#518=ORIENTED_EDGE('',*,*,#371,.T.);
#519=ORIENTED_EDGE('',*,*,#369,.T.);
#520=ORIENTED_EDGE('',*,*,#382,.F.);
#521=ORIENTED_EDGE('',*,*,#383,.F.);
#522=ORIENTED_EDGE('',*,*,#320,.F.);
#523=ORIENTED_EDGE('',*,*,#384,.F.);
#524=ORIENTED_EDGE('',*,*,#366,.T.);
#525=ORIENTED_EDGE('',*,*,#365,.T.);
#526=ORIENTED_EDGE('',*,*,#363,.T.);
#527=ORIENTED_EDGE('',*,*,#361,.T.);
#528=ORIENTED_EDGE('',*,*,#359,.T.);
#529=ORIENTED_EDGE('',*,*,#380,.T.);
#530=ORIENTED_EDGE('',*,*,#384,.T.);
#531=ORIENTED_EDGE('',*,*,#319,.F.);
#532=ORIENTED_EDGE('',*,*,#372,.T.);
#533=ORIENTED_EDGE('',*,*,#318,.F.);
#534=ORIENTED_EDGE('',*,*,#378,.F.);
#535=ORIENTED_EDGE('',*,*,#376,.T.);
#536=ORIENTED_EDGE('',*,*,#373,.T.);
#537=ORIENTED_EDGE('',*,*,#313,.T.);
#538=ORIENTED_EDGE('',*,*,#310,.T.);
#539=ORIENTED_EDGE('',*,*,#307,.T.);
#540=ORIENTED_EDGE('',*,*,#316,.T.);
#541=ORIENTED_EDGE('',*,*,#317,.F.);
#542=ORIENTED_EDGE('',*,*,#383,.T.);
#543=ORIENTED_EDGE('',*,*,#381,.F.);
#544=ORIENTED_EDGE('',*,*,#377,.T.);
#545=B_SPLINE_SURFACE_WITH_KNOTS('',3,3,((#817,#818,#819,#820),(#821,#822,
#823,#824),(#825,#826,#827,#828),(#829,#830,#831,#832),(#833,#834,#835,
#836),(#837,#838,#839,#840),(#841,#842,#843,#844),(#845,#846,#847,#848),
(#849,#850,#851,#852),(#853,#854,#855,#856),(#857,#858,#859,#860),(#861,
#862,#863,#864)),.UNSPECIFIED.,.F.,.F.,.F.,(4,2,2,2,2,4),(4,4),(1.70047014585909E-7,
0.152381450527262,0.304681133549829,0.456980816572397,0.628337360170789,
0.799693903769185),(-0.0900000000000052,0.),.UNSPECIFIED.);
#546=B_SPLINE_SURFACE_WITH_KNOTS('',3,3,((#899,#900,#901,#902),(#903,#904,
#905,#906),(#907,#908,#909,#910),(#911,#912,#913,#914)),.UNSPECIFIED.,.F.,
 .F.,.F.,(4,4),(4,4),(0.,0.39999989606851),(-0.0900000000048727,0.),
 .UNSPECIFIED.);
#547=B_SPLINE_SURFACE_WITH_KNOTS('',3,3,((#928,#929,#930,#931),(#932,#933,
#934,#935),(#936,#937,#938,#939),(#940,#941,#942,#943),(#944,#945,#946,
#947),(#948,#949,#950,#951),(#952,#953,#954,#955),(#956,#957,#958,#959)),
 .UNSPECIFIED.,.F.,.F.,.F.,(4,2,2,4),(4,4),(5.27848467870928E-8,0.399846144931828,
0.599769217397741,0.79969212226509),(-0.0900000000000014,0.),
 .UNSPECIFIED.);
#548=B_SPLINE_SURFACE_WITH_KNOTS('',3,3,((#981,#982,#983,#984),(#985,#986,
#987,#988),(#989,#990,#991,#992),(#993,#994,#995,#996)),.UNSPECIFIED.,.F.,
 .F.,.F.,(4,4),(4,4),(-9.85738623374873E-7,0.400000015607474),(-0.0900000000000006,
0.),.UNSPECIFIED.);
#549=ADVANCED_FACE('',(#85),#545,.T.);
#550=ADVANCED_FACE('',(#86),#546,.T.);
#551=ADVANCED_FACE('',(#87),#547,.T.);
#552=ADVANCED_FACE('',(#88),#548,.T.);
#553=ADVANCED_FACE('',(#89),#83,.T.);
#554=ADVANCED_FACE('',(#90,#27),#38,.F.);
#555=ADVANCED_FACE('',(#91),#15,.T.);
#556=ADVANCED_FACE('',(#92),#16,.F.);
#557=ADVANCED_FACE('',(#93),#17,.F.);
#558=ADVANCED_FACE('',(#94,#28),#39,.F.);
#559=ADVANCED_FACE('',(#95),#18,.T.);
#560=ADVANCED_FACE('',(#96,#29,#30),#40,.F.);
#561=ADVANCED_FACE('',(#97,#31),#41,.F.);
#562=ADVANCED_FACE('',(#98,#32),#42,.F.);
#563=ADVANCED_FACE('',(#99),#43,.F.);
#564=ADVANCED_FACE('',(#100,#33),#19,.F.);
#565=ADVANCED_FACE('',(#101),#44,.F.);
#566=ADVANCED_FACE('',(#102),#20,.F.);
#567=ADVANCED_FACE('',(#103),#21,.T.);
#568=ADVANCED_FACE('',(#104),#45,.F.);
#569=ADVANCED_FACE('',(#105),#46,.F.);
#570=ADVANCED_FACE('',(#106),#47,.F.);
#571=ADVANCED_FACE('',(#107),#48,.F.);
#572=ADVANCED_FACE('',(#108),#22,.F.);
#573=ADVANCED_FACE('',(#109),#23,.F.);
#574=ADVANCED_FACE('',(#110),#49,.T.);
#575=ADVANCED_FACE('',(#111,#34),#50,.F.);
#576=ADVANCED_FACE('',(#112),#51,.T.);
#577=ADVANCED_FACE('',(#113),#84,.T.);
#578=ADVANCED_FACE('',(#114,#35,#36),#52,.T.);
#579=ADVANCED_FACE('',(#115),#24,.T.);
#580=ADVANCED_FACE('',(#116,#37),#25,.T.);
#581=ADVANCED_FACE('',(#117),#26,.T.);
#582=CLOSED_SHELL('',(#549,#550,#551,#552,#553,#554,#555,#556,#557,#558,
#559,#560,#561,#562,#563,#564,#565,#566,#567,#568,#569,#570,#571,#572,#573,
#574,#575,#576,#577,#578,#579,#580,#581));
#583=DERIVED_UNIT_ELEMENT(#585,1.);
#584=DERIVED_UNIT_ELEMENT(#1162,-3.);
#585=(
MASS_UNIT()
NAMED_UNIT(*)
SI_UNIT(.KILO.,.GRAM.)
);
#586=DERIVED_UNIT((#583,#584));
#587=MEASURE_REPRESENTATION_ITEM('density measure',
POSITIVE_RATIO_MEASURE(7850.),#586);
#588=PROPERTY_DEFINITION_REPRESENTATION(#593,#590);
#589=PROPERTY_DEFINITION_REPRESENTATION(#594,#591);
#590=REPRESENTATION('material name',(#592),#1159);
#591=REPRESENTATION('density',(#587),#1159);
#592=DESCRIPTIVE_REPRESENTATION_ITEM('Steel','Steel');
#593=PROPERTY_DEFINITION('material property','material name',#1169);
#594=PROPERTY_DEFINITION('material property','density of part',#1169);
#595=AXIS2_PLACEMENT_3D('',#816,#655,#656);
#596=AXIS2_PLACEMENT_3D('',#1005,#661,#662);
#597=AXIS2_PLACEMENT_3D('',#1008,#663,#664);
#598=AXIS2_PLACEMENT_3D('',#1010,#665,#666);
#599=AXIS2_PLACEMENT_3D('',#1012,#667,#668);
#600=AXIS2_PLACEMENT_3D('',#1013,#669,#670);
#601=AXIS2_PLACEMENT_3D('',#1014,#671,#672);
#602=AXIS2_PLACEMENT_3D('',#1016,#673,#674);
#603=AXIS2_PLACEMENT_3D('',#1018,#675,#676);
#604=AXIS2_PLACEMENT_3D('',#1019,#677,#678);
#605=AXIS2_PLACEMENT_3D('',#1022,#680,#681);
#606=AXIS2_PLACEMENT_3D('',#1023,#682,#683);
#607=AXIS2_PLACEMENT_3D('',#1025,#684,#685);
#608=AXIS2_PLACEMENT_3D('',#1027,#687,#688);
#609=AXIS2_PLACEMENT_3D('',#1029,#689,#690);
#610=AXIS2_PLACEMENT_3D('',#1032,#692,#693);
#611=AXIS2_PLACEMENT_3D('',#1033,#694,#695);
#612=AXIS2_PLACEMENT_3D('',#1036,#696,#697);
#613=AXIS2_PLACEMENT_3D('',#1037,#698,#699);
#614=AXIS2_PLACEMENT_3D('',#1038,#700,#701);
#615=AXIS2_PLACEMENT_3D('',#1043,#704,#705);
#616=AXIS2_PLACEMENT_3D('',#1044,#706,#707);
#617=AXIS2_PLACEMENT_3D('',#1046,#708,#709);
#618=AXIS2_PLACEMENT_3D('',#1050,#711,#712);
#619=AXIS2_PLACEMENT_3D('',#1053,#714,#715);
#620=AXIS2_PLACEMENT_3D('',#1062,#720,#721);
#621=AXIS2_PLACEMENT_3D('',#1064,#722,#723);
#622=AXIS2_PLACEMENT_3D('',#1065,#724,#725);
#623=AXIS2_PLACEMENT_3D('',#1067,#726,#727);
#624=AXIS2_PLACEMENT_3D('',#1068,#728,#729);
#625=AXIS2_PLACEMENT_3D('',#1074,#733,#734);
#626=AXIS2_PLACEMENT_3D('',#1076,#735,#736);
#627=AXIS2_PLACEMENT_3D('',#1078,#738,#739);
#628=AXIS2_PLACEMENT_3D('',#1082,#742,#743);
#629=AXIS2_PLACEMENT_3D('',#1083,#744,#745);
#630=AXIS2_PLACEMENT_3D('',#1084,#746,#747);
#631=AXIS2_PLACEMENT_3D('',#1087,#748,#749);
#632=AXIS2_PLACEMENT_3D('',#1091,#751,#752);
#633=AXIS2_PLACEMENT_3D('',#1093,#754,#755);
#634=AXIS2_PLACEMENT_3D('',#1099,#759,#760);
#635=AXIS2_PLACEMENT_3D('',#1103,#763,#764);
#636=AXIS2_PLACEMENT_3D('',#1107,#767,#768);
#637=AXIS2_PLACEMENT_3D('',#1109,#770,#771);
#638=AXIS2_PLACEMENT_3D('',#1111,#772,#773);
#639=AXIS2_PLACEMENT_3D('',#1113,#775,#776);
#640=AXIS2_PLACEMENT_3D('',#1129,#777,#778);
#641=AXIS2_PLACEMENT_3D('',#1131,#780,#781);
#642=AXIS2_PLACEMENT_3D('',#1132,#782,#783);
#643=AXIS2_PLACEMENT_3D('',#1137,#787,#788);
#644=AXIS2_PLACEMENT_3D('',#1140,#790,#791);
#645=AXIS2_PLACEMENT_3D('',#1141,#792,#793);
#646=AXIS2_PLACEMENT_3D('',#1144,#796,#797);
#647=AXIS2_PLACEMENT_3D('',#1146,#798,#799);
#648=AXIS2_PLACEMENT_3D('',#1147,#800,#801);
#649=AXIS2_PLACEMENT_3D('',#1149,#802,#803);
#650=AXIS2_PLACEMENT_3D('',#1150,#804,#805);
#651=AXIS2_PLACEMENT_3D('',#1151,#806,#807);
#652=AXIS2_PLACEMENT_3D('',#1154,#810,#811);
#653=AXIS2_PLACEMENT_3D('',#1155,#812,#813);
#654=AXIS2_PLACEMENT_3D('',#1156,#814,#815);
#655=DIRECTION('axis',(0.,0.,1.));
#656=DIRECTION('refdir',(1.,0.,0.));
#657=DIRECTION('',(0.,-0.941626943318074,-0.336658134637292));
#658=DIRECTION('',(0.,-0.626331543548048,-0.779556795593958));
#659=DIRECTION('',(0.,-0.626236552620747,-0.779633106122157));
#660=DIRECTION('',(0.,-0.941585751784263,-0.336773324414012));
#661=DIRECTION('center_axis',(-1.,0.,0.));
#662=DIRECTION('ref_axis',(0.,-0.819151836090978,-0.57357673368851));
#663=DIRECTION('center_axis',(0.,-0.819151833430927,-0.573576737487453));
#664=DIRECTION('ref_axis',(-1.,0.,0.));
#665=DIRECTION('center_axis',(-1.,0.,0.));
#666=DIRECTION('ref_axis',(0.,-0.819151836090978,-0.573576733688509));
#667=DIRECTION('center_axis',(0.,-0.819151838751029,-0.573576729889566));
#668=DIRECTION('ref_axis',(0.,-0.573576729889566,0.819151838751029));
#669=DIRECTION('center_axis',(1.,0.,0.));
#670=DIRECTION('ref_axis',(0.,-0.819151836090978,-0.573576733688509));
#671=DIRECTION('center_axis',(-1.,0.,0.));
#672=DIRECTION('ref_axis',(0.,-1.,0.));
#673=DIRECTION('center_axis',(1.,0.,0.));
#674=DIRECTION('ref_axis',(0.,-1.,0.));
#675=DIRECTION('center_axis',(-1.,0.,0.));
#676=DIRECTION('ref_axis',(0.,-1.,0.));
#677=DIRECTION('center_axis',(1.,0.,0.));
#678=DIRECTION('ref_axis',(0.,-1.,0.));
#679=DIRECTION('',(-1.,0.,0.));
#680=DIRECTION('center_axis',(-1.,0.,0.));
#681=DIRECTION('ref_axis',(0.,-1.,0.));
#682=DIRECTION('center_axis',(1.,0.,0.));
#683=DIRECTION('ref_axis',(0.,-1.,0.));
#684=DIRECTION('center_axis',(1.,0.,0.));
#685=DIRECTION('ref_axis',(0.,-1.,0.));
#686=DIRECTION('',(1.,0.,0.));
#687=DIRECTION('center_axis',(1.,0.,0.));
#688=DIRECTION('ref_axis',(0.,-1.,0.));
#689=DIRECTION('center_axis',(1.,0.,0.));
#690=DIRECTION('ref_axis',(0.,-1.,0.));
#691=DIRECTION('',(1.,0.,0.));
#692=DIRECTION('center_axis',(-1.,0.,0.));
#693=DIRECTION('ref_axis',(0.,-1.,0.));
#694=DIRECTION('center_axis',(-1.,0.,0.));
#695=DIRECTION('ref_axis',(0.,-1.,0.));
#696=DIRECTION('center_axis',(-1.,0.,0.));
#697=DIRECTION('ref_axis',(0.,-1.,0.));
#698=DIRECTION('center_axis',(-1.,0.,0.));
#699=DIRECTION('ref_axis',(0.,-1.,0.));
#700=DIRECTION('center_axis',(-1.,0.,0.));
#701=DIRECTION('ref_axis',(0.,0.1369407331661,-0.990579242463686));
#702=DIRECTION('',(-1.,0.,0.));
#703=DIRECTION('',(1.,0.,0.));
#704=DIRECTION('center_axis',(-1.,0.,0.));
#705=DIRECTION('ref_axis',(0.,-1.,0.));
#706=DIRECTION('center_axis',(-1.,0.,0.));
#707=DIRECTION('ref_axis',(0.,-1.,0.));
#708=DIRECTION('center_axis',(1.,0.,0.));
#709=DIRECTION('ref_axis',(0.,-1.,0.));
#710=DIRECTION('',(0.,-0.819151838751029,-0.573576729889566));
#711=DIRECTION('center_axis',(1.,0.,0.));
#712=DIRECTION('ref_axis',(0.,-1.,0.));
#713=DIRECTION('',(0.,0.819151837462313,0.573576731730042));
#714=DIRECTION('center_axis',(1.,0.,0.));
#715=DIRECTION('ref_axis',(0.,-1.,0.));
#716=DIRECTION('',(0.,-0.573576436324331,0.819152044307698));
#717=DIRECTION('',(0.,0.81915204429759,0.573576436338766));
#718=DIRECTION('',(0.,0.573576436324327,-0.819152044307701));
#719=DIRECTION('',(0.,-0.819152044297591,-0.573576436338765));
#720=DIRECTION('center_axis',(1.,0.,0.));
#721=DIRECTION('ref_axis',(0.,-1.,0.));
#722=DIRECTION('center_axis',(1.,0.,0.));
#723=DIRECTION('ref_axis',(0.,-1.,0.));
#724=DIRECTION('center_axis',(1.,0.,0.));
#725=DIRECTION('ref_axis',(0.,-1.,0.));
#726=DIRECTION('center_axis',(1.,0.,0.));
#727=DIRECTION('ref_axis',(0.,-1.,0.));
#728=DIRECTION('center_axis',(0.,-0.573576729889566,0.819151838751029));
#729=DIRECTION('ref_axis',(0.,0.819151838751029,0.573576729889566));
#730=DIRECTION('',(0.,0.819151838751029,0.573576729889566));
#731=DIRECTION('',(-1.,0.,0.));
#732=DIRECTION('',(-1.,0.,0.));
#733=DIRECTION('center_axis',(-1.,0.,0.));
#734=DIRECTION('ref_axis',(0.,-1.,0.));
#735=DIRECTION('center_axis',(-1.,0.,0.));
#736=DIRECTION('ref_axis',(0.,-1.,0.));
#737=DIRECTION('',(-1.,0.,0.));
#738=DIRECTION('center_axis',(0.,0.573576731730042,-0.819151837462313));
#739=DIRECTION('ref_axis',(0.,-0.819151837462313,-0.573576731730042));
#740=DIRECTION('',(0.,-0.819151837462313,-0.573576731730042));
#741=DIRECTION('',(-1.,0.,0.));
#742=DIRECTION('center_axis',(-1.,0.,0.));
#743=DIRECTION('ref_axis',(0.,0.819151837084039,0.573576732270273));
#744=DIRECTION('center_axis',(-1.,0.,0.));
#745=DIRECTION('ref_axis',(0.,-1.,0.));
#746=DIRECTION('center_axis',(-1.,0.,0.));
#747=DIRECTION('ref_axis',(0.,0.819151837147294,0.573576732179935));
#748=DIRECTION('center_axis',(-1.,0.,0.));
#749=DIRECTION('ref_axis',(0.,0.819151837147294,0.573576732179935));
#750=DIRECTION('',(-1.,0.,0.));
#751=DIRECTION('center_axis',(-1.,0.,0.));
#752=DIRECTION('ref_axis',(0.,-1.,0.));
#753=DIRECTION('',(-1.,0.,0.));
#754=DIRECTION('center_axis',(0.,-0.573576436338766,0.81915204429759));
#755=DIRECTION('ref_axis',(0.,-0.81915204429759,-0.573576436338766));
#756=DIRECTION('',(1.,0.,0.));
#757=DIRECTION('',(0.,-0.81915204429759,-0.573576436338766));
#758=DIRECTION('',(1.,0.,0.));
#759=DIRECTION('center_axis',(0.,0.819152044307701,0.573576436324327));
#760=DIRECTION('ref_axis',(0.,-0.573576436324327,0.819152044307701));
#761=DIRECTION('',(0.,-0.573576436324327,0.819152044307701));
#762=DIRECTION('',(1.,0.,0.));
#763=DIRECTION('center_axis',(0.,0.573576436338765,-0.819152044297591));
#764=DIRECTION('ref_axis',(0.,0.819152044297591,0.573576436338765));
#765=DIRECTION('',(0.,0.819152044297591,0.573576436338765));
#766=DIRECTION('',(1.,0.,0.));
#767=DIRECTION('center_axis',(0.,-0.819152044307698,-0.573576436324331));
#768=DIRECTION('ref_axis',(0.,0.573576436324331,-0.819152044307698));
#769=DIRECTION('',(0.,0.573576436324331,-0.819152044307698));
#770=DIRECTION('center_axis',(1.,0.,0.));
#771=DIRECTION('ref_axis',(0.,-1.,0.));
#772=DIRECTION('center_axis',(1.,0.,0.));
#773=DIRECTION('ref_axis',(0.,-1.,0.));
#774=DIRECTION('',(1.,0.,0.));
#775=DIRECTION('center_axis',(1.,0.,0.));
#776=DIRECTION('ref_axis',(0.,-1.,0.));
#777=DIRECTION('center_axis',(1.,0.,0.));
#778=DIRECTION('ref_axis',(0.,-1.,0.));
#779=DIRECTION('',(1.,0.,0.));
#780=DIRECTION('center_axis',(1.,0.,0.));
#781=DIRECTION('ref_axis',(0.,-1.,0.));
#782=DIRECTION('center_axis',(0.,-0.573576729889566,0.819151838751029));
#783=DIRECTION('ref_axis',(0.,0.819151838751029,0.573576729889566));
#784=DIRECTION('',(0.,0.819151838751029,0.573576729889566));
#785=DIRECTION('',(-1.,0.,0.));
#786=DIRECTION('',(0.,-0.819151838751029,-0.573576729889566));
#787=DIRECTION('center_axis',(-1.,0.,0.));
#788=DIRECTION('ref_axis',(0.,-1.,0.));
#789=DIRECTION('',(0.,-0.819151837462313,-0.573576731730042));
#790=DIRECTION('center_axis',(-1.,0.,0.));
#791=DIRECTION('ref_axis',(0.,-1.,0.));
#792=DIRECTION('center_axis',(0.,0.573576731730042,-0.819151837462313));
#793=DIRECTION('ref_axis',(0.,-0.819151837462313,-0.573576731730042));
#794=DIRECTION('',(0.,-0.819151837462313,-0.573576731730042));
#795=DIRECTION('',(-1.,0.,0.));
#796=DIRECTION('center_axis',(-1.,0.,0.));
#797=DIRECTION('ref_axis',(0.,0.,1.));
#798=DIRECTION('center_axis',(1.,0.,0.));
#799=DIRECTION('ref_axis',(0.,0.819151837147294,0.573576732179935));
#800=DIRECTION('center_axis',(0.,-0.819151838751029,-0.573576729889566));
#801=DIRECTION('ref_axis',(0.,-0.573576729889566,0.819151838751029));
#802=DIRECTION('center_axis',(0.,0.819151837462452,0.573576731729844));
#803=DIRECTION('ref_axis',(0.,0.573576731729844,-0.819151837462452));
#804=DIRECTION('center_axis',(1.,0.,0.));
#805=DIRECTION('ref_axis',(0.,0.819151837147294,0.573576732179935));
#806=DIRECTION('center_axis',(-1.,0.,0.));
#807=DIRECTION('ref_axis',(0.,-1.,0.));
#808=DIRECTION('',(0.,0.819151837462313,0.573576731730042));
#809=DIRECTION('',(0.,-0.819151838751029,-0.573576729889566));
#810=DIRECTION('center_axis',(0.,0.819151838751029,0.573576729889566));
#811=DIRECTION('ref_axis',(-0.707106781186545,-0.405579995235715,0.579227820002287));
#812=DIRECTION('center_axis',(-1.,0.,0.));
#813=DIRECTION('ref_axis',(0.,-1.,0.));
#814=DIRECTION('center_axis',(0.,-0.819151837462313,-0.573576731730042));
#815=DIRECTION('ref_axis',(-0.707106781186547,0.405579996537135,-0.579227819091019));
#816=CARTESIAN_POINT('',(0.,0.,0.));
#817=CARTESIAN_POINT('Ctrl Pts',(-16.738513816975,127.982705379557,109.07626075168));
#818=CARTESIAN_POINT('Ctrl Pts',(-16.738513816975,127.794805916493,108.842393713002));
#819=CARTESIAN_POINT('Ctrl Pts',(-16.738513816975,127.606906453428,108.608526674323));
#820=CARTESIAN_POINT('Ctrl Pts',(-16.738513816975,127.419006990364,108.374659635645));
#821=CARTESIAN_POINT('Ctrl Pts',(-16.7382907533692,127.6046094631,109.380040284233));
#822=CARTESIAN_POINT('Ctrl Pts',(-16.7382907533692,127.408402310299,109.15285230566));
#823=CARTESIAN_POINT('Ctrl Pts',(-16.7382907533692,127.212188825622,108.925656566499));
#824=CARTESIAN_POINT('Ctrl Pts',(-16.7382907533692,127.015981672821,108.698468587927));
#825=CARTESIAN_POINT('Ctrl Pts',(-16.7380760345744,127.253855472557,109.694228610112));
#826=CARTESIAN_POINT('Ctrl Pts',(-16.7380760345744,127.049938526904,109.473944465658));
#827=CARTESIAN_POINT('Ctrl Pts',(-16.7380760345744,126.846017991193,109.253656772055));
#828=CARTESIAN_POINT('Ctrl Pts',(-16.7380760345744,126.642101045539,109.033372627601));
#829=CARTESIAN_POINT('Ctrl Pts',(-16.7376314354773,126.579770361872,110.363004109179));
#830=CARTESIAN_POINT('Ctrl Pts',(-16.7376314354773,126.361036906015,110.157416882835));
#831=CARTESIAN_POINT('Ctrl Pts',(-16.7376314354773,126.142304218579,109.951830440862));
#832=CARTESIAN_POINT('Ctrl Pts',(-16.7376314354773,125.923570762722,109.746243214518));
#833=CARTESIAN_POINT('Ctrl Pts',(-16.7374019338203,126.254837866222,110.721072143045));
#834=CARTESIAN_POINT('Ctrl Pts',(-16.7374019338203,126.028963256715,110.523354784889));
#835=CARTESIAN_POINT('Ctrl Pts',(-16.7374019338203,125.803088755987,110.325637487894));
#836=CARTESIAN_POINT('Ctrl Pts',(-16.7374019338203,125.57721414648,110.127920129738));
#837=CARTESIAN_POINT('Ctrl Pts',(-16.7369486452042,125.651005556209,111.46182299032));
#838=CARTESIAN_POINT('Ctrl Pts',(-16.7369486452042,125.411861138993,111.280386803958));
#839=CARTESIAN_POINT('Ctrl Pts',(-16.7369486452042,125.17271313434,111.098947878579));
#840=CARTESIAN_POINT('Ctrl Pts',(-16.7369486452042,124.933568717124,110.917511692217));
#841=CARTESIAN_POINT('Ctrl Pts',(-16.7367247709659,125.372525508672,111.842410763727));
#842=CARTESIAN_POINT('Ctrl Pts',(-16.7367247709659,125.12726094396,111.669339222184));
#843=CARTESIAN_POINT('Ctrl Pts',(-16.7367247709659,124.881991912484,111.496264706513));
#844=CARTESIAN_POINT('Ctrl Pts',(-16.7367247709659,124.636727347772,111.32319316497));
#845=CARTESIAN_POINT('Ctrl Pts',(-16.7362431328722,124.817350775365,112.690299897218));
#846=CARTESIAN_POINT('Ctrl Pts',(-16.7362431328722,124.559882841695,112.535862031958));
#847=CARTESIAN_POINT('Ctrl Pts',(-16.7362431328722,124.302415620663,112.381424941755));
#848=CARTESIAN_POINT('Ctrl Pts',(-16.7362431328722,124.044947686994,112.226987076494));
#849=CARTESIAN_POINT('Ctrl Pts',(-16.7359846788374,124.546087038033,113.163736932177));
#850=CARTESIAN_POINT('Ctrl Pts',(-16.7359846788374,124.282656845577,113.019704144527));
#851=CARTESIAN_POINT('Ctrl Pts',(-16.7359846788374,124.019228620975,112.875672527782));
#852=CARTESIAN_POINT('Ctrl Pts',(-16.7359846788374,123.755798428519,112.731639740132));
#853=CARTESIAN_POINT('Ctrl Pts',(-16.735482713435,124.069746319185,114.122935012052));
#854=CARTESIAN_POINT('Ctrl Pts',(-16.735482713435,123.795849903258,113.999984945852));
#855=CARTESIAN_POINT('Ctrl Pts',(-16.735482713435,123.521947045235,113.877031715649));
#856=CARTESIAN_POINT('Ctrl Pts',(-16.735482713435,123.248050629308,113.754081649449));
#857=CARTESIAN_POINT('Ctrl Pts',(-16.7352393679556,123.86231510709,114.608883300931));
#858=CARTESIAN_POINT('Ctrl Pts',(-16.7352393679556,123.58386215048,114.49661402065));
#859=CARTESIAN_POINT('Ctrl Pts',(-16.7352393679556,123.305395590607,114.384339765127));
#860=CARTESIAN_POINT('Ctrl Pts',(-16.7352393679556,123.026942633997,114.272070484847));
#861=CARTESIAN_POINT('Ctrl Pts',(-16.7349902021495,123.678922820258,115.121828459501));
#862=CARTESIAN_POINT('Ctrl Pts',(-16.7349902021495,123.396434729517,115.020831040775));
#863=CARTESIAN_POINT('Ctrl Pts',(-16.7349902021495,123.113946638776,114.919833622049));
#864=CARTESIAN_POINT('Ctrl Pts',(-16.7349902021495,122.831458548034,114.818836203323));
#865=CARTESIAN_POINT('',(-16.7349902026496,123.678923172696,115.121827473738));
#866=CARTESIAN_POINT('',(-16.738513816975,127.982705379557,109.07626075168));
#867=CARTESIAN_POINT('Ctrl Pts',(-16.7349902026284,123.678923172696,115.121827473738));
#868=CARTESIAN_POINT('Ctrl Pts',(-16.7352393682674,123.862315372846,114.608882678343));
#869=CARTESIAN_POINT('Ctrl Pts',(-16.7354827135958,124.069746471755,114.122934704826));
#870=CARTESIAN_POINT('Ctrl Pts',(-16.7357336961362,124.307916678609,113.643335972115));
#871=CARTESIAN_POINT('Ctrl Pts',(-16.7359846788374,124.546087038033,113.163736932177));
#872=CARTESIAN_POINT('Ctrl Pts',(-16.7362431328722,124.817350775365,112.690299897218));
#873=CARTESIAN_POINT('Ctrl Pts',(-16.7364981313311,125.111282470688,112.241393498022));
#874=CARTESIAN_POINT('Ctrl Pts',(-16.7367247709659,125.372525508672,111.842410763727));
#875=CARTESIAN_POINT('Ctrl Pts',(-16.7369486452042,125.651005556209,111.46182299032));
#876=CARTESIAN_POINT('Ctrl Pts',(-16.7371752895123,125.952921711216,111.091447566682));
#877=CARTESIAN_POINT('Ctrl Pts',(-16.7374019338203,126.254837866222,110.721072143045));
#878=CARTESIAN_POINT('Ctrl Pts',(-16.7376314354773,126.579770361872,110.363004109179));
#879=CARTESIAN_POINT('Ctrl Pts',(-16.7378536754912,126.916722652909,110.02870591296));
#880=CARTESIAN_POINT('Ctrl Pts',(-16.7380760345744,127.253855472557,109.694228610112));
#881=CARTESIAN_POINT('Ctrl Pts',(-16.7382907533692,127.6046094631,109.380040284233));
#882=CARTESIAN_POINT('Ctrl Pts',(-16.738513816975,127.982705379557,109.07626075168));
#883=CARTESIAN_POINT('',(-16.7349902021495,122.831458548034,114.818836203323));
#884=CARTESIAN_POINT('',(-16.7349902026496,122.83145892371,114.818835152565));
#885=CARTESIAN_POINT('',(-16.7385220520211,127.419006987594,108.374659637871));
#886=CARTESIAN_POINT('Ctrl Pts',(-16.738513816975,127.419006990364,108.374659635645));
#887=CARTESIAN_POINT('Ctrl Pts',(-16.7382907533692,127.015981672821,108.698468587927));
#888=CARTESIAN_POINT('Ctrl Pts',(-16.7380760345744,126.642101045539,109.033372627601));
#889=CARTESIAN_POINT('Ctrl Pts',(-16.7376314354773,125.923570762722,109.746243214518));
#890=CARTESIAN_POINT('Ctrl Pts',(-16.7374019338203,125.57721414648,110.127920129738));
#891=CARTESIAN_POINT('Ctrl Pts',(-16.7369486452042,124.933568717124,110.917511692217));
#892=CARTESIAN_POINT('Ctrl Pts',(-16.7367247709659,124.636727347772,111.32319316497));
#893=CARTESIAN_POINT('Ctrl Pts',(-16.7362431328722,124.044947686994,112.226987076494));
#894=CARTESIAN_POINT('Ctrl Pts',(-16.7359846788374,123.755798428519,112.731639740132));
#895=CARTESIAN_POINT('Ctrl Pts',(-16.735482713435,123.248050629308,113.754081649449));
#896=CARTESIAN_POINT('Ctrl Pts',(-16.7352393679556,123.026942633997,114.272070484847));
#897=CARTESIAN_POINT('Ctrl Pts',(-16.7349902021495,122.831458548034,114.818836203323));
#898=CARTESIAN_POINT('',(-16.738513816975,127.419006990364,108.374659635645));
#899=CARTESIAN_POINT('Ctrl Pts',(-12.7385234825558,127.984002005745,109.075219113008));
#900=CARTESIAN_POINT('Ctrl Pts',(-12.7385234825558,127.796131039949,108.841329181159));
#901=CARTESIAN_POINT('Ctrl Pts',(-12.7385234825558,127.608260074152,108.607439249309));
#902=CARTESIAN_POINT('Ctrl Pts',(-12.7385234825558,127.420389108356,108.37354931746));
#903=CARTESIAN_POINT('Ctrl Pts',(-14.0718563525658,127.983604149689,109.075538688977));
#904=CARTESIAN_POINT('Ctrl Pts',(-14.0718563525658,127.7957244398,108.841655780754));
#905=CARTESIAN_POINT('Ctrl Pts',(-14.0718563525658,127.607844729921,108.607772872594));
#906=CARTESIAN_POINT('Ctrl Pts',(-14.0718563525658,127.419965020032,108.373889964372));
#907=CARTESIAN_POINT('Ctrl Pts',(-15.4051892055219,127.983145988874,109.075906746088));
#908=CARTESIAN_POINT('Ctrl Pts',(-15.4051892055219,127.795256209517,108.842031927031));
#909=CARTESIAN_POINT('Ctrl Pts',(-15.4051892055219,127.607366430169,108.608157108041));
#910=CARTESIAN_POINT('Ctrl Pts',(-15.4051892055219,127.419476650812,108.374282288985));
#911=CARTESIAN_POINT('Ctrl Pts',(-16.7385220520211,127.982705376989,109.076260753806));
#912=CARTESIAN_POINT('Ctrl Pts',(-16.7385220520211,127.794805913857,108.842393715161));
#913=CARTESIAN_POINT('Ctrl Pts',(-16.7385220520211,127.606906450726,108.608526676516));
#914=CARTESIAN_POINT('Ctrl Pts',(-16.7385220520211,127.419006987594,108.374659637871));
#915=CARTESIAN_POINT('',(-12.7385234825558,127.984002005715,109.07521911297));
#916=CARTESIAN_POINT('Ctrl Pts',(-16.738513816975,127.98270537968,109.076260751581));
#917=CARTESIAN_POINT('Ctrl Pts',(-16.0718587548731,127.982925681904,109.07608375071));
#918=CARTESIAN_POINT('Ctrl Pts',(-15.4051941378827,127.983150374332,109.075903234139));
#919=CARTESIAN_POINT('Ctrl Pts',(-14.0718520678841,127.983589074753,109.075550807245));
#920=CARTESIAN_POINT('Ctrl Pts',(-13.4051909943713,127.983803077365,109.075378901212));
#921=CARTESIAN_POINT('Ctrl Pts',(-12.7385234825558,127.984002005715,109.07521911297));
#922=CARTESIAN_POINT('',(-12.7385234825558,127.420389108356,108.37354931746));
#923=CARTESIAN_POINT('Ctrl Pts',(-12.7385234825558,127.420389108356,108.37354931746));
#924=CARTESIAN_POINT('Ctrl Pts',(-14.0718563525658,127.419965020032,108.373889964372));
#925=CARTESIAN_POINT('Ctrl Pts',(-15.4051892055219,127.419476650812,108.374282288985));
#926=CARTESIAN_POINT('Ctrl Pts',(-16.7385220520211,127.419006987594,108.374659637871));
#927=CARTESIAN_POINT('',(-12.7385234825558,127.420389108356,108.37354931746));
#928=CARTESIAN_POINT('Ctrl Pts',(-12.7349805834275,123.679485437133,115.120255133286));
#929=CARTESIAN_POINT('Ctrl Pts',(-12.7349805834275,123.397009711598,115.019223135962));
#930=CARTESIAN_POINT('Ctrl Pts',(-12.7349805834275,123.114533986062,114.918191138638));
#931=CARTESIAN_POINT('Ctrl Pts',(-12.7349805834275,122.832058260527,114.817159141313));
#932=CARTESIAN_POINT('Ctrl Pts',(-12.7355780626275,124.105614609049,113.928839045345));
#933=CARTESIAN_POINT('Ctrl Pts',(-12.7355780626275,123.832520855352,113.801628756634));
#934=CARTESIAN_POINT('Ctrl Pts',(-12.7355780626275,123.559377615058,113.674398435187));
#935=CARTESIAN_POINT('Ctrl Pts',(-12.7355780626275,123.286283861361,113.547188146476));
#936=CARTESIAN_POINT('Ctrl Pts',(-12.7361610524752,124.684318210249,112.824019916283));
#937=CARTESIAN_POINT('Ctrl Pts',(-12.7361610524752,124.423931702136,112.672524930748));
#938=CARTESIAN_POINT('Ctrl Pts',(-12.7361610524752,124.163530252073,112.521018785647));
#939=CARTESIAN_POINT('Ctrl Pts',(-12.7361610524752,123.903143743959,112.369523800112));
#940=CARTESIAN_POINT('Ctrl Pts',(-12.7370472557322,125.775147795698,111.290469596154));
#941=CARTESIAN_POINT('Ctrl Pts',(-12.7370472557322,125.538730219005,111.105266020746));
#942=CARTESIAN_POINT('Ctrl Pts',(-12.7370472557322,125.302313735909,110.92006384747));
#943=CARTESIAN_POINT('Ctrl Pts',(-12.7370472557322,125.065896159217,110.734860272062));
#944=CARTESIAN_POINT('Ctrl Pts',(-12.7373442928508,126.17797907741,110.800444603759));
#945=CARTESIAN_POINT('Ctrl Pts',(-12.7373442928508,125.950416667083,110.604472541339));
#946=CARTESIAN_POINT('Ctrl Pts',(-12.7373442928508,125.722850155545,110.408498001931));
#947=CARTESIAN_POINT('Ctrl Pts',(-12.7373442928508,125.495287745218,110.21252593951));
#948=CARTESIAN_POINT('Ctrl Pts',(-12.7379328626305,127.035377054998,109.892661788094));
#949=CARTESIAN_POINT('Ctrl Pts',(-12.7379328626305,126.826658124005,109.676738527208));
#950=CARTESIAN_POINT('Ctrl Pts',(-12.7379328626305,126.617936388586,109.46081257271));
#951=CARTESIAN_POINT('Ctrl Pts',(-12.7379328626305,126.409217457593,109.244889311823));
#952=CARTESIAN_POINT('Ctrl Pts',(-12.7382239432104,127.490207561542,109.471857131537));
#953=CARTESIAN_POINT('Ctrl Pts',(-12.7382239432104,127.291487414694,109.246688393055));
#954=CARTESIAN_POINT('Ctrl Pts',(-12.7382239432104,127.092756935592,109.021508031777));
#955=CARTESIAN_POINT('Ctrl Pts',(-12.7382239432104,126.894036788744,108.796339293295));
#956=CARTESIAN_POINT('Ctrl Pts',(-12.738523482523,127.984002005715,109.07521911297));
#957=CARTESIAN_POINT('Ctrl Pts',(-12.738523482523,127.796131039929,108.841329181133));
#958=CARTESIAN_POINT('Ctrl Pts',(-12.738523482523,127.608260074142,108.607439249297));
#959=CARTESIAN_POINT('Ctrl Pts',(-12.738523482523,127.420389108356,108.37354931746));
#960=CARTESIAN_POINT('',(-12.7349805834264,123.679485437133,115.120255133286));
#961=CARTESIAN_POINT('Ctrl Pts',(-12.738523482523,127.984002005715,109.07521911297));
#962=CARTESIAN_POINT('Ctrl Pts',(-12.7382239432104,127.490207561542,109.471857131537));
#963=CARTESIAN_POINT('Ctrl Pts',(-12.7379328626305,127.035377054998,109.892661788094));
#964=CARTESIAN_POINT('Ctrl Pts',(-12.737638577864,126.606678245897,110.346553005675));
#965=CARTESIAN_POINT('Ctrl Pts',(-12.7373442928508,126.17797907741,110.800444603759));
#966=CARTESIAN_POINT('Ctrl Pts',(-12.7370472557322,125.775147795698,111.290469596154));
#967=CARTESIAN_POINT('Ctrl Pts',(-12.7367518546205,125.411537901881,111.801653081185));
#968=CARTESIAN_POINT('Ctrl Pts',(-12.7361610524752,124.684318210249,112.824019916283));
#969=CARTESIAN_POINT('Ctrl Pts',(-12.7355780626275,124.105614609049,113.928839045345));
#970=CARTESIAN_POINT('Ctrl Pts',(-12.7349805834275,123.679485437133,115.120255133286));
#971=CARTESIAN_POINT('',(-12.7349805834264,122.832058260527,114.817159141313));
#972=CARTESIAN_POINT('Ctrl Pts',(-12.7349805834275,122.832058260527,114.817159141313));
#973=CARTESIAN_POINT('Ctrl Pts',(-12.7355780626275,123.286283861361,113.547188146476));
#974=CARTESIAN_POINT('Ctrl Pts',(-12.7361610524752,123.903143743959,112.369523800112));
#975=CARTESIAN_POINT('Ctrl Pts',(-12.7370472557322,125.065896159217,110.734860272062));
#976=CARTESIAN_POINT('Ctrl Pts',(-12.7373442928508,125.495287745218,110.21252593951));
#977=CARTESIAN_POINT('Ctrl Pts',(-12.7379328626305,126.409217457593,109.244889311823));
#978=CARTESIAN_POINT('Ctrl Pts',(-12.7382239432104,126.894036788744,108.796339293295));
#979=CARTESIAN_POINT('Ctrl Pts',(-12.738523482523,127.420389108356,108.37354931746));
#980=CARTESIAN_POINT('',(-12.7349805834264,122.832058260527,114.817159141313));
#981=CARTESIAN_POINT('Ctrl Pts',(-16.7349902026496,123.678923172696,115.121827473738));
#982=CARTESIAN_POINT('Ctrl Pts',(-16.7349902026496,123.396435089701,115.020830033347));
#983=CARTESIAN_POINT('Ctrl Pts',(-16.7349902026496,123.113947006705,114.919832592956));
#984=CARTESIAN_POINT('Ctrl Pts',(-16.7349902026496,122.83145892371,114.818835152565));
#985=CARTESIAN_POINT('Ctrl Pts',(-15.4016536660205,123.679110812382,115.121302648803));
#986=CARTESIAN_POINT('Ctrl Pts',(-15.4016536660205,123.396626853324,115.020293673808));
#987=CARTESIAN_POINT('Ctrl Pts',(-15.4016536660205,123.114142894301,114.919284698784));
#988=CARTESIAN_POINT('Ctrl Pts',(-15.4016536660205,122.831658935243,114.818275723788));
#989=CARTESIAN_POINT('Ctrl Pts',(-14.0683171269236,123.679302995934,115.12076522129));
#990=CARTESIAN_POINT('Ctrl Pts',(-14.0683171269236,123.396823260691,115.019744434699));
#991=CARTESIAN_POINT('Ctrl Pts',(-14.0683171269236,123.114343525482,114.918723648085));
#992=CARTESIAN_POINT('Ctrl Pts',(-14.0683171269236,122.831863790239,114.817702861494));
#993=CARTESIAN_POINT('Ctrl Pts',(-12.7349805834264,123.679485437133,115.120255133286));
#994=CARTESIAN_POINT('Ctrl Pts',(-12.7349805834264,123.397009711597,115.019223135962));
#995=CARTESIAN_POINT('Ctrl Pts',(-12.7349805834264,123.114533986062,114.918191138638));
#996=CARTESIAN_POINT('Ctrl Pts',(-12.7349805834264,122.832058260527,114.817159141313));
#997=CARTESIAN_POINT('Ctrl Pts',(-12.7349805834264,123.679485437133,115.120255133286));
#998=CARTESIAN_POINT('Ctrl Pts',(-14.0683171269236,123.679302995934,115.12076522129));
#999=CARTESIAN_POINT('Ctrl Pts',(-15.4016536660205,123.679110812382,115.121302648803));
#1000=CARTESIAN_POINT('Ctrl Pts',(-16.7349902026496,123.678923172696,115.121827473738));
#1001=CARTESIAN_POINT('Ctrl Pts',(-16.7349902026496,122.83145892371,114.818835152565));
#1002=CARTESIAN_POINT('Ctrl Pts',(-15.4016536660205,122.831658935243,114.818275723788));
#1003=CARTESIAN_POINT('Ctrl Pts',(-14.0683171269236,122.831863790239,114.817702861494));
#1004=CARTESIAN_POINT('Ctrl Pts',(-12.7349805834264,122.832058260527,114.817159141313));
#1005=CARTESIAN_POINT('Origin',(-24.8,136.532130948988,119.717211011537));
#1006=CARTESIAN_POINT('',(-26.8,143.730519004455,109.436855501979));
#1007=CARTESIAN_POINT('',(-24.8,144.877672537429,107.798551752287));
#1008=CARTESIAN_POINT('Origin',(-24.8,143.730519004455,109.436855501979));
#1009=CARTESIAN_POINT('',(-24.8,128.186589529095,131.635870265365));
#1010=CARTESIAN_POINT('Origin',(-24.8,136.532130948988,119.717211011537));
#1011=CARTESIAN_POINT('',(-26.8,129.333742988874,129.997566587863));
#1012=CARTESIAN_POINT('Origin',(-24.8,129.333742988874,129.997566587863));
#1013=CARTESIAN_POINT('Origin',(-26.8,136.532130948988,119.717211011537));
#1014=CARTESIAN_POINT('Origin',(-24.4,137.499996926636,109.799997545779));
#1015=CARTESIAN_POINT('',(-24.4,139.999996926636,109.799997545779));
#1016=CARTESIAN_POINT('Origin',(-24.4,137.499996926636,109.799997545779));
#1017=CARTESIAN_POINT('',(-24.4,138.438142799185,109.776344317489));
#1018=CARTESIAN_POINT('Origin',(-24.4,137.513142799185,109.776344317489));
#1019=CARTESIAN_POINT('Origin',(-25.9,137.499996926636,109.799997545779));
#1020=CARTESIAN_POINT('',(-25.9,139.999996926636,109.799997545779));
#1021=CARTESIAN_POINT('',(-25.9,139.999996926636,109.799997545779));
#1022=CARTESIAN_POINT('Origin',(-25.9,137.499996926636,109.799997545779));
#1023=CARTESIAN_POINT('Origin',(-24.3,137.513142799185,109.776344317489));
#1024=CARTESIAN_POINT('',(-24.8,138.438142799185,109.776344317489));
#1025=CARTESIAN_POINT('Origin',(-24.8,137.513142799185,109.776344317489));
#1026=CARTESIAN_POINT('',(-24.3,138.438142799185,109.776344317489));
#1027=CARTESIAN_POINT('Origin',(-24.3,171.809924542864,156.563921378686));
#1028=CARTESIAN_POINT('',(-24.8,172.734924542864,156.563921378686));
#1029=CARTESIAN_POINT('Origin',(-24.8,171.809924542864,156.563921378686));
#1030=CARTESIAN_POINT('',(-24.4,172.734924542864,156.563921378686));
#1031=CARTESIAN_POINT('',(-24.3,172.734924542864,156.563921378686));
#1032=CARTESIAN_POINT('Origin',(-24.4,171.809924542864,156.563921378686));
#1033=CARTESIAN_POINT('Origin',(-24.4,171.858788980448,156.633056962048));
#1034=CARTESIAN_POINT('',(-24.4,170.929138393317,158.953778786362));
#1035=CARTESIAN_POINT('',(-24.4,172.123957693407,159.118954295742));
#1036=CARTESIAN_POINT('Origin',(-24.4,173.393963692784,145.528163856568));
#1037=CARTESIAN_POINT('Origin',(-24.4,171.858788980448,156.633056962048));
#1038=CARTESIAN_POINT('Origin',(-24.4,171.858788980448,156.633056962048));
#1039=CARTESIAN_POINT('',(-25.9,172.123957693407,159.118954295742));
#1040=CARTESIAN_POINT('',(-24.4,172.123957693407,159.118954295742));
#1041=CARTESIAN_POINT('',(-25.9,170.929138393317,158.953778786362));
#1042=CARTESIAN_POINT('',(-24.4,170.929138393317,158.953778786362));
#1043=CARTESIAN_POINT('Origin',(-25.9,171.858788980448,156.633056962048));
#1044=CARTESIAN_POINT('Origin',(-25.9,154.963047320886,132.622687434053));
#1045=CARTESIAN_POINT('',(-25.9,165.564641289918,156.709586427599));
#1046=CARTESIAN_POINT('Origin',(-25.9,173.393963692784,145.528163856568));
#1047=CARTESIAN_POINT('',(-25.9,128.702808585995,130.898633610489));
#1048=CARTESIAN_POINT('',(-25.9,137.918266771944,137.351371821746));
#1049=CARTESIAN_POINT('',(-25.9,144.361453478872,108.535788406003));
#1050=CARTESIAN_POINT('Origin',(-25.9,136.532130948988,119.717211011537));
#1051=CARTESIAN_POINT('',(-25.9,181.223286080903,134.346741275196));
#1052=CARTESIAN_POINT('',(-25.9,172.007827909453,127.894003043234));
#1053=CARTESIAN_POINT('Origin',(-25.9,173.393963692784,145.528163856568));
#1054=CARTESIAN_POINT('',(-25.9,160.407118483976,128.511597990681));
#1055=CARTESIAN_POINT('',(-25.9,152.95062481176,139.160574566681));
#1056=CARTESIAN_POINT('',(-25.9,154.817559253739,136.494315864465));
#1057=CARTESIAN_POINT('',(-25.9,176.542203687767,155.679575933403));
#1058=CARTESIAN_POINT('',(-25.9,163.885691062311,146.817390385895));
#1059=CARTESIAN_POINT('',(-25.9,183.998697359983,145.030599357403));
#1060=CARTESIAN_POINT('',(-25.9,182.137384966,147.688828942979));
#1061=CARTESIAN_POINT('',(-25.9,159.546395296618,127.9089131266));
#1062=CARTESIAN_POINT('Origin',(-24.8,137.513142799185,109.776344317489));
#1063=CARTESIAN_POINT('',(-24.8,139.313142799185,109.776344317489));
#1064=CARTESIAN_POINT('Origin',(-24.8,137.513142799185,109.776344317489));
#1065=CARTESIAN_POINT('Origin',(-24.8,171.809924542864,156.563921378686));
#1066=CARTESIAN_POINT('',(-24.8,173.609924542864,156.563921378686));
#1067=CARTESIAN_POINT('Origin',(-24.8,171.809924542864,156.563921378686));
#1068=CARTESIAN_POINT('Origin',(-5.8,128.702808585995,130.898633610489));
#1069=CARTESIAN_POINT('',(-5.8,128.702808585995,130.898633610489));
#1070=CARTESIAN_POINT('',(-5.8,165.564641289918,156.709586427599));
#1071=CARTESIAN_POINT('',(-5.8,137.918266771944,137.351371821746));
#1072=CARTESIAN_POINT('',(-5.8,128.702808585995,130.898633610489));
#1073=CARTESIAN_POINT('',(-5.8,165.564641289918,156.709586427599));
#1074=CARTESIAN_POINT('Origin',(-5.8,136.532130948988,119.717211011537));
#1075=CARTESIAN_POINT('',(-5.8,144.361453478872,108.535788406003));
#1076=CARTESIAN_POINT('Origin',(-5.8,136.532130948988,119.717211011537));
#1077=CARTESIAN_POINT('',(-5.8,144.361453478872,108.535788406003));
#1078=CARTESIAN_POINT('Origin',(-5.8,181.223286080903,134.346741275196));
#1079=CARTESIAN_POINT('',(-5.8,181.223286080903,134.346741275196));
#1080=CARTESIAN_POINT('',(-5.8,172.007827909453,127.894003043234));
#1081=CARTESIAN_POINT('',(-5.8,181.223286080903,134.346741275196));
#1082=CARTESIAN_POINT('Origin',(-5.8,173.393963692784,145.528163856568));
#1083=CARTESIAN_POINT('Origin',(-5.8,173.393963692784,145.528163856568));
#1084=CARTESIAN_POINT('Origin',(-5.8,173.393963692784,145.528163856568));
#1085=CARTESIAN_POINT('',(-24.8,165.048422233017,157.446823082475));
#1086=CARTESIAN_POINT('',(-24.8,181.73950513946,133.60950462148));
#1087=CARTESIAN_POINT('Origin',(-24.8,173.393963692784,145.528163856568));
#1088=CARTESIAN_POINT('',(-5.8,165.048422233017,157.446823082475));
#1089=CARTESIAN_POINT('',(-5.8,165.048422233017,157.446823082475));
#1090=CARTESIAN_POINT('',(-5.8,181.73950513946,133.60950462148));
#1091=CARTESIAN_POINT('Origin',(-5.8,173.393963692784,145.528163856568));
#1092=CARTESIAN_POINT('',(-5.8,181.73950513946,133.60950462148));
#1093=CARTESIAN_POINT('Origin',(-26.8,176.542203687767,155.679575933403));
#1094=CARTESIAN_POINT('',(-26.8,152.95062481176,139.160574566681));
#1095=CARTESIAN_POINT('',(-26.8,152.95062481176,139.160574566681));
#1096=CARTESIAN_POINT('',(-26.8,176.542203687767,155.679575933403));
#1097=CARTESIAN_POINT('',(-26.8,163.885691062311,146.817390385895));
#1098=CARTESIAN_POINT('',(-26.8,176.542203687767,155.679575933403));
#1099=CARTESIAN_POINT('Origin',(-26.8,183.998697359983,145.030599357403));
#1100=CARTESIAN_POINT('',(-26.8,183.998697359983,145.030599357403));
#1101=CARTESIAN_POINT('',(-26.8,182.137384966,147.688828942979));
#1102=CARTESIAN_POINT('',(-26.8,183.998697359983,145.030599357403));
#1103=CARTESIAN_POINT('Origin',(-26.8,160.407118483976,128.511597990681));
#1104=CARTESIAN_POINT('',(-26.8,160.407118483976,128.511597990681));
#1105=CARTESIAN_POINT('',(-26.8,159.546395296618,127.9089131266));
#1106=CARTESIAN_POINT('',(-26.8,160.407118483976,128.511597990681));
#1107=CARTESIAN_POINT('Origin',(-26.8,152.95062481176,139.160574566681));
#1108=CARTESIAN_POINT('',(-26.8,154.817559253739,136.494315864465));
#1109=CARTESIAN_POINT('Origin',(-25.8,137.513142799185,109.776344317489));
#1110=CARTESIAN_POINT('',(-26.8,139.313142799185,109.776344317489));
#1111=CARTESIAN_POINT('Origin',(-26.8,137.513142799185,109.776344317489));
#1112=CARTESIAN_POINT('',(-25.8,139.313142799185,109.776344317489));
#1113=CARTESIAN_POINT('Origin',(-25.8,171.809924542864,156.563921378686));
#1114=CARTESIAN_POINT('',(-26.8,172.804333330606,158.064305050572));
#1115=CARTESIAN_POINT('',(-26.8,170.43363782447,157.724022610808));
#1116=CARTESIAN_POINT('Ctrl Pts',(-26.8,172.804333330606,158.064305050572));
#1117=CARTESIAN_POINT('Ctrl Pts',(-26.8,172.670382290201,158.153083737118));
#1118=CARTESIAN_POINT('Ctrl Pts',(-26.7933723741994,172.524809231284,158.223738384743));
#1119=CARTESIAN_POINT('Ctrl Pts',(-26.7752247132504,172.151225529205,158.346403986709));
#1120=CARTESIAN_POINT('Ctrl Pts',(-26.7636519751388,171.918455752489,158.37566507434));
#1121=CARTESIAN_POINT('Ctrl Pts',(-26.7577055484708,171.454206923276,158.34368139843));
#1122=CARTESIAN_POINT('Ctrl Pts',(-26.7634900535609,171.228092313108,158.28301157591));
#1123=CARTESIAN_POINT('Ctrl Pts',(-26.7840375291532,170.804789266462,158.076175563502));
#1124=CARTESIAN_POINT('Ctrl Pts',(-26.7984970541462,170.613478040907,157.929696560441));
#1125=CARTESIAN_POINT('Ctrl Pts',(-26.7999647437622,170.448683408589,157.741697920583));
#1126=CARTESIAN_POINT('Ctrl Pts',(-26.8,170.441114936348,157.732893086492));
#1127=CARTESIAN_POINT('Ctrl Pts',(-26.8,170.43363782447,157.724022610808));
#1128=CARTESIAN_POINT('',(-26.8,173.609924542864,156.563921378686));
#1129=CARTESIAN_POINT('Origin',(-26.8,171.809924542864,156.563921378686));
#1130=CARTESIAN_POINT('',(-25.8,173.609924542864,156.563921378686));
#1131=CARTESIAN_POINT('Origin',(-26.8,171.809924542864,156.563921378686));
#1132=CARTESIAN_POINT('Origin',(-5.8,128.186589529095,131.635870265365));
#1133=CARTESIAN_POINT('',(-24.8,137.402047715044,138.088608476622));
#1134=CARTESIAN_POINT('',(-5.8,128.186589529095,131.635870265365));
#1135=CARTESIAN_POINT('',(-5.8,128.186589529095,131.635870265365));
#1136=CARTESIAN_POINT('',(-5.8,165.048422233017,157.446823082475));
#1137=CARTESIAN_POINT('Origin',(-5.8,154.963047320886,132.622687434053));
#1138=CARTESIAN_POINT('',(-5.8,144.877672537429,107.798551752287));
#1139=CARTESIAN_POINT('',(-5.8,181.73950513946,133.60950462148));
#1140=CARTESIAN_POINT('Origin',(-5.8,136.532130948988,119.717211011537));
#1141=CARTESIAN_POINT('Origin',(-5.8,181.73950513946,133.60950462148));
#1142=CARTESIAN_POINT('',(-24.8,172.52404696801,127.156766389518));
#1143=CARTESIAN_POINT('',(-5.8,144.877672537429,107.798551752287));
#1144=CARTESIAN_POINT('Origin',(-24.8,173.393963692784,145.528163856568));
#1145=CARTESIAN_POINT('',(-26.8,166.195575692796,155.808519404973));
#1146=CARTESIAN_POINT('Origin',(-26.8,173.393963692784,145.528163856568));
#1147=CARTESIAN_POINT('Origin',(-24.8,166.195575692796,155.808519404973));
#1148=CARTESIAN_POINT('',(-26.8,180.592351675994,135.247808296414));
#1149=CARTESIAN_POINT('Origin',(-24.8,180.592351675994,135.247808296414));
#1150=CARTESIAN_POINT('Origin',(-26.8,173.393963692784,145.528163856568));
#1151=CARTESIAN_POINT('Origin',(-26.8,154.963047320886,132.622687434053));
#1152=CARTESIAN_POINT('',(-26.8,171.37689350455,128.795070064443));
#1153=CARTESIAN_POINT('',(-26.8,138.549201174823,136.45030479912));
#1154=CARTESIAN_POINT('Origin',(-24.8,138.549201174823,136.45030479912));
#1155=CARTESIAN_POINT('Origin',(-5.8,136.532130948988,119.717211011537));
#1156=CARTESIAN_POINT('Origin',(-24.8,171.37689350455,128.795070064443));
#1157=UNCERTAINTY_MEASURE_WITH_UNIT(LENGTH_MEASURE(0.01),#1161,
'DISTANCE_ACCURACY_VALUE',
'Maximum model space distance between geometric entities at asserted c
onnectivities');
#1158=UNCERTAINTY_MEASURE_WITH_UNIT(LENGTH_MEASURE(0.01),#1161,
'DISTANCE_ACCURACY_VALUE',
'Maximum model space distance between geometric entities at asserted c
onnectivities');
#1159=(
GEOMETRIC_REPRESENTATION_CONTEXT(3)
GLOBAL_UNCERTAINTY_ASSIGNED_CONTEXT((#1157))
GLOBAL_UNIT_ASSIGNED_CONTEXT((#1161,#1163,#1164))
REPRESENTATION_CONTEXT('','3D')
);
#1160=(
GEOMETRIC_REPRESENTATION_CONTEXT(3)
GLOBAL_UNCERTAINTY_ASSIGNED_CONTEXT((#1158))
GLOBAL_UNIT_ASSIGNED_CONTEXT((#1161,#1163,#1164))
REPRESENTATION_CONTEXT('','3D')
);
#1161=(
LENGTH_UNIT()
NAMED_UNIT(*)
SI_UNIT(.MILLI.,.METRE.)
);
#1162=(
LENGTH_UNIT()
NAMED_UNIT(*)
SI_UNIT($,.METRE.)
);
#1163=(
NAMED_UNIT(*)
PLANE_ANGLE_UNIT()
SI_UNIT($,.RADIAN.)
);
#1164=(
NAMED_UNIT(*)
SI_UNIT($,.STERADIAN.)
SOLID_ANGLE_UNIT()
);
#1165=SHAPE_DEFINITION_REPRESENTATION(#1166,#1167);
#1166=PRODUCT_DEFINITION_SHAPE('',$,#1169);
#1167=SHAPE_REPRESENTATION('',(#595),#1159);
#1168=PRODUCT_DEFINITION_CONTEXT('part definition',#1173,'design');
#1169=PRODUCT_DEFINITION('MiniArm Forearm Fairing',
'MiniArm Forearm Fairing v1',#1170,#1168);
#1170=PRODUCT_DEFINITION_FORMATION('',$,#1175);
#1171=PRODUCT_RELATED_PRODUCT_CATEGORY('MiniArm Forearm Fairing v1',
'MiniArm Forearm Fairing v1',(#1175));
#1172=APPLICATION_PROTOCOL_DEFINITION('international standard',
'automotive_design',2009,#1173);
#1173=APPLICATION_CONTEXT(
'Core Data for Automotive Mechanical Design Process');
#1174=PRODUCT_CONTEXT('part definition',#1173,'mechanical');
#1175=PRODUCT('MiniArm Forearm Fairing','MiniArm Forearm Fairing v1',$,
(#1174));
#1176=PRESENTATION_STYLE_ASSIGNMENT((#1177));
#1177=SURFACE_STYLE_USAGE(.BOTH.,#1178);
#1178=SURFACE_SIDE_STYLE('',(#1179));
#1179=SURFACE_STYLE_FILL_AREA(#1180);
#1180=FILL_AREA_STYLE('Steel - Satin',(#1181));
#1181=FILL_AREA_STYLE_COLOUR('Steel - Satin',#1182);
#1182=COLOUR_RGB('Steel - Satin',0.627450980392157,0.627450980392157,0.627450980392157);
ENDSEC;
END-ISO-10303-21;
