ISO-10303-21;
HEADER;
/* Generated by software containing ST-Developer
 * from STEP Tools, Inc. (www.steptools.com) 
 */

FILE_DESCRIPTION(
/* description */ (''),
/* implementation_level */ '2;1');

FILE_NAME(
/* name */ 'MiniArm Pointer v1.step',
/* time_stamp */ '2026-08-03T03:58:58+08:00',
/* author */ (''),
/* organization */ (''),
/* preprocessor_version */ 'ST-DEVELOPER v20.1',
/* originating_system */ 'Autodesk Translation Framework v15.8.0.0',
/* authorisation */ '');

FILE_SCHEMA (('AUTOMOTIVE_DESIGN { 1 0 10303 214 3 1 1 }'));
ENDSEC;

DATA;
#10=MECHANICAL_DESIGN_GEOMETRIC_PRESENTATION_REPRESENTATION('',(#13),#839);
#11=SHAPE_REPRESENTATION_RELATIONSHIP('SRR','None',#846,#12);
#12=ADVANCED_BREP_SHAPE_REPRESENTATION('',(#14),#838);
#13=STYLED_ITEM('',(#855),#14);
#14=MANIFOLD_SOLID_BREP('MiniArm Pointer',#487);
#15=CYLINDRICAL_SURFACE('',#508,3.5);
#16=CYLINDRICAL_SURFACE('',#511,3.5);
#17=CYLINDRICAL_SURFACE('',#514,14.5);
#18=CYLINDRICAL_SURFACE('',#517,2.5);
#19=CYLINDRICAL_SURFACE('',#530,0.899999999999999);
#20=CYLINDRICAL_SURFACE('',#532,0.899999999999999);
#21=CYLINDRICAL_SURFACE('',#534,0.899999999999999);
#22=CYLINDRICAL_SURFACE('',#536,0.900000000000001);
#23=CYLINDRICAL_SURFACE('',#538,0.899999999999999);
#24=CYLINDRICAL_SURFACE('',#540,2.475);
#25=CYLINDRICAL_SURFACE('',#548,3.65);
#26=CYLINDRICAL_SURFACE('',#550,3.5);
#27=CYLINDRICAL_SURFACE('',#552,3.5);
#28=FACE_BOUND('',#67,.T.);
#29=FACE_BOUND('',#78,.T.);
#30=FACE_BOUND('',#79,.T.);
#31=FACE_BOUND('',#80,.T.);
#32=FACE_BOUND('',#81,.T.);
#33=FACE_BOUND('',#82,.T.);
#34=FACE_BOUND('',#92,.T.);
#35=FACE_BOUND('',#98,.T.);
#36=FACE_BOUND('',#99,.T.);
#37=FACE_BOUND('',#100,.T.);
#38=FACE_BOUND('',#101,.T.);
#39=FACE_BOUND('',#102,.T.);
#40=FACE_BOUND('',#103,.T.);
#41=FACE_OUTER_BOUND('',#66,.T.);
#42=FACE_OUTER_BOUND('',#68,.T.);
#43=FACE_OUTER_BOUND('',#69,.T.);
#44=FACE_OUTER_BOUND('',#70,.T.);
#45=FACE_OUTER_BOUND('',#71,.T.);
#46=FACE_OUTER_BOUND('',#72,.T.);
#47=FACE_OUTER_BOUND('',#73,.T.);
#48=FACE_OUTER_BOUND('',#74,.T.);
#49=FACE_OUTER_BOUND('',#75,.T.);
#50=FACE_OUTER_BOUND('',#76,.T.);
#51=FACE_OUTER_BOUND('',#77,.T.);
#52=FACE_OUTER_BOUND('',#83,.T.);
#53=FACE_OUTER_BOUND('',#84,.T.);
#54=FACE_OUTER_BOUND('',#85,.T.);
#55=FACE_OUTER_BOUND('',#86,.T.);
#56=FACE_OUTER_BOUND('',#87,.T.);
#57=FACE_OUTER_BOUND('',#88,.T.);
#58=FACE_OUTER_BOUND('',#89,.T.);
#59=FACE_OUTER_BOUND('',#90,.T.);
#60=FACE_OUTER_BOUND('',#91,.T.);
#61=FACE_OUTER_BOUND('',#93,.T.);
#62=FACE_OUTER_BOUND('',#94,.T.);
#63=FACE_OUTER_BOUND('',#95,.T.);
#64=FACE_OUTER_BOUND('',#96,.T.);
#65=FACE_OUTER_BOUND('',#97,.T.);
#66=EDGE_LOOP('',(#318,#319,#320,#321));
#67=EDGE_LOOP('',(#322,#323,#324,#325,#326,#327,#328,#329));
#68=EDGE_LOOP('',(#330,#331,#332,#333));
#69=EDGE_LOOP('',(#334,#335,#336,#337));
#70=EDGE_LOOP('',(#338,#339,#340,#341));
#71=EDGE_LOOP('',(#342,#343,#344,#345));
#72=EDGE_LOOP('',(#346,#347,#348,#349));
#73=EDGE_LOOP('',(#350,#351,#352,#353));
#74=EDGE_LOOP('',(#354,#355,#356,#357));
#75=EDGE_LOOP('',(#358,#359,#360,#361));
#76=EDGE_LOOP('',(#362,#363,#364,#365));
#77=EDGE_LOOP('',(#366,#367,#368,#369));
#78=EDGE_LOOP('',(#370));
#79=EDGE_LOOP('',(#371));
#80=EDGE_LOOP('',(#372));
#81=EDGE_LOOP('',(#373));
#82=EDGE_LOOP('',(#374));
#83=EDGE_LOOP('',(#375,#376,#377,#378));
#84=EDGE_LOOP('',(#379,#380,#381,#382));
#85=EDGE_LOOP('',(#383,#384,#385,#386));
#86=EDGE_LOOP('',(#387,#388,#389,#390));
#87=EDGE_LOOP('',(#391,#392,#393,#394));
#88=EDGE_LOOP('',(#395,#396,#397,#398));
#89=EDGE_LOOP('',(#399,#400,#401,#402));
#90=EDGE_LOOP('',(#403,#404,#405,#406));
#91=EDGE_LOOP('',(#407,#408,#409,#410,#411,#412,#413,#414));
#92=EDGE_LOOP('',(#415,#416,#417,#418,#419));
#93=EDGE_LOOP('',(#420,#421,#422,#423,#424,#425,#426,#427));
#94=EDGE_LOOP('',(#428,#429,#430,#431));
#95=EDGE_LOOP('',(#432,#433,#434,#435));
#96=EDGE_LOOP('',(#436,#437,#438,#439));
#97=EDGE_LOOP('',(#440,#441,#442,#443));
#98=EDGE_LOOP('',(#444));
#99=EDGE_LOOP('',(#445));
#100=EDGE_LOOP('',(#446));
#101=EDGE_LOOP('',(#447));
#102=EDGE_LOOP('',(#448));
#103=EDGE_LOOP('',(#449));
#104=CIRCLE('',#502,14.5);
#105=CIRCLE('',#503,2.5);
#106=CIRCLE('',#504,3.5);
#107=CIRCLE('',#505,3.5);
#108=CIRCLE('',#506,3.5);
#109=CIRCLE('',#507,3.5);
#110=CIRCLE('',#509,3.5);
#111=CIRCLE('',#512,3.5);
#112=CIRCLE('',#515,14.5);
#113=CIRCLE('',#518,2.5);
#114=CIRCLE('',#522,3.65);
#115=CIRCLE('',#523,2.475);
#116=CIRCLE('',#524,0.899999999999999);
#117=CIRCLE('',#525,0.899999999999999);
#118=CIRCLE('',#526,0.899999999999999);
#119=CIRCLE('',#527,0.900000000000001);
#120=CIRCLE('',#528,0.899999999999999);
#121=CIRCLE('',#531,0.899999999999999);
#122=CIRCLE('',#533,0.899999999999999);
#123=CIRCLE('',#535,0.899999999999999);
#124=CIRCLE('',#537,0.900000000000001);
#125=CIRCLE('',#539,0.899999999999999);
#126=CIRCLE('',#541,2.475);
#127=CIRCLE('',#544,3.5);
#128=CIRCLE('',#545,3.5);
#129=CIRCLE('',#546,3.65);
#130=CIRCLE('',#547,3.65);
#131=CIRCLE('',#549,3.65);
#132=LINE('',#704,#170);
#133=LINE('',#708,#171);
#134=LINE('',#712,#172);
#135=LINE('',#716,#173);
#136=LINE('',#720,#174);
#137=LINE('',#724,#175);
#138=LINE('',#728,#176);
#139=LINE('',#731,#177);
#140=LINE('',#734,#178);
#141=LINE('',#735,#179);
#142=LINE('',#738,#180);
#143=LINE('',#742,#181);
#144=LINE('',#743,#182);
#145=LINE('',#746,#183);
#146=LINE('',#749,#184);
#147=LINE('',#752,#185);
#148=LINE('',#753,#186);
#149=LINE('',#757,#187);
#150=LINE('',#759,#188);
#151=LINE('',#762,#189);
#152=LINE('',#763,#190);
#153=LINE('',#767,#191);
#154=LINE('',#771,#192);
#155=LINE('',#785,#193);
#156=LINE('',#787,#194);
#157=LINE('',#788,#195);
#158=LINE('',#791,#196);
#159=LINE('',#795,#197);
#160=LINE('',#799,#198);
#161=LINE('',#803,#199);
#162=LINE('',#807,#200);
#163=LINE('',#812,#201);
#164=LINE('',#815,#202);
#165=LINE('',#816,#203);
#166=LINE('',#821,#204);
#167=LINE('',#829,#205);
#168=LINE('',#831,#206);
#169=LINE('',#833,#207);
#170=VECTOR('',#558,10.);
#171=VECTOR('',#561,10.);
#172=VECTOR('',#564,10.);
#173=VECTOR('',#567,10.);
#174=VECTOR('',#570,10.);
#175=VECTOR('',#573,10.);
#176=VECTOR('',#578,10.);
#177=VECTOR('',#581,10.);
#178=VECTOR('',#584,10.);
#179=VECTOR('',#585,10.);
#180=VECTOR('',#588,10.);
#181=VECTOR('',#593,10.);
#182=VECTOR('',#594,10.);
#183=VECTOR('',#597,10.);
#184=VECTOR('',#600,10.);
#185=VECTOR('',#603,10.);
#186=VECTOR('',#604,10.);
#187=VECTOR('',#609,10.);
#188=VECTOR('',#612,10.);
#189=VECTOR('',#615,10.);
#190=VECTOR('',#616,10.);
#191=VECTOR('',#619,10.);
#192=VECTOR('',#622,10.);
#193=VECTOR('',#637,10.);
#194=VECTOR('',#638,10.);
#195=VECTOR('',#639,10.);
#196=VECTOR('',#642,0.899999999999999);
#197=VECTOR('',#647,0.899999999999999);
#198=VECTOR('',#652,0.899999999999999);
#199=VECTOR('',#657,0.900000000000001);
#200=VECTOR('',#662,0.899999999999999);
#201=VECTOR('',#669,10.);
#202=VECTOR('',#672,10.);
#203=VECTOR('',#673,10.);
#204=VECTOR('',#678,10.);
#205=VECTOR('',#689,3.65);
#206=VECTOR('',#692,10.);
#207=VECTOR('',#695,10.);
#208=VERTEX_POINT('',#702);
#209=VERTEX_POINT('',#703);
#210=VERTEX_POINT('',#705);
#211=VERTEX_POINT('',#707);
#212=VERTEX_POINT('',#710);
#213=VERTEX_POINT('',#711);
#214=VERTEX_POINT('',#713);
#215=VERTEX_POINT('',#715);
#216=VERTEX_POINT('',#717);
#217=VERTEX_POINT('',#719);
#218=VERTEX_POINT('',#721);
#219=VERTEX_POINT('',#723);
#220=VERTEX_POINT('',#727);
#221=VERTEX_POINT('',#729);
#222=VERTEX_POINT('',#733);
#223=VERTEX_POINT('',#737);
#224=VERTEX_POINT('',#741);
#225=VERTEX_POINT('',#745);
#226=VERTEX_POINT('',#747);
#227=VERTEX_POINT('',#751);
#228=VERTEX_POINT('',#755);
#229=VERTEX_POINT('',#761);
#230=VERTEX_POINT('',#765);
#231=VERTEX_POINT('',#766);
#232=VERTEX_POINT('',#768);
#233=VERTEX_POINT('',#770);
#234=VERTEX_POINT('',#773);
#235=VERTEX_POINT('',#775);
#236=VERTEX_POINT('',#777);
#237=VERTEX_POINT('',#779);
#238=VERTEX_POINT('',#781);
#239=VERTEX_POINT('',#784);
#240=VERTEX_POINT('',#786);
#241=VERTEX_POINT('',#790);
#242=VERTEX_POINT('',#794);
#243=VERTEX_POINT('',#798);
#244=VERTEX_POINT('',#802);
#245=VERTEX_POINT('',#806);
#246=VERTEX_POINT('',#810);
#247=VERTEX_POINT('',#814);
#248=VERTEX_POINT('',#818);
#249=VERTEX_POINT('',#820);
#250=VERTEX_POINT('',#823);
#251=VERTEX_POINT('',#827);
#252=EDGE_CURVE('',#208,#209,#132,.T.);
#253=EDGE_CURVE('',#209,#210,#104,.T.);
#254=EDGE_CURVE('',#210,#211,#133,.T.);
#255=EDGE_CURVE('',#211,#208,#105,.T.);
#256=EDGE_CURVE('',#212,#213,#134,.T.);
#257=EDGE_CURVE('',#214,#212,#106,.T.);
#258=EDGE_CURVE('',#215,#214,#135,.T.);
#259=EDGE_CURVE('',#216,#215,#107,.T.);
#260=EDGE_CURVE('',#217,#216,#136,.T.);
#261=EDGE_CURVE('',#218,#217,#108,.T.);
#262=EDGE_CURVE('',#219,#218,#137,.T.);
#263=EDGE_CURVE('',#213,#219,#109,.T.);
#264=EDGE_CURVE('',#220,#215,#138,.T.);
#265=EDGE_CURVE('',#221,#220,#110,.T.);
#266=EDGE_CURVE('',#221,#216,#139,.T.);
#267=EDGE_CURVE('',#222,#214,#140,.T.);
#268=EDGE_CURVE('',#222,#220,#141,.T.);
#269=EDGE_CURVE('',#223,#212,#142,.T.);
#270=EDGE_CURVE('',#222,#223,#111,.T.);
#271=EDGE_CURVE('',#224,#213,#143,.T.);
#272=EDGE_CURVE('',#224,#223,#144,.T.);
#273=EDGE_CURVE('',#225,#209,#145,.T.);
#274=EDGE_CURVE('',#226,#225,#112,.T.);
#275=EDGE_CURVE('',#210,#226,#146,.T.);
#276=EDGE_CURVE('',#227,#226,#147,.T.);
#277=EDGE_CURVE('',#211,#227,#148,.T.);
#278=EDGE_CURVE('',#228,#227,#113,.T.);
#279=EDGE_CURVE('',#208,#228,#149,.T.);
#280=EDGE_CURVE('',#225,#228,#150,.T.);
#281=EDGE_CURVE('',#221,#229,#151,.T.);
#282=EDGE_CURVE('',#229,#217,#152,.T.);
#283=EDGE_CURVE('',#230,#231,#153,.T.);
#284=EDGE_CURVE('',#230,#232,#114,.T.);
#285=EDGE_CURVE('',#233,#232,#154,.T.);
#286=EDGE_CURVE('',#231,#233,#115,.T.);
#287=EDGE_CURVE('',#234,#234,#116,.T.);
#288=EDGE_CURVE('',#235,#235,#117,.T.);
#289=EDGE_CURVE('',#236,#236,#118,.T.);
#290=EDGE_CURVE('',#237,#237,#119,.T.);
#291=EDGE_CURVE('',#238,#238,#120,.T.);
#292=EDGE_CURVE('',#239,#232,#155,.T.);
#293=EDGE_CURVE('',#240,#239,#156,.T.);
#294=EDGE_CURVE('',#240,#233,#157,.T.);
#295=EDGE_CURVE('',#234,#241,#158,.T.);
#296=EDGE_CURVE('',#241,#241,#121,.T.);
#297=EDGE_CURVE('',#235,#242,#159,.T.);
#298=EDGE_CURVE('',#242,#242,#122,.T.);
#299=EDGE_CURVE('',#236,#243,#160,.T.);
#300=EDGE_CURVE('',#243,#243,#123,.T.);
#301=EDGE_CURVE('',#237,#244,#161,.T.);
#302=EDGE_CURVE('',#244,#244,#124,.T.);
#303=EDGE_CURVE('',#238,#245,#162,.T.);
#304=EDGE_CURVE('',#245,#245,#125,.T.);
#305=EDGE_CURVE('',#246,#240,#126,.T.);
#306=EDGE_CURVE('',#246,#231,#163,.T.);
#307=EDGE_CURVE('',#247,#246,#164,.T.);
#308=EDGE_CURVE('',#230,#247,#165,.T.);
#309=EDGE_CURVE('',#224,#248,#127,.T.);
#310=EDGE_CURVE('',#249,#248,#166,.T.);
#311=EDGE_CURVE('',#249,#229,#128,.T.);
#312=EDGE_CURVE('',#239,#250,#129,.T.);
#313=EDGE_CURVE('',#250,#247,#130,.T.);
#314=EDGE_CURVE('',#251,#251,#131,.T.);
#315=EDGE_CURVE('',#251,#250,#167,.T.);
#316=EDGE_CURVE('',#248,#219,#168,.T.);
#317=EDGE_CURVE('',#249,#218,#169,.T.);
#318=ORIENTED_EDGE('',*,*,#252,.T.);
#319=ORIENTED_EDGE('',*,*,#253,.T.);
#320=ORIENTED_EDGE('',*,*,#254,.T.);
#321=ORIENTED_EDGE('',*,*,#255,.T.);
#322=ORIENTED_EDGE('',*,*,#256,.F.);
#323=ORIENTED_EDGE('',*,*,#257,.F.);
#324=ORIENTED_EDGE('',*,*,#258,.F.);
#325=ORIENTED_EDGE('',*,*,#259,.F.);
#326=ORIENTED_EDGE('',*,*,#260,.F.);
#327=ORIENTED_EDGE('',*,*,#261,.F.);
#328=ORIENTED_EDGE('',*,*,#262,.F.);
#329=ORIENTED_EDGE('',*,*,#263,.F.);
#330=ORIENTED_EDGE('',*,*,#259,.T.);
#331=ORIENTED_EDGE('',*,*,#264,.F.);
#332=ORIENTED_EDGE('',*,*,#265,.F.);
#333=ORIENTED_EDGE('',*,*,#266,.T.);
#334=ORIENTED_EDGE('',*,*,#258,.T.);
#335=ORIENTED_EDGE('',*,*,#267,.F.);
#336=ORIENTED_EDGE('',*,*,#268,.T.);
#337=ORIENTED_EDGE('',*,*,#264,.T.);
#338=ORIENTED_EDGE('',*,*,#257,.T.);
#339=ORIENTED_EDGE('',*,*,#269,.F.);
#340=ORIENTED_EDGE('',*,*,#270,.F.);
#341=ORIENTED_EDGE('',*,*,#267,.T.);
#342=ORIENTED_EDGE('',*,*,#256,.T.);
#343=ORIENTED_EDGE('',*,*,#271,.F.);
#344=ORIENTED_EDGE('',*,*,#272,.T.);
#345=ORIENTED_EDGE('',*,*,#269,.T.);
#346=ORIENTED_EDGE('',*,*,#273,.F.);
#347=ORIENTED_EDGE('',*,*,#274,.F.);
#348=ORIENTED_EDGE('',*,*,#275,.F.);
#349=ORIENTED_EDGE('',*,*,#253,.F.);
#350=ORIENTED_EDGE('',*,*,#275,.T.);
#351=ORIENTED_EDGE('',*,*,#276,.F.);
#352=ORIENTED_EDGE('',*,*,#277,.F.);
#353=ORIENTED_EDGE('',*,*,#254,.F.);
#354=ORIENTED_EDGE('',*,*,#277,.T.);
#355=ORIENTED_EDGE('',*,*,#278,.F.);
#356=ORIENTED_EDGE('',*,*,#279,.F.);
#357=ORIENTED_EDGE('',*,*,#255,.F.);
#358=ORIENTED_EDGE('',*,*,#279,.T.);
#359=ORIENTED_EDGE('',*,*,#280,.F.);
#360=ORIENTED_EDGE('',*,*,#273,.T.);
#361=ORIENTED_EDGE('',*,*,#252,.F.);
#362=ORIENTED_EDGE('',*,*,#260,.T.);
#363=ORIENTED_EDGE('',*,*,#266,.F.);
#364=ORIENTED_EDGE('',*,*,#281,.T.);
#365=ORIENTED_EDGE('',*,*,#282,.T.);
#366=ORIENTED_EDGE('',*,*,#283,.F.);
#367=ORIENTED_EDGE('',*,*,#284,.T.);
#368=ORIENTED_EDGE('',*,*,#285,.F.);
#369=ORIENTED_EDGE('',*,*,#286,.F.);
#370=ORIENTED_EDGE('',*,*,#287,.T.);
#371=ORIENTED_EDGE('',*,*,#288,.T.);
#372=ORIENTED_EDGE('',*,*,#289,.T.);
#373=ORIENTED_EDGE('',*,*,#290,.T.);
#374=ORIENTED_EDGE('',*,*,#291,.T.);
#375=ORIENTED_EDGE('',*,*,#285,.T.);
#376=ORIENTED_EDGE('',*,*,#292,.F.);
#377=ORIENTED_EDGE('',*,*,#293,.F.);
#378=ORIENTED_EDGE('',*,*,#294,.T.);
#379=ORIENTED_EDGE('',*,*,#287,.F.);
#380=ORIENTED_EDGE('',*,*,#295,.T.);
#381=ORIENTED_EDGE('',*,*,#296,.F.);
#382=ORIENTED_EDGE('',*,*,#295,.F.);
#383=ORIENTED_EDGE('',*,*,#288,.F.);
#384=ORIENTED_EDGE('',*,*,#297,.T.);
#385=ORIENTED_EDGE('',*,*,#298,.F.);
#386=ORIENTED_EDGE('',*,*,#297,.F.);
#387=ORIENTED_EDGE('',*,*,#289,.F.);
#388=ORIENTED_EDGE('',*,*,#299,.T.);
#389=ORIENTED_EDGE('',*,*,#300,.F.);
#390=ORIENTED_EDGE('',*,*,#299,.F.);
#391=ORIENTED_EDGE('',*,*,#290,.F.);
#392=ORIENTED_EDGE('',*,*,#301,.T.);
#393=ORIENTED_EDGE('',*,*,#302,.F.);
#394=ORIENTED_EDGE('',*,*,#301,.F.);
#395=ORIENTED_EDGE('',*,*,#291,.F.);
#396=ORIENTED_EDGE('',*,*,#303,.T.);
#397=ORIENTED_EDGE('',*,*,#304,.F.);
#398=ORIENTED_EDGE('',*,*,#303,.F.);
#399=ORIENTED_EDGE('',*,*,#286,.T.);
#400=ORIENTED_EDGE('',*,*,#294,.F.);
#401=ORIENTED_EDGE('',*,*,#305,.F.);
#402=ORIENTED_EDGE('',*,*,#306,.T.);
#403=ORIENTED_EDGE('',*,*,#283,.T.);
#404=ORIENTED_EDGE('',*,*,#306,.F.);
#405=ORIENTED_EDGE('',*,*,#307,.F.);
#406=ORIENTED_EDGE('',*,*,#308,.F.);
#407=ORIENTED_EDGE('',*,*,#270,.T.);
#408=ORIENTED_EDGE('',*,*,#272,.F.);
#409=ORIENTED_EDGE('',*,*,#309,.T.);
#410=ORIENTED_EDGE('',*,*,#310,.F.);
#411=ORIENTED_EDGE('',*,*,#311,.T.);
#412=ORIENTED_EDGE('',*,*,#281,.F.);
#413=ORIENTED_EDGE('',*,*,#265,.T.);
#414=ORIENTED_EDGE('',*,*,#268,.F.);
#415=ORIENTED_EDGE('',*,*,#307,.T.);
#416=ORIENTED_EDGE('',*,*,#305,.T.);
#417=ORIENTED_EDGE('',*,*,#293,.T.);
#418=ORIENTED_EDGE('',*,*,#312,.T.);
#419=ORIENTED_EDGE('',*,*,#313,.T.);
#420=ORIENTED_EDGE('',*,*,#314,.F.);
#421=ORIENTED_EDGE('',*,*,#315,.T.);
#422=ORIENTED_EDGE('',*,*,#312,.F.);
#423=ORIENTED_EDGE('',*,*,#292,.T.);
#424=ORIENTED_EDGE('',*,*,#284,.F.);
#425=ORIENTED_EDGE('',*,*,#308,.T.);
#426=ORIENTED_EDGE('',*,*,#313,.F.);
#427=ORIENTED_EDGE('',*,*,#315,.F.);
#428=ORIENTED_EDGE('',*,*,#263,.T.);
#429=ORIENTED_EDGE('',*,*,#316,.F.);
#430=ORIENTED_EDGE('',*,*,#309,.F.);
#431=ORIENTED_EDGE('',*,*,#271,.T.);
#432=ORIENTED_EDGE('',*,*,#262,.T.);
#433=ORIENTED_EDGE('',*,*,#317,.F.);
#434=ORIENTED_EDGE('',*,*,#310,.T.);
#435=ORIENTED_EDGE('',*,*,#316,.T.);
#436=ORIENTED_EDGE('',*,*,#261,.T.);
#437=ORIENTED_EDGE('',*,*,#282,.F.);
#438=ORIENTED_EDGE('',*,*,#311,.F.);
#439=ORIENTED_EDGE('',*,*,#317,.T.);
#440=ORIENTED_EDGE('',*,*,#280,.T.);
#441=ORIENTED_EDGE('',*,*,#278,.T.);
#442=ORIENTED_EDGE('',*,*,#276,.T.);
#443=ORIENTED_EDGE('',*,*,#274,.T.);
#444=ORIENTED_EDGE('',*,*,#304,.T.);
#445=ORIENTED_EDGE('',*,*,#296,.T.);
#446=ORIENTED_EDGE('',*,*,#302,.T.);
#447=ORIENTED_EDGE('',*,*,#314,.T.);
#448=ORIENTED_EDGE('',*,*,#298,.T.);
#449=ORIENTED_EDGE('',*,*,#300,.T.);
#450=PLANE('',#501);
#451=PLANE('',#510);
#452=PLANE('',#513);
#453=PLANE('',#516);
#454=PLANE('',#519);
#455=PLANE('',#520);
#456=PLANE('',#521);
#457=PLANE('',#529);
#458=PLANE('',#542);
#459=PLANE('',#543);
#460=PLANE('',#551);
#461=PLANE('',#553);
#462=ADVANCED_FACE('',(#41,#28),#450,.T.);
#463=ADVANCED_FACE('',(#42),#15,.T.);
#464=ADVANCED_FACE('',(#43),#451,.T.);
#465=ADVANCED_FACE('',(#44),#16,.T.);
#466=ADVANCED_FACE('',(#45),#452,.T.);
#467=ADVANCED_FACE('',(#46),#17,.T.);
#468=ADVANCED_FACE('',(#47),#453,.T.);
#469=ADVANCED_FACE('',(#48),#18,.T.);
#470=ADVANCED_FACE('',(#49),#454,.T.);
#471=ADVANCED_FACE('',(#50),#455,.T.);
#472=ADVANCED_FACE('',(#51,#29,#30,#31,#32,#33),#456,.T.);
#473=ADVANCED_FACE('',(#52),#457,.F.);
#474=ADVANCED_FACE('',(#53),#19,.F.);
#475=ADVANCED_FACE('',(#54),#20,.F.);
#476=ADVANCED_FACE('',(#55),#21,.F.);
#477=ADVANCED_FACE('',(#56),#22,.F.);
#478=ADVANCED_FACE('',(#57),#23,.F.);
#479=ADVANCED_FACE('',(#58),#24,.F.);
#480=ADVANCED_FACE('',(#59),#458,.F.);
#481=ADVANCED_FACE('',(#60,#34),#459,.T.);
#482=ADVANCED_FACE('',(#61),#25,.F.);
#483=ADVANCED_FACE('',(#62),#26,.T.);
#484=ADVANCED_FACE('',(#63),#460,.T.);
#485=ADVANCED_FACE('',(#64),#27,.T.);
#486=ADVANCED_FACE('',(#65,#35,#36,#37,#38,#39,#40),#461,.F.);
#487=CLOSED_SHELL('',(#462,#463,#464,#465,#466,#467,#468,#469,#470,#471,
#472,#473,#474,#475,#476,#477,#478,#479,#480,#481,#482,#483,#484,#485,#486));
#488=DERIVED_UNIT_ELEMENT(#490,1.);
#489=DERIVED_UNIT_ELEMENT(#841,-3.);
#490=(
MASS_UNIT()
NAMED_UNIT(*)
SI_UNIT(.KILO.,.GRAM.)
);
#491=DERIVED_UNIT((#488,#489));
#492=MEASURE_REPRESENTATION_ITEM('density measure',
POSITIVE_RATIO_MEASURE(7850.),#491);
#493=PROPERTY_DEFINITION_REPRESENTATION(#498,#495);
#494=PROPERTY_DEFINITION_REPRESENTATION(#499,#496);
#495=REPRESENTATION('material name',(#497),#838);
#496=REPRESENTATION('density',(#492),#838);
#497=DESCRIPTIVE_REPRESENTATION_ITEM('Steel','Steel');
#498=PROPERTY_DEFINITION('material property','material name',#848);
#499=PROPERTY_DEFINITION('material property','density of part',#848);
#500=AXIS2_PLACEMENT_3D('',#700,#554,#555);
#501=AXIS2_PLACEMENT_3D('',#701,#556,#557);
#502=AXIS2_PLACEMENT_3D('',#706,#559,#560);
#503=AXIS2_PLACEMENT_3D('',#709,#562,#563);
#504=AXIS2_PLACEMENT_3D('',#714,#565,#566);
#505=AXIS2_PLACEMENT_3D('',#718,#568,#569);
#506=AXIS2_PLACEMENT_3D('',#722,#571,#572);
#507=AXIS2_PLACEMENT_3D('',#725,#574,#575);
#508=AXIS2_PLACEMENT_3D('',#726,#576,#577);
#509=AXIS2_PLACEMENT_3D('',#730,#579,#580);
#510=AXIS2_PLACEMENT_3D('',#732,#582,#583);
#511=AXIS2_PLACEMENT_3D('',#736,#586,#587);
#512=AXIS2_PLACEMENT_3D('',#739,#589,#590);
#513=AXIS2_PLACEMENT_3D('',#740,#591,#592);
#514=AXIS2_PLACEMENT_3D('',#744,#595,#596);
#515=AXIS2_PLACEMENT_3D('',#748,#598,#599);
#516=AXIS2_PLACEMENT_3D('',#750,#601,#602);
#517=AXIS2_PLACEMENT_3D('',#754,#605,#606);
#518=AXIS2_PLACEMENT_3D('',#756,#607,#608);
#519=AXIS2_PLACEMENT_3D('',#758,#610,#611);
#520=AXIS2_PLACEMENT_3D('',#760,#613,#614);
#521=AXIS2_PLACEMENT_3D('',#764,#617,#618);
#522=AXIS2_PLACEMENT_3D('',#769,#620,#621);
#523=AXIS2_PLACEMENT_3D('',#772,#623,#624);
#524=AXIS2_PLACEMENT_3D('',#774,#625,#626);
#525=AXIS2_PLACEMENT_3D('',#776,#627,#628);
#526=AXIS2_PLACEMENT_3D('',#778,#629,#630);
#527=AXIS2_PLACEMENT_3D('',#780,#631,#632);
#528=AXIS2_PLACEMENT_3D('',#782,#633,#634);
#529=AXIS2_PLACEMENT_3D('',#783,#635,#636);
#530=AXIS2_PLACEMENT_3D('',#789,#640,#641);
#531=AXIS2_PLACEMENT_3D('',#792,#643,#644);
#532=AXIS2_PLACEMENT_3D('',#793,#645,#646);
#533=AXIS2_PLACEMENT_3D('',#796,#648,#649);
#534=AXIS2_PLACEMENT_3D('',#797,#650,#651);
#535=AXIS2_PLACEMENT_3D('',#800,#653,#654);
#536=AXIS2_PLACEMENT_3D('',#801,#655,#656);
#537=AXIS2_PLACEMENT_3D('',#804,#658,#659);
#538=AXIS2_PLACEMENT_3D('',#805,#660,#661);
#539=AXIS2_PLACEMENT_3D('',#808,#663,#664);
#540=AXIS2_PLACEMENT_3D('',#809,#665,#666);
#541=AXIS2_PLACEMENT_3D('',#811,#667,#668);
#542=AXIS2_PLACEMENT_3D('',#813,#670,#671);
#543=AXIS2_PLACEMENT_3D('',#817,#674,#675);
#544=AXIS2_PLACEMENT_3D('',#819,#676,#677);
#545=AXIS2_PLACEMENT_3D('',#822,#679,#680);
#546=AXIS2_PLACEMENT_3D('',#824,#681,#682);
#547=AXIS2_PLACEMENT_3D('',#825,#683,#684);
#548=AXIS2_PLACEMENT_3D('',#826,#685,#686);
#549=AXIS2_PLACEMENT_3D('',#828,#687,#688);
#550=AXIS2_PLACEMENT_3D('',#830,#690,#691);
#551=AXIS2_PLACEMENT_3D('',#832,#693,#694);
#552=AXIS2_PLACEMENT_3D('',#834,#696,#697);
#553=AXIS2_PLACEMENT_3D('',#835,#698,#699);
#554=DIRECTION('axis',(0.,0.,1.));
#555=DIRECTION('refdir',(1.,0.,0.));
#556=DIRECTION('center_axis',(1.,0.,0.));
#557=DIRECTION('ref_axis',(0.,1.,0.));
#558=DIRECTION('',(0.,-0.952726099686791,-0.303830510277681));
#559=DIRECTION('center_axis',(1.,0.,0.));
#560=DIRECTION('ref_axis',(0.,1.,0.));
#561=DIRECTION('',(0.,0.607333901138932,0.794446683250277));
#562=DIRECTION('center_axis',(1.,0.,0.));
#563=DIRECTION('ref_axis',(0.,1.,0.));
#564=DIRECTION('',(0.,0.819152044288992,0.573576436351046));
#565=DIRECTION('center_axis',(1.,0.,0.));
#566=DIRECTION('ref_axis',(1.81888292047681E-16,-0.819152044288991,-0.573576436351047));
#567=DIRECTION('',(0.,0.573576436351046,-0.819152044288992));
#568=DIRECTION('center_axis',(1.,0.,0.));
#569=DIRECTION('ref_axis',(1.27359553203875E-16,-0.573576436351046,0.819152044288992));
#570=DIRECTION('',(0.,-0.819152044288992,-0.573576436351046));
#571=DIRECTION('center_axis',(1.,0.,0.));
#572=DIRECTION('ref_axis',(-1.81888292047681E-16,0.819152044288991,0.573576436351047));
#573=DIRECTION('',(0.,-0.573576436351046,0.819152044288992));
#574=DIRECTION('center_axis',(1.,0.,0.));
#575=DIRECTION('ref_axis',(-1.27359553203876E-16,0.573576436351047,-0.819152044288991));
#576=DIRECTION('center_axis',(-1.,-2.22044604925031E-16,-2.46519032881566E-32));
#577=DIRECTION('ref_axis',(1.27359553203875E-16,-0.573576436351046,0.819152044288992));
#578=DIRECTION('',(-1.,-2.22044604925031E-16,-2.46519032881566E-32));
#579=DIRECTION('center_axis',(1.,2.22044604925031E-16,2.46519032881566E-32));
#580=DIRECTION('ref_axis',(1.27359553203875E-16,-0.573576436351046,0.819152044288992));
#581=DIRECTION('',(-1.,-2.22044604925031E-16,-2.46519032881566E-32));
#582=DIRECTION('center_axis',(1.81888292047681E-16,-0.819152044288992,-0.573576436351046));
#583=DIRECTION('ref_axis',(1.27359553203875E-16,-0.573576436351046,0.819152044288992));
#584=DIRECTION('',(-1.,-2.22044604925031E-16,-2.46519032881566E-32));
#585=DIRECTION('',(1.27359553203875E-16,-0.573576436351046,0.819152044288992));
#586=DIRECTION('center_axis',(-1.,-2.22044604925031E-16,-2.46519032881566E-32));
#587=DIRECTION('ref_axis',(1.81888292047681E-16,-0.819152044288991,-0.573576436351047));
#588=DIRECTION('',(-1.,-2.22044604925031E-16,-2.46519032881566E-32));
#589=DIRECTION('center_axis',(1.,2.22044604925031E-16,2.46519032881566E-32));
#590=DIRECTION('ref_axis',(1.81888292047681E-16,-0.819152044288991,-0.573576436351047));
#591=DIRECTION('center_axis',(-1.27359553203875E-16,0.573576436351046,-0.819152044288992));
#592=DIRECTION('ref_axis',(1.81888292047681E-16,-0.819152044288992,-0.573576436351046));
#593=DIRECTION('',(-1.,-2.22044604925031E-16,-2.46519032881566E-32));
#594=DIRECTION('',(1.81888292047681E-16,-0.819152044288992,-0.573576436351046));
#595=DIRECTION('center_axis',(-1.,0.,0.));
#596=DIRECTION('ref_axis',(0.,-0.817693621621225,-0.575653664246103));
#597=DIRECTION('',(1.,0.,0.));
#598=DIRECTION('center_axis',(-1.,0.,0.));
#599=DIRECTION('ref_axis',(0.,1.,0.));
#600=DIRECTION('',(-1.,0.,0.));
#601=DIRECTION('center_axis',(0.,0.794446683250277,-0.607333901138932));
#602=DIRECTION('ref_axis',(0.,-0.607333901138932,-0.794446683250277));
#603=DIRECTION('',(0.,-0.607333901138932,-0.794446683250277));
#604=DIRECTION('',(-1.,0.,0.));
#605=DIRECTION('center_axis',(-1.,0.,0.));
#606=DIRECTION('ref_axis',(0.,1.,0.));
#607=DIRECTION('center_axis',(-1.,0.,0.));
#608=DIRECTION('ref_axis',(0.,1.,0.));
#609=DIRECTION('',(-1.,0.,0.));
#610=DIRECTION('center_axis',(0.,-0.303830510277681,0.952726099686791));
#611=DIRECTION('ref_axis',(0.,0.95272609968679,0.303830510277681));
#612=DIRECTION('',(0.,0.952726099686791,0.303830510277681));
#613=DIRECTION('center_axis',(1.27359553203875E-16,-0.573576436351046,0.819152044288992));
#614=DIRECTION('ref_axis',(-1.81888292047681E-16,0.819152044288992,0.573576436351046));
#615=DIRECTION('',(-1.81888292047681E-16,0.819152044288992,0.573576436351046));
#616=DIRECTION('',(-1.,-2.22044604925031E-16,-2.46519032881566E-32));
#617=DIRECTION('center_axis',(1.,2.22044604925031E-16,2.46519032881566E-32));
#618=DIRECTION('ref_axis',(-1.81888292047681E-16,0.819152044288992,0.573576436351046));
#619=DIRECTION('',(-1.91092072888487E-16,0.860602188254046,0.509277796072387));
#620=DIRECTION('center_axis',(-1.,-2.22044604925031E-16,-2.46519032881566E-32));
#621=DIRECTION('ref_axis',(-1.81888292047681E-16,0.819152044288992,0.573576436351046));
#622=DIRECTION('',(1.72413827885732E-16,-0.776482851019702,-0.630138383271735));
#623=DIRECTION('center_axis',(-1.,-2.22044604925031E-16,-2.46519032881566E-32));
#624=DIRECTION('ref_axis',(-1.81888292047681E-16,0.819152044288992,0.573576436351046));
#625=DIRECTION('center_axis',(-1.,-2.22044604925031E-16,-2.46519032881566E-32));
#626=DIRECTION('ref_axis',(-1.81888292047681E-16,0.819152044288992,0.573576436351046));
#627=DIRECTION('center_axis',(-1.,-2.22044604925031E-16,-2.46519032881566E-32));
#628=DIRECTION('ref_axis',(-1.81888292047681E-16,0.819152044288992,0.573576436351046));
#629=DIRECTION('center_axis',(-1.,-2.22044604925031E-16,-2.46519032881566E-32));
#630=DIRECTION('ref_axis',(-1.81888292047681E-16,0.819152044288992,0.573576436351046));
#631=DIRECTION('center_axis',(-1.,-2.22044604925031E-16,-2.46519032881566E-32));
#632=DIRECTION('ref_axis',(-1.81888292047681E-16,0.819152044288992,0.573576436351046));
#633=DIRECTION('center_axis',(-1.,-2.22044604925031E-16,-2.46519032881566E-32));
#634=DIRECTION('ref_axis',(-1.81888292047681E-16,0.819152044288992,0.573576436351046));
#635=DIRECTION('center_axis',(-1.3991882836167E-16,0.630138383271735,-0.776482851019702));
#636=DIRECTION('ref_axis',(1.72413827885732E-16,-0.776482851019702,-0.630138383271735));
#637=DIRECTION('',(-1.,-2.22044604925031E-16,-2.46519032881566E-32));
#638=DIRECTION('',(1.72413827885732E-16,-0.776482851019702,-0.630138383271735));
#639=DIRECTION('',(-1.,-2.22044604925031E-16,-2.46519032881566E-32));
#640=DIRECTION('center_axis',(-1.,-2.22044604925031E-16,-2.46519032881566E-32));
#641=DIRECTION('ref_axis',(-1.81888292047681E-16,0.819152044288992,0.573576436351046));
#642=DIRECTION('',(-1.,-2.22044604925031E-16,-2.46519032881566E-32));
#643=DIRECTION('center_axis',(1.,2.22044604925031E-16,2.46519032881566E-32));
#644=DIRECTION('ref_axis',(0.,0.819152044288992,0.573576436351046));
#645=DIRECTION('center_axis',(-1.,-2.22044604925031E-16,-2.46519032881566E-32));
#646=DIRECTION('ref_axis',(-1.81888292047681E-16,0.819152044288992,0.573576436351046));
#647=DIRECTION('',(-1.,-2.22044604925031E-16,-2.46519032881566E-32));
#648=DIRECTION('center_axis',(1.,2.22044604925031E-16,2.46519032881566E-32));
#649=DIRECTION('ref_axis',(0.,0.819152044288992,0.573576436351046));
#650=DIRECTION('center_axis',(-1.,-2.22044604925031E-16,-2.46519032881566E-32));
#651=DIRECTION('ref_axis',(-1.81888292047681E-16,0.819152044288992,0.573576436351046));
#652=DIRECTION('',(-1.,-2.22044604925031E-16,-2.46519032881566E-32));
#653=DIRECTION('center_axis',(1.,2.22044604925031E-16,2.46519032881566E-32));
#654=DIRECTION('ref_axis',(0.,0.819152044288992,0.573576436351046));
#655=DIRECTION('center_axis',(-1.,-2.22044604925031E-16,-2.46519032881566E-32));
#656=DIRECTION('ref_axis',(-1.81888292047681E-16,0.819152044288992,0.573576436351046));
#657=DIRECTION('',(-1.,-2.22044604925031E-16,-2.46519032881566E-32));
#658=DIRECTION('center_axis',(1.,2.22044604925031E-16,2.46519032881566E-32));
#659=DIRECTION('ref_axis',(0.,0.819152044288992,0.573576436351046));
#660=DIRECTION('center_axis',(-1.,-2.22044604925031E-16,-2.46519032881566E-32));
#661=DIRECTION('ref_axis',(-1.81888292047681E-16,0.819152044288992,0.573576436351046));
#662=DIRECTION('',(-1.,-2.22044604925031E-16,-2.46519032881566E-32));
#663=DIRECTION('center_axis',(1.,2.22044604925031E-16,2.46519032881566E-32));
#664=DIRECTION('ref_axis',(0.,0.819152044288992,0.573576436351046));
#665=DIRECTION('center_axis',(-1.,-2.22044604925031E-16,-2.46519032881566E-32));
#666=DIRECTION('ref_axis',(-1.81888292047681E-16,0.819152044288992,0.573576436351046));
#667=DIRECTION('center_axis',(-1.,-2.22044604925031E-16,-2.46519032881566E-32));
#668=DIRECTION('ref_axis',(-1.81888292047681E-16,0.819152044288992,0.573576436351046));
#669=DIRECTION('',(-1.,-2.22044604925031E-16,-2.46519032881566E-32));
#670=DIRECTION('center_axis',(1.13082387025984E-16,-0.509277796072387,0.860602188254046));
#671=DIRECTION('ref_axis',(-1.91092072888487E-16,0.860602188254046,0.509277796072387));
#672=DIRECTION('',(-1.91092072888487E-16,0.860602188254046,0.509277796072387));
#673=DIRECTION('',(1.,2.22044604925031E-16,2.46519032881566E-32));
#674=DIRECTION('center_axis',(1.,2.22044604925031E-16,2.46519032881566E-32));
#675=DIRECTION('ref_axis',(-1.81888292047681E-16,0.819152044288992,0.573576436351046));
#676=DIRECTION('center_axis',(1.,2.22044604925031E-16,2.46519032881566E-32));
#677=DIRECTION('ref_axis',(-1.27359553203876E-16,0.573576436351047,-0.819152044288991));
#678=DIRECTION('',(-1.27359553203875E-16,0.573576436351046,-0.819152044288992));
#679=DIRECTION('center_axis',(1.,2.22044604925031E-16,2.46519032881566E-32));
#680=DIRECTION('ref_axis',(-1.81888292047681E-16,0.819152044288991,0.573576436351047));
#681=DIRECTION('center_axis',(-1.,-2.22044604925031E-16,-2.46519032881566E-32));
#682=DIRECTION('ref_axis',(-1.81888292047681E-16,0.819152044288992,0.573576436351046));
#683=DIRECTION('center_axis',(-1.,-2.22044604925031E-16,-2.46519032881566E-32));
#684=DIRECTION('ref_axis',(-1.81888292047681E-16,0.819152044288992,0.573576436351046));
#685=DIRECTION('center_axis',(-1.,-2.22044604925031E-16,-2.46519032881566E-32));
#686=DIRECTION('ref_axis',(-1.81888292047681E-16,0.819152044288992,0.573576436351046));
#687=DIRECTION('center_axis',(1.,2.22044604925031E-16,2.46519032881566E-32));
#688=DIRECTION('ref_axis',(0.,0.819152044288992,0.573576436351046));
#689=DIRECTION('',(1.,2.22044604925031E-16,2.46519032881566E-32));
#690=DIRECTION('center_axis',(-1.,-2.22044604925031E-16,-2.46519032881566E-32));
#691=DIRECTION('ref_axis',(-1.27359553203876E-16,0.573576436351047,-0.819152044288991));
#692=DIRECTION('',(-1.,-2.22044604925031E-16,-2.46519032881566E-32));
#693=DIRECTION('center_axis',(-1.81888292047681E-16,0.819152044288992,0.573576436351046));
#694=DIRECTION('ref_axis',(-1.27359553203875E-16,0.573576436351046,-0.819152044288992));
#695=DIRECTION('',(-1.,-2.22044604925031E-16,-2.46519032881566E-32));
#696=DIRECTION('center_axis',(-1.,-2.22044604925031E-16,-2.46519032881566E-32));
#697=DIRECTION('ref_axis',(-1.81888292047681E-16,0.819152044288991,0.573576436351047));
#698=DIRECTION('center_axis',(1.,2.22044604925031E-16,2.46519032881566E-32));
#699=DIRECTION('ref_axis',(-1.81888292047681E-16,0.819152044288992,0.573576436351046));
#700=CARTESIAN_POINT('',(0.,0.,0.));
#701=CARTESIAN_POINT('Origin',(2.,184.589687107029,151.567314585986));
#702=CARTESIAN_POINT('',(2.,206.183983263755,171.462203120132));
#703=CARTESIAN_POINT('',(2.,169.830272275583,159.868769746516));
#704=CARTESIAN_POINT('',(2.,169.830272275583,159.868769746516));
#705=CARTESIAN_POINT('',(2.,185.755291581731,137.247899734534));
#706=CARTESIAN_POINT('Origin',(2.,174.235814674609,146.054241301057));
#707=CARTESIAN_POINT('',(2.,208.929676247573,167.562053118066));
#708=CARTESIAN_POINT('',(2.,208.929676247573,167.562053118066));
#709=CARTESIAN_POINT('Origin',(2.,206.943559539449,169.080387870915));
#710=CARTESIAN_POINT('',(2.,175.698409146824,141.099131542525));
#711=CARTESIAN_POINT('',(2.,190.443145944026,151.423507396844));
#712=CARTESIAN_POINT('',(2.,188.513064665795,150.072049936469));
#713=CARTESIAN_POINT('',(2.,170.823859464584,141.958646170308));
#714=CARTESIAN_POINT('Origin',(2.,173.690891619595,143.966163697537));
#715=CARTESIAN_POINT('',(2.,169.103130155531,144.416102303175));
#716=CARTESIAN_POINT('',(2.,170.830970087931,141.948491147748));
#717=CARTESIAN_POINT('',(2.,169.962644783314,149.290651985415));
#718=CARTESIAN_POINT('Origin',(2.,171.970162310542,146.423619830404));
#719=CARTESIAN_POINT('',(2.,184.707381580515,159.615027839734));
#720=CARTESIAN_POINT('',(2.,175.404931903683,153.1013824522));
#721=CARTESIAN_POINT('',(2.,189.581931262756,158.755513211951));
#722=CARTESIAN_POINT('Origin',(2.,186.714899107744,156.747995684723));
#723=CARTESIAN_POINT('',(2.,191.302660571809,156.298057079084));
#724=CARTESIAN_POINT('',(2.,190.449406540629,157.516630122958));
#725=CARTESIAN_POINT('Origin',(2.,188.435628416797,154.290539551856));
#726=CARTESIAN_POINT('Origin',(3.00000010430812,171.970162310542,146.423619830404));
#727=CARTESIAN_POINT('',(3.00000010430812,169.103130155531,144.416102303175));
#728=CARTESIAN_POINT('',(3.00000010430812,169.103130155531,144.416102303175));
#729=CARTESIAN_POINT('',(3.00000010430812,169.962644783314,149.290651985415));
#730=CARTESIAN_POINT('Origin',(3.00000010430812,171.970162310542,146.423619830404));
#731=CARTESIAN_POINT('',(3.00000010430812,169.962644783314,149.290651985415));
#732=CARTESIAN_POINT('Origin',(3.00000010430812,170.823859464584,141.958646170308));
#733=CARTESIAN_POINT('',(3.00000010430812,170.823859464584,141.958646170308));
#734=CARTESIAN_POINT('',(3.00000010430812,170.823859464584,141.958646170308));
#735=CARTESIAN_POINT('',(3.00000010430812,170.823859464584,141.958646170308));
#736=CARTESIAN_POINT('Origin',(3.00000010430812,173.690891619595,143.966163697537));
#737=CARTESIAN_POINT('',(3.00000010430812,175.698409146824,141.099131542525));
#738=CARTESIAN_POINT('',(3.00000010430812,175.698409146824,141.099131542525));
#739=CARTESIAN_POINT('Origin',(3.00000010430812,173.690891619595,143.966163697537));
#740=CARTESIAN_POINT('Origin',(3.00000010430812,190.443145944026,151.423507396844));
#741=CARTESIAN_POINT('',(3.00000010430812,190.443145944026,151.423507396844));
#742=CARTESIAN_POINT('',(3.00000010430812,190.443145944026,151.423507396844));
#743=CARTESIAN_POINT('',(3.00000010430812,190.443145944026,151.423507396844));
#744=CARTESIAN_POINT('Origin',(0.,174.235814674609,146.054241301057));
#745=CARTESIAN_POINT('',(-2.,169.830272275583,159.868769746516));
#746=CARTESIAN_POINT('',(0.,169.830272275583,159.868769746516));
#747=CARTESIAN_POINT('',(-2.,185.755291581731,137.247899734534));
#748=CARTESIAN_POINT('Origin',(-2.,174.235814674609,146.054241301057));
#749=CARTESIAN_POINT('',(0.,185.755291581731,137.247899734534));
#750=CARTESIAN_POINT('Origin',(0.,208.929676247573,167.562053118066));
#751=CARTESIAN_POINT('',(-2.,208.929676247573,167.562053118066));
#752=CARTESIAN_POINT('',(-2.,208.929676247573,167.562053118066));
#753=CARTESIAN_POINT('',(0.,208.929676247573,167.562053118066));
#754=CARTESIAN_POINT('Origin',(0.,206.943559539449,169.080387870915));
#755=CARTESIAN_POINT('',(-2.,206.183983263755,171.462203120132));
#756=CARTESIAN_POINT('Origin',(-2.,206.943559539449,169.080387870915));
#757=CARTESIAN_POINT('',(0.,206.183983263755,171.462203120132));
#758=CARTESIAN_POINT('Origin',(0.,169.830272275583,159.868769746516));
#759=CARTESIAN_POINT('',(-2.,169.830272275583,159.868769746516));
#760=CARTESIAN_POINT('Origin',(3.00000010430812,169.962644783314,149.290651985415));
#761=CARTESIAN_POINT('',(3.00000010430812,184.707381580515,159.615027839734));
#762=CARTESIAN_POINT('',(3.00000010430812,169.962644783314,149.290651985415));
#763=CARTESIAN_POINT('',(3.00000010430812,184.707381580515,159.615027839734));
#764=CARTESIAN_POINT('Origin',(0.30000010430812,180.20289536367,150.35707969113));
#765=CARTESIAN_POINT('',(0.300000104308122,171.795105141868,148.967282370541));
#766=CARTESIAN_POINT('',(0.300000104308119,185.527559678965,157.093724850899));
#767=CARTESIAN_POINT('',(0.300000104308121,175.213225799063,150.99002060984));
#768=CARTESIAN_POINT('',(0.300000104308121,175.981456715522,143.014447602444));
#769=CARTESIAN_POINT('Origin',(0.300000104308121,173.653969097532,145.826084383414));
#770=CARTESIAN_POINT('',(0.300000104308118,188.207586106999,152.936306659987));
#771=CARTESIAN_POINT('',(0.300000104308119,185.163472443059,150.465920018258));
#772=CARTESIAN_POINT('Origin',(0.300000104308119,186.788022224244,154.963734434971));
#773=CARTESIAN_POINT('',(0.300000104308119,182.332690782588,151.848378407346));
#774=CARTESIAN_POINT('Origin',(0.300000104308119,183.069927622448,152.364597200062));
#775=CARTESIAN_POINT('',(0.30000010430812,180.284810671865,150.414437316468));
#776=CARTESIAN_POINT('Origin',(0.30000010430812,181.022047511725,150.930656109184));
#777=CARTESIAN_POINT('',(0.300000104308119,184.38057089331,153.282319498223));
#778=CARTESIAN_POINT('Origin',(0.300000104308119,185.11780773317,153.798538290939));
#779=CARTESIAN_POINT('',(0.30000010430812,177.855345811476,148.717224709749));
#780=CARTESIAN_POINT('Origin',(0.30000010430812,178.592582651336,149.233443502465));
#781=CARTESIAN_POINT('',(0.300000104308119,186.428451004032,154.716260589101));
#782=CARTESIAN_POINT('Origin',(0.300000104308119,187.165687843893,155.232479381817));
#783=CARTESIAN_POINT('Origin',(3.00000010430812,188.207586106999,152.936306659987));
#784=CARTESIAN_POINT('',(3.00000010430812,175.981456715522,143.014447602444));
#785=CARTESIAN_POINT('',(3.00000010430812,175.981456715522,143.014447602444));
#786=CARTESIAN_POINT('',(3.00000010430812,188.207586106999,152.936306659987));
#787=CARTESIAN_POINT('',(3.00000010430812,185.163472443059,150.465920018258));
#788=CARTESIAN_POINT('',(3.00000010430812,188.207586106999,152.936306659987));
#789=CARTESIAN_POINT('Origin',(3.00000010430812,183.069927622448,152.364597200062));
#790=CARTESIAN_POINT('',(-2.,182.332690782588,151.848378407346));
#791=CARTESIAN_POINT('',(3.00000010430812,182.332690782588,151.848378407346));
#792=CARTESIAN_POINT('Origin',(-1.99999989569188,183.069927622448,152.364597200062));
#793=CARTESIAN_POINT('Origin',(3.00000010430812,181.022047511725,150.930656109184));
#794=CARTESIAN_POINT('',(-2.,180.284810671865,150.414437316468));
#795=CARTESIAN_POINT('',(3.00000010430812,180.284810671865,150.414437316468));
#796=CARTESIAN_POINT('Origin',(-1.99999989569188,181.022047511725,150.930656109184));
#797=CARTESIAN_POINT('Origin',(3.00000010430812,185.11780773317,153.798538290939));
#798=CARTESIAN_POINT('',(-2.,184.38057089331,153.282319498223));
#799=CARTESIAN_POINT('',(3.00000010430812,184.38057089331,153.282319498223));
#800=CARTESIAN_POINT('Origin',(-1.99999989569188,185.11780773317,153.798538290939));
#801=CARTESIAN_POINT('Origin',(3.00000010430812,178.592582651336,149.233443502465));
#802=CARTESIAN_POINT('',(-2.,177.855345811476,148.717224709749));
#803=CARTESIAN_POINT('',(3.00000010430812,177.855345811476,148.717224709749));
#804=CARTESIAN_POINT('Origin',(-1.99999989569188,178.592582651336,149.233443502465));
#805=CARTESIAN_POINT('Origin',(3.00000010430812,187.165687843893,155.232479381817));
#806=CARTESIAN_POINT('',(-2.,186.428451004032,154.716260589101));
#807=CARTESIAN_POINT('',(3.00000010430812,186.428451004032,154.716260589101));
#808=CARTESIAN_POINT('Origin',(-1.99999989569188,187.165687843893,155.232479381817));
#809=CARTESIAN_POINT('Origin',(3.00000010430812,186.788022224244,154.963734434971));
#810=CARTESIAN_POINT('',(3.00000010430812,185.527559678965,157.093724850899));
#811=CARTESIAN_POINT('Origin',(3.00000010430812,186.788022224244,154.963734434971));
#812=CARTESIAN_POINT('',(3.00000010430812,185.527559678965,157.093724850899));
#813=CARTESIAN_POINT('Origin',(3.00000010430812,171.795105141868,148.967282370541));
#814=CARTESIAN_POINT('',(3.00000010430812,171.795105141868,148.967282370541));
#815=CARTESIAN_POINT('',(3.00000010430812,175.213225799063,150.99002060984));
#816=CARTESIAN_POINT('',(3.00000010430812,171.795105141868,148.967282370541));
#817=CARTESIAN_POINT('Origin',(3.00000010430812,180.20289536367,150.35707969113));
#818=CARTESIAN_POINT('',(3.00000010430812,191.302660571809,156.298057079084));
#819=CARTESIAN_POINT('Origin',(3.00000010430812,188.435628416797,154.290539551856));
#820=CARTESIAN_POINT('',(3.00000010430812,189.581931262756,158.755513211951));
#821=CARTESIAN_POINT('',(3.00000010430812,189.581931262756,158.755513211951));
#822=CARTESIAN_POINT('Origin',(3.00000010430812,186.714899107744,156.747995684723));
#823=CARTESIAN_POINT('',(3.00000010430812,170.664064135877,143.732530390733));
#824=CARTESIAN_POINT('Origin',(3.00000010430812,173.653969097532,145.826084383414));
#825=CARTESIAN_POINT('Origin',(3.00000010430812,173.653969097532,145.826084383414));
#826=CARTESIAN_POINT('Origin',(3.00000010430812,173.653969097532,145.826084383414));
#827=CARTESIAN_POINT('',(-2.,170.664064135877,143.732530390733));
#828=CARTESIAN_POINT('Origin',(-1.99999989569188,173.653969097532,145.826084383414));
#829=CARTESIAN_POINT('',(3.00000010430812,170.664064135877,143.732530390733));
#830=CARTESIAN_POINT('Origin',(3.00000010430812,188.435628416797,154.290539551856));
#831=CARTESIAN_POINT('',(3.00000010430812,191.302660571809,156.298057079084));
#832=CARTESIAN_POINT('Origin',(3.00000010430812,189.581931262756,158.755513211951));
#833=CARTESIAN_POINT('',(3.00000010430812,189.581931262756,158.755513211951));
#834=CARTESIAN_POINT('Origin',(3.00000010430812,186.714899107744,156.747995684723));
#835=CARTESIAN_POINT('Origin',(-1.99999989569188,180.20289536367,150.35707969113));
#836=UNCERTAINTY_MEASURE_WITH_UNIT(LENGTH_MEASURE(0.01),#840,
'DISTANCE_ACCURACY_VALUE',
'Maximum model space distance between geometric entities at asserted c
onnectivities');
#837=UNCERTAINTY_MEASURE_WITH_UNIT(LENGTH_MEASURE(0.01),#840,
'DISTANCE_ACCURACY_VALUE',
'Maximum model space distance between geometric entities at asserted c
onnectivities');
#838=(
GEOMETRIC_REPRESENTATION_CONTEXT(3)
GLOBAL_UNCERTAINTY_ASSIGNED_CONTEXT((#836))
GLOBAL_UNIT_ASSIGNED_CONTEXT((#840,#842,#843))
REPRESENTATION_CONTEXT('','3D')
);
#839=(
GEOMETRIC_REPRESENTATION_CONTEXT(3)
GLOBAL_UNCERTAINTY_ASSIGNED_CONTEXT((#837))
GLOBAL_UNIT_ASSIGNED_CONTEXT((#840,#842,#843))
REPRESENTATION_CONTEXT('','3D')
);
#840=(
LENGTH_UNIT()
NAMED_UNIT(*)
SI_UNIT(.MILLI.,.METRE.)
);
#841=(
LENGTH_UNIT()
NAMED_UNIT(*)
SI_UNIT($,.METRE.)
);
#842=(
NAMED_UNIT(*)
PLANE_ANGLE_UNIT()
SI_UNIT($,.RADIAN.)
);
#843=(
NAMED_UNIT(*)
SI_UNIT($,.STERADIAN.)
SOLID_ANGLE_UNIT()
);
#844=SHAPE_DEFINITION_REPRESENTATION(#845,#846);
#845=PRODUCT_DEFINITION_SHAPE('',$,#848);
#846=SHAPE_REPRESENTATION('',(#500),#838);
#847=PRODUCT_DEFINITION_CONTEXT('part definition',#852,'design');
#848=PRODUCT_DEFINITION('MiniArm Pointer','MiniArm Pointer v1',#849,#847);
#849=PRODUCT_DEFINITION_FORMATION('',$,#854);
#850=PRODUCT_RELATED_PRODUCT_CATEGORY('MiniArm Pointer v1',
'MiniArm Pointer v1',(#854));
#851=APPLICATION_PROTOCOL_DEFINITION('international standard',
'automotive_design',2009,#852);
#852=APPLICATION_CONTEXT(
'Core Data for Automotive Mechanical Design Process');
#853=PRODUCT_CONTEXT('part definition',#852,'mechanical');
#854=PRODUCT('MiniArm Pointer','MiniArm Pointer v1',$,(#853));
#855=PRESENTATION_STYLE_ASSIGNMENT((#856));
#856=SURFACE_STYLE_USAGE(.BOTH.,#857);
#857=SURFACE_SIDE_STYLE('',(#858));
#858=SURFACE_STYLE_FILL_AREA(#859);
#859=FILL_AREA_STYLE('Steel - Satin',(#860));
#860=FILL_AREA_STYLE_COLOUR('Steel - Satin',#861);
#861=COLOUR_RGB('Steel - Satin',0.627450980392157,0.627450980392157,0.627450980392157);
ENDSEC;
END-ISO-10303-21;
