ISO-10303-21;
HEADER;
/* Generated by software containing ST-Developer
 * from STEP Tools, Inc. (www.steptools.com) 
 */

FILE_DESCRIPTION(
/* description */ (''),
/* implementation_level */ '2;1');

FILE_NAME(
/* name */ 'MiniArm UpperArm Back Faceplate v1.step',
/* time_stamp */ '2026-08-03T03:58:25+08:00',
/* author */ (''),
/* organization */ (''),
/* preprocessor_version */ 'ST-DEVELOPER v20.1',
/* originating_system */ 'Autodesk Translation Framework v15.8.0.0',
/* authorisation */ '');

FILE_SCHEMA (('AUTOMOTIVE_DESIGN { 1 0 10303 214 3 1 1 }'));
ENDSEC;

DATA;
#10=MECHANICAL_DESIGN_GEOMETRIC_PRESENTATION_REPRESENTATION('',(#13),#1689);
#11=SHAPE_REPRESENTATION_RELATIONSHIP('SRR','None',#1696,#12);
#12=ADVANCED_BREP_SHAPE_REPRESENTATION('',(#14),#1688);
#13=STYLED_ITEM('',(#1705),#14);
#14=MANIFOLD_SOLID_BREP('MiniArm UpperArm Back Faceplate',#909);
#15=(
BOUNDED_SURFACE()
B_SPLINE_SURFACE(2,2,((#1595,#1596,#1597),(#1598,#1599,#1600),(#1601,#1602,
#1603)),.UNSPECIFIED.,.F.,.F.,.F.)
B_SPLINE_SURFACE_WITH_KNOTS((3,3),(3,3),(-1.57079632679491,0.),(-0.959930730252473,
0.610865238198017),.UNSPECIFIED.)
GEOMETRIC_REPRESENTATION_ITEM()
RATIONAL_B_SPLINE_SURFACE(((1.,0.707106907880416,1.),(0.707106781186541,
0.500000089586089,0.707106781186541),(1.,0.707106907880416,1.)))
REPRESENTATION_ITEM('')
SURFACE()
);
#16=(
BOUNDED_SURFACE()
B_SPLINE_SURFACE(2,2,((#1611,#1612,#1613),(#1614,#1615,#1616),(#1617,#1618,
#1619)),.UNSPECIFIED.,.F.,.F.,.F.)
B_SPLINE_SURFACE_WITH_KNOTS((3,3),(3,3),(-1.5707963267949,0.),(0.610865238198005,
2.18166192333733),.UNSPECIFIED.)
GEOMETRIC_REPRESENTATION_ITEM()
RATIONAL_B_SPLINE_SURFACE(((1.,0.707106654492649,1.),(0.707106781186542,
0.499999910413881,0.707106781186542),(1.,0.707106654492649,1.)))
REPRESENTATION_ITEM('')
SURFACE()
);
#17=(
BOUNDED_SURFACE()
B_SPLINE_SURFACE(2,2,((#1627,#1628,#1629),(#1630,#1631,#1632),(#1633,#1634,
#1635)),.UNSPECIFIED.,.F.,.F.,.F.)
B_SPLINE_SURFACE_WITH_KNOTS((3,3),(3,3),(-1.5707963267949,0.),(-0.78539816339745,
0.785398163397451),.UNSPECIFIED.)
GEOMETRIC_REPRESENTATION_ITEM()
RATIONAL_B_SPLINE_SURFACE(((1.,0.707106781186546,1.),(0.707106781186543,
0.499999999999995,0.707106781186543),(1.,0.707106781186546,1.)))
REPRESENTATION_ITEM('')
SURFACE()
);
#18=(
BOUNDED_SURFACE()
B_SPLINE_SURFACE(2,2,((#1643,#1644,#1645),(#1646,#1647,#1648),(#1649,#1650,
#1651)),.UNSPECIFIED.,.F.,.F.,.F.)
B_SPLINE_SURFACE_WITH_KNOTS((3,3),(3,3),(-1.57079632679491,0.),(-2.53072705704738,
-0.959930730252459),.UNSPECIFIED.)
GEOMETRIC_REPRESENTATION_ITEM()
RATIONAL_B_SPLINE_SURFACE(((1.,0.707106781186538,1.),(0.707106781186547,
0.499999999999992,0.707106781186547),(1.,0.707106781186538,1.)))
REPRESENTATION_ITEM('')
SURFACE()
);
#19=B_SPLINE_CURVE_WITH_KNOTS('',3,(#1407,#1408,#1409,#1410,#1411,#1412,
#1413,#1414),.UNSPECIFIED.,.F.,.F.,(4,2,2,4),(-0.112331527098201,-0.0850077073931866,
-0.0569967284853264,0.),.UNSPECIFIED.);
#20=B_SPLINE_CURVE_WITH_KNOTS('',3,(#1420,#1421,#1422,#1423,#1424,#1425,
#1426,#1427,#1428,#1429),.UNSPECIFIED.,.F.,.F.,(4,2,2,2,4),(-0.240558283243709,
-0.179158436157167,-0.117758589070625,-0.0588792945353126,0.),
 .UNSPECIFIED.);
#21=B_SPLINE_CURVE_WITH_KNOTS('',3,(#1437,#1438,#1439,#1440,#1441,#1442,
#1443,#1444,#1445,#1446),.UNSPECIFIED.,.F.,.F.,(4,2,2,2,4),(0.,0.0584951014794361,
0.116990202958872,0.176996512021671,0.23700282108447),.UNSPECIFIED.);
#22=B_SPLINE_CURVE_WITH_KNOTS('',3,(#1449,#1450,#1451,#1452,#1453,#1454,
#1455,#1456),.UNSPECIFIED.,.F.,.F.,(4,2,2,4),(-0.124077013281394,-0.0814201833946978,
-0.0407290910503692,0.),.UNSPECIFIED.);
#23=B_SPLINE_CURVE_WITH_KNOTS('',3,(#1463,#1464,#1465,#1466,#1467,#1468),
 .UNSPECIFIED.,.F.,.F.,(4,2,4),(-0.251555631382227,-0.186079172469116,-0.122425992157275),
 .UNSPECIFIED.);
#24=B_SPLINE_CURVE_WITH_KNOTS('',3,(#1475,#1476,#1477,#1478,#1479,#1480,
#1481,#1482),.UNSPECIFIED.,.F.,.F.,(4,2,2,4),(0.10422993068981,0.12129464628134,
0.187563615549929,0.253832584818518),.UNSPECIFIED.);
#25=B_SPLINE_CURVE_WITH_KNOTS('',3,(#1497,#1498,#1499,#1500,#1501,#1502,
#1503,#1504,#1505,#1506,#1507,#1508,#1509,#1510,#1511,#1512,#1513,#1514,
#1515,#1516,#1517,#1518,#1519,#1520,#1521,#1522),.UNSPECIFIED.,.F.,.F.,
(4,2,2,2,2,2,2,2,2,2,2,2,4),(-1.26883546648079,-1.23810439177489,-1.16583187376975,
-1.07531938074581,-0.992560321650206,-0.923918072693596,-0.857367157737053,
-0.783855967729112,-0.69506068564719,-0.610502428227169,-0.53754945414869,
-0.475167548229609,-0.463386349256222),.UNSPECIFIED.);
#26=B_SPLINE_CURVE_WITH_KNOTS('',3,(#1524,#1525,#1526,#1527,#1528,#1529),
 .UNSPECIFIED.,.F.,.F.,(4,2,4),(0.380857817504015,0.400937608215373,0.413993286921348),
 .UNSPECIFIED.);
#27=B_SPLINE_CURVE_WITH_KNOTS('',3,(#1535,#1536,#1537,#1538,#1539,#1540,
#1541,#1542,#1543,#1544,#1545,#1546,#1547,#1548,#1549,#1550),
 .UNSPECIFIED.,.F.,.F.,(4,2,2,2,2,2,2,4),(-0.75006935450485,-0.714558349646876,
-0.6537182052821,-0.580821355660144,-0.504448613719756,-0.443573797480918,
-0.39253810048099,-0.376104565296552),.UNSPECIFIED.);
#28=B_SPLINE_CURVE_WITH_KNOTS('',3,(#1554,#1555,#1556,#1557,#1558,#1559),
 .UNSPECIFIED.,.F.,.F.,(4,2,4),(0.813316874955663,0.815683601605206,0.850719176744289),
 .UNSPECIFIED.);
#29=B_SPLINE_CURVE_WITH_KNOTS('',3,(#1560,#1561,#1562,#1563,#1564,#1565,
#1566,#1567,#1568,#1569,#1570,#1571,#1572,#1573),.UNSPECIFIED.,.F.,.F.,
(4,2,2,2,2,2,4),(-0.376104565296552,-0.338435272911665,-0.269556912327381,
-0.188293495885709,-0.116072867467327,-0.0547831663184187,-0.0394040374217036),
 .UNSPECIFIED.);
#30=TOROIDAL_SURFACE('',#957,2.49999999999996,1.5);
#31=TOROIDAL_SURFACE('',#961,2.5,1.5);
#32=TOROIDAL_SURFACE('',#965,2.49999999999997,1.5);
#33=TOROIDAL_SURFACE('',#969,2.5,1.5);
#34=FACE_BOUND('',#176,.T.);
#35=FACE_BOUND('',#178,.T.);
#36=FACE_BOUND('',#182,.T.);
#37=FACE_BOUND('',#185,.T.);
#38=FACE_BOUND('',#215,.T.);
#39=FACE_BOUND('',#218,.T.);
#40=FACE_BOUND('',#222,.T.);
#41=FACE_BOUND('',#223,.T.);
#42=FACE_BOUND('',#224,.T.);
#43=CIRCLE('',#932,0.925);
#44=CIRCLE('',#933,0.925);
#45=CIRCLE('',#935,0.925);
#46=CIRCLE('',#936,0.925);
#47=CIRCLE('',#938,1.84999999999999);
#48=CIRCLE('',#940,1.85);
#49=CIRCLE('',#942,3.99999999999997);
#50=CIRCLE('',#943,3.99999999999997);
#51=CIRCLE('',#947,4.);
#52=CIRCLE('',#948,4.);
#53=CIRCLE('',#951,3.99999999999996);
#54=CIRCLE('',#952,3.99999999999996);
#55=CIRCLE('',#955,4.);
#56=CIRCLE('',#956,4.);
#57=CIRCLE('',#958,1.50000000000002);
#58=CIRCLE('',#960,1.5);
#59=CIRCLE('',#962,2.5);
#60=CIRCLE('',#963,1.5);
#61=CIRCLE('',#966,1.5);
#62=CIRCLE('',#968,1.5);
#63=CIRCLE('',#970,2.5);
#64=CIRCLE('',#971,1.5);
#65=CIRCLE('',#974,2.84999999999999);
#66=CIRCLE('',#975,2.85);
#67=CIRCLE('',#977,2.84999999999999);
#68=CIRCLE('',#979,2.85);
#69=CIRCLE('',#981,1.85);
#70=CIRCLE('',#982,1.85);
#71=CIRCLE('',#984,1.84999999999999);
#72=CIRCLE('',#986,2.5);
#73=CIRCLE('',#987,2.49999999999997);
#74=CIRCLE('',#988,2.5);
#75=CIRCLE('',#989,2.49999999999996);
#76=CIRCLE('',#991,2.50000000000002);
#77=CIRCLE('',#992,2.5);
#78=CIRCLE('',#993,2.5);
#79=CIRCLE('',#994,5.);
#80=CIRCLE('',#996,2.5);
#81=CIRCLE('',#997,2.5);
#82=CIRCLE('',#998,4.99999999999998);
#83=CIRCLE('',#1000,2.5);
#84=CIRCLE('',#1001,2.5);
#85=CIRCLE('',#1002,5.);
#86=CIRCLE('',#1004,2.5);
#87=CIRCLE('',#1005,4.99999999999996);
#88=CIRCLE('',#1007,5.);
#89=CIRCLE('',#1010,4.99999999999996);
#90=CIRCLE('',#1013,5.);
#91=CIRCLE('',#1017,4.99999999999997);
#92=CYLINDRICAL_SURFACE('',#931,0.925);
#93=CYLINDRICAL_SURFACE('',#934,0.925);
#94=CYLINDRICAL_SURFACE('',#941,3.99999999999997);
#95=CYLINDRICAL_SURFACE('',#946,4.);
#96=CYLINDRICAL_SURFACE('',#950,3.99999999999996);
#97=CYLINDRICAL_SURFACE('',#954,4.);
#98=CYLINDRICAL_SURFACE('',#959,1.5);
#99=CYLINDRICAL_SURFACE('',#964,1.5);
#100=CYLINDRICAL_SURFACE('',#967,1.5);
#101=CYLINDRICAL_SURFACE('',#972,1.5);
#102=CYLINDRICAL_SURFACE('',#976,2.84999999999999);
#103=CYLINDRICAL_SURFACE('',#978,2.85);
#104=CYLINDRICAL_SURFACE('',#980,1.85);
#105=CYLINDRICAL_SURFACE('',#983,1.84999999999999);
#106=CYLINDRICAL_SURFACE('',#990,2.5);
#107=CYLINDRICAL_SURFACE('',#995,2.5);
#108=CYLINDRICAL_SURFACE('',#999,2.5);
#109=CYLINDRICAL_SURFACE('',#1003,2.5);
#110=CYLINDRICAL_SURFACE('',#1006,5.);
#111=CYLINDRICAL_SURFACE('',#1009,4.99999999999996);
#112=CYLINDRICAL_SURFACE('',#1012,5.);
#113=CYLINDRICAL_SURFACE('',#1016,4.99999999999997);
#114=FACE_OUTER_BOUND('',#165,.T.);
#115=FACE_OUTER_BOUND('',#166,.T.);
#116=FACE_OUTER_BOUND('',#167,.T.);
#117=FACE_OUTER_BOUND('',#168,.T.);
#118=FACE_OUTER_BOUND('',#169,.T.);
#119=FACE_OUTER_BOUND('',#170,.T.);
#120=FACE_OUTER_BOUND('',#171,.T.);
#121=FACE_OUTER_BOUND('',#172,.T.);
#122=FACE_OUTER_BOUND('',#173,.T.);
#123=FACE_OUTER_BOUND('',#174,.T.);
#124=FACE_OUTER_BOUND('',#175,.T.);
#125=FACE_OUTER_BOUND('',#177,.T.);
#126=FACE_OUTER_BOUND('',#179,.T.);
#127=FACE_OUTER_BOUND('',#180,.T.);
#128=FACE_OUTER_BOUND('',#181,.T.);
#129=FACE_OUTER_BOUND('',#183,.T.);
#130=FACE_OUTER_BOUND('',#184,.T.);
#131=FACE_OUTER_BOUND('',#186,.T.);
#132=FACE_OUTER_BOUND('',#187,.T.);
#133=FACE_OUTER_BOUND('',#188,.T.);
#134=FACE_OUTER_BOUND('',#189,.T.);
#135=FACE_OUTER_BOUND('',#190,.T.);
#136=FACE_OUTER_BOUND('',#191,.T.);
#137=FACE_OUTER_BOUND('',#192,.T.);
#138=FACE_OUTER_BOUND('',#193,.T.);
#139=FACE_OUTER_BOUND('',#194,.T.);
#140=FACE_OUTER_BOUND('',#195,.T.);
#141=FACE_OUTER_BOUND('',#196,.T.);
#142=FACE_OUTER_BOUND('',#197,.T.);
#143=FACE_OUTER_BOUND('',#198,.T.);
#144=FACE_OUTER_BOUND('',#199,.T.);
#145=FACE_OUTER_BOUND('',#200,.T.);
#146=FACE_OUTER_BOUND('',#201,.T.);
#147=FACE_OUTER_BOUND('',#202,.T.);
#148=FACE_OUTER_BOUND('',#203,.T.);
#149=FACE_OUTER_BOUND('',#204,.T.);
#150=FACE_OUTER_BOUND('',#205,.T.);
#151=FACE_OUTER_BOUND('',#206,.T.);
#152=FACE_OUTER_BOUND('',#207,.T.);
#153=FACE_OUTER_BOUND('',#208,.T.);
#154=FACE_OUTER_BOUND('',#209,.T.);
#155=FACE_OUTER_BOUND('',#210,.T.);
#156=FACE_OUTER_BOUND('',#211,.T.);
#157=FACE_OUTER_BOUND('',#212,.T.);
#158=FACE_OUTER_BOUND('',#213,.T.);
#159=FACE_OUTER_BOUND('',#214,.T.);
#160=FACE_OUTER_BOUND('',#216,.T.);
#161=FACE_OUTER_BOUND('',#217,.T.);
#162=FACE_OUTER_BOUND('',#219,.T.);
#163=FACE_OUTER_BOUND('',#220,.T.);
#164=FACE_OUTER_BOUND('',#221,.T.);
#165=EDGE_LOOP('',(#577,#578,#579,#580));
#166=EDGE_LOOP('',(#581,#582,#583,#584));
#167=EDGE_LOOP('',(#585,#586,#587,#588));
#168=EDGE_LOOP('',(#589,#590,#591,#592));
#169=EDGE_LOOP('',(#593,#594,#595,#596));
#170=EDGE_LOOP('',(#597,#598,#599,#600));
#171=EDGE_LOOP('',(#601,#602,#603,#604));
#172=EDGE_LOOP('',(#605,#606,#607,#608));
#173=EDGE_LOOP('',(#609,#610,#611,#612));
#174=EDGE_LOOP('',(#613,#614,#615,#616));
#175=EDGE_LOOP('',(#617));
#176=EDGE_LOOP('',(#618));
#177=EDGE_LOOP('',(#619));
#178=EDGE_LOOP('',(#620));
#179=EDGE_LOOP('',(#621,#622,#623,#624));
#180=EDGE_LOOP('',(#625,#626,#627,#628));
#181=EDGE_LOOP('',(#629,#630,#631,#632));
#182=EDGE_LOOP('',(#633,#634,#635,#636));
#183=EDGE_LOOP('',(#637,#638,#639,#640));
#184=EDGE_LOOP('',(#641,#642,#643,#644));
#185=EDGE_LOOP('',(#645,#646,#647,#648));
#186=EDGE_LOOP('',(#649,#650,#651,#652));
#187=EDGE_LOOP('',(#653,#654,#655,#656));
#188=EDGE_LOOP('',(#657,#658,#659,#660));
#189=EDGE_LOOP('',(#661,#662,#663));
#190=EDGE_LOOP('',(#664,#665,#666,#667));
#191=EDGE_LOOP('',(#668,#669,#670,#671));
#192=EDGE_LOOP('',(#672,#673,#674,#675));
#193=EDGE_LOOP('',(#676,#677,#678));
#194=EDGE_LOOP('',(#679,#680,#681,#682,#683));
#195=EDGE_LOOP('',(#684,#685,#686,#687));
#196=EDGE_LOOP('',(#688,#689,#690,#691,#692));
#197=EDGE_LOOP('',(#693,#694,#695,#696,#697,#698,#699,#700));
#198=EDGE_LOOP('',(#701,#702,#703,#704,#705,#706,#707));
#199=EDGE_LOOP('',(#708,#709,#710,#711,#712,#713,#714));
#200=EDGE_LOOP('',(#715,#716,#717,#718,#719,#720,#721));
#201=EDGE_LOOP('',(#722,#723,#724,#725,#726,#727,#728));
#202=EDGE_LOOP('',(#729,#730,#731,#732,#733,#734,#735,#736,#737,#738,#739));
#203=EDGE_LOOP('',(#740,#741,#742,#743));
#204=EDGE_LOOP('',(#744,#745,#746,#747));
#205=EDGE_LOOP('',(#748,#749,#750,#751));
#206=EDGE_LOOP('',(#752,#753,#754,#755,#756,#757));
#207=EDGE_LOOP('',(#758,#759,#760,#761,#762));
#208=EDGE_LOOP('',(#763,#764,#765,#766));
#209=EDGE_LOOP('',(#767,#768,#769,#770,#771));
#210=EDGE_LOOP('',(#772,#773,#774,#775,#776));
#211=EDGE_LOOP('',(#777,#778,#779,#780));
#212=EDGE_LOOP('',(#781,#782,#783,#784));
#213=EDGE_LOOP('',(#785,#786,#787,#788));
#214=EDGE_LOOP('',(#789,#790,#791,#792));
#215=EDGE_LOOP('',(#793,#794,#795,#796));
#216=EDGE_LOOP('',(#797,#798,#799,#800));
#217=EDGE_LOOP('',(#801,#802,#803,#804));
#218=EDGE_LOOP('',(#805,#806,#807,#808));
#219=EDGE_LOOP('',(#809,#810,#811,#812));
#220=EDGE_LOOP('',(#813,#814,#815,#816));
#221=EDGE_LOOP('',(#817,#818,#819,#820,#821,#822,#823,#824));
#222=EDGE_LOOP('',(#825));
#223=EDGE_LOOP('',(#826));
#224=EDGE_LOOP('',(#827,#828,#829,#830,#831,#832,#833,#834,#835,#836));
#225=LINE('',#1287,#295);
#226=LINE('',#1289,#296);
#227=LINE('',#1291,#297);
#228=LINE('',#1292,#298);
#229=LINE('',#1295,#299);
#230=LINE('',#1297,#300);
#231=LINE('',#1298,#301);
#232=LINE('',#1301,#302);
#233=LINE('',#1303,#303);
#234=LINE('',#1304,#304);
#235=LINE('',#1306,#305);
#236=LINE('',#1307,#306);
#237=LINE('',#1311,#307);
#238=LINE('',#1313,#308);
#239=LINE('',#1315,#309);
#240=LINE('',#1316,#310);
#241=LINE('',#1319,#311);
#242=LINE('',#1321,#312);
#243=LINE('',#1322,#313);
#244=LINE('',#1325,#314);
#245=LINE('',#1327,#315);
#246=LINE('',#1328,#316);
#247=LINE('',#1330,#317);
#248=LINE('',#1331,#318);
#249=LINE('',#1336,#319);
#250=LINE('',#1342,#320);
#251=LINE('',#1353,#321);
#252=LINE('',#1357,#322);
#253=LINE('',#1361,#323);
#254=LINE('',#1363,#324);
#255=LINE('',#1364,#325);
#256=LINE('',#1368,#326);
#257=LINE('',#1370,#327);
#258=LINE('',#1372,#328);
#259=LINE('',#1373,#329);
#260=LINE('',#1377,#330);
#261=LINE('',#1383,#331);
#262=LINE('',#1384,#332);
#263=LINE('',#1385,#333);
#264=LINE('',#1389,#334);
#265=LINE('',#1395,#335);
#266=LINE('',#1397,#336);
#267=LINE('',#1399,#337);
#268=LINE('',#1400,#338);
#269=LINE('',#1418,#339);
#270=LINE('',#1436,#340);
#271=LINE('',#1461,#341);
#272=LINE('',#1483,#342);
#273=LINE('',#1493,#343);
#274=LINE('',#1533,#344);
#275=LINE('',#1576,#345);
#276=LINE('',#1579,#346);
#277=LINE('',#1583,#347);
#278=LINE('',#1587,#348);
#279=LINE('',#1594,#349);
#280=LINE('',#1610,#350);
#281=LINE('',#1626,#351);
#282=LINE('',#1642,#352);
#283=LINE('',#1655,#353);
#284=LINE('',#1658,#354);
#285=LINE('',#1661,#355);
#286=LINE('',#1662,#356);
#287=LINE('',#1665,#357);
#288=LINE('',#1669,#358);
#289=LINE('',#1670,#359);
#290=LINE('',#1673,#360);
#291=LINE('',#1677,#361);
#292=LINE('',#1678,#362);
#293=LINE('',#1681,#363);
#294=LINE('',#1682,#364);
#295=VECTOR('',#1023,10.);
#296=VECTOR('',#1024,10.);
#297=VECTOR('',#1025,10.);
#298=VECTOR('',#1026,10.);
#299=VECTOR('',#1029,10.);
#300=VECTOR('',#1030,10.);
#301=VECTOR('',#1031,10.);
#302=VECTOR('',#1034,10.);
#303=VECTOR('',#1035,10.);
#304=VECTOR('',#1036,10.);
#305=VECTOR('',#1039,10.);
#306=VECTOR('',#1040,10.);
#307=VECTOR('',#1043,10.);
#308=VECTOR('',#1044,10.);
#309=VECTOR('',#1045,10.);
#310=VECTOR('',#1046,10.);
#311=VECTOR('',#1049,10.);
#312=VECTOR('',#1050,10.);
#313=VECTOR('',#1051,10.);
#314=VECTOR('',#1054,10.);
#315=VECTOR('',#1055,10.);
#316=VECTOR('',#1056,10.);
#317=VECTOR('',#1059,10.);
#318=VECTOR('',#1060,10.);
#319=VECTOR('',#1065,0.925);
#320=VECTOR('',#1072,0.925);
#321=VECTOR('',#1085,10.);
#322=VECTOR('',#1088,10.);
#323=VECTOR('',#1093,10.);
#324=VECTOR('',#1094,10.);
#325=VECTOR('',#1095,10.);
#326=VECTOR('',#1098,10.);
#327=VECTOR('',#1099,10.);
#328=VECTOR('',#1100,10.);
#329=VECTOR('',#1101,10.);
#330=VECTOR('',#1104,10.);
#331=VECTOR('',#1111,10.);
#332=VECTOR('',#1112,10.);
#333=VECTOR('',#1113,10.);
#334=VECTOR('',#1116,10.);
#335=VECTOR('',#1123,10.);
#336=VECTOR('',#1124,10.);
#337=VECTOR('',#1125,10.);
#338=VECTOR('',#1126,10.);
#339=VECTOR('',#1139,10.);
#340=VECTOR('',#1150,10.);
#341=VECTOR('',#1157,10.);
#342=VECTOR('',#1168,10.);
#343=VECTOR('',#1185,1.85);
#344=VECTOR('',#1192,1.84999999999999);
#345=VECTOR('',#1197,10.);
#346=VECTOR('',#1200,10.);
#347=VECTOR('',#1203,10.);
#348=VECTOR('',#1206,10.);
#349=VECTOR('',#1215,10.);
#350=VECTOR('',#1224,10.);
#351=VECTOR('',#1233,10.);
#352=VECTOR('',#1242,10.);
#353=VECTOR('',#1247,10.);
#354=VECTOR('',#1250,10.);
#355=VECTOR('',#1253,10.);
#356=VECTOR('',#1254,10.);
#357=VECTOR('',#1257,10.);
#358=VECTOR('',#1262,10.);
#359=VECTOR('',#1263,10.);
#360=VECTOR('',#1266,10.);
#361=VECTOR('',#1271,10.);
#362=VECTOR('',#1272,10.);
#363=VECTOR('',#1275,10.);
#364=VECTOR('',#1276,10.);
#365=VERTEX_POINT('',#1285);
#366=VERTEX_POINT('',#1286);
#367=VERTEX_POINT('',#1288);
#368=VERTEX_POINT('',#1290);
#369=VERTEX_POINT('',#1294);
#370=VERTEX_POINT('',#1296);
#371=VERTEX_POINT('',#1300);
#372=VERTEX_POINT('',#1302);
#373=VERTEX_POINT('',#1309);
#374=VERTEX_POINT('',#1310);
#375=VERTEX_POINT('',#1312);
#376=VERTEX_POINT('',#1314);
#377=VERTEX_POINT('',#1318);
#378=VERTEX_POINT('',#1320);
#379=VERTEX_POINT('',#1324);
#380=VERTEX_POINT('',#1326);
#381=VERTEX_POINT('',#1333);
#382=VERTEX_POINT('',#1335);
#383=VERTEX_POINT('',#1339);
#384=VERTEX_POINT('',#1341);
#385=VERTEX_POINT('',#1345);
#386=VERTEX_POINT('',#1348);
#387=VERTEX_POINT('',#1351);
#388=VERTEX_POINT('',#1352);
#389=VERTEX_POINT('',#1354);
#390=VERTEX_POINT('',#1356);
#391=VERTEX_POINT('',#1360);
#392=VERTEX_POINT('',#1362);
#393=VERTEX_POINT('',#1366);
#394=VERTEX_POINT('',#1367);
#395=VERTEX_POINT('',#1369);
#396=VERTEX_POINT('',#1371);
#397=VERTEX_POINT('',#1375);
#398=VERTEX_POINT('',#1376);
#399=VERTEX_POINT('',#1381);
#400=VERTEX_POINT('',#1382);
#401=VERTEX_POINT('',#1387);
#402=VERTEX_POINT('',#1388);
#403=VERTEX_POINT('',#1393);
#404=VERTEX_POINT('',#1394);
#405=VERTEX_POINT('',#1396);
#406=VERTEX_POINT('',#1398);
#407=VERTEX_POINT('',#1405);
#408=VERTEX_POINT('',#1416);
#409=VERTEX_POINT('',#1417);
#410=VERTEX_POINT('',#1431);
#411=VERTEX_POINT('',#1435);
#412=VERTEX_POINT('',#1448);
#413=VERTEX_POINT('',#1459);
#414=VERTEX_POINT('',#1460);
#415=VERTEX_POINT('',#1470);
#416=VERTEX_POINT('',#1474);
#417=VERTEX_POINT('',#1492);
#418=VERTEX_POINT('',#1494);
#419=VERTEX_POINT('',#1496);
#420=VERTEX_POINT('',#1523);
#421=VERTEX_POINT('',#1532);
#422=VERTEX_POINT('',#1534);
#423=VERTEX_POINT('',#1551);
#424=VERTEX_POINT('',#1553);
#425=VERTEX_POINT('',#1575);
#426=VERTEX_POINT('',#1577);
#427=VERTEX_POINT('',#1580);
#428=VERTEX_POINT('',#1582);
#429=VERTEX_POINT('',#1584);
#430=VERTEX_POINT('',#1586);
#431=VERTEX_POINT('',#1590);
#432=VERTEX_POINT('',#1592);
#433=VERTEX_POINT('',#1604);
#434=VERTEX_POINT('',#1608);
#435=VERTEX_POINT('',#1620);
#436=VERTEX_POINT('',#1624);
#437=VERTEX_POINT('',#1636);
#438=VERTEX_POINT('',#1640);
#439=VERTEX_POINT('',#1654);
#440=VERTEX_POINT('',#1656);
#441=VERTEX_POINT('',#1660);
#442=VERTEX_POINT('',#1664);
#443=VERTEX_POINT('',#1668);
#444=VERTEX_POINT('',#1672);
#445=VERTEX_POINT('',#1676);
#446=VERTEX_POINT('',#1680);
#447=EDGE_CURVE('',#365,#366,#225,.T.);
#448=EDGE_CURVE('',#367,#366,#226,.T.);
#449=EDGE_CURVE('',#367,#368,#227,.T.);
#450=EDGE_CURVE('',#365,#368,#228,.T.);
#451=EDGE_CURVE('',#369,#368,#229,.T.);
#452=EDGE_CURVE('',#369,#370,#230,.T.);
#453=EDGE_CURVE('',#365,#370,#231,.T.);
#454=EDGE_CURVE('',#371,#370,#232,.T.);
#455=EDGE_CURVE('',#369,#372,#233,.T.);
#456=EDGE_CURVE('',#371,#372,#234,.T.);
#457=EDGE_CURVE('',#371,#366,#235,.T.);
#458=EDGE_CURVE('',#367,#372,#236,.T.);
#459=EDGE_CURVE('',#373,#374,#237,.T.);
#460=EDGE_CURVE('',#375,#374,#238,.T.);
#461=EDGE_CURVE('',#375,#376,#239,.T.);
#462=EDGE_CURVE('',#373,#376,#240,.T.);
#463=EDGE_CURVE('',#377,#376,#241,.T.);
#464=EDGE_CURVE('',#377,#378,#242,.T.);
#465=EDGE_CURVE('',#373,#378,#243,.T.);
#466=EDGE_CURVE('',#379,#378,#244,.T.);
#467=EDGE_CURVE('',#377,#380,#245,.T.);
#468=EDGE_CURVE('',#379,#380,#246,.T.);
#469=EDGE_CURVE('',#379,#374,#247,.T.);
#470=EDGE_CURVE('',#375,#380,#248,.T.);
#471=EDGE_CURVE('',#381,#381,#43,.T.);
#472=EDGE_CURVE('',#381,#382,#249,.T.);
#473=EDGE_CURVE('',#382,#382,#44,.T.);
#474=EDGE_CURVE('',#383,#383,#45,.T.);
#475=EDGE_CURVE('',#383,#384,#250,.T.);
#476=EDGE_CURVE('',#384,#384,#46,.T.);
#477=EDGE_CURVE('',#385,#385,#47,.T.);
#478=EDGE_CURVE('',#386,#386,#48,.T.);
#479=EDGE_CURVE('',#387,#388,#251,.T.);
#480=EDGE_CURVE('',#389,#387,#49,.T.);
#481=EDGE_CURVE('',#390,#389,#252,.T.);
#482=EDGE_CURVE('',#390,#388,#50,.T.);
#483=EDGE_CURVE('',#388,#391,#253,.T.);
#484=EDGE_CURVE('',#392,#391,#254,.T.);
#485=EDGE_CURVE('',#387,#392,#255,.T.);
#486=EDGE_CURVE('',#393,#394,#256,.T.);
#487=EDGE_CURVE('',#393,#395,#257,.T.);
#488=EDGE_CURVE('',#395,#396,#258,.T.);
#489=EDGE_CURVE('',#394,#396,#259,.T.);
#490=EDGE_CURVE('',#397,#398,#260,.T.);
#491=EDGE_CURVE('',#392,#397,#51,.T.);
#492=EDGE_CURVE('',#391,#398,#52,.T.);
#493=EDGE_CURVE('',#399,#400,#261,.T.);
#494=EDGE_CURVE('',#397,#399,#262,.T.);
#495=EDGE_CURVE('',#398,#400,#263,.T.);
#496=EDGE_CURVE('',#401,#402,#264,.T.);
#497=EDGE_CURVE('',#399,#401,#53,.T.);
#498=EDGE_CURVE('',#400,#402,#54,.T.);
#499=EDGE_CURVE('',#403,#404,#265,.T.);
#500=EDGE_CURVE('',#405,#403,#266,.T.);
#501=EDGE_CURVE('',#406,#405,#267,.T.);
#502=EDGE_CURVE('',#406,#404,#268,.T.);
#503=EDGE_CURVE('',#404,#395,#55,.T.);
#504=EDGE_CURVE('',#403,#393,#56,.T.);
#505=EDGE_CURVE('',#400,#407,#57,.T.);
#506=EDGE_CURVE('',#402,#407,#19,.T.);
#507=EDGE_CURVE('',#408,#409,#269,.T.);
#508=EDGE_CURVE('',#408,#404,#58,.T.);
#509=EDGE_CURVE('',#409,#406,#20,.T.);
#510=EDGE_CURVE('',#410,#408,#59,.T.);
#511=EDGE_CURVE('',#410,#395,#60,.T.);
#512=EDGE_CURVE('',#411,#410,#270,.T.);
#513=EDGE_CURVE('',#396,#411,#21,.T.);
#514=EDGE_CURVE('',#412,#390,#22,.T.);
#515=EDGE_CURVE('',#412,#388,#61,.T.);
#516=EDGE_CURVE('',#413,#414,#271,.T.);
#517=EDGE_CURVE('',#413,#391,#62,.T.);
#518=EDGE_CURVE('',#414,#412,#23,.T.);
#519=EDGE_CURVE('',#415,#413,#63,.T.);
#520=EDGE_CURVE('',#415,#398,#64,.T.);
#521=EDGE_CURVE('',#407,#416,#24,.T.);
#522=EDGE_CURVE('',#416,#415,#272,.T.);
#523=EDGE_CURVE('',#411,#414,#65,.T.);
#524=EDGE_CURVE('',#416,#409,#66,.T.);
#525=EDGE_CURVE('',#394,#389,#67,.T.);
#526=EDGE_CURVE('',#401,#405,#68,.T.);
#527=EDGE_CURVE('',#386,#417,#273,.T.);
#528=EDGE_CURVE('',#418,#417,#69,.T.);
#529=EDGE_CURVE('',#419,#418,#25,.T.);
#530=EDGE_CURVE('',#420,#419,#26,.T.);
#531=EDGE_CURVE('',#417,#420,#70,.T.);
#532=EDGE_CURVE('',#385,#421,#274,.T.);
#533=EDGE_CURVE('',#422,#421,#27,.T.);
#534=EDGE_CURVE('',#423,#422,#71,.T.);
#535=EDGE_CURVE('',#424,#423,#28,.T.);
#536=EDGE_CURVE('',#421,#424,#29,.T.);
#537=EDGE_CURVE('',#425,#420,#275,.T.);
#538=EDGE_CURVE('',#426,#425,#72,.T.);
#539=EDGE_CURVE('',#423,#426,#276,.T.);
#540=EDGE_CURVE('',#427,#422,#73,.T.);
#541=EDGE_CURVE('',#428,#427,#277,.T.);
#542=EDGE_CURVE('',#429,#428,#74,.T.);
#543=EDGE_CURVE('',#430,#429,#278,.T.);
#544=EDGE_CURVE('',#418,#430,#75,.T.);
#545=EDGE_CURVE('',#431,#430,#76,.T.);
#546=EDGE_CURVE('',#429,#432,#77,.T.);
#547=EDGE_CURVE('',#432,#431,#279,.T.);
#548=EDGE_CURVE('',#428,#433,#78,.T.);
#549=EDGE_CURVE('',#433,#432,#79,.T.);
#550=EDGE_CURVE('',#427,#434,#80,.T.);
#551=EDGE_CURVE('',#434,#433,#280,.T.);
#552=EDGE_CURVE('',#424,#435,#81,.T.);
#553=EDGE_CURVE('',#435,#434,#82,.T.);
#554=EDGE_CURVE('',#426,#436,#83,.T.);
#555=EDGE_CURVE('',#436,#435,#281,.T.);
#556=EDGE_CURVE('',#425,#437,#84,.T.);
#557=EDGE_CURVE('',#437,#436,#85,.T.);
#558=EDGE_CURVE('',#419,#438,#86,.T.);
#559=EDGE_CURVE('',#438,#437,#282,.T.);
#560=EDGE_CURVE('',#431,#438,#87,.T.);
#561=EDGE_CURVE('',#439,#437,#283,.T.);
#562=EDGE_CURVE('',#439,#440,#88,.T.);
#563=EDGE_CURVE('',#440,#436,#284,.T.);
#564=EDGE_CURVE('',#441,#438,#285,.T.);
#565=EDGE_CURVE('',#439,#441,#286,.T.);
#566=EDGE_CURVE('',#442,#431,#287,.T.);
#567=EDGE_CURVE('',#442,#441,#89,.T.);
#568=EDGE_CURVE('',#443,#432,#288,.T.);
#569=EDGE_CURVE('',#443,#442,#289,.T.);
#570=EDGE_CURVE('',#444,#433,#290,.T.);
#571=EDGE_CURVE('',#444,#443,#90,.T.);
#572=EDGE_CURVE('',#445,#440,#291,.T.);
#573=EDGE_CURVE('',#445,#435,#292,.T.);
#574=EDGE_CURVE('',#446,#434,#293,.T.);
#575=EDGE_CURVE('',#446,#444,#294,.T.);
#576=EDGE_CURVE('',#445,#446,#91,.T.);
#577=ORIENTED_EDGE('',*,*,#447,.T.);
#578=ORIENTED_EDGE('',*,*,#448,.F.);
#579=ORIENTED_EDGE('',*,*,#449,.T.);
#580=ORIENTED_EDGE('',*,*,#450,.F.);
#581=ORIENTED_EDGE('',*,*,#450,.T.);
#582=ORIENTED_EDGE('',*,*,#451,.F.);
#583=ORIENTED_EDGE('',*,*,#452,.T.);
#584=ORIENTED_EDGE('',*,*,#453,.F.);
#585=ORIENTED_EDGE('',*,*,#454,.T.);
#586=ORIENTED_EDGE('',*,*,#452,.F.);
#587=ORIENTED_EDGE('',*,*,#455,.T.);
#588=ORIENTED_EDGE('',*,*,#456,.F.);
#589=ORIENTED_EDGE('',*,*,#448,.T.);
#590=ORIENTED_EDGE('',*,*,#457,.F.);
#591=ORIENTED_EDGE('',*,*,#456,.T.);
#592=ORIENTED_EDGE('',*,*,#458,.F.);
#593=ORIENTED_EDGE('',*,*,#459,.T.);
#594=ORIENTED_EDGE('',*,*,#460,.F.);
#595=ORIENTED_EDGE('',*,*,#461,.T.);
#596=ORIENTED_EDGE('',*,*,#462,.F.);
#597=ORIENTED_EDGE('',*,*,#462,.T.);
#598=ORIENTED_EDGE('',*,*,#463,.F.);
#599=ORIENTED_EDGE('',*,*,#464,.T.);
#600=ORIENTED_EDGE('',*,*,#465,.F.);
#601=ORIENTED_EDGE('',*,*,#466,.T.);
#602=ORIENTED_EDGE('',*,*,#464,.F.);
#603=ORIENTED_EDGE('',*,*,#467,.T.);
#604=ORIENTED_EDGE('',*,*,#468,.F.);
#605=ORIENTED_EDGE('',*,*,#460,.T.);
#606=ORIENTED_EDGE('',*,*,#469,.F.);
#607=ORIENTED_EDGE('',*,*,#468,.T.);
#608=ORIENTED_EDGE('',*,*,#470,.F.);
#609=ORIENTED_EDGE('',*,*,#471,.F.);
#610=ORIENTED_EDGE('',*,*,#472,.T.);
#611=ORIENTED_EDGE('',*,*,#473,.F.);
#612=ORIENTED_EDGE('',*,*,#472,.F.);
#613=ORIENTED_EDGE('',*,*,#474,.F.);
#614=ORIENTED_EDGE('',*,*,#475,.T.);
#615=ORIENTED_EDGE('',*,*,#476,.F.);
#616=ORIENTED_EDGE('',*,*,#475,.F.);
#617=ORIENTED_EDGE('',*,*,#477,.F.);
#618=ORIENTED_EDGE('',*,*,#474,.T.);
#619=ORIENTED_EDGE('',*,*,#478,.F.);
#620=ORIENTED_EDGE('',*,*,#471,.T.);
#621=ORIENTED_EDGE('',*,*,#479,.F.);
#622=ORIENTED_EDGE('',*,*,#480,.F.);
#623=ORIENTED_EDGE('',*,*,#481,.F.);
#624=ORIENTED_EDGE('',*,*,#482,.T.);
#625=ORIENTED_EDGE('',*,*,#479,.T.);
#626=ORIENTED_EDGE('',*,*,#483,.T.);
#627=ORIENTED_EDGE('',*,*,#484,.F.);
#628=ORIENTED_EDGE('',*,*,#485,.F.);
#629=ORIENTED_EDGE('',*,*,#486,.F.);
#630=ORIENTED_EDGE('',*,*,#487,.T.);
#631=ORIENTED_EDGE('',*,*,#488,.T.);
#632=ORIENTED_EDGE('',*,*,#489,.F.);
#633=ORIENTED_EDGE('',*,*,#453,.T.);
#634=ORIENTED_EDGE('',*,*,#454,.F.);
#635=ORIENTED_EDGE('',*,*,#457,.T.);
#636=ORIENTED_EDGE('',*,*,#447,.F.);
#637=ORIENTED_EDGE('',*,*,#490,.F.);
#638=ORIENTED_EDGE('',*,*,#491,.F.);
#639=ORIENTED_EDGE('',*,*,#484,.T.);
#640=ORIENTED_EDGE('',*,*,#492,.T.);
#641=ORIENTED_EDGE('',*,*,#493,.F.);
#642=ORIENTED_EDGE('',*,*,#494,.F.);
#643=ORIENTED_EDGE('',*,*,#490,.T.);
#644=ORIENTED_EDGE('',*,*,#495,.T.);
#645=ORIENTED_EDGE('',*,*,#469,.T.);
#646=ORIENTED_EDGE('',*,*,#459,.F.);
#647=ORIENTED_EDGE('',*,*,#465,.T.);
#648=ORIENTED_EDGE('',*,*,#466,.F.);
#649=ORIENTED_EDGE('',*,*,#496,.F.);
#650=ORIENTED_EDGE('',*,*,#497,.F.);
#651=ORIENTED_EDGE('',*,*,#493,.T.);
#652=ORIENTED_EDGE('',*,*,#498,.T.);
#653=ORIENTED_EDGE('',*,*,#499,.F.);
#654=ORIENTED_EDGE('',*,*,#500,.F.);
#655=ORIENTED_EDGE('',*,*,#501,.F.);
#656=ORIENTED_EDGE('',*,*,#502,.T.);
#657=ORIENTED_EDGE('',*,*,#499,.T.);
#658=ORIENTED_EDGE('',*,*,#503,.T.);
#659=ORIENTED_EDGE('',*,*,#487,.F.);
#660=ORIENTED_EDGE('',*,*,#504,.F.);
#661=ORIENTED_EDGE('',*,*,#498,.F.);
#662=ORIENTED_EDGE('',*,*,#505,.T.);
#663=ORIENTED_EDGE('',*,*,#506,.F.);
#664=ORIENTED_EDGE('',*,*,#507,.F.);
#665=ORIENTED_EDGE('',*,*,#508,.T.);
#666=ORIENTED_EDGE('',*,*,#502,.F.);
#667=ORIENTED_EDGE('',*,*,#509,.F.);
#668=ORIENTED_EDGE('',*,*,#510,.F.);
#669=ORIENTED_EDGE('',*,*,#511,.T.);
#670=ORIENTED_EDGE('',*,*,#503,.F.);
#671=ORIENTED_EDGE('',*,*,#508,.F.);
#672=ORIENTED_EDGE('',*,*,#512,.F.);
#673=ORIENTED_EDGE('',*,*,#513,.F.);
#674=ORIENTED_EDGE('',*,*,#488,.F.);
#675=ORIENTED_EDGE('',*,*,#511,.F.);
#676=ORIENTED_EDGE('',*,*,#514,.F.);
#677=ORIENTED_EDGE('',*,*,#515,.T.);
#678=ORIENTED_EDGE('',*,*,#482,.F.);
#679=ORIENTED_EDGE('',*,*,#516,.F.);
#680=ORIENTED_EDGE('',*,*,#517,.T.);
#681=ORIENTED_EDGE('',*,*,#483,.F.);
#682=ORIENTED_EDGE('',*,*,#515,.F.);
#683=ORIENTED_EDGE('',*,*,#518,.F.);
#684=ORIENTED_EDGE('',*,*,#519,.F.);
#685=ORIENTED_EDGE('',*,*,#520,.T.);
#686=ORIENTED_EDGE('',*,*,#492,.F.);
#687=ORIENTED_EDGE('',*,*,#517,.F.);
#688=ORIENTED_EDGE('',*,*,#521,.F.);
#689=ORIENTED_EDGE('',*,*,#505,.F.);
#690=ORIENTED_EDGE('',*,*,#495,.F.);
#691=ORIENTED_EDGE('',*,*,#520,.F.);
#692=ORIENTED_EDGE('',*,*,#522,.F.);
#693=ORIENTED_EDGE('',*,*,#523,.F.);
#694=ORIENTED_EDGE('',*,*,#512,.T.);
#695=ORIENTED_EDGE('',*,*,#510,.T.);
#696=ORIENTED_EDGE('',*,*,#507,.T.);
#697=ORIENTED_EDGE('',*,*,#524,.F.);
#698=ORIENTED_EDGE('',*,*,#522,.T.);
#699=ORIENTED_EDGE('',*,*,#519,.T.);
#700=ORIENTED_EDGE('',*,*,#516,.T.);
#701=ORIENTED_EDGE('',*,*,#513,.T.);
#702=ORIENTED_EDGE('',*,*,#523,.T.);
#703=ORIENTED_EDGE('',*,*,#518,.T.);
#704=ORIENTED_EDGE('',*,*,#514,.T.);
#705=ORIENTED_EDGE('',*,*,#481,.T.);
#706=ORIENTED_EDGE('',*,*,#525,.F.);
#707=ORIENTED_EDGE('',*,*,#489,.T.);
#708=ORIENTED_EDGE('',*,*,#526,.F.);
#709=ORIENTED_EDGE('',*,*,#496,.T.);
#710=ORIENTED_EDGE('',*,*,#506,.T.);
#711=ORIENTED_EDGE('',*,*,#521,.T.);
#712=ORIENTED_EDGE('',*,*,#524,.T.);
#713=ORIENTED_EDGE('',*,*,#509,.T.);
#714=ORIENTED_EDGE('',*,*,#501,.T.);
#715=ORIENTED_EDGE('',*,*,#478,.T.);
#716=ORIENTED_EDGE('',*,*,#527,.T.);
#717=ORIENTED_EDGE('',*,*,#528,.F.);
#718=ORIENTED_EDGE('',*,*,#529,.F.);
#719=ORIENTED_EDGE('',*,*,#530,.F.);
#720=ORIENTED_EDGE('',*,*,#531,.F.);
#721=ORIENTED_EDGE('',*,*,#527,.F.);
#722=ORIENTED_EDGE('',*,*,#477,.T.);
#723=ORIENTED_EDGE('',*,*,#532,.T.);
#724=ORIENTED_EDGE('',*,*,#533,.F.);
#725=ORIENTED_EDGE('',*,*,#534,.F.);
#726=ORIENTED_EDGE('',*,*,#535,.F.);
#727=ORIENTED_EDGE('',*,*,#536,.F.);
#728=ORIENTED_EDGE('',*,*,#532,.F.);
#729=ORIENTED_EDGE('',*,*,#528,.T.);
#730=ORIENTED_EDGE('',*,*,#531,.T.);
#731=ORIENTED_EDGE('',*,*,#537,.F.);
#732=ORIENTED_EDGE('',*,*,#538,.F.);
#733=ORIENTED_EDGE('',*,*,#539,.F.);
#734=ORIENTED_EDGE('',*,*,#534,.T.);
#735=ORIENTED_EDGE('',*,*,#540,.F.);
#736=ORIENTED_EDGE('',*,*,#541,.F.);
#737=ORIENTED_EDGE('',*,*,#542,.F.);
#738=ORIENTED_EDGE('',*,*,#543,.F.);
#739=ORIENTED_EDGE('',*,*,#544,.F.);
#740=ORIENTED_EDGE('',*,*,#545,.T.);
#741=ORIENTED_EDGE('',*,*,#543,.T.);
#742=ORIENTED_EDGE('',*,*,#546,.T.);
#743=ORIENTED_EDGE('',*,*,#547,.T.);
#744=ORIENTED_EDGE('',*,*,#548,.T.);
#745=ORIENTED_EDGE('',*,*,#549,.T.);
#746=ORIENTED_EDGE('',*,*,#546,.F.);
#747=ORIENTED_EDGE('',*,*,#542,.T.);
#748=ORIENTED_EDGE('',*,*,#550,.T.);
#749=ORIENTED_EDGE('',*,*,#551,.T.);
#750=ORIENTED_EDGE('',*,*,#548,.F.);
#751=ORIENTED_EDGE('',*,*,#541,.T.);
#752=ORIENTED_EDGE('',*,*,#533,.T.);
#753=ORIENTED_EDGE('',*,*,#536,.T.);
#754=ORIENTED_EDGE('',*,*,#552,.T.);
#755=ORIENTED_EDGE('',*,*,#553,.T.);
#756=ORIENTED_EDGE('',*,*,#550,.F.);
#757=ORIENTED_EDGE('',*,*,#540,.T.);
#758=ORIENTED_EDGE('',*,*,#535,.T.);
#759=ORIENTED_EDGE('',*,*,#539,.T.);
#760=ORIENTED_EDGE('',*,*,#554,.T.);
#761=ORIENTED_EDGE('',*,*,#555,.T.);
#762=ORIENTED_EDGE('',*,*,#552,.F.);
#763=ORIENTED_EDGE('',*,*,#556,.T.);
#764=ORIENTED_EDGE('',*,*,#557,.T.);
#765=ORIENTED_EDGE('',*,*,#554,.F.);
#766=ORIENTED_EDGE('',*,*,#538,.T.);
#767=ORIENTED_EDGE('',*,*,#530,.T.);
#768=ORIENTED_EDGE('',*,*,#558,.T.);
#769=ORIENTED_EDGE('',*,*,#559,.T.);
#770=ORIENTED_EDGE('',*,*,#556,.F.);
#771=ORIENTED_EDGE('',*,*,#537,.T.);
#772=ORIENTED_EDGE('',*,*,#529,.T.);
#773=ORIENTED_EDGE('',*,*,#544,.T.);
#774=ORIENTED_EDGE('',*,*,#545,.F.);
#775=ORIENTED_EDGE('',*,*,#560,.T.);
#776=ORIENTED_EDGE('',*,*,#558,.F.);
#777=ORIENTED_EDGE('',*,*,#557,.F.);
#778=ORIENTED_EDGE('',*,*,#561,.F.);
#779=ORIENTED_EDGE('',*,*,#562,.T.);
#780=ORIENTED_EDGE('',*,*,#563,.T.);
#781=ORIENTED_EDGE('',*,*,#559,.F.);
#782=ORIENTED_EDGE('',*,*,#564,.F.);
#783=ORIENTED_EDGE('',*,*,#565,.F.);
#784=ORIENTED_EDGE('',*,*,#561,.T.);
#785=ORIENTED_EDGE('',*,*,#560,.F.);
#786=ORIENTED_EDGE('',*,*,#566,.F.);
#787=ORIENTED_EDGE('',*,*,#567,.T.);
#788=ORIENTED_EDGE('',*,*,#564,.T.);
#789=ORIENTED_EDGE('',*,*,#547,.F.);
#790=ORIENTED_EDGE('',*,*,#568,.F.);
#791=ORIENTED_EDGE('',*,*,#569,.T.);
#792=ORIENTED_EDGE('',*,*,#566,.T.);
#793=ORIENTED_EDGE('',*,*,#470,.T.);
#794=ORIENTED_EDGE('',*,*,#467,.F.);
#795=ORIENTED_EDGE('',*,*,#463,.T.);
#796=ORIENTED_EDGE('',*,*,#461,.F.);
#797=ORIENTED_EDGE('',*,*,#549,.F.);
#798=ORIENTED_EDGE('',*,*,#570,.F.);
#799=ORIENTED_EDGE('',*,*,#571,.T.);
#800=ORIENTED_EDGE('',*,*,#568,.T.);
#801=ORIENTED_EDGE('',*,*,#555,.F.);
#802=ORIENTED_EDGE('',*,*,#563,.F.);
#803=ORIENTED_EDGE('',*,*,#572,.F.);
#804=ORIENTED_EDGE('',*,*,#573,.T.);
#805=ORIENTED_EDGE('',*,*,#451,.T.);
#806=ORIENTED_EDGE('',*,*,#449,.F.);
#807=ORIENTED_EDGE('',*,*,#458,.T.);
#808=ORIENTED_EDGE('',*,*,#455,.F.);
#809=ORIENTED_EDGE('',*,*,#551,.F.);
#810=ORIENTED_EDGE('',*,*,#574,.F.);
#811=ORIENTED_EDGE('',*,*,#575,.T.);
#812=ORIENTED_EDGE('',*,*,#570,.T.);
#813=ORIENTED_EDGE('',*,*,#553,.F.);
#814=ORIENTED_EDGE('',*,*,#573,.F.);
#815=ORIENTED_EDGE('',*,*,#576,.T.);
#816=ORIENTED_EDGE('',*,*,#574,.T.);
#817=ORIENTED_EDGE('',*,*,#576,.F.);
#818=ORIENTED_EDGE('',*,*,#572,.T.);
#819=ORIENTED_EDGE('',*,*,#562,.F.);
#820=ORIENTED_EDGE('',*,*,#565,.T.);
#821=ORIENTED_EDGE('',*,*,#567,.F.);
#822=ORIENTED_EDGE('',*,*,#569,.F.);
#823=ORIENTED_EDGE('',*,*,#571,.F.);
#824=ORIENTED_EDGE('',*,*,#575,.F.);
#825=ORIENTED_EDGE('',*,*,#473,.T.);
#826=ORIENTED_EDGE('',*,*,#476,.T.);
#827=ORIENTED_EDGE('',*,*,#500,.T.);
#828=ORIENTED_EDGE('',*,*,#504,.T.);
#829=ORIENTED_EDGE('',*,*,#486,.T.);
#830=ORIENTED_EDGE('',*,*,#525,.T.);
#831=ORIENTED_EDGE('',*,*,#480,.T.);
#832=ORIENTED_EDGE('',*,*,#485,.T.);
#833=ORIENTED_EDGE('',*,*,#491,.T.);
#834=ORIENTED_EDGE('',*,*,#494,.T.);
#835=ORIENTED_EDGE('',*,*,#497,.T.);
#836=ORIENTED_EDGE('',*,*,#526,.T.);
#837=PLANE('',#923);
#838=PLANE('',#924);
#839=PLANE('',#925);
#840=PLANE('',#926);
#841=PLANE('',#927);
#842=PLANE('',#928);
#843=PLANE('',#929);
#844=PLANE('',#930);
#845=PLANE('',#937);
#846=PLANE('',#939);
#847=PLANE('',#944);
#848=PLANE('',#945);
#849=PLANE('',#949);
#850=PLANE('',#953);
#851=PLANE('',#973);
#852=PLANE('',#985);
#853=PLANE('',#1008);
#854=PLANE('',#1011);
#855=PLANE('',#1014);
#856=PLANE('',#1015);
#857=PLANE('',#1018);
#858=ADVANCED_FACE('',(#114),#837,.T.);
#859=ADVANCED_FACE('',(#115),#838,.F.);
#860=ADVANCED_FACE('',(#116),#839,.T.);
#861=ADVANCED_FACE('',(#117),#840,.F.);
#862=ADVANCED_FACE('',(#118),#841,.T.);
#863=ADVANCED_FACE('',(#119),#842,.F.);
#864=ADVANCED_FACE('',(#120),#843,.T.);
#865=ADVANCED_FACE('',(#121),#844,.F.);
#866=ADVANCED_FACE('',(#122),#92,.F.);
#867=ADVANCED_FACE('',(#123),#93,.F.);
#868=ADVANCED_FACE('',(#124,#34),#845,.T.);
#869=ADVANCED_FACE('',(#125,#35),#846,.T.);
#870=ADVANCED_FACE('',(#126),#94,.F.);
#871=ADVANCED_FACE('',(#127),#847,.F.);
#872=ADVANCED_FACE('',(#128,#36),#848,.F.);
#873=ADVANCED_FACE('',(#129),#95,.F.);
#874=ADVANCED_FACE('',(#130,#37),#849,.F.);
#875=ADVANCED_FACE('',(#131),#96,.F.);
#876=ADVANCED_FACE('',(#132),#850,.F.);
#877=ADVANCED_FACE('',(#133),#97,.F.);
#878=ADVANCED_FACE('',(#134),#30,.F.);
#879=ADVANCED_FACE('',(#135),#98,.F.);
#880=ADVANCED_FACE('',(#136),#31,.F.);
#881=ADVANCED_FACE('',(#137),#99,.F.);
#882=ADVANCED_FACE('',(#138),#32,.F.);
#883=ADVANCED_FACE('',(#139),#100,.F.);
#884=ADVANCED_FACE('',(#140),#33,.F.);
#885=ADVANCED_FACE('',(#141),#101,.F.);
#886=ADVANCED_FACE('',(#142),#851,.F.);
#887=ADVANCED_FACE('',(#143),#102,.T.);
#888=ADVANCED_FACE('',(#144),#103,.T.);
#889=ADVANCED_FACE('',(#145),#104,.F.);
#890=ADVANCED_FACE('',(#146),#105,.F.);
#891=ADVANCED_FACE('',(#147),#852,.T.);
#892=ADVANCED_FACE('',(#148),#106,.T.);
#893=ADVANCED_FACE('',(#149),#15,.F.);
#894=ADVANCED_FACE('',(#150),#107,.T.);
#895=ADVANCED_FACE('',(#151),#16,.F.);
#896=ADVANCED_FACE('',(#152),#108,.T.);
#897=ADVANCED_FACE('',(#153),#17,.F.);
#898=ADVANCED_FACE('',(#154),#109,.T.);
#899=ADVANCED_FACE('',(#155),#18,.F.);
#900=ADVANCED_FACE('',(#156),#110,.T.);
#901=ADVANCED_FACE('',(#157),#853,.T.);
#902=ADVANCED_FACE('',(#158),#111,.T.);
#903=ADVANCED_FACE('',(#159,#38),#854,.T.);
#904=ADVANCED_FACE('',(#160),#112,.T.);
#905=ADVANCED_FACE('',(#161,#39),#855,.T.);
#906=ADVANCED_FACE('',(#162),#856,.T.);
#907=ADVANCED_FACE('',(#163),#113,.T.);
#908=ADVANCED_FACE('',(#164,#40,#41,#42),#857,.F.);
#909=CLOSED_SHELL('',(#858,#859,#860,#861,#862,#863,#864,#865,#866,#867,
#868,#869,#870,#871,#872,#873,#874,#875,#876,#877,#878,#879,#880,#881,#882,
#883,#884,#885,#886,#887,#888,#889,#890,#891,#892,#893,#894,#895,#896,#897,
#898,#899,#900,#901,#902,#903,#904,#905,#906,#907,#908));
#910=DERIVED_UNIT_ELEMENT(#912,1.);
#911=DERIVED_UNIT_ELEMENT(#1691,-3.);
#912=(
MASS_UNIT()
NAMED_UNIT(*)
SI_UNIT(.KILO.,.GRAM.)
);
#913=DERIVED_UNIT((#910,#911));
#914=MEASURE_REPRESENTATION_ITEM('density measure',
POSITIVE_RATIO_MEASURE(7850.),#913);
#915=PROPERTY_DEFINITION_REPRESENTATION(#920,#917);
#916=PROPERTY_DEFINITION_REPRESENTATION(#921,#918);
#917=REPRESENTATION('material name',(#919),#1688);
#918=REPRESENTATION('density',(#914),#1688);
#919=DESCRIPTIVE_REPRESENTATION_ITEM('Steel','Steel');
#920=PROPERTY_DEFINITION('material property','material name',#1698);
#921=PROPERTY_DEFINITION('material property','density of part',#1698);
#922=AXIS2_PLACEMENT_3D('',#1283,#1019,#1020);
#923=AXIS2_PLACEMENT_3D('',#1284,#1021,#1022);
#924=AXIS2_PLACEMENT_3D('',#1293,#1027,#1028);
#925=AXIS2_PLACEMENT_3D('',#1299,#1032,#1033);
#926=AXIS2_PLACEMENT_3D('',#1305,#1037,#1038);
#927=AXIS2_PLACEMENT_3D('',#1308,#1041,#1042);
#928=AXIS2_PLACEMENT_3D('',#1317,#1047,#1048);
#929=AXIS2_PLACEMENT_3D('',#1323,#1052,#1053);
#930=AXIS2_PLACEMENT_3D('',#1329,#1057,#1058);
#931=AXIS2_PLACEMENT_3D('',#1332,#1061,#1062);
#932=AXIS2_PLACEMENT_3D('',#1334,#1063,#1064);
#933=AXIS2_PLACEMENT_3D('',#1337,#1066,#1067);
#934=AXIS2_PLACEMENT_3D('',#1338,#1068,#1069);
#935=AXIS2_PLACEMENT_3D('',#1340,#1070,#1071);
#936=AXIS2_PLACEMENT_3D('',#1343,#1073,#1074);
#937=AXIS2_PLACEMENT_3D('',#1344,#1075,#1076);
#938=AXIS2_PLACEMENT_3D('',#1346,#1077,#1078);
#939=AXIS2_PLACEMENT_3D('',#1347,#1079,#1080);
#940=AXIS2_PLACEMENT_3D('',#1349,#1081,#1082);
#941=AXIS2_PLACEMENT_3D('',#1350,#1083,#1084);
#942=AXIS2_PLACEMENT_3D('',#1355,#1086,#1087);
#943=AXIS2_PLACEMENT_3D('',#1358,#1089,#1090);
#944=AXIS2_PLACEMENT_3D('',#1359,#1091,#1092);
#945=AXIS2_PLACEMENT_3D('',#1365,#1096,#1097);
#946=AXIS2_PLACEMENT_3D('',#1374,#1102,#1103);
#947=AXIS2_PLACEMENT_3D('',#1378,#1105,#1106);
#948=AXIS2_PLACEMENT_3D('',#1379,#1107,#1108);
#949=AXIS2_PLACEMENT_3D('',#1380,#1109,#1110);
#950=AXIS2_PLACEMENT_3D('',#1386,#1114,#1115);
#951=AXIS2_PLACEMENT_3D('',#1390,#1117,#1118);
#952=AXIS2_PLACEMENT_3D('',#1391,#1119,#1120);
#953=AXIS2_PLACEMENT_3D('',#1392,#1121,#1122);
#954=AXIS2_PLACEMENT_3D('',#1401,#1127,#1128);
#955=AXIS2_PLACEMENT_3D('',#1402,#1129,#1130);
#956=AXIS2_PLACEMENT_3D('',#1403,#1131,#1132);
#957=AXIS2_PLACEMENT_3D('',#1404,#1133,#1134);
#958=AXIS2_PLACEMENT_3D('',#1406,#1135,#1136);
#959=AXIS2_PLACEMENT_3D('',#1415,#1137,#1138);
#960=AXIS2_PLACEMENT_3D('',#1419,#1140,#1141);
#961=AXIS2_PLACEMENT_3D('',#1430,#1142,#1143);
#962=AXIS2_PLACEMENT_3D('',#1432,#1144,#1145);
#963=AXIS2_PLACEMENT_3D('',#1433,#1146,#1147);
#964=AXIS2_PLACEMENT_3D('',#1434,#1148,#1149);
#965=AXIS2_PLACEMENT_3D('',#1447,#1151,#1152);
#966=AXIS2_PLACEMENT_3D('',#1457,#1153,#1154);
#967=AXIS2_PLACEMENT_3D('',#1458,#1155,#1156);
#968=AXIS2_PLACEMENT_3D('',#1462,#1158,#1159);
#969=AXIS2_PLACEMENT_3D('',#1469,#1160,#1161);
#970=AXIS2_PLACEMENT_3D('',#1471,#1162,#1163);
#971=AXIS2_PLACEMENT_3D('',#1472,#1164,#1165);
#972=AXIS2_PLACEMENT_3D('',#1473,#1166,#1167);
#973=AXIS2_PLACEMENT_3D('',#1484,#1169,#1170);
#974=AXIS2_PLACEMENT_3D('',#1485,#1171,#1172);
#975=AXIS2_PLACEMENT_3D('',#1486,#1173,#1174);
#976=AXIS2_PLACEMENT_3D('',#1487,#1175,#1176);
#977=AXIS2_PLACEMENT_3D('',#1488,#1177,#1178);
#978=AXIS2_PLACEMENT_3D('',#1489,#1179,#1180);
#979=AXIS2_PLACEMENT_3D('',#1490,#1181,#1182);
#980=AXIS2_PLACEMENT_3D('',#1491,#1183,#1184);
#981=AXIS2_PLACEMENT_3D('',#1495,#1186,#1187);
#982=AXIS2_PLACEMENT_3D('',#1530,#1188,#1189);
#983=AXIS2_PLACEMENT_3D('',#1531,#1190,#1191);
#984=AXIS2_PLACEMENT_3D('',#1552,#1193,#1194);
#985=AXIS2_PLACEMENT_3D('',#1574,#1195,#1196);
#986=AXIS2_PLACEMENT_3D('',#1578,#1198,#1199);
#987=AXIS2_PLACEMENT_3D('',#1581,#1201,#1202);
#988=AXIS2_PLACEMENT_3D('',#1585,#1204,#1205);
#989=AXIS2_PLACEMENT_3D('',#1588,#1207,#1208);
#990=AXIS2_PLACEMENT_3D('',#1589,#1209,#1210);
#991=AXIS2_PLACEMENT_3D('',#1591,#1211,#1212);
#992=AXIS2_PLACEMENT_3D('',#1593,#1213,#1214);
#993=AXIS2_PLACEMENT_3D('',#1605,#1216,#1217);
#994=AXIS2_PLACEMENT_3D('',#1606,#1218,#1219);
#995=AXIS2_PLACEMENT_3D('',#1607,#1220,#1221);
#996=AXIS2_PLACEMENT_3D('',#1609,#1222,#1223);
#997=AXIS2_PLACEMENT_3D('',#1621,#1225,#1226);
#998=AXIS2_PLACEMENT_3D('',#1622,#1227,#1228);
#999=AXIS2_PLACEMENT_3D('',#1623,#1229,#1230);
#1000=AXIS2_PLACEMENT_3D('',#1625,#1231,#1232);
#1001=AXIS2_PLACEMENT_3D('',#1637,#1234,#1235);
#1002=AXIS2_PLACEMENT_3D('',#1638,#1236,#1237);
#1003=AXIS2_PLACEMENT_3D('',#1639,#1238,#1239);
#1004=AXIS2_PLACEMENT_3D('',#1641,#1240,#1241);
#1005=AXIS2_PLACEMENT_3D('',#1652,#1243,#1244);
#1006=AXIS2_PLACEMENT_3D('',#1653,#1245,#1246);
#1007=AXIS2_PLACEMENT_3D('',#1657,#1248,#1249);
#1008=AXIS2_PLACEMENT_3D('',#1659,#1251,#1252);
#1009=AXIS2_PLACEMENT_3D('',#1663,#1255,#1256);
#1010=AXIS2_PLACEMENT_3D('',#1666,#1258,#1259);
#1011=AXIS2_PLACEMENT_3D('',#1667,#1260,#1261);
#1012=AXIS2_PLACEMENT_3D('',#1671,#1264,#1265);
#1013=AXIS2_PLACEMENT_3D('',#1674,#1267,#1268);
#1014=AXIS2_PLACEMENT_3D('',#1675,#1269,#1270);
#1015=AXIS2_PLACEMENT_3D('',#1679,#1273,#1274);
#1016=AXIS2_PLACEMENT_3D('',#1683,#1277,#1278);
#1017=AXIS2_PLACEMENT_3D('',#1684,#1279,#1280);
#1018=AXIS2_PLACEMENT_3D('',#1685,#1281,#1282);
#1019=DIRECTION('axis',(0.,0.,1.));
#1020=DIRECTION('refdir',(1.,0.,0.));
#1021=DIRECTION('center_axis',(0.,-0.57357672988957,0.819151838751026));
#1022=DIRECTION('ref_axis',(1.,0.,0.));
#1023=DIRECTION('',(1.,0.,0.));
#1024=DIRECTION('',(0.,-0.819151838751026,-0.57357672988957));
#1025=DIRECTION('',(-1.,0.,0.));
#1026=DIRECTION('',(0.,0.819151838751026,0.57357672988957));
#1027=DIRECTION('center_axis',(-1.,0.,0.));
#1028=DIRECTION('ref_axis',(0.,0.573576729889566,-0.819151838751029));
#1029=DIRECTION('',(0.,0.573576729889566,-0.819151838751029));
#1030=DIRECTION('',(0.,-0.819151838751026,-0.57357672988957));
#1031=DIRECTION('',(0.,-0.573576729889566,0.819151838751029));
#1032=DIRECTION('center_axis',(0.,0.57357672988957,-0.819151838751026));
#1033=DIRECTION('ref_axis',(-1.,0.,0.));
#1034=DIRECTION('',(-1.,0.,0.));
#1035=DIRECTION('',(1.,0.,0.));
#1036=DIRECTION('',(0.,0.819151838751026,0.57357672988957));
#1037=DIRECTION('center_axis',(1.,0.,0.));
#1038=DIRECTION('ref_axis',(0.,-0.573576729889566,0.819151838751029));
#1039=DIRECTION('',(0.,0.573576729889566,-0.819151838751029));
#1040=DIRECTION('',(0.,-0.573576729889566,0.819151838751029));
#1041=DIRECTION('center_axis',(0.,-0.573576729889566,0.819151838751029));
#1042=DIRECTION('ref_axis',(1.,0.,0.));
#1043=DIRECTION('',(-1.,0.,0.));
#1044=DIRECTION('',(0.,0.819151838751029,0.573576729889566));
#1045=DIRECTION('',(1.,0.,0.));
#1046=DIRECTION('',(0.,-0.819151838751029,-0.573576729889566));
#1047=DIRECTION('center_axis',(1.,0.,0.));
#1048=DIRECTION('ref_axis',(0.,-0.573576729889566,0.819151838751029));
#1049=DIRECTION('',(0.,0.573576729889565,-0.819151838751029));
#1050=DIRECTION('',(0.,0.819151838751026,0.57357672988957));
#1051=DIRECTION('',(0.,-0.573576729889565,0.819151838751029));
#1052=DIRECTION('center_axis',(0.,0.57357672988957,-0.819151838751026));
#1053=DIRECTION('ref_axis',(-1.,0.,0.));
#1054=DIRECTION('',(1.,0.,0.));
#1055=DIRECTION('',(-1.,0.,0.));
#1056=DIRECTION('',(0.,-0.819151838751026,-0.57357672988957));
#1057=DIRECTION('center_axis',(-1.,0.,0.));
#1058=DIRECTION('ref_axis',(0.,0.573576729889566,-0.819151838751029));
#1059=DIRECTION('',(0.,0.573576729889565,-0.819151838751029));
#1060=DIRECTION('',(0.,-0.573576729889565,0.819151838751029));
#1061=DIRECTION('center_axis',(1.,0.,0.));
#1062=DIRECTION('ref_axis',(0.,-1.,0.));
#1063=DIRECTION('center_axis',(1.,0.,0.));
#1064=DIRECTION('ref_axis',(0.,-1.,0.));
#1065=DIRECTION('',(1.,0.,0.));
#1066=DIRECTION('center_axis',(-1.,0.,0.));
#1067=DIRECTION('ref_axis',(0.,-1.,0.));
#1068=DIRECTION('center_axis',(1.,0.,0.));
#1069=DIRECTION('ref_axis',(0.,-1.,0.));
#1070=DIRECTION('center_axis',(1.,0.,0.));
#1071=DIRECTION('ref_axis',(0.,-1.,0.));
#1072=DIRECTION('',(1.,0.,0.));
#1073=DIRECTION('center_axis',(-1.,0.,0.));
#1074=DIRECTION('ref_axis',(0.,-1.,0.));
#1075=DIRECTION('center_axis',(-1.,0.,0.));
#1076=DIRECTION('ref_axis',(0.,-1.,0.));
#1077=DIRECTION('center_axis',(1.,0.,0.));
#1078=DIRECTION('ref_axis',(0.,-1.,0.));
#1079=DIRECTION('center_axis',(-1.,0.,0.));
#1080=DIRECTION('ref_axis',(0.,-1.,0.));
#1081=DIRECTION('center_axis',(1.,0.,0.));
#1082=DIRECTION('ref_axis',(0.,-1.,0.));
#1083=DIRECTION('center_axis',(-1.,0.,0.));
#1084=DIRECTION('ref_axis',(0.,0.819151838751026,0.57357672988957));
#1085=DIRECTION('',(-1.,0.,0.));
#1086=DIRECTION('center_axis',(-1.,0.,0.));
#1087=DIRECTION('ref_axis',(0.,0.,1.));
#1088=DIRECTION('',(1.,0.,0.));
#1089=DIRECTION('center_axis',(-1.,0.,0.));
#1090=DIRECTION('ref_axis',(0.,0.984807784125119,-0.173648001216752));
#1091=DIRECTION('center_axis',(0.,0.573576436351045,-0.819152044288992));
#1092=DIRECTION('ref_axis',(0.,-0.819152044288992,-0.573576436351045));
#1093=DIRECTION('',(0.,-0.819152044288992,-0.573576436351045));
#1094=DIRECTION('',(-1.,0.,0.));
#1095=DIRECTION('',(0.,-0.819152044288992,-0.573576436351045));
#1096=DIRECTION('center_axis',(0.,0.819151838751029,0.573576729889566));
#1097=DIRECTION('ref_axis',(0.,0.573576729889566,-0.819151838751029));
#1098=DIRECTION('',(0.,0.573576729889566,-0.819151838751029));
#1099=DIRECTION('',(-1.,0.,0.));
#1100=DIRECTION('',(0.,0.573576729889566,-0.819151838751029));
#1101=DIRECTION('',(-1.,0.,0.));
#1102=DIRECTION('center_axis',(-1.,0.,0.));
#1103=DIRECTION('ref_axis',(0.,0.573576436351044,-0.819152044288993));
#1104=DIRECTION('',(-1.,0.,0.));
#1105=DIRECTION('center_axis',(-1.,0.,0.));
#1106=DIRECTION('ref_axis',(0.,0.,1.));
#1107=DIRECTION('center_axis',(-1.,0.,0.));
#1108=DIRECTION('ref_axis',(0.,-0.173648001216751,-0.984807784125119));
#1109=DIRECTION('center_axis',(0.,-0.819151838751029,-0.573576729889565));
#1110=DIRECTION('ref_axis',(0.,-0.573576729889565,0.819151838751029));
#1111=DIRECTION('',(-1.,0.,0.));
#1112=DIRECTION('',(0.,-0.573576729889565,0.819151838751029));
#1113=DIRECTION('',(0.,-0.573576729889565,0.819151838751029));
#1114=DIRECTION('center_axis',(-1.,0.,0.));
#1115=DIRECTION('ref_axis',(0.,-0.819151838751028,-0.573576729889567));
#1116=DIRECTION('',(-1.,0.,0.));
#1117=DIRECTION('center_axis',(-1.,0.,0.));
#1118=DIRECTION('ref_axis',(0.,0.,1.));
#1119=DIRECTION('center_axis',(-1.,0.,0.));
#1120=DIRECTION('ref_axis',(0.,-0.984807815237998,0.17364782476657));
#1121=DIRECTION('center_axis',(0.,-0.573576729889566,0.819151838751029));
#1122=DIRECTION('ref_axis',(0.,0.819151838751029,0.573576729889566));
#1123=DIRECTION('',(-1.,0.,0.));
#1124=DIRECTION('',(0.,0.819151838751029,0.573576729889566));
#1125=DIRECTION('',(1.,0.,0.));
#1126=DIRECTION('',(0.,0.819151838751029,0.573576729889566));
#1127=DIRECTION('center_axis',(-1.,0.,0.));
#1128=DIRECTION('ref_axis',(0.,-0.573576729889566,0.819151838751029));
#1129=DIRECTION('center_axis',(-1.,0.,0.));
#1130=DIRECTION('ref_axis',(0.,0.173647824766562,0.984807815238));
#1131=DIRECTION('center_axis',(-1.,0.,0.));
#1132=DIRECTION('ref_axis',(0.,0.,1.));
#1133=DIRECTION('center_axis',(1.,0.,0.));
#1134=DIRECTION('ref_axis',(0.,0.,-1.));
#1135=DIRECTION('center_axis',(0.,0.573576729889561,-0.819151838751032));
#1136=DIRECTION('ref_axis',(0.,-0.819151838751032,-0.573576729889561));
#1137=DIRECTION('center_axis',(0.,-0.819151838751029,-0.573576729889566));
#1138=DIRECTION('ref_axis',(-0.707106781186548,-0.405579995235718,0.57922782000228));
#1139=DIRECTION('',(0.,-0.819151838751029,-0.573576729889566));
#1140=DIRECTION('center_axis',(0.,0.819151838751028,0.573576729889568));
#1141=DIRECTION('ref_axis',(-1.,0.,0.));
#1142=DIRECTION('center_axis',(1.,0.,0.));
#1143=DIRECTION('ref_axis',(0.,0.173647824766566,0.984807815237999));
#1144=DIRECTION('center_axis',(1.,0.,0.));
#1145=DIRECTION('ref_axis',(0.,0.173647824766562,0.984807815237999));
#1146=DIRECTION('center_axis',(0.,0.573576729889565,-0.81915183875103));
#1147=DIRECTION('ref_axis',(-1.,0.,0.));
#1148=DIRECTION('center_axis',(0.,-0.573576729889566,0.819151838751029));
#1149=DIRECTION('ref_axis',(-0.707106781186548,0.57922782000228,0.405579995235718));
#1150=DIRECTION('',(0.,-0.573576729889566,0.819151838751029));
#1151=DIRECTION('center_axis',(1.,0.,0.));
#1152=DIRECTION('ref_axis',(0.,0.,-1.));
#1153=DIRECTION('center_axis',(0.,-0.819152044288991,-0.573576436351047));
#1154=DIRECTION('ref_axis',(-1.,0.,0.));
#1155=DIRECTION('center_axis',(0.,0.819152044288992,0.573576436351045));
#1156=DIRECTION('ref_axis',(-0.70710678118655,0.405579787672641,-0.579227965339565));
#1157=DIRECTION('',(0.,0.819152044288992,0.573576436351045));
#1158=DIRECTION('center_axis',(0.,-0.819152044288996,-0.573576436351041));
#1159=DIRECTION('ref_axis',(-1.,0.,0.));
#1160=DIRECTION('center_axis',(1.,0.,0.));
#1161=DIRECTION('ref_axis',(0.,0.,-1.));
#1162=DIRECTION('center_axis',(1.,0.,0.));
#1163=DIRECTION('ref_axis',(0.,-0.173648001216751,-0.984807784125119));
#1164=DIRECTION('center_axis',(0.,-0.573576729889564,0.819151838751031));
#1165=DIRECTION('ref_axis',(-1.,0.,0.));
#1166=DIRECTION('center_axis',(0.,0.573576729889565,-0.819151838751029));
#1167=DIRECTION('ref_axis',(-0.707106781186544,-0.579227820002287,-0.405579995235715));
#1168=DIRECTION('',(0.,0.573576729889566,-0.819151838751029));
#1169=DIRECTION('center_axis',(-1.,0.,0.));
#1170=DIRECTION('ref_axis',(0.,-1.,0.));
#1171=DIRECTION('center_axis',(1.,0.,0.));
#1172=DIRECTION('ref_axis',(0.,-1.,0.));
#1173=DIRECTION('center_axis',(1.,0.,0.));
#1174=DIRECTION('ref_axis',(0.,-1.,0.));
#1175=DIRECTION('center_axis',(-1.,0.,0.));
#1176=DIRECTION('ref_axis',(0.,-1.,0.));
#1177=DIRECTION('center_axis',(1.,0.,0.));
#1178=DIRECTION('ref_axis',(0.,0.,1.));
#1179=DIRECTION('center_axis',(-1.,0.,0.));
#1180=DIRECTION('ref_axis',(0.,0.965533535673422,-0.260278680436913));
#1181=DIRECTION('center_axis',(1.,0.,0.));
#1182=DIRECTION('ref_axis',(0.,0.,1.));
#1183=DIRECTION('center_axis',(-1.,0.,0.));
#1184=DIRECTION('ref_axis',(0.,-1.,0.));
#1185=DIRECTION('',(-1.,0.,0.));
#1186=DIRECTION('center_axis',(1.,0.,0.));
#1187=DIRECTION('ref_axis',(0.,-1.,0.));
#1188=DIRECTION('center_axis',(1.,0.,0.));
#1189=DIRECTION('ref_axis',(0.,-1.,0.));
#1190=DIRECTION('center_axis',(-1.,0.,0.));
#1191=DIRECTION('ref_axis',(0.,-1.,0.));
#1192=DIRECTION('',(-1.,0.,0.));
#1193=DIRECTION('center_axis',(1.,0.,0.));
#1194=DIRECTION('ref_axis',(0.,-1.,0.));
#1195=DIRECTION('center_axis',(-1.,0.,0.));
#1196=DIRECTION('ref_axis',(0.,-1.,0.));
#1197=DIRECTION('',(0.,-0.819151838751029,-0.573576729889566));
#1198=DIRECTION('center_axis',(1.,0.,0.));
#1199=DIRECTION('ref_axis',(0.,0.173647824766562,0.984807815237999));
#1200=DIRECTION('',(0.,-0.573576729889566,0.819151838751029));
#1201=DIRECTION('center_axis',(1.,0.,0.));
#1202=DIRECTION('ref_axis',(0.,0.984807784125119,-0.173648001216752));
#1203=DIRECTION('',(0.,0.819152044288992,0.573576436351045));
#1204=DIRECTION('center_axis',(1.,0.,0.));
#1205=DIRECTION('ref_axis',(0.,-0.173648001216751,-0.984807784125119));
#1206=DIRECTION('',(0.,0.573576729889565,-0.819151838751029));
#1207=DIRECTION('center_axis',(1.,0.,0.));
#1208=DIRECTION('ref_axis',(0.,-0.984807815237998,0.17364782476657));
#1209=DIRECTION('center_axis',(0.,0.573576729889565,-0.819151838751029));
#1210=DIRECTION('ref_axis',(-0.707106781186544,-0.579227820002287,-0.405579995235715));
#1211=DIRECTION('center_axis',(0.,0.573576729889561,-0.819151838751032));
#1212=DIRECTION('ref_axis',(0.,-0.819151838751032,-0.573576729889561));
#1213=DIRECTION('center_axis',(0.,-0.573576729889564,0.819151838751031));
#1214=DIRECTION('ref_axis',(-1.,0.,0.));
#1215=DIRECTION('',(0.,-0.573576729889565,0.819151838751029));
#1216=DIRECTION('center_axis',(0.,-0.819152044288996,-0.573576436351041));
#1217=DIRECTION('ref_axis',(-1.,0.,0.));
#1218=DIRECTION('center_axis',(-1.,0.,0.));
#1219=DIRECTION('ref_axis',(0.,-0.173648001216751,-0.984807784125119));
#1220=DIRECTION('center_axis',(0.,0.819152044288992,0.573576436351045));
#1221=DIRECTION('ref_axis',(-0.70710678118655,0.405579787672641,-0.579227965339565));
#1222=DIRECTION('center_axis',(0.,-0.819152044288991,-0.573576436351047));
#1223=DIRECTION('ref_axis',(-1.,0.,0.));
#1224=DIRECTION('',(0.,-0.819152044288992,-0.573576436351045));
#1225=DIRECTION('center_axis',(0.,0.573576729889568,-0.819151838751028));
#1226=DIRECTION('ref_axis',(-1.,0.,0.));
#1227=DIRECTION('center_axis',(-1.,0.,0.));
#1228=DIRECTION('ref_axis',(0.,0.984807784125119,-0.173648001216752));
#1229=DIRECTION('center_axis',(0.,-0.573576729889566,0.819151838751029));
#1230=DIRECTION('ref_axis',(-0.707106781186548,0.57922782000228,0.405579995235718));
#1231=DIRECTION('center_axis',(0.,0.573576729889565,-0.81915183875103));
#1232=DIRECTION('ref_axis',(-1.,0.,0.));
#1233=DIRECTION('',(0.,0.573576729889566,-0.819151838751029));
#1234=DIRECTION('center_axis',(0.,0.819151838751028,0.573576729889568));
#1235=DIRECTION('ref_axis',(-1.,0.,0.));
#1236=DIRECTION('center_axis',(-1.,0.,0.));
#1237=DIRECTION('ref_axis',(0.,0.173647824766562,0.984807815237999));
#1238=DIRECTION('center_axis',(0.,-0.819151838751029,-0.573576729889566));
#1239=DIRECTION('ref_axis',(-0.707106781186548,-0.405579995235718,0.57922782000228));
#1240=DIRECTION('center_axis',(0.,0.819151838751028,0.573576729889568));
#1241=DIRECTION('ref_axis',(-1.,0.,0.));
#1242=DIRECTION('',(0.,0.819151838751029,0.573576729889566));
#1243=DIRECTION('center_axis',(-1.,0.,0.));
#1244=DIRECTION('ref_axis',(0.,-0.984807815237998,0.17364782476657));
#1245=DIRECTION('center_axis',(-1.,0.,0.));
#1246=DIRECTION('ref_axis',(0.,-0.573576729889566,0.819151838751029));
#1247=DIRECTION('',(-1.,0.,0.));
#1248=DIRECTION('center_axis',(-1.,0.,0.));
#1249=DIRECTION('ref_axis',(0.,-0.573576729889566,0.819151838751029));
#1250=DIRECTION('',(-1.,0.,0.));
#1251=DIRECTION('center_axis',(0.,-0.573576729889566,0.819151838751029));
#1252=DIRECTION('ref_axis',(0.,0.819151838751029,0.573576729889566));
#1253=DIRECTION('',(-1.,0.,0.));
#1254=DIRECTION('',(0.,-0.819151838751029,-0.573576729889566));
#1255=DIRECTION('center_axis',(-1.,0.,0.));
#1256=DIRECTION('ref_axis',(0.,-0.819151838751028,-0.573576729889567));
#1257=DIRECTION('',(-1.,0.,0.));
#1258=DIRECTION('center_axis',(-1.,0.,0.));
#1259=DIRECTION('ref_axis',(0.,-0.819151838751028,-0.573576729889567));
#1260=DIRECTION('center_axis',(0.,-0.819151838751029,-0.573576729889565));
#1261=DIRECTION('ref_axis',(0.,-0.573576729889565,0.819151838751029));
#1262=DIRECTION('',(-1.,0.,0.));
#1263=DIRECTION('',(0.,-0.573576729889565,0.819151838751029));
#1264=DIRECTION('center_axis',(-1.,0.,0.));
#1265=DIRECTION('ref_axis',(0.,0.573576436351044,-0.819152044288993));
#1266=DIRECTION('',(-1.,0.,0.));
#1267=DIRECTION('center_axis',(-1.,0.,0.));
#1268=DIRECTION('ref_axis',(0.,0.573576436351044,-0.819152044288993));
#1269=DIRECTION('center_axis',(0.,0.819151838751029,0.573576729889566));
#1270=DIRECTION('ref_axis',(0.,0.573576729889566,-0.819151838751029));
#1271=DIRECTION('',(0.,-0.573576729889566,0.819151838751029));
#1272=DIRECTION('',(-1.,0.,0.));
#1273=DIRECTION('center_axis',(0.,0.573576436351045,-0.819152044288992));
#1274=DIRECTION('ref_axis',(0.,-0.819152044288992,-0.573576436351045));
#1275=DIRECTION('',(-1.,0.,0.));
#1276=DIRECTION('',(0.,-0.819152044288992,-0.573576436351045));
#1277=DIRECTION('center_axis',(-1.,0.,0.));
#1278=DIRECTION('ref_axis',(0.,0.819151838751026,0.57357672988957));
#1279=DIRECTION('center_axis',(-1.,0.,0.));
#1280=DIRECTION('ref_axis',(0.,0.819151838751026,0.57357672988957));
#1281=DIRECTION('center_axis',(-1.,0.,0.));
#1282=DIRECTION('ref_axis',(0.,-1.,0.));
#1283=CARTESIAN_POINT('',(0.,0.,0.));
#1284=CARTESIAN_POINT('Origin',(-10.0000001490116,126.672126770048,104.56691954734));
#1285=CARTESIAN_POINT('',(-10.0000001490116,125.852974931297,103.99334281745));
#1286=CARTESIAN_POINT('',(-6.00000008940697,125.852974931297,103.99334281745));
#1287=CARTESIAN_POINT('',(-7.65000007450581,125.852974931297,103.99334281745));
#1288=CARTESIAN_POINT('',(-6.00000008940697,126.672126770048,104.56691954734));
#1289=CARTESIAN_POINT('',(-6.00000008940697,126.672126770048,104.56691954734));
#1290=CARTESIAN_POINT('',(-10.0000001490116,126.672126770048,104.56691954734));
#1291=CARTESIAN_POINT('',(-7.65000007450581,126.672126770048,104.56691954734));
#1292=CARTESIAN_POINT('',(-10.0000001490116,126.672126770048,104.56691954734));
#1293=CARTESIAN_POINT('Origin',(-10.0000001490116,118.642052423389,116.035045472949));
#1294=CARTESIAN_POINT('',(-10.0000001490116,119.215629153279,115.215893634198));
#1295=CARTESIAN_POINT('',(-10.0000001490116,118.346297998679,116.457426242941));
#1296=CARTESIAN_POINT('',(-10.0000001490116,118.396477314528,114.642316904308));
#1297=CARTESIAN_POINT('',(-10.0000001490116,119.215629153279,115.215893634198));
#1298=CARTESIAN_POINT('',(-10.0000001490116,117.527146159928,115.883849513052));
#1299=CARTESIAN_POINT('Origin',(-6.00000008940697,119.215629153279,115.215893634198));
#1300=CARTESIAN_POINT('',(-6.00000008940697,118.396477314528,114.642316904308));
#1301=CARTESIAN_POINT('',(-5.65000004470348,118.396477314528,114.642316904308));
#1302=CARTESIAN_POINT('',(-6.00000008940697,119.215629153279,115.215893634198));
#1303=CARTESIAN_POINT('',(-5.65000004470348,119.215629153279,115.215893634198));
#1304=CARTESIAN_POINT('',(-6.00000008940697,119.215629153279,115.215893634198));
#1305=CARTESIAN_POINT('Origin',(-6.00000008940697,127.245703499937,103.747767708589));
#1306=CARTESIAN_POINT('',(-6.00000008940697,121.828971698202,109.740210630872));
#1307=CARTESIAN_POINT('',(-6.00000008940697,122.648123536953,110.313787360761));
#1308=CARTESIAN_POINT('Origin',(-10.0000001490116,126.672126770048,104.56691954734));
#1309=CARTESIAN_POINT('',(-6.00000008940697,88.4852239004998,77.8281419039646));
#1310=CARTESIAN_POINT('',(-10.0000001490116,88.4852239004998,77.8281419039646));
#1311=CARTESIAN_POINT('',(-7.65000007450581,88.4852239004998,77.8281419039646));
#1312=CARTESIAN_POINT('',(-10.0000001490116,87.6660720617488,77.2545651740751));
#1313=CARTESIAN_POINT('',(-10.0000001490116,126.672126770048,104.56691954734));
#1314=CARTESIAN_POINT('',(-6.00000008940697,87.6660720617488,77.2545651740751));
#1315=CARTESIAN_POINT('',(-7.65000007450581,87.6660720617488,77.2545651740751));
#1316=CARTESIAN_POINT('',(-6.00000008940697,126.672126770048,104.56691954734));
#1317=CARTESIAN_POINT('Origin',(-6.00000008940697,127.245703499937,103.747767708589));
#1318=CARTESIAN_POINT('',(-6.00000008940697,80.20957444498,87.9035392609332));
#1319=CARTESIAN_POINT('',(-6.00000008940697,88.517464984939,76.0386509952255));
#1320=CARTESIAN_POINT('',(-6.00000008940697,81.0287262837311,88.4771159908227));
#1321=CARTESIAN_POINT('',(-6.00000008940697,119.215629153279,115.215893634198));
#1322=CARTESIAN_POINT('',(-6.00000008940697,89.3366168236901,76.612227725115));
#1323=CARTESIAN_POINT('Origin',(-6.00000008940697,119.215629153279,115.215893634198));
#1324=CARTESIAN_POINT('',(-10.0000001490116,81.0287262837311,88.4771159908227));
#1325=CARTESIAN_POINT('',(-5.65000004470348,81.0287262837311,88.4771159908227));
#1326=CARTESIAN_POINT('',(-10.0000001490116,80.20957444498,87.9035392609332));
#1327=CARTESIAN_POINT('',(-5.65000004470348,80.20957444498,87.9035392609332));
#1328=CARTESIAN_POINT('',(-10.0000001490116,119.215629153279,115.215893634198));
#1329=CARTESIAN_POINT('Origin',(-10.0000001490116,118.642052423389,116.035045472949));
#1330=CARTESIAN_POINT('',(-10.0000001490116,85.0347912854161,82.7558666072951));
#1331=CARTESIAN_POINT('',(-10.0000001490116,84.2156394466651,82.1822898774055));
#1332=CARTESIAN_POINT('Origin',(-4.8,80.6370479282484,93.1228166067211));
#1333=CARTESIAN_POINT('',(-7.3,81.5620479282484,93.1228166067211));
#1334=CARTESIAN_POINT('Origin',(-7.3,80.6370479282484,93.1228166067211));
#1335=CARTESIAN_POINT('',(-5.3,81.5620479282484,93.1228166067211));
#1336=CARTESIAN_POINT('',(-4.8,81.5620479282484,93.1228166067211));
#1337=CARTESIAN_POINT('Origin',(-5.3,80.6370479282484,93.1228166067211));
#1338=CARTESIAN_POINT('Origin',(-4.8,126.437047928248,99.9228166067211));
#1339=CARTESIAN_POINT('',(-7.3,127.362047928248,99.9228166067211));
#1340=CARTESIAN_POINT('Origin',(-7.3,126.437047928248,99.9228166067211));
#1341=CARTESIAN_POINT('',(-5.3,127.362047928248,99.9228166067211));
#1342=CARTESIAN_POINT('',(-4.8,127.362047928248,99.9228166067211));
#1343=CARTESIAN_POINT('Origin',(-5.3,126.437047928248,99.9228166067211));
#1344=CARTESIAN_POINT('Origin',(-7.3,126.437047928248,99.9228166067211));
#1345=CARTESIAN_POINT('',(-7.3,128.287047928248,99.9228166067211));
#1346=CARTESIAN_POINT('Origin',(-7.3,126.437047928248,99.9228166067211));
#1347=CARTESIAN_POINT('Origin',(-7.3,80.6370479282484,93.1228166067211));
#1348=CARTESIAN_POINT('',(-7.3,82.4870479282484,93.1228166067211));
#1349=CARTESIAN_POINT('Origin',(-7.3,80.6370479282484,93.1228166067211));
#1350=CARTESIAN_POINT('Origin',(-5.3,123.705584424633,100.086348336727));
#1351=CARTESIAN_POINT('',(-5.3,125.999890170037,96.809740159571));
#1352=CARTESIAN_POINT('',(-10.8,125.999890170037,96.809740159571));
#1353=CARTESIAN_POINT('',(-5.3,125.999890170037,96.809740159571));
#1354=CARTESIAN_POINT('',(-5.3,126.337888266157,97.0745421534049));
#1355=CARTESIAN_POINT('Origin',(-5.3,123.705584424633,100.086348336727));
#1356=CARTESIAN_POINT('',(-10.8,126.337888266157,97.0745421534049));
#1357=CARTESIAN_POINT('',(-5.3,126.337888266157,97.0745421534049));
#1358=CARTESIAN_POINT('Origin',(-10.8,123.705584424633,100.086348336727));
#1359=CARTESIAN_POINT('Origin',(-5.3,125.999890170037,96.809740159571));
#1360=CARTESIAN_POINT('',(-10.8,95.185346117399,75.2331641274187));
#1361=CARTESIAN_POINT('',(-10.8,118.296254206376,91.4155961861924));
#1362=CARTESIAN_POINT('',(-5.3,95.185346117399,75.2331641274187));
#1363=CARTESIAN_POINT('',(-5.3,95.185346117399,75.2331641274187));
#1364=CARTESIAN_POINT('',(-5.3,125.999890170037,96.809740159571));
#1365=CARTESIAN_POINT('Origin',(-5.3,117.231391735217,116.306230283044));
#1366=CARTESIAN_POINT('',(-5.3,117.231391735217,116.306230283044));
#1367=CARTESIAN_POINT('',(-5.3,126.717266646538,102.759007268493));
#1368=CARTESIAN_POINT('',(-5.3,126.982191779637,102.380655256285));
#1369=CARTESIAN_POINT('',(-10.8,117.231391735217,116.306230283044));
#1370=CARTESIAN_POINT('',(-5.3,117.231391735217,116.306230283044));
#1371=CARTESIAN_POINT('',(-10.8,126.717266646538,102.759007268493));
#1372=CARTESIAN_POINT('',(-10.8,119.669090449285,112.824838378713));
#1373=CARTESIAN_POINT('',(-5.3,126.717266646538,102.759007268493));
#1374=CARTESIAN_POINT('Origin',(-5.3,92.8910403719949,78.5097723045747));
#1375=CARTESIAN_POINT('',(-5.3,89.6144330169907,76.2154653850165));
#1376=CARTESIAN_POINT('',(-10.8,89.6144330169907,76.2154653850165));
#1377=CARTESIAN_POINT('',(-5.3,89.6144330169907,76.2154653850165));
#1378=CARTESIAN_POINT('Origin',(-5.3,92.8910403719949,78.5097723045747));
#1379=CARTESIAN_POINT('Origin',(-10.8,92.8910403719949,78.5097723045747));
#1380=CARTESIAN_POINT('Origin',(-5.3,89.6144330169907,76.2154653850165));
#1381=CARTESIAN_POINT('',(-5.3,79.8636407044202,90.1410293695586));
#1382=CARTESIAN_POINT('',(-10.8,79.8636407044202,90.1410293695586));
#1383=CARTESIAN_POINT('',(-5.3,79.8636407044202,90.1410293695586));
#1384=CARTESIAN_POINT('',(-5.3,89.6144330169907,76.2154653850165));
#1385=CARTESIAN_POINT('',(-10.8,87.1767355747739,79.6968554729565));
#1386=CARTESIAN_POINT('Origin',(-5.3,83.1402480594243,92.4353362891168));
#1387=CARTESIAN_POINT('',(-5.3,79.6729833913106,90.4408248899891));
#1388=CARTESIAN_POINT('',(-10.8,79.6729833913106,90.4408248899891));
#1389=CARTESIAN_POINT('',(-5.3,79.6729833913106,90.4408248899891));
#1390=CARTESIAN_POINT('Origin',(-5.3,83.1402480594243,92.4353362891168));
#1391=CARTESIAN_POINT('Origin',(-10.8,83.1402480594243,92.4353362891168));
#1392=CARTESIAN_POINT('Origin',(-5.3,80.845941139866,95.711943644121));
#1393=CARTESIAN_POINT('',(-5.3,111.660477460655,117.28853071849));
#1394=CARTESIAN_POINT('',(-10.8,111.660477460655,117.28853071849));
#1395=CARTESIAN_POINT('',(-5.3,111.660477460655,117.28853071849));
#1396=CARTESIAN_POINT('',(-5.3,81.1516153258536,95.925979176627));
#1397=CARTESIAN_POINT('',(-5.3,111.660477460655,117.28853071849));
#1398=CARTESIAN_POINT('',(-10.8,81.1516153258536,95.925979176627));
#1399=CARTESIAN_POINT('',(-5.3,81.1516153258536,95.925979176627));
#1400=CARTESIAN_POINT('',(-10.8,88.5495765170997,101.106091320909));
#1401=CARTESIAN_POINT('Origin',(-5.3,113.954784380213,114.011923363486));
#1402=CARTESIAN_POINT('Origin',(-10.8,113.954784380213,114.011923363486));
#1403=CARTESIAN_POINT('Origin',(-5.3,113.954784380213,114.011923363486));
#1404=CARTESIAN_POINT('Origin',(-10.8,83.1402480594243,92.4353362891168));
#1405=CARTESIAN_POINT('',(-11.7162645095337,80.1195211191204,90.3201989014616));
#1406=CARTESIAN_POINT('Origin',(-10.8,81.0923684625467,91.0013944643929));
#1407=CARTESIAN_POINT('Ctrl Pts',(-10.8,79.6729833913106,90.4408248899891));
#1408=CARTESIAN_POINT('Ctrl Pts',(-10.8841717117871,79.6729833913106,90.4408248899891));
#1409=CARTESIAN_POINT('Ctrl Pts',(-10.9672577029735,79.683269385407,90.4370672420932));
#1410=CARTESIAN_POINT('Ctrl Pts',(-11.1322864473574,79.7235476789842,90.4230975430045));
#1411=CARTESIAN_POINT('Ctrl Pts',(-11.212571337998,79.7536541213344,90.4128896555215));
#1412=CARTESIAN_POINT('Ctrl Pts',(-11.4448034907776,79.86917329399,90.3770113678104));
#1413=CARTESIAN_POINT('Ctrl Pts',(-11.5884633016324,79.9812784143756,90.3457265735867));
#1414=CARTESIAN_POINT('Ctrl Pts',(-11.7162645095337,80.1195211191204,90.3201989014616));
#1415=CARTESIAN_POINT('Origin',(-10.8,89.4099416119341,99.8773635627822));
#1416=CARTESIAN_POINT('',(-12.3,112.520842555489,116.059802960364));
#1417=CARTESIAN_POINT('',(-12.3,82.6478623494352,95.1425010780054));
#1418=CARTESIAN_POINT('',(-12.3,89.4099416119341,99.8773635627822));
#1419=CARTESIAN_POINT('Origin',(-10.8,112.520842555489,116.059802960364));
#1420=CARTESIAN_POINT('Ctrl Pts',(-12.3,82.6478623494352,95.1425010780054));
#1421=CARTESIAN_POINT('Ctrl Pts',(-12.3,82.5028233813651,95.2869030639472));
#1422=CARTESIAN_POINT('Ctrl Pts',(-12.2573448190368,82.333648965336,95.4216506487656));
#1423=CARTESIAN_POINT('Ctrl Pts',(-12.0966503682087,81.9933656975416,95.6374726458595));
#1424=CARTESIAN_POINT('Ctrl Pts',(-11.9789525900871,81.8225227382693,95.719219809842));
#1425=CARTESIAN_POINT('Ctrl Pts',(-11.7181245124999,81.5390625502023,95.830414590114));
#1426=CARTESIAN_POINT('Ctrl Pts',(-11.557251100079,81.4033954853214,95.8696776557142));
#1427=CARTESIAN_POINT('Ctrl Pts',(-11.1967738943378,81.2086464921986,95.916704620559));
#1428=CARTESIAN_POINT('Ctrl Pts',(-10.9962643151177,81.1516153258536,95.925979176627));
#1429=CARTESIAN_POINT('Ctrl Pts',(-10.8,81.1516153258536,95.925979176627));
#1430=CARTESIAN_POINT('Origin',(-10.8,113.954784380213,114.011923363486));
#1431=CARTESIAN_POINT('',(-12.3,116.00266397709,115.44586518821));
#1432=CARTESIAN_POINT('Origin',(-12.3,113.954784380213,114.011923363486));
#1433=CARTESIAN_POINT('Origin',(-10.8,116.00266397709,115.44586518821));
#1434=CARTESIAN_POINT('Origin',(-10.8,118.440362691159,111.964473283879));
#1435=CARTESIAN_POINT('',(-12.3,125.107056040105,102.443455727554));
#1436=CARTESIAN_POINT('',(-12.3,118.440362691159,111.964473283879));
#1437=CARTESIAN_POINT('Ctrl Pts',(-10.8,126.717266646538,102.759007268493));
#1438=CARTESIAN_POINT('Ctrl Pts',(-10.9949836715981,126.717266646538,102.759007268493));
#1439=CARTESIAN_POINT('Ctrl Pts',(-11.196289246175,126.664013007585,102.765378424895));
#1440=CARTESIAN_POINT('Ctrl Pts',(-11.5595398153729,126.472692681919,102.774202107906));
#1441=CARTESIAN_POINT('Ctrl Pts',(-11.722240968422,126.335982882419,102.77477803591));
#1442=CARTESIAN_POINT('Ctrl Pts',(-11.983412598527,126.04075488803,102.749116286016));
#1443=CARTESIAN_POINT('Ctrl Pts',(-12.1000640266257,125.859040306546,102.720495824734));
#1444=CARTESIAN_POINT('Ctrl Pts',(-12.258503878049,125.480599385089,102.614713353946));
#1445=CARTESIAN_POINT('Ctrl Pts',(-12.3,125.283961595801,102.536798305672));
#1446=CARTESIAN_POINT('Ctrl Pts',(-12.3,125.107056040105,102.443455727554));
#1447=CARTESIAN_POINT('Origin',(-10.8,123.705584424633,100.086348336727));
#1448=CARTESIAN_POINT('',(-11.8422866892685,125.758254319351,97.1548319180858));
#1449=CARTESIAN_POINT('Ctrl Pts',(-11.8422866892683,125.758254319351,97.1548319180857));
#1450=CARTESIAN_POINT('Ctrl Pts',(-11.7546300065279,125.867616134167,97.1280130916452));
#1451=CARTESIAN_POINT('Ctrl Pts',(-11.6549311075497,125.969754923663,97.1099921435143));
#1452=CARTESIAN_POINT('Ctrl Pts',(-11.4373603624166,126.141267435905,97.0869478142889));
#1453=CARTESIAN_POINT('Ctrl Pts',(-11.3204379097949,126.211895623103,97.0812914253717));
#1454=CARTESIAN_POINT('Ctrl Pts',(-11.0679396799557,126.310928218185,97.0751759464428));
#1455=CARTESIAN_POINT('Ctrl Pts',(-10.9357636368346,126.337888266157,97.0745421534049));
#1456=CARTESIAN_POINT('Ctrl Pts',(-10.8,126.337888266157,97.0745421534049));
#1457=CARTESIAN_POINT('Origin',(-10.8,125.13952551551,98.0384682260045));
#1458=CARTESIAN_POINT('Origin',(-10.8,117.43588955185,92.6443242526259));
#1459=CARTESIAN_POINT('',(-12.3,94.3249814628725,76.4618921938522));
#1460=CARTESIAN_POINT('',(-12.3,124.654650598782,97.6989551542223));
#1461=CARTESIAN_POINT('',(-12.3,117.43588955185,92.6443242526259));
#1462=CARTESIAN_POINT('Origin',(-10.8,94.3249814628725,76.4618921938522));
#1463=CARTESIAN_POINT('Ctrl Pts',(-12.3,124.654650598782,97.6989551542223));
#1464=CARTESIAN_POINT('Ctrl Pts',(-12.3,124.824955362551,97.5624580015794));
#1465=CARTESIAN_POINT('Ctrl Pts',(-12.2541746757348,125.020306374833,97.4404714018603));
#1466=CARTESIAN_POINT('Ctrl Pts',(-12.0894881206036,125.40533930034,97.2578199804916));
#1467=CARTESIAN_POINT('Ctrl Pts',(-11.9731790381445,125.594951027792,97.1948788269713));
#1468=CARTESIAN_POINT('Ctrl Pts',(-11.8422866892685,125.758254319351,97.1548319180858));
#1469=CARTESIAN_POINT('Origin',(-10.8,92.8910403719949,78.5097723045747));
#1470=CARTESIAN_POINT('',(-12.3,90.8431607751173,77.0758304798508));
#1471=CARTESIAN_POINT('Origin',(-12.3,92.8910403719949,78.5097723045747));
#1472=CARTESIAN_POINT('Origin',(-10.8,90.8431607751173,77.0758304798508));
#1473=CARTESIAN_POINT('Origin',(-10.8,88.4054633329005,80.5572205677909));
#1474=CARTESIAN_POINT('',(-12.3,81.5072300857821,90.4089111159735));
#1475=CARTESIAN_POINT('Ctrl Pts',(-11.7162645098678,80.1195211194818,90.3201989013949));
#1476=CARTESIAN_POINT('Ctrl Pts',(-11.7558721479939,80.1623647444805,90.3122874675666));
#1477=CARTESIAN_POINT('Ctrl Pts',(-11.7932678435534,80.206438464187,90.3051778427345));
#1478=CARTESIAN_POINT('Ctrl Pts',(-11.9640393414733,80.4235030848172,90.2754929850974));
#1479=CARTESIAN_POINT('Ctrl Pts',(-12.0853432715974,80.6314840892117,90.2644263474014));
#1480=CARTESIAN_POINT('Ctrl Pts',(-12.2535665076249,81.0681027245531,90.2971099768874));
#1481=CARTESIAN_POINT('Ctrl Pts',(-12.3,81.2968818757655,90.3414654146218));
#1482=CARTESIAN_POINT('Ctrl Pts',(-12.3,81.5072300857821,90.4089111159735));
#1483=CARTESIAN_POINT('',(-12.3,88.4054633329005,80.5572205677909));
#1484=CARTESIAN_POINT('Origin',(-12.3,103.422916242029,96.2608478340303));
#1485=CARTESIAN_POINT('Origin',(-12.3,126.437047928248,99.9228166067211));
#1486=CARTESIAN_POINT('Origin',(-12.3,80.6370479282484,93.1228166067211));
#1487=CARTESIAN_POINT('Origin',(-5.3,126.437047928248,99.9228166067211));
#1488=CARTESIAN_POINT('Origin',(-5.3,126.437047928248,99.9228166067211));
#1489=CARTESIAN_POINT('Origin',(-5.3,80.6370479282484,93.1228166067211));
#1490=CARTESIAN_POINT('Origin',(-5.3,80.6370479282484,93.1228166067211));
#1491=CARTESIAN_POINT('Origin',(-5.3,80.6370479282484,93.1228166067211));
#1492=CARTESIAN_POINT('',(-13.3,82.4870479282484,93.1228166067211));
#1493=CARTESIAN_POINT('',(-5.3,82.4870479282484,93.1228166067211));
#1494=CARTESIAN_POINT('',(-13.3,80.916000015574,91.2939684082703));
#1495=CARTESIAN_POINT('Origin',(-13.3,80.6370479282484,93.1228166067211));
#1496=CARTESIAN_POINT('',(-13.2790085090353,81.5208742694755,94.7480399755394));
#1497=CARTESIAN_POINT('Ctrl Pts',(-13.2790085090353,81.5208742694755,94.7480399755394));
#1498=CARTESIAN_POINT('Ctrl Pts',(-13.2683114462381,81.4403817614552,94.7918132809352));
#1499=CARTESIAN_POINT('Ctrl Pts',(-13.2537956880432,81.3569163341635,94.8294510089325));
#1500=CARTESIAN_POINT('Ctrl Pts',(-13.1942357062537,81.0698615948125,94.9342088638323));
#1501=CARTESIAN_POINT('Ctrl Pts',(-13.1353827850688,80.8603610098849,94.9710182362378));
#1502=CARTESIAN_POINT('Ctrl Pts',(-12.9817638842428,80.3921318757686,94.9749238912815));
#1503=CARTESIAN_POINT('Ctrl Pts',(-12.8822025696486,80.1367802482954,94.9221480972515));
#1504=CARTESIAN_POINT('Ctrl Pts',(-12.6932194406683,79.6876336499297,94.7277327328828));
#1505=CARTESIAN_POINT('Ctrl Pts',(-12.6034181498315,79.4903132358977,94.5940337288086));
#1506=CARTESIAN_POINT('Ctrl Pts',(-12.4687166864733,79.183073829419,94.283703531787));
#1507=CARTESIAN_POINT('Ctrl Pts',(-12.4193961073083,79.0646102143328,94.1188956503312));
#1508=CARTESIAN_POINT('Ctrl Pts',(-12.3662809603433,78.8870883404505,93.7551464105806));
#1509=CARTESIAN_POINT('Ctrl Pts',(-12.3624450770212,78.8293539389359,93.5641409030105));
#1510=CARTESIAN_POINT('Ctrl Pts',(-12.4034171210622,78.7740497797989,93.1467417346645));
#1511=CARTESIAN_POINT('Ctrl Pts',(-12.4520609342697,78.7850005147693,92.9288780221141));
#1512=CARTESIAN_POINT('Ctrl Pts',(-12.5919744547043,78.8868547210368,92.4706960364973));
#1513=CARTESIAN_POINT('Ctrl Pts',(-12.6885007308962,78.993412501626,92.2374257961865));
#1514=CARTESIAN_POINT('Ctrl Pts',(-12.877677553606,79.2815693344794,91.8413067659186));
#1515=CARTESIAN_POINT('Ctrl Pts',(-12.970630868954,79.4594167314426,91.6755209962686));
#1516=CARTESIAN_POINT('Ctrl Pts',(-13.1221710173506,79.844493511383,91.4381033380184));
#1517=CARTESIAN_POINT('Ctrl Pts',(-13.1834174924911,80.0431442242158,91.3574620234922));
#1518=CARTESIAN_POINT('Ctrl Pts',(-13.2658208689883,80.4353664244542,91.2745822964452));
#1519=CARTESIAN_POINT('Ctrl Pts',(-13.2909360509487,80.6228336391304,91.2633103616598));
#1520=CARTESIAN_POINT('Ctrl Pts',(-13.2993227374827,80.8457382033986,91.2842809656195));
#1521=CARTESIAN_POINT('Ctrl Pts',(-13.3,80.8809763872069,91.2886262949954));
#1522=CARTESIAN_POINT('Ctrl Pts',(-13.3,80.916000015574,91.2939684082703));
#1523=CARTESIAN_POINT('',(-13.3,81.8084313604696,94.5547247234373));
#1524=CARTESIAN_POINT('Ctrl Pts',(-13.3,81.8084313604696,94.5547247234373));
#1525=CARTESIAN_POINT('Ctrl Pts',(-13.3,81.7543020755495,94.5990056006899));
#1526=CARTESIAN_POINT('Ctrl Pts',(-13.2972634456576,81.6974092637178,94.6403983208399));
#1527=CARTESIAN_POINT('Ctrl Pts',(-13.2887160959102,81.6000792776908,94.7030541499071));
#1528=CARTESIAN_POINT('Ctrl Pts',(-13.2843180405788,81.5608270601111,94.7263129136187));
#1529=CARTESIAN_POINT('Ctrl Pts',(-13.2790085090353,81.5208742694755,94.7480399755394));
#1530=CARTESIAN_POINT('Origin',(-13.3,80.6370479282484,93.1228166067211));
#1531=CARTESIAN_POINT('Origin',(-5.3,126.437047928248,99.9228166067211));
#1532=CARTESIAN_POINT('',(-12.1803460623678,128.287047928248,99.9228166067209));
#1533=CARTESIAN_POINT('',(-5.3,128.287047928248,99.9228166067211));
#1534=CARTESIAN_POINT('',(-13.3,125.488894389351,98.3342622744186));
#1535=CARTESIAN_POINT('Ctrl Pts',(-13.3,125.488894389351,98.3342622744186));
#1536=CARTESIAN_POINT('Ctrl Pts',(-13.3,125.603108901026,98.2660915538865));
#1537=CARTESIAN_POINT('Ctrl Pts',(-13.2899972035761,125.723860531816,98.2107361595593));
#1538=CARTESIAN_POINT('Ctrl Pts',(-13.2400761087721,126.0627565249,98.0970700659446));
#1539=CARTESIAN_POINT('Ctrl Pts',(-13.1850057761313,126.282896108536,98.0667469838344));
#1540=CARTESIAN_POINT('Ctrl Pts',(-13.0327798641072,126.755411984712,98.0822863149248));
#1541=CARTESIAN_POINT('Ctrl Pts',(-12.9305035029145,127.001788199773,98.1440767326155));
#1542=CARTESIAN_POINT('Ctrl Pts',(-12.709300644411,127.457021378269,98.3580822957499));
#1543=CARTESIAN_POINT('Ctrl Pts',(-12.589410114894,127.663226071556,98.5142437326569));
#1544=CARTESIAN_POINT('Ctrl Pts',(-12.3954408893307,127.964671284532,98.8596982330307));
#1545=CARTESIAN_POINT('Ctrl Pts',(-12.3165173108384,128.074815341551,99.0370843365713));
#1546=CARTESIAN_POINT('Ctrl Pts',(-12.2135219452407,128.21923230455,99.396073340353));
#1547=CARTESIAN_POINT('Ctrl Pts',(-12.1838430539617,128.262031174288,99.5697312828766));
#1548=CARTESIAN_POINT('Ctrl Pts',(-12.1765386496525,128.284391914563,99.8078639590691));
#1549=CARTESIAN_POINT('Ctrl Pts',(-12.1772612613942,128.287047928248,99.8655479916367));
#1550=CARTESIAN_POINT('Ctrl Pts',(-12.1803460623678,128.287047928248,99.9228166067207));
#1551=CARTESIAN_POINT('',(-13.3,125.687674216061,101.614247669308));
#1552=CARTESIAN_POINT('Origin',(-13.3,126.437047928248,99.9228166067211));
#1553=CARTESIAN_POINT('',(-13.2721879886999,126.058081191532,101.733585562845));
#1554=CARTESIAN_POINT('Ctrl Pts',(-13.2721879886999,126.058081191532,101.733585562845));
#1555=CARTESIAN_POINT('Ctrl Pts',(-13.2733246713451,126.050035266459,101.731901671613));
#1556=CARTESIAN_POINT('Ctrl Pts',(-13.2744295383492,126.04199791453,101.73016359498));
#1557=CARTESIAN_POINT('Ctrl Pts',(-13.2913766020797,125.91513579098,101.701842525702));
#1558=CARTESIAN_POINT('Ctrl Pts',(-13.3,125.798291835603,101.663255836429));
#1559=CARTESIAN_POINT('Ctrl Pts',(-13.3,125.687674216061,101.614247669308));
#1560=CARTESIAN_POINT('Ctrl Pts',(-12.1803460623678,128.287047928248,99.9228166067207));
#1561=CARTESIAN_POINT('Ctrl Pts',(-12.1874171075519,128.287047928248,100.054088921646));
#1562=CARTESIAN_POINT('Ctrl Pts',(-12.2069589864271,128.273145471515,100.183175377404));
#1563=CARTESIAN_POINT('Ctrl Pts',(-12.2901764379614,128.197216787673,100.538940502911));
#1564=CARTESIAN_POINT('Ctrl Pts',(-12.3745784476411,128.106241625782,100.7505046768));
#1565=CARTESIAN_POINT('Ctrl Pts',(-12.5758269584855,127.842759028,101.153413618302));
#1566=CARTESIAN_POINT('Ctrl Pts',(-12.6968976570211,127.657074604008,101.337014964181));
#1567=CARTESIAN_POINT('Ctrl Pts',(-12.9111708567143,127.249835062569,101.600298100963));
#1568=CARTESIAN_POINT('Ctrl Pts',(-13.0063646321157,127.034795831134,101.689058774605));
#1569=CARTESIAN_POINT('Ctrl Pts',(-13.1536237850997,126.612239300863,101.775111629961));
#1570=CARTESIAN_POINT('Ctrl Pts',(-13.2094590882156,126.410424727265,101.783744496107));
#1571=CARTESIAN_POINT('Ctrl Pts',(-13.2568268529336,126.158266061914,101.75240088493));
#1572=CARTESIAN_POINT('Ctrl Pts',(-13.2651407579301,126.107964499762,101.744025389789));
#1573=CARTESIAN_POINT('Ctrl Pts',(-13.2721879886999,126.058081191532,101.733585562845));
#1574=CARTESIAN_POINT('Origin',(-13.3,103.422916242029,96.2608478340303));
#1575=CARTESIAN_POINT('',(-13.3,112.520842555489,116.059802960364));
#1576=CARTESIAN_POINT('',(-13.3,89.4099416119341,99.8773635627822));
#1577=CARTESIAN_POINT('',(-13.3,116.00266397709,115.44586518821));
#1578=CARTESIAN_POINT('Origin',(-13.3,113.954784380213,114.011923363486));
#1579=CARTESIAN_POINT('',(-13.3,118.440362691159,111.964473283879));
#1580=CARTESIAN_POINT('',(-13.3,125.13952551551,98.0384682260045));
#1581=CARTESIAN_POINT('Origin',(-13.3,123.705584424633,100.086348336727));
#1582=CARTESIAN_POINT('',(-13.3,94.3249814628725,76.4618921938522));
#1583=CARTESIAN_POINT('',(-13.3,117.43588955185,92.6443242526259));
#1584=CARTESIAN_POINT('',(-13.3,90.8431607751173,77.0758304798508));
#1585=CARTESIAN_POINT('Origin',(-13.3,92.8910403719949,78.5097723045747));
#1586=CARTESIAN_POINT('',(-13.3,81.0923684625467,91.0013944643929));
#1587=CARTESIAN_POINT('',(-13.3,88.4054633329005,80.5572205677909));
#1588=CARTESIAN_POINT('Origin',(-13.3,83.1402480594243,92.4353362891168));
#1589=CARTESIAN_POINT('Origin',(-10.8,88.4054633329005,80.5572205677909));
#1590=CARTESIAN_POINT('',(-10.8,79.0444888656691,89.567452639669));
#1591=CARTESIAN_POINT('Origin',(-10.8,81.0923684625467,91.0013944643929));
#1592=CARTESIAN_POINT('',(-10.8,88.7952811782397,75.6418886551269));
#1593=CARTESIAN_POINT('Origin',(-10.8,90.8431607751173,77.0758304798508));
#1594=CARTESIAN_POINT('',(-10.8,86.3575837360229,79.123278743067));
#1595=CARTESIAN_POINT('Ctrl Pts',(-13.3,90.8431607751173,77.0758304798508));
#1596=CARTESIAN_POINT('Ctrl Pts',(-13.3,92.2771020859963,75.0279516168193));
#1597=CARTESIAN_POINT('Ctrl Pts',(-13.3,94.3249814628725,76.4618921938523));
#1598=CARTESIAN_POINT('Ctrl Pts',(-13.3,88.7952811782397,75.6418886551269));
#1599=CARTESIAN_POINT('Ctrl Pts',(-13.3,91.6631637999976,71.5461309290639));
#1600=CARTESIAN_POINT('Ctrl Pts',(-13.3,95.7589225537501,74.4140120831298));
#1601=CARTESIAN_POINT('Ctrl Pts',(-10.8,88.7952811782397,75.6418886551269));
#1602=CARTESIAN_POINT('Ctrl Pts',(-10.8,91.6631637999976,71.5461309290639));
#1603=CARTESIAN_POINT('Ctrl Pts',(-10.8,95.7589225537501,74.4140120831298));
#1604=CARTESIAN_POINT('',(-10.8,95.7589225537501,74.4140120831298));
#1605=CARTESIAN_POINT('Origin',(-10.8,94.3249814628725,76.4618921938522));
#1606=CARTESIAN_POINT('Origin',(-10.8,92.8910403719949,78.5097723045747));
#1607=CARTESIAN_POINT('Origin',(-10.8,117.43588955185,92.6443242526259));
#1608=CARTESIAN_POINT('',(-10.8,126.573466606388,95.990588115282));
#1609=CARTESIAN_POINT('Origin',(-10.8,125.13952551551,98.0384682260045));
#1610=CARTESIAN_POINT('',(-10.8,118.869830642727,90.5964441419034));
#1611=CARTESIAN_POINT('Ctrl Pts',(-13.3,125.13952551551,98.0384682260045));
#1612=CARTESIAN_POINT('Ctrl Pts',(-13.3,127.187406360079,99.4724098307269));
#1613=CARTESIAN_POINT('Ctrl Pts',(-13.3,125.75346402151,101.520290161451));
#1614=CARTESIAN_POINT('Ctrl Pts',(-13.3,126.573466606388,95.990588115282));
#1615=CARTESIAN_POINT('Ctrl Pts',(-13.3,130.669228295526,98.8584713247269));
#1616=CARTESIAN_POINT('Ctrl Pts',(-13.3,127.801343618388,102.954231986175));
#1617=CARTESIAN_POINT('Ctrl Pts',(-10.8,126.573466606388,95.990588115282));
#1618=CARTESIAN_POINT('Ctrl Pts',(-10.8,130.669228295526,98.8584713247269));
#1619=CARTESIAN_POINT('Ctrl Pts',(-10.8,127.801343618388,102.954231986175));
#1620=CARTESIAN_POINT('',(-10.8,127.801343618388,102.954231986175));
#1621=CARTESIAN_POINT('Origin',(-10.8,125.75346402151,101.520290161451));
#1622=CARTESIAN_POINT('Origin',(-10.8,123.705584424633,100.086348336727));
#1623=CARTESIAN_POINT('Origin',(-10.8,118.440362691159,111.964473283879));
#1624=CARTESIAN_POINT('',(-10.8,118.050543573968,116.879807012934));
#1625=CARTESIAN_POINT('Origin',(-10.8,116.00266397709,115.44586518821));
#1626=CARTESIAN_POINT('',(-10.8,120.488242288036,113.398415108603));
#1627=CARTESIAN_POINT('Ctrl Pts',(-13.3,116.00266397709,115.44586518821));
#1628=CARTESIAN_POINT('Ctrl Pts',(-13.3,114.568722152367,117.493744785087));
#1629=CARTESIAN_POINT('Ctrl Pts',(-13.3,112.520842555489,116.059802960363));
#1630=CARTESIAN_POINT('Ctrl Pts',(-13.3,118.050543573968,116.879807012934));
#1631=CARTESIAN_POINT('Ctrl Pts',(-13.3,115.18265992452,120.975566206689));
#1632=CARTESIAN_POINT('Ctrl Pts',(-13.3,111.086900730765,118.107682557241));
#1633=CARTESIAN_POINT('Ctrl Pts',(-10.8,118.050543573968,116.879807012934));
#1634=CARTESIAN_POINT('Ctrl Pts',(-10.8,115.18265992452,120.975566206689));
#1635=CARTESIAN_POINT('Ctrl Pts',(-10.8,111.086900730765,118.107682557241));
#1636=CARTESIAN_POINT('',(-10.8,111.086900730765,118.107682557241));
#1637=CARTESIAN_POINT('Origin',(-10.8,112.520842555489,116.059802960364));
#1638=CARTESIAN_POINT('Origin',(-10.8,113.954784380213,114.011923363486));
#1639=CARTESIAN_POINT('Origin',(-10.8,89.4099416119341,99.8773635627822));
#1640=CARTESIAN_POINT('',(-10.8,80.2723644099765,96.531095482872));
#1641=CARTESIAN_POINT('Origin',(-10.8,81.7063062347004,94.4832158859944));
#1642=CARTESIAN_POINT('',(-10.8,87.9759997872102,101.92524315966));
#1643=CARTESIAN_POINT('Ctrl Pts',(-13.3,81.7063062347004,94.4832158859944));
#1644=CARTESIAN_POINT('Ctrl Pts',(-13.3,79.6584266378228,93.0492740612705));
#1645=CARTESIAN_POINT('Ctrl Pts',(-13.3,81.0923684625467,91.0013944643929));
#1646=CARTESIAN_POINT('Ctrl Pts',(-13.3,80.2723644099765,96.531095482872));
#1647=CARTESIAN_POINT('Ctrl Pts',(-13.3,76.1766052162212,93.6632118334242));
#1648=CARTESIAN_POINT('Ctrl Pts',(-13.3,79.0444888656692,89.567452639669));
#1649=CARTESIAN_POINT('Ctrl Pts',(-10.8,80.2723644099765,96.531095482872));
#1650=CARTESIAN_POINT('Ctrl Pts',(-10.8,76.1766052162212,93.6632118334242));
#1651=CARTESIAN_POINT('Ctrl Pts',(-10.8,79.0444888656692,89.567452639669));
#1652=CARTESIAN_POINT('Origin',(-10.8,83.1402480594243,92.4353362891168));
#1653=CARTESIAN_POINT('Origin',(-5.3,113.954784380213,114.011923363486));
#1654=CARTESIAN_POINT('',(-5.3,111.086900730765,118.107682557241));
#1655=CARTESIAN_POINT('',(-5.3,111.086900730765,118.107682557241));
#1656=CARTESIAN_POINT('',(-5.3,118.050543573968,116.879807012934));
#1657=CARTESIAN_POINT('Origin',(-5.3,113.954784380213,114.011923363486));
#1658=CARTESIAN_POINT('',(-5.3,118.050543573968,116.879807012934));
#1659=CARTESIAN_POINT('Origin',(-5.3,80.2723644099765,96.531095482872));
#1660=CARTESIAN_POINT('',(-5.3,80.2723644099765,96.531095482872));
#1661=CARTESIAN_POINT('',(-5.3,80.2723644099765,96.531095482872));
#1662=CARTESIAN_POINT('',(-5.3,111.086900730765,118.107682557241));
#1663=CARTESIAN_POINT('Origin',(-5.3,83.1402480594243,92.4353362891168));
#1664=CARTESIAN_POINT('',(-5.3,79.0444888656691,89.567452639669));
#1665=CARTESIAN_POINT('',(-5.3,79.0444888656691,89.567452639669));
#1666=CARTESIAN_POINT('Origin',(-5.3,83.1402480594243,92.4353362891168));
#1667=CARTESIAN_POINT('Origin',(-5.3,88.7952811782397,75.6418886551269));
#1668=CARTESIAN_POINT('',(-5.3,88.7952811782397,75.6418886551269));
#1669=CARTESIAN_POINT('',(-5.3,88.7952811782397,75.6418886551269));
#1670=CARTESIAN_POINT('',(-5.3,88.7952811782397,75.6418886551269));
#1671=CARTESIAN_POINT('Origin',(-5.3,92.8910403719949,78.5097723045747));
#1672=CARTESIAN_POINT('',(-5.3,95.7589225537501,74.4140120831298));
#1673=CARTESIAN_POINT('',(-5.3,95.7589225537501,74.4140120831298));
#1674=CARTESIAN_POINT('Origin',(-5.3,92.8910403719949,78.5097723045747));
#1675=CARTESIAN_POINT('Origin',(-5.3,118.050543573968,116.879807012934));
#1676=CARTESIAN_POINT('',(-5.3,127.801343618388,102.954231986175));
#1677=CARTESIAN_POINT('',(-5.3,127.801343618388,102.954231986175));
#1678=CARTESIAN_POINT('',(-5.3,127.801343618388,102.954231986175));
#1679=CARTESIAN_POINT('Origin',(-5.3,126.573466606388,95.990588115282));
#1680=CARTESIAN_POINT('',(-5.3,126.573466606388,95.990588115282));
#1681=CARTESIAN_POINT('',(-5.3,126.573466606388,95.990588115282));
#1682=CARTESIAN_POINT('',(-5.3,126.573466606388,95.990588115282));
#1683=CARTESIAN_POINT('Origin',(-5.3,123.705584424633,100.086348336727));
#1684=CARTESIAN_POINT('Origin',(-5.3,123.705584424633,100.086348336727));
#1685=CARTESIAN_POINT('Origin',(-5.3,103.422916242029,96.2608478340303));
#1686=UNCERTAINTY_MEASURE_WITH_UNIT(LENGTH_MEASURE(0.01),#1690,
'DISTANCE_ACCURACY_VALUE',
'Maximum model space distance between geometric entities at asserted c
onnectivities');
#1687=UNCERTAINTY_MEASURE_WITH_UNIT(LENGTH_MEASURE(0.01),#1690,
'DISTANCE_ACCURACY_VALUE',
'Maximum model space distance between geometric entities at asserted c
onnectivities');
#1688=(
GEOMETRIC_REPRESENTATION_CONTEXT(3)
GLOBAL_UNCERTAINTY_ASSIGNED_CONTEXT((#1686))
GLOBAL_UNIT_ASSIGNED_CONTEXT((#1690,#1692,#1693))
REPRESENTATION_CONTEXT('','3D')
);
#1689=(
GEOMETRIC_REPRESENTATION_CONTEXT(3)
GLOBAL_UNCERTAINTY_ASSIGNED_CONTEXT((#1687))
GLOBAL_UNIT_ASSIGNED_CONTEXT((#1690,#1692,#1693))
REPRESENTATION_CONTEXT('','3D')
);
#1690=(
LENGTH_UNIT()
NAMED_UNIT(*)
SI_UNIT(.MILLI.,.METRE.)
);
#1691=(
LENGTH_UNIT()
NAMED_UNIT(*)
SI_UNIT($,.METRE.)
);
#1692=(
NAMED_UNIT(*)
PLANE_ANGLE_UNIT()
SI_UNIT($,.RADIAN.)
);
#1693=(
NAMED_UNIT(*)
SI_UNIT($,.STERADIAN.)
SOLID_ANGLE_UNIT()
);
#1694=SHAPE_DEFINITION_REPRESENTATION(#1695,#1696);
#1695=PRODUCT_DEFINITION_SHAPE('',$,#1698);
#1696=SHAPE_REPRESENTATION('',(#922),#1688);
#1697=PRODUCT_DEFINITION_CONTEXT('part definition',#1702,'design');
#1698=PRODUCT_DEFINITION('MiniArm UpperArm Back Faceplate',
'MiniArm UpperArm Back Faceplate v1',#1699,#1697);
#1699=PRODUCT_DEFINITION_FORMATION('',$,#1704);
#1700=PRODUCT_RELATED_PRODUCT_CATEGORY(
'MiniArm UpperArm Back Faceplate v1',
'MiniArm UpperArm Back Faceplate v1',(#1704));
#1701=APPLICATION_PROTOCOL_DEFINITION('international standard',
'automotive_design',2009,#1702);
#1702=APPLICATION_CONTEXT(
'Core Data for Automotive Mechanical Design Process');
#1703=PRODUCT_CONTEXT('part definition',#1702,'mechanical');
#1704=PRODUCT('MiniArm UpperArm Back Faceplate',
'MiniArm UpperArm Back Faceplate v1',$,(#1703));
#1705=PRESENTATION_STYLE_ASSIGNMENT((#1706));
#1706=SURFACE_STYLE_USAGE(.BOTH.,#1707);
#1707=SURFACE_SIDE_STYLE('',(#1708));
#1708=SURFACE_STYLE_FILL_AREA(#1709);
#1709=FILL_AREA_STYLE('Steel - Satin',(#1710));
#1710=FILL_AREA_STYLE_COLOUR('Steel - Satin',#1711);
#1711=COLOUR_RGB('Steel - Satin',0.627450980392157,0.627450980392157,0.627450980392157);
ENDSEC;
END-ISO-10303-21;
