ISO-10303-21;
HEADER;
/* Generated by software containing ST-Developer
 * from STEP Tools, Inc. (www.steptools.com) 
 */

FILE_DESCRIPTION(
/* description */ (''),
/* implementation_level */ '2;1');

FILE_NAME(
/* name */ 'MiniArm UpperArm Fairing (FIXED) v1.step',
/* time_stamp */ '2026-08-03T03:58:14+08:00',
/* author */ (''),
/* organization */ (''),
/* preprocessor_version */ 'ST-DEVELOPER v20.1',
/* originating_system */ 'Autodesk Translation Framework v15.8.0.0',
/* authorisation */ '');

FILE_SCHEMA (('AUTOMOTIVE_DESIGN { 1 0 10303 214 3 1 1 }'));
ENDSEC;

DATA;
#10=MECHANICAL_DESIGN_GEOMETRIC_PRESENTATION_REPRESENTATION('',(#13),#829);
#11=SHAPE_REPRESENTATION_RELATIONSHIP('SRR','None',#836,#12);
#12=ADVANCED_BREP_SHAPE_REPRESENTATION('',(#14),#828);
#13=STYLED_ITEM('',(#845),#14);
#14=MANIFOLD_SOLID_BREP('MiniArm UpperArm Fairing',#477);
#15=TOROIDAL_SURFACE('',#533,12.55,2.);
#16=TOROIDAL_SURFACE('',#537,12.55,2.);
#17=CYLINDRICAL_SURFACE('',#499,1.8);
#18=CYLINDRICAL_SURFACE('',#501,0.925);
#19=CYLINDRICAL_SURFACE('',#506,1.8);
#20=CYLINDRICAL_SURFACE('',#508,0.925);
#21=CYLINDRICAL_SURFACE('',#510,2.5);
#22=CYLINDRICAL_SURFACE('',#514,3.);
#23=CYLINDRICAL_SURFACE('',#518,14.55);
#24=CYLINDRICAL_SURFACE('',#521,13.65);
#25=CYLINDRICAL_SURFACE('',#523,13.65);
#26=CYLINDRICAL_SURFACE('',#531,14.55);
#27=CYLINDRICAL_SURFACE('',#541,2.);
#28=CYLINDRICAL_SURFACE('',#544,2.);
#29=FACE_BOUND('',#70,.T.);
#30=FACE_BOUND('',#72,.T.);
#31=FACE_BOUND('',#76,.T.);
#32=FACE_BOUND('',#81,.T.);
#33=FACE_BOUND('',#84,.T.);
#34=FACE_BOUND('',#90,.T.);
#35=FACE_BOUND('',#91,.T.);
#36=FACE_BOUND('',#92,.T.);
#37=FACE_BOUND('',#106,.T.);
#38=FACE_BOUND('',#107,.T.);
#39=FACE_BOUND('',#108,.T.);
#40=FACE_OUTER_BOUND('',#69,.T.);
#41=FACE_OUTER_BOUND('',#71,.T.);
#42=FACE_OUTER_BOUND('',#73,.T.);
#43=FACE_OUTER_BOUND('',#74,.T.);
#44=FACE_OUTER_BOUND('',#75,.T.);
#45=FACE_OUTER_BOUND('',#77,.T.);
#46=FACE_OUTER_BOUND('',#78,.T.);
#47=FACE_OUTER_BOUND('',#79,.T.);
#48=FACE_OUTER_BOUND('',#80,.T.);
#49=FACE_OUTER_BOUND('',#82,.T.);
#50=FACE_OUTER_BOUND('',#83,.T.);
#51=FACE_OUTER_BOUND('',#85,.T.);
#52=FACE_OUTER_BOUND('',#86,.T.);
#53=FACE_OUTER_BOUND('',#87,.T.);
#54=FACE_OUTER_BOUND('',#88,.T.);
#55=FACE_OUTER_BOUND('',#89,.T.);
#56=FACE_OUTER_BOUND('',#93,.T.);
#57=FACE_OUTER_BOUND('',#94,.T.);
#58=FACE_OUTER_BOUND('',#95,.T.);
#59=FACE_OUTER_BOUND('',#96,.T.);
#60=FACE_OUTER_BOUND('',#97,.T.);
#61=FACE_OUTER_BOUND('',#98,.T.);
#62=FACE_OUTER_BOUND('',#99,.T.);
#63=FACE_OUTER_BOUND('',#100,.T.);
#64=FACE_OUTER_BOUND('',#101,.T.);
#65=FACE_OUTER_BOUND('',#102,.T.);
#66=FACE_OUTER_BOUND('',#103,.T.);
#67=FACE_OUTER_BOUND('',#104,.T.);
#68=FACE_OUTER_BOUND('',#105,.T.);
#69=EDGE_LOOP('',(#309,#310,#311,#312));
#70=EDGE_LOOP('',(#313,#314,#315,#316));
#71=EDGE_LOOP('',(#317));
#72=EDGE_LOOP('',(#318));
#73=EDGE_LOOP('',(#319,#320,#321,#322));
#74=EDGE_LOOP('',(#323,#324,#325,#326));
#75=EDGE_LOOP('',(#327));
#76=EDGE_LOOP('',(#328));
#77=EDGE_LOOP('',(#329,#330,#331,#332));
#78=EDGE_LOOP('',(#333,#334,#335,#336));
#79=EDGE_LOOP('',(#337,#338,#339,#340));
#80=EDGE_LOOP('',(#341));
#81=EDGE_LOOP('',(#342));
#82=EDGE_LOOP('',(#343,#344,#345,#346));
#83=EDGE_LOOP('',(#347));
#84=EDGE_LOOP('',(#348));
#85=EDGE_LOOP('',(#349,#350,#351,#352));
#86=EDGE_LOOP('',(#353,#354,#355,#356));
#87=EDGE_LOOP('',(#357,#358,#359,#360));
#88=EDGE_LOOP('',(#361,#362,#363,#364));
#89=EDGE_LOOP('',(#365,#366,#367,#368));
#90=EDGE_LOOP('',(#369));
#91=EDGE_LOOP('',(#370));
#92=EDGE_LOOP('',(#371,#372,#373,#374));
#93=EDGE_LOOP('',(#375,#376,#377,#378));
#94=EDGE_LOOP('',(#379,#380,#381,#382));
#95=EDGE_LOOP('',(#383,#384,#385,#386));
#96=EDGE_LOOP('',(#387,#388,#389,#390));
#97=EDGE_LOOP('',(#391,#392,#393,#394));
#98=EDGE_LOOP('',(#395,#396,#397,#398));
#99=EDGE_LOOP('',(#399,#400,#401,#402));
#100=EDGE_LOOP('',(#403,#404,#405,#406));
#101=EDGE_LOOP('',(#407,#408,#409,#410));
#102=EDGE_LOOP('',(#411,#412,#413,#414));
#103=EDGE_LOOP('',(#415,#416,#417,#418));
#104=EDGE_LOOP('',(#419,#420,#421,#422));
#105=EDGE_LOOP('',(#423,#424,#425,#426));
#106=EDGE_LOOP('',(#427));
#107=EDGE_LOOP('',(#428));
#108=EDGE_LOOP('',(#429,#430,#431,#432));
#109=LINE('',#700,#145);
#110=LINE('',#703,#146);
#111=LINE('',#706,#147);
#112=LINE('',#710,#148);
#113=LINE('',#720,#149);
#114=LINE('',#723,#150);
#115=LINE('',#733,#151);
#116=LINE('',#736,#152);
#117=LINE('',#742,#153);
#118=LINE('',#749,#154);
#119=LINE('',#756,#155);
#120=LINE('',#757,#156);
#121=LINE('',#760,#157);
#122=LINE('',#761,#158);
#123=LINE('',#764,#159);
#124=LINE('',#767,#160);
#125=LINE('',#770,#161);
#126=LINE('',#773,#162);
#127=LINE('',#775,#163);
#128=LINE('',#776,#164);
#129=LINE('',#779,#165);
#130=LINE('',#781,#166);
#131=LINE('',#783,#167);
#132=LINE('',#784,#168);
#133=LINE('',#787,#169);
#134=LINE('',#789,#170);
#135=LINE('',#790,#171);
#136=LINE('',#793,#172);
#137=LINE('',#794,#173);
#138=LINE('',#797,#174);
#139=LINE('',#798,#175);
#140=LINE('',#800,#176);
#141=LINE('',#803,#177);
#142=LINE('',#804,#178);
#143=LINE('',#820,#179);
#144=LINE('',#824,#180);
#145=VECTOR('',#552,10.);
#146=VECTOR('',#555,10.);
#147=VECTOR('',#556,10.);
#148=VECTOR('',#559,10.);
#149=VECTOR('',#572,1.8);
#150=VECTOR('',#575,0.925);
#151=VECTOR('',#588,1.8);
#152=VECTOR('',#591,0.925);
#153=VECTOR('',#598,2.5);
#154=VECTOR('',#607,3.);
#155=VECTOR('',#616,10.);
#156=VECTOR('',#617,10.);
#157=VECTOR('',#620,10.);
#158=VECTOR('',#621,10.);
#159=VECTOR('',#624,10.);
#160=VECTOR('',#627,10.);
#161=VECTOR('',#630,10.);
#162=VECTOR('',#633,10.);
#163=VECTOR('',#636,10.);
#164=VECTOR('',#637,10.);
#165=VECTOR('',#638,10.);
#166=VECTOR('',#639,10.);
#167=VECTOR('',#640,10.);
#168=VECTOR('',#641,10.);
#169=VECTOR('',#644,10.);
#170=VECTOR('',#645,10.);
#171=VECTOR('',#646,10.);
#172=VECTOR('',#649,10.);
#173=VECTOR('',#650,10.);
#174=VECTOR('',#653,10.);
#175=VECTOR('',#654,10.);
#176=VECTOR('',#657,10.);
#177=VECTOR('',#660,10.);
#178=VECTOR('',#661,10.);
#179=VECTOR('',#684,10.);
#180=VECTOR('',#691,10.);
#181=CIRCLE('',#492,14.55);
#182=CIRCLE('',#493,14.55);
#183=CIRCLE('',#494,13.65);
#184=CIRCLE('',#495,13.65);
#185=CIRCLE('',#497,1.8);
#186=CIRCLE('',#498,0.925);
#187=CIRCLE('',#500,1.8);
#188=CIRCLE('',#502,0.925);
#189=CIRCLE('',#504,1.8);
#190=CIRCLE('',#505,0.925);
#191=CIRCLE('',#507,1.8);
#192=CIRCLE('',#509,0.925);
#193=CIRCLE('',#511,2.5);
#194=CIRCLE('',#512,2.5);
#195=CIRCLE('',#515,3.);
#196=CIRCLE('',#516,3.);
#197=CIRCLE('',#519,14.55);
#198=CIRCLE('',#522,13.65);
#199=CIRCLE('',#524,13.65);
#200=CIRCLE('',#532,14.55);
#201=CIRCLE('',#534,2.);
#202=CIRCLE('',#535,12.55);
#203=CIRCLE('',#536,2.00000000000001);
#204=CIRCLE('',#538,12.55);
#205=CIRCLE('',#539,2.);
#206=CIRCLE('',#540,2.);
#207=VERTEX_POINT('',#696);
#208=VERTEX_POINT('',#697);
#209=VERTEX_POINT('',#699);
#210=VERTEX_POINT('',#701);
#211=VERTEX_POINT('',#704);
#212=VERTEX_POINT('',#705);
#213=VERTEX_POINT('',#707);
#214=VERTEX_POINT('',#709);
#215=VERTEX_POINT('',#713);
#216=VERTEX_POINT('',#715);
#217=VERTEX_POINT('',#718);
#218=VERTEX_POINT('',#722);
#219=VERTEX_POINT('',#726);
#220=VERTEX_POINT('',#728);
#221=VERTEX_POINT('',#731);
#222=VERTEX_POINT('',#735);
#223=VERTEX_POINT('',#739);
#224=VERTEX_POINT('',#741);
#225=VERTEX_POINT('',#746);
#226=VERTEX_POINT('',#748);
#227=VERTEX_POINT('',#753);
#228=VERTEX_POINT('',#754);
#229=VERTEX_POINT('',#759);
#230=VERTEX_POINT('',#763);
#231=VERTEX_POINT('',#765);
#232=VERTEX_POINT('',#769);
#233=VERTEX_POINT('',#771);
#234=VERTEX_POINT('',#777);
#235=VERTEX_POINT('',#778);
#236=VERTEX_POINT('',#780);
#237=VERTEX_POINT('',#782);
#238=VERTEX_POINT('',#786);
#239=VERTEX_POINT('',#788);
#240=VERTEX_POINT('',#792);
#241=VERTEX_POINT('',#796);
#242=VERTEX_POINT('',#802);
#243=VERTEX_POINT('',#808);
#244=VERTEX_POINT('',#810);
#245=VERTEX_POINT('',#814);
#246=VERTEX_POINT('',#815);
#247=EDGE_CURVE('',#207,#208,#181,.T.);
#248=EDGE_CURVE('',#208,#209,#109,.T.);
#249=EDGE_CURVE('',#209,#210,#182,.T.);
#250=EDGE_CURVE('',#210,#207,#110,.T.);
#251=EDGE_CURVE('',#211,#212,#111,.T.);
#252=EDGE_CURVE('',#212,#213,#183,.T.);
#253=EDGE_CURVE('',#213,#214,#112,.T.);
#254=EDGE_CURVE('',#214,#211,#184,.T.);
#255=EDGE_CURVE('',#215,#215,#185,.T.);
#256=EDGE_CURVE('',#216,#216,#186,.T.);
#257=EDGE_CURVE('',#217,#217,#187,.T.);
#258=EDGE_CURVE('',#217,#215,#113,.T.);
#259=EDGE_CURVE('',#216,#218,#114,.T.);
#260=EDGE_CURVE('',#218,#218,#188,.T.);
#261=EDGE_CURVE('',#219,#219,#189,.T.);
#262=EDGE_CURVE('',#220,#220,#190,.T.);
#263=EDGE_CURVE('',#221,#221,#191,.T.);
#264=EDGE_CURVE('',#221,#219,#115,.T.);
#265=EDGE_CURVE('',#220,#222,#116,.T.);
#266=EDGE_CURVE('',#222,#222,#192,.T.);
#267=EDGE_CURVE('',#223,#223,#193,.T.);
#268=EDGE_CURVE('',#223,#224,#117,.T.);
#269=EDGE_CURVE('',#224,#224,#194,.T.);
#270=EDGE_CURVE('',#225,#225,#195,.T.);
#271=EDGE_CURVE('',#225,#226,#118,.T.);
#272=EDGE_CURVE('',#226,#226,#196,.T.);
#273=EDGE_CURVE('',#227,#228,#197,.T.);
#274=EDGE_CURVE('',#227,#208,#119,.T.);
#275=EDGE_CURVE('',#207,#228,#120,.T.);
#276=EDGE_CURVE('',#229,#227,#121,.T.);
#277=EDGE_CURVE('',#209,#229,#122,.T.);
#278=EDGE_CURVE('',#212,#230,#123,.T.);
#279=EDGE_CURVE('',#230,#231,#198,.F.);
#280=EDGE_CURVE('',#231,#213,#124,.T.);
#281=EDGE_CURVE('',#214,#232,#125,.T.);
#282=EDGE_CURVE('',#232,#233,#199,.F.);
#283=EDGE_CURVE('',#233,#211,#126,.T.);
#284=EDGE_CURVE('',#232,#231,#127,.T.);
#285=EDGE_CURVE('',#230,#233,#128,.T.);
#286=EDGE_CURVE('',#234,#235,#129,.T.);
#287=EDGE_CURVE('',#235,#236,#130,.T.);
#288=EDGE_CURVE('',#236,#237,#131,.T.);
#289=EDGE_CURVE('',#237,#234,#132,.T.);
#290=EDGE_CURVE('',#235,#238,#133,.T.);
#291=EDGE_CURVE('',#239,#238,#134,.T.);
#292=EDGE_CURVE('',#236,#239,#135,.T.);
#293=EDGE_CURVE('',#234,#240,#136,.T.);
#294=EDGE_CURVE('',#238,#240,#137,.T.);
#295=EDGE_CURVE('',#237,#241,#138,.T.);
#296=EDGE_CURVE('',#240,#241,#139,.T.);
#297=EDGE_CURVE('',#241,#239,#140,.T.);
#298=EDGE_CURVE('',#228,#242,#141,.T.);
#299=EDGE_CURVE('',#210,#242,#142,.T.);
#300=EDGE_CURVE('',#242,#229,#200,.T.);
#301=EDGE_CURVE('',#243,#228,#201,.T.);
#302=EDGE_CURVE('',#243,#244,#202,.T.);
#303=EDGE_CURVE('',#227,#244,#203,.T.);
#304=EDGE_CURVE('',#245,#246,#204,.T.);
#305=EDGE_CURVE('',#242,#246,#205,.T.);
#306=EDGE_CURVE('',#229,#245,#206,.T.);
#307=EDGE_CURVE('',#246,#243,#143,.T.);
#308=EDGE_CURVE('',#244,#245,#144,.T.);
#309=ORIENTED_EDGE('',*,*,#247,.T.);
#310=ORIENTED_EDGE('',*,*,#248,.T.);
#311=ORIENTED_EDGE('',*,*,#249,.T.);
#312=ORIENTED_EDGE('',*,*,#250,.T.);
#313=ORIENTED_EDGE('',*,*,#251,.T.);
#314=ORIENTED_EDGE('',*,*,#252,.T.);
#315=ORIENTED_EDGE('',*,*,#253,.T.);
#316=ORIENTED_EDGE('',*,*,#254,.T.);
#317=ORIENTED_EDGE('',*,*,#255,.F.);
#318=ORIENTED_EDGE('',*,*,#256,.T.);
#319=ORIENTED_EDGE('',*,*,#257,.F.);
#320=ORIENTED_EDGE('',*,*,#258,.T.);
#321=ORIENTED_EDGE('',*,*,#255,.T.);
#322=ORIENTED_EDGE('',*,*,#258,.F.);
#323=ORIENTED_EDGE('',*,*,#256,.F.);
#324=ORIENTED_EDGE('',*,*,#259,.T.);
#325=ORIENTED_EDGE('',*,*,#260,.F.);
#326=ORIENTED_EDGE('',*,*,#259,.F.);
#327=ORIENTED_EDGE('',*,*,#261,.F.);
#328=ORIENTED_EDGE('',*,*,#262,.T.);
#329=ORIENTED_EDGE('',*,*,#263,.F.);
#330=ORIENTED_EDGE('',*,*,#264,.T.);
#331=ORIENTED_EDGE('',*,*,#261,.T.);
#332=ORIENTED_EDGE('',*,*,#264,.F.);
#333=ORIENTED_EDGE('',*,*,#262,.F.);
#334=ORIENTED_EDGE('',*,*,#265,.T.);
#335=ORIENTED_EDGE('',*,*,#266,.F.);
#336=ORIENTED_EDGE('',*,*,#265,.F.);
#337=ORIENTED_EDGE('',*,*,#267,.F.);
#338=ORIENTED_EDGE('',*,*,#268,.T.);
#339=ORIENTED_EDGE('',*,*,#269,.T.);
#340=ORIENTED_EDGE('',*,*,#268,.F.);
#341=ORIENTED_EDGE('',*,*,#269,.F.);
#342=ORIENTED_EDGE('',*,*,#260,.T.);
#343=ORIENTED_EDGE('',*,*,#270,.F.);
#344=ORIENTED_EDGE('',*,*,#271,.T.);
#345=ORIENTED_EDGE('',*,*,#272,.T.);
#346=ORIENTED_EDGE('',*,*,#271,.F.);
#347=ORIENTED_EDGE('',*,*,#272,.F.);
#348=ORIENTED_EDGE('',*,*,#266,.T.);
#349=ORIENTED_EDGE('',*,*,#273,.F.);
#350=ORIENTED_EDGE('',*,*,#274,.T.);
#351=ORIENTED_EDGE('',*,*,#247,.F.);
#352=ORIENTED_EDGE('',*,*,#275,.T.);
#353=ORIENTED_EDGE('',*,*,#276,.F.);
#354=ORIENTED_EDGE('',*,*,#277,.F.);
#355=ORIENTED_EDGE('',*,*,#248,.F.);
#356=ORIENTED_EDGE('',*,*,#274,.F.);
#357=ORIENTED_EDGE('',*,*,#278,.T.);
#358=ORIENTED_EDGE('',*,*,#279,.T.);
#359=ORIENTED_EDGE('',*,*,#280,.T.);
#360=ORIENTED_EDGE('',*,*,#252,.F.);
#361=ORIENTED_EDGE('',*,*,#281,.T.);
#362=ORIENTED_EDGE('',*,*,#282,.T.);
#363=ORIENTED_EDGE('',*,*,#283,.T.);
#364=ORIENTED_EDGE('',*,*,#254,.F.);
#365=ORIENTED_EDGE('',*,*,#282,.F.);
#366=ORIENTED_EDGE('',*,*,#284,.T.);
#367=ORIENTED_EDGE('',*,*,#279,.F.);
#368=ORIENTED_EDGE('',*,*,#285,.T.);
#369=ORIENTED_EDGE('',*,*,#267,.T.);
#370=ORIENTED_EDGE('',*,*,#270,.T.);
#371=ORIENTED_EDGE('',*,*,#286,.T.);
#372=ORIENTED_EDGE('',*,*,#287,.T.);
#373=ORIENTED_EDGE('',*,*,#288,.T.);
#374=ORIENTED_EDGE('',*,*,#289,.T.);
#375=ORIENTED_EDGE('',*,*,#287,.F.);
#376=ORIENTED_EDGE('',*,*,#290,.T.);
#377=ORIENTED_EDGE('',*,*,#291,.F.);
#378=ORIENTED_EDGE('',*,*,#292,.F.);
#379=ORIENTED_EDGE('',*,*,#286,.F.);
#380=ORIENTED_EDGE('',*,*,#293,.T.);
#381=ORIENTED_EDGE('',*,*,#294,.F.);
#382=ORIENTED_EDGE('',*,*,#290,.F.);
#383=ORIENTED_EDGE('',*,*,#289,.F.);
#384=ORIENTED_EDGE('',*,*,#295,.T.);
#385=ORIENTED_EDGE('',*,*,#296,.F.);
#386=ORIENTED_EDGE('',*,*,#293,.F.);
#387=ORIENTED_EDGE('',*,*,#288,.F.);
#388=ORIENTED_EDGE('',*,*,#292,.T.);
#389=ORIENTED_EDGE('',*,*,#297,.F.);
#390=ORIENTED_EDGE('',*,*,#295,.F.);
#391=ORIENTED_EDGE('',*,*,#298,.F.);
#392=ORIENTED_EDGE('',*,*,#275,.F.);
#393=ORIENTED_EDGE('',*,*,#250,.F.);
#394=ORIENTED_EDGE('',*,*,#299,.T.);
#395=ORIENTED_EDGE('',*,*,#300,.F.);
#396=ORIENTED_EDGE('',*,*,#299,.F.);
#397=ORIENTED_EDGE('',*,*,#249,.F.);
#398=ORIENTED_EDGE('',*,*,#277,.T.);
#399=ORIENTED_EDGE('',*,*,#301,.F.);
#400=ORIENTED_EDGE('',*,*,#302,.T.);
#401=ORIENTED_EDGE('',*,*,#303,.F.);
#402=ORIENTED_EDGE('',*,*,#273,.T.);
#403=ORIENTED_EDGE('',*,*,#304,.T.);
#404=ORIENTED_EDGE('',*,*,#305,.F.);
#405=ORIENTED_EDGE('',*,*,#300,.T.);
#406=ORIENTED_EDGE('',*,*,#306,.T.);
#407=ORIENTED_EDGE('',*,*,#301,.T.);
#408=ORIENTED_EDGE('',*,*,#298,.T.);
#409=ORIENTED_EDGE('',*,*,#305,.T.);
#410=ORIENTED_EDGE('',*,*,#307,.T.);
#411=ORIENTED_EDGE('',*,*,#280,.F.);
#412=ORIENTED_EDGE('',*,*,#284,.F.);
#413=ORIENTED_EDGE('',*,*,#281,.F.);
#414=ORIENTED_EDGE('',*,*,#253,.F.);
#415=ORIENTED_EDGE('',*,*,#283,.F.);
#416=ORIENTED_EDGE('',*,*,#285,.F.);
#417=ORIENTED_EDGE('',*,*,#278,.F.);
#418=ORIENTED_EDGE('',*,*,#251,.F.);
#419=ORIENTED_EDGE('',*,*,#306,.F.);
#420=ORIENTED_EDGE('',*,*,#276,.T.);
#421=ORIENTED_EDGE('',*,*,#303,.T.);
#422=ORIENTED_EDGE('',*,*,#308,.T.);
#423=ORIENTED_EDGE('',*,*,#304,.F.);
#424=ORIENTED_EDGE('',*,*,#308,.F.);
#425=ORIENTED_EDGE('',*,*,#302,.F.);
#426=ORIENTED_EDGE('',*,*,#307,.F.);
#427=ORIENTED_EDGE('',*,*,#257,.T.);
#428=ORIENTED_EDGE('',*,*,#263,.T.);
#429=ORIENTED_EDGE('',*,*,#291,.T.);
#430=ORIENTED_EDGE('',*,*,#294,.T.);
#431=ORIENTED_EDGE('',*,*,#296,.T.);
#432=ORIENTED_EDGE('',*,*,#297,.T.);
#433=PLANE('',#491);
#434=PLANE('',#496);
#435=PLANE('',#503);
#436=PLANE('',#513);
#437=PLANE('',#517);
#438=PLANE('',#520);
#439=PLANE('',#525);
#440=PLANE('',#526);
#441=PLANE('',#527);
#442=PLANE('',#528);
#443=PLANE('',#529);
#444=PLANE('',#530);
#445=PLANE('',#542);
#446=PLANE('',#543);
#447=PLANE('',#545);
#448=ADVANCED_FACE('',(#40,#29),#433,.F.);
#449=ADVANCED_FACE('',(#41,#30),#434,.F.);
#450=ADVANCED_FACE('',(#42),#17,.F.);
#451=ADVANCED_FACE('',(#43),#18,.F.);
#452=ADVANCED_FACE('',(#44,#31),#435,.F.);
#453=ADVANCED_FACE('',(#45),#19,.F.);
#454=ADVANCED_FACE('',(#46),#20,.F.);
#455=ADVANCED_FACE('',(#47),#21,.T.);
#456=ADVANCED_FACE('',(#48,#32),#436,.F.);
#457=ADVANCED_FACE('',(#49),#22,.T.);
#458=ADVANCED_FACE('',(#50,#33),#437,.F.);
#459=ADVANCED_FACE('',(#51),#23,.T.);
#460=ADVANCED_FACE('',(#52),#438,.T.);
#461=ADVANCED_FACE('',(#53),#24,.F.);
#462=ADVANCED_FACE('',(#54),#25,.F.);
#463=ADVANCED_FACE('',(#55,#34,#35,#36),#439,.F.);
#464=ADVANCED_FACE('',(#56),#440,.F.);
#465=ADVANCED_FACE('',(#57),#441,.F.);
#466=ADVANCED_FACE('',(#58),#442,.F.);
#467=ADVANCED_FACE('',(#59),#443,.F.);
#468=ADVANCED_FACE('',(#60),#444,.T.);
#469=ADVANCED_FACE('',(#61),#26,.T.);
#470=ADVANCED_FACE('',(#62),#15,.T.);
#471=ADVANCED_FACE('',(#63),#16,.T.);
#472=ADVANCED_FACE('',(#64),#27,.T.);
#473=ADVANCED_FACE('',(#65),#445,.F.);
#474=ADVANCED_FACE('',(#66),#446,.F.);
#475=ADVANCED_FACE('',(#67),#28,.T.);
#476=ADVANCED_FACE('',(#68,#37,#38,#39),#447,.T.);
#477=CLOSED_SHELL('',(#448,#449,#450,#451,#452,#453,#454,#455,#456,#457,
#458,#459,#460,#461,#462,#463,#464,#465,#466,#467,#468,#469,#470,#471,#472,
#473,#474,#475,#476));
#478=DERIVED_UNIT_ELEMENT(#480,1.);
#479=DERIVED_UNIT_ELEMENT(#831,-3.);
#480=(
MASS_UNIT()
NAMED_UNIT(*)
SI_UNIT(.KILO.,.GRAM.)
);
#481=DERIVED_UNIT((#478,#479));
#482=MEASURE_REPRESENTATION_ITEM('density measure',
POSITIVE_RATIO_MEASURE(7850.),#481);
#483=PROPERTY_DEFINITION_REPRESENTATION(#488,#485);
#484=PROPERTY_DEFINITION_REPRESENTATION(#489,#486);
#485=REPRESENTATION('material name',(#487),#828);
#486=REPRESENTATION('density',(#482),#828);
#487=DESCRIPTIVE_REPRESENTATION_ITEM('Steel','Steel');
#488=PROPERTY_DEFINITION('material property','material name',#838);
#489=PROPERTY_DEFINITION('material property','density of part',#838);
#490=AXIS2_PLACEMENT_3D('',#694,#546,#547);
#491=AXIS2_PLACEMENT_3D('',#695,#548,#549);
#492=AXIS2_PLACEMENT_3D('',#698,#550,#551);
#493=AXIS2_PLACEMENT_3D('',#702,#553,#554);
#494=AXIS2_PLACEMENT_3D('',#708,#557,#558);
#495=AXIS2_PLACEMENT_3D('',#711,#560,#561);
#496=AXIS2_PLACEMENT_3D('',#712,#562,#563);
#497=AXIS2_PLACEMENT_3D('',#714,#564,#565);
#498=AXIS2_PLACEMENT_3D('',#716,#566,#567);
#499=AXIS2_PLACEMENT_3D('',#717,#568,#569);
#500=AXIS2_PLACEMENT_3D('',#719,#570,#571);
#501=AXIS2_PLACEMENT_3D('',#721,#573,#574);
#502=AXIS2_PLACEMENT_3D('',#724,#576,#577);
#503=AXIS2_PLACEMENT_3D('',#725,#578,#579);
#504=AXIS2_PLACEMENT_3D('',#727,#580,#581);
#505=AXIS2_PLACEMENT_3D('',#729,#582,#583);
#506=AXIS2_PLACEMENT_3D('',#730,#584,#585);
#507=AXIS2_PLACEMENT_3D('',#732,#586,#587);
#508=AXIS2_PLACEMENT_3D('',#734,#589,#590);
#509=AXIS2_PLACEMENT_3D('',#737,#592,#593);
#510=AXIS2_PLACEMENT_3D('',#738,#594,#595);
#511=AXIS2_PLACEMENT_3D('',#740,#596,#597);
#512=AXIS2_PLACEMENT_3D('',#743,#599,#600);
#513=AXIS2_PLACEMENT_3D('',#744,#601,#602);
#514=AXIS2_PLACEMENT_3D('',#745,#603,#604);
#515=AXIS2_PLACEMENT_3D('',#747,#605,#606);
#516=AXIS2_PLACEMENT_3D('',#750,#608,#609);
#517=AXIS2_PLACEMENT_3D('',#751,#610,#611);
#518=AXIS2_PLACEMENT_3D('',#752,#612,#613);
#519=AXIS2_PLACEMENT_3D('',#755,#614,#615);
#520=AXIS2_PLACEMENT_3D('',#758,#618,#619);
#521=AXIS2_PLACEMENT_3D('',#762,#622,#623);
#522=AXIS2_PLACEMENT_3D('',#766,#625,#626);
#523=AXIS2_PLACEMENT_3D('',#768,#628,#629);
#524=AXIS2_PLACEMENT_3D('',#772,#631,#632);
#525=AXIS2_PLACEMENT_3D('',#774,#634,#635);
#526=AXIS2_PLACEMENT_3D('',#785,#642,#643);
#527=AXIS2_PLACEMENT_3D('',#791,#647,#648);
#528=AXIS2_PLACEMENT_3D('',#795,#651,#652);
#529=AXIS2_PLACEMENT_3D('',#799,#655,#656);
#530=AXIS2_PLACEMENT_3D('',#801,#658,#659);
#531=AXIS2_PLACEMENT_3D('',#805,#662,#663);
#532=AXIS2_PLACEMENT_3D('',#806,#664,#665);
#533=AXIS2_PLACEMENT_3D('',#807,#666,#667);
#534=AXIS2_PLACEMENT_3D('',#809,#668,#669);
#535=AXIS2_PLACEMENT_3D('',#811,#670,#671);
#536=AXIS2_PLACEMENT_3D('',#812,#672,#673);
#537=AXIS2_PLACEMENT_3D('',#813,#674,#675);
#538=AXIS2_PLACEMENT_3D('',#816,#676,#677);
#539=AXIS2_PLACEMENT_3D('',#817,#678,#679);
#540=AXIS2_PLACEMENT_3D('',#818,#680,#681);
#541=AXIS2_PLACEMENT_3D('',#819,#682,#683);
#542=AXIS2_PLACEMENT_3D('',#821,#685,#686);
#543=AXIS2_PLACEMENT_3D('',#822,#687,#688);
#544=AXIS2_PLACEMENT_3D('',#823,#689,#690);
#545=AXIS2_PLACEMENT_3D('',#825,#692,#693);
#546=DIRECTION('axis',(0.,0.,1.));
#547=DIRECTION('refdir',(1.,0.,0.));
#548=DIRECTION('center_axis',(1.,0.,0.));
#549=DIRECTION('ref_axis',(0.,1.,0.));
#550=DIRECTION('center_axis',(-1.,0.,0.));
#551=DIRECTION('ref_axis',(0.,1.,0.));
#552=DIRECTION('',(0.,0.819152043510581,0.573576437462732));
#553=DIRECTION('center_axis',(-1.,0.,0.));
#554=DIRECTION('ref_axis',(0.,1.,0.));
#555=DIRECTION('',(0.,-0.819152043770045,-0.573576437092179));
#556=DIRECTION('',(0.,-0.819152043510614,-0.573576437462685));
#557=DIRECTION('center_axis',(1.,0.,0.));
#558=DIRECTION('ref_axis',(0.,1.,0.));
#559=DIRECTION('',(0.,0.819152043770037,0.57357643709219));
#560=DIRECTION('center_axis',(1.,0.,0.));
#561=DIRECTION('ref_axis',(0.,1.,0.));
#562=DIRECTION('center_axis',(-1.,0.,0.));
#563=DIRECTION('ref_axis',(0.,1.,0.));
#564=DIRECTION('center_axis',(-1.,0.,0.));
#565=DIRECTION('ref_axis',(0.,1.,0.));
#566=DIRECTION('center_axis',(-1.,0.,0.));
#567=DIRECTION('ref_axis',(0.,1.,0.));
#568=DIRECTION('center_axis',(-1.,0.,0.));
#569=DIRECTION('ref_axis',(0.,1.,0.));
#570=DIRECTION('center_axis',(-1.,0.,0.));
#571=DIRECTION('ref_axis',(0.,1.,0.));
#572=DIRECTION('',(-1.,0.,0.));
#573=DIRECTION('center_axis',(-1.,0.,0.));
#574=DIRECTION('ref_axis',(0.,1.,0.));
#575=DIRECTION('',(-1.,0.,0.));
#576=DIRECTION('center_axis',(1.,0.,0.));
#577=DIRECTION('ref_axis',(0.,1.,0.));
#578=DIRECTION('center_axis',(-1.,0.,0.));
#579=DIRECTION('ref_axis',(0.,1.,0.));
#580=DIRECTION('center_axis',(-1.,0.,0.));
#581=DIRECTION('ref_axis',(0.,1.,0.));
#582=DIRECTION('center_axis',(-1.,0.,0.));
#583=DIRECTION('ref_axis',(0.,1.,0.));
#584=DIRECTION('center_axis',(-1.,0.,0.));
#585=DIRECTION('ref_axis',(0.,1.,0.));
#586=DIRECTION('center_axis',(-1.,0.,0.));
#587=DIRECTION('ref_axis',(0.,1.,0.));
#588=DIRECTION('',(-1.,0.,0.));
#589=DIRECTION('center_axis',(-1.,0.,0.));
#590=DIRECTION('ref_axis',(0.,1.,0.));
#591=DIRECTION('',(-1.,0.,0.));
#592=DIRECTION('center_axis',(1.,0.,0.));
#593=DIRECTION('ref_axis',(0.,1.,0.));
#594=DIRECTION('center_axis',(1.,0.,0.));
#595=DIRECTION('ref_axis',(0.,1.,0.));
#596=DIRECTION('center_axis',(1.,0.,0.));
#597=DIRECTION('ref_axis',(0.,1.,0.));
#598=DIRECTION('',(-1.,0.,0.));
#599=DIRECTION('center_axis',(1.,0.,0.));
#600=DIRECTION('ref_axis',(0.,1.,0.));
#601=DIRECTION('center_axis',(1.,0.,0.));
#602=DIRECTION('ref_axis',(0.,1.,0.));
#603=DIRECTION('center_axis',(1.,0.,0.));
#604=DIRECTION('ref_axis',(0.,1.,0.));
#605=DIRECTION('center_axis',(1.,0.,0.));
#606=DIRECTION('ref_axis',(0.,1.,0.));
#607=DIRECTION('',(-1.,0.,0.));
#608=DIRECTION('center_axis',(1.,0.,0.));
#609=DIRECTION('ref_axis',(0.,1.,0.));
#610=DIRECTION('center_axis',(1.,0.,0.));
#611=DIRECTION('ref_axis',(0.,1.,0.));
#612=DIRECTION('center_axis',(1.,0.,0.));
#613=DIRECTION('ref_axis',(0.,-0.819152043640314,-0.573576437277454));
#614=DIRECTION('center_axis',(1.,0.,0.));
#615=DIRECTION('ref_axis',(0.,-0.819152043640313,-0.573576437277455));
#616=DIRECTION('',(-1.,0.,0.));
#617=DIRECTION('',(1.,0.,0.));
#618=DIRECTION('center_axis',(0.,-0.573576437462732,0.819152043510581));
#619=DIRECTION('ref_axis',(0.,-0.819152043510581,-0.573576437462732));
#620=DIRECTION('',(0.,-0.819152043510581,-0.573576437462732));
#621=DIRECTION('',(1.,0.,0.));
#622=DIRECTION('center_axis',(1.,0.,0.));
#623=DIRECTION('ref_axis',(0.,-0.819152043640313,-0.573576437277456));
#624=DIRECTION('',(1.,0.,0.));
#625=DIRECTION('center_axis',(-1.,0.,0.));
#626=DIRECTION('ref_axis',(0.,1.,0.));
#627=DIRECTION('',(-1.,0.,0.));
#628=DIRECTION('center_axis',(1.,0.,0.));
#629=DIRECTION('ref_axis',(0.,1.,0.));
#630=DIRECTION('',(1.,0.,0.));
#631=DIRECTION('center_axis',(-1.,0.,0.));
#632=DIRECTION('ref_axis',(0.,1.,0.));
#633=DIRECTION('',(-1.,0.,0.));
#634=DIRECTION('center_axis',(1.,0.,0.));
#635=DIRECTION('ref_axis',(0.,1.,0.));
#636=DIRECTION('',(0.,-0.819152043770045,-0.573576437092179));
#637=DIRECTION('',(0.,0.819152043510581,0.573576437462732));
#638=DIRECTION('',(0.,0.573576436351048,-0.81915204428899));
#639=DIRECTION('',(0.,0.819152044288989,0.57357643635105));
#640=DIRECTION('',(0.,-0.573576436351049,0.81915204428899));
#641=DIRECTION('',(0.,-0.81915204428899,-0.573576436351049));
#642=DIRECTION('center_axis',(0.,0.57357643635105,-0.819152044288989));
#643=DIRECTION('ref_axis',(0.,0.819152044288989,0.57357643635105));
#644=DIRECTION('',(1.,0.,0.));
#645=DIRECTION('',(0.,-0.819152044288989,-0.57357643635105));
#646=DIRECTION('',(1.,0.,0.));
#647=DIRECTION('center_axis',(0.,-0.81915204428899,-0.573576436351048));
#648=DIRECTION('ref_axis',(0.,0.573576436351048,-0.81915204428899));
#649=DIRECTION('',(1.,0.,0.));
#650=DIRECTION('',(0.,-0.573576436351048,0.81915204428899));
#651=DIRECTION('center_axis',(0.,-0.573576436351049,0.81915204428899));
#652=DIRECTION('ref_axis',(0.,-0.81915204428899,-0.573576436351049));
#653=DIRECTION('',(1.,0.,0.));
#654=DIRECTION('',(0.,0.81915204428899,0.573576436351049));
#655=DIRECTION('center_axis',(0.,0.81915204428899,0.573576436351049));
#656=DIRECTION('ref_axis',(0.,-0.573576436351049,0.81915204428899));
#657=DIRECTION('',(0.,0.573576436351049,-0.81915204428899));
#658=DIRECTION('center_axis',(0.,0.573576437092179,-0.819152043770045));
#659=DIRECTION('ref_axis',(0.,0.819152043770045,0.573576437092179));
#660=DIRECTION('',(0.,0.819152043770045,0.573576437092179));
#661=DIRECTION('',(1.,0.,0.));
#662=DIRECTION('center_axis',(1.,0.,0.));
#663=DIRECTION('ref_axis',(0.,1.,0.));
#664=DIRECTION('center_axis',(1.,0.,0.));
#665=DIRECTION('ref_axis',(0.,0.819152043640314,0.573576437277454));
#666=DIRECTION('center_axis',(1.,0.,0.));
#667=DIRECTION('ref_axis',(0.,0.,-1.));
#668=DIRECTION('center_axis',(0.,0.819152043770043,0.573576437092182));
#669=DIRECTION('ref_axis',(1.,0.,0.));
#670=DIRECTION('center_axis',(-1.,0.,0.));
#671=DIRECTION('ref_axis',(0.,-0.819152043640313,-0.573576437277455));
#672=DIRECTION('center_axis',(0.,0.819152043510579,0.573576437462735));
#673=DIRECTION('ref_axis',(0.,-0.573576437462735,0.819152043510579));
#674=DIRECTION('center_axis',(1.,0.,0.));
#675=DIRECTION('ref_axis',(0.,0.819152043640314,0.573576437277454));
#676=DIRECTION('center_axis',(-1.,0.,0.));
#677=DIRECTION('ref_axis',(0.,0.819152043640314,0.573576437277454));
#678=DIRECTION('center_axis',(0.,-0.819152043770045,-0.573576437092179));
#679=DIRECTION('ref_axis',(0.,0.573576437092179,-0.819152043770045));
#680=DIRECTION('center_axis',(0.,0.819152043510583,0.573576437462729));
#681=DIRECTION('ref_axis',(0.,-0.573576437462729,0.819152043510583));
#682=DIRECTION('center_axis',(0.,0.819152043770045,0.573576437092179));
#683=DIRECTION('ref_axis',(0.707106781186545,0.405579788196705,-0.579227964972618));
#684=DIRECTION('',(0.,-0.819152043770045,-0.573576437092179));
#685=DIRECTION('center_axis',(0.,0.57357643709219,-0.819152043770037));
#686=DIRECTION('ref_axis',(-1.,0.,0.));
#687=DIRECTION('center_axis',(0.,-0.573576437462685,0.819152043510614));
#688=DIRECTION('ref_axis',(1.,0.,0.));
#689=DIRECTION('center_axis',(0.,-0.819152043510581,-0.573576437462732));
#690=DIRECTION('ref_axis',(0.707106781186548,-0.405579788458724,0.579227964789146));
#691=DIRECTION('',(0.,0.819152043510581,0.573576437462732));
#692=DIRECTION('center_axis',(1.,0.,0.));
#693=DIRECTION('ref_axis',(0.,1.,0.));
#694=CARTESIAN_POINT('',(0.,0.,0.));
#695=CARTESIAN_POINT('Origin',(-4.8,103.455220071507,96.2834745033779));
#696=CARTESIAN_POINT('',(-4.8,79.0346754907748,61.4217547680145));
#697=CARTESIAN_POINT('',(-4.8,62.3436011660009,85.2590792379476));
#698=CARTESIAN_POINT('Origin',(-4.8,70.6891383310836,73.3404170048686));
#699=CARTESIAN_POINT('',(-4.8,127.875764646847,131.145194234966));
#700=CARTESIAN_POINT('',(-4.8,62.3436011660009,85.2590792379476));
#701=CARTESIAN_POINT('',(-4.8,144.566838992378,107.307869735389));
#702=CARTESIAN_POINT('Origin',(-4.8,136.22130181193,119.226532001887));
#703=CARTESIAN_POINT('',(-4.8,79.0346754907748,61.4217547680145));
#704=CARTESIAN_POINT('',(-4.8,128.391983440564,130.407957395807));
#705=CARTESIAN_POINT('',(-4.8,62.8598199597173,84.5218423987881));
#706=CARTESIAN_POINT('',(-4.8,112.008942570352,118.936428646553));
#707=CARTESIAN_POINT('',(-4.8,78.5184566973919,62.1589916074075));
#708=CARTESIAN_POINT('Origin',(-4.8,70.6891383310836,73.3404170048686));
#709=CARTESIAN_POINT('',(-4.8,144.050620188617,108.045106589604));
#710=CARTESIAN_POINT('',(-4.8,94.9014975727927,73.6305203492514));
#711=CARTESIAN_POINT('Origin',(-4.8,136.22130181193,119.226532001887));
#712=CARTESIAN_POINT('Origin',(15.2,130.023222720836,126.966251414589));
#713=CARTESIAN_POINT('',(15.2,128.223222720836,126.966251414589));
#714=CARTESIAN_POINT('Origin',(15.2,130.023222720836,126.966251414589));
#715=CARTESIAN_POINT('',(15.2,129.098222720836,126.966251414589));
#716=CARTESIAN_POINT('Origin',(15.2,130.023222720836,126.966251414589));
#717=CARTESIAN_POINT('Origin',(16.2,130.023222720836,126.966251414589));
#718=CARTESIAN_POINT('',(17.2,128.223222720836,126.966251414589));
#719=CARTESIAN_POINT('Origin',(17.2,130.023222720836,126.966251414589));
#720=CARTESIAN_POINT('',(16.2,128.223222720836,126.966251414589));
#721=CARTESIAN_POINT('Origin',(14.7,130.023222720836,126.966251414589));
#722=CARTESIAN_POINT('',(14.7,129.098222720836,126.966251414589));
#723=CARTESIAN_POINT('',(14.7,129.098222720836,126.966251414589));
#724=CARTESIAN_POINT('Origin',(14.7,130.023222720836,126.966251414589));
#725=CARTESIAN_POINT('Origin',(15.2,70.1796871323387,63.7554414274933));
#726=CARTESIAN_POINT('',(15.2,68.3796871323387,63.7554414274933));
#727=CARTESIAN_POINT('Origin',(15.2,70.1796871323387,63.7554414274933));
#728=CARTESIAN_POINT('',(15.2,69.2546871323387,63.7554414274933));
#729=CARTESIAN_POINT('Origin',(15.2,70.1796871323387,63.7554414274933));
#730=CARTESIAN_POINT('Origin',(16.2,70.1796871323387,63.7554414274933));
#731=CARTESIAN_POINT('',(17.2,68.3796871323387,63.7554414274933));
#732=CARTESIAN_POINT('Origin',(17.2,70.1796871323387,63.7554414274933));
#733=CARTESIAN_POINT('',(16.2,68.3796871323387,63.7554414274933));
#734=CARTESIAN_POINT('Origin',(14.7,70.1796871323387,63.7554414274933));
#735=CARTESIAN_POINT('',(14.7,69.2546871323387,63.7554414274933));
#736=CARTESIAN_POINT('',(14.7,69.2546871323387,63.7554414274933));
#737=CARTESIAN_POINT('Origin',(14.7,70.1796871323387,63.7554414274933));
#738=CARTESIAN_POINT('Origin',(14.7,130.000001937151,127.000001892447));
#739=CARTESIAN_POINT('',(15.7,127.500001937151,127.000001892447));
#740=CARTESIAN_POINT('Origin',(15.7,130.000001937151,127.000001892447));
#741=CARTESIAN_POINT('',(14.7,127.500001937151,127.000001892447));
#742=CARTESIAN_POINT('',(14.7,127.500001937151,127.000001892447));
#743=CARTESIAN_POINT('Origin',(14.7,130.000001937151,127.000001892447));
#744=CARTESIAN_POINT('Origin',(14.7,130.000001937151,127.000001892447));
#745=CARTESIAN_POINT('Origin',(14.7,70.2149224573143,63.8777628597027));
#746=CARTESIAN_POINT('',(15.7,67.2149224573143,63.8777628597027));
#747=CARTESIAN_POINT('Origin',(15.7,70.2149224573143,63.8777628597027));
#748=CARTESIAN_POINT('',(14.7,67.2149224573143,63.8777628597027));
#749=CARTESIAN_POINT('',(14.7,67.2149224573143,63.8777628597027));
#750=CARTESIAN_POINT('Origin',(14.7,70.2149224573143,63.8777628597027));
#751=CARTESIAN_POINT('Origin',(14.7,70.2149224573143,63.8777628597027));
#752=CARTESIAN_POINT('Origin',(-3.3,70.6891383310836,73.3404170048686));
#753=CARTESIAN_POINT('',(15.2,62.3436011660009,85.2590792379476));
#754=CARTESIAN_POINT('',(15.2,79.0346754907748,61.4217547680145));
#755=CARTESIAN_POINT('Origin',(15.2,70.6891383310836,73.3404170048686));
#756=CARTESIAN_POINT('',(-3.3,62.3436011660009,85.2590792379476));
#757=CARTESIAN_POINT('',(-3.3,79.0346754907748,61.4217547680145));
#758=CARTESIAN_POINT('Origin',(-3.3,127.875764646847,131.145194234966));
#759=CARTESIAN_POINT('',(15.2,127.875764646847,131.145194234966));
#760=CARTESIAN_POINT('',(15.2,111.492723776636,119.673665485711));
#761=CARTESIAN_POINT('',(-3.3,127.875764646847,131.145194234966));
#762=CARTESIAN_POINT('Origin',(-3.3,70.6891383310836,73.3404170048686));
#763=CARTESIAN_POINT('',(15.7,62.8598199597173,84.5218423987881));
#764=CARTESIAN_POINT('',(-3.3,62.8598199597173,84.5218423987881));
#765=CARTESIAN_POINT('',(15.7,78.5184566973919,62.1589916074075));
#766=CARTESIAN_POINT('Origin',(15.7,70.6891383310836,73.3404170048686));
#767=CARTESIAN_POINT('',(-3.3,78.5184566973918,62.1589916074075));
#768=CARTESIAN_POINT('Origin',(-3.3,136.22130181193,119.226532001887));
#769=CARTESIAN_POINT('',(15.7,144.050620188617,108.045106589604));
#770=CARTESIAN_POINT('',(-3.3,144.050620178238,108.045106604426));
#771=CARTESIAN_POINT('',(15.7,128.391983440564,130.407957395807));
#772=CARTESIAN_POINT('Origin',(15.7,136.22130181193,119.226532001887));
#773=CARTESIAN_POINT('',(-3.3,128.391983440564,130.407957395807));
#774=CARTESIAN_POINT('Origin',(15.7,103.455220071507,96.2834745033779));
#775=CARTESIAN_POINT('',(15.7,94.9014975727927,73.6305203492511));
#776=CARTESIAN_POINT('',(15.7,112.008942570352,118.936428646552));
#777=CARTESIAN_POINT('',(15.7,116.746897529404,113.591818197912));
#778=CARTESIAN_POINT('',(15.7,124.203391313078,102.942841463473));
#779=CARTESIAN_POINT('',(15.7,118.626614234172,110.907304532758));
#780=CARTESIAN_POINT('',(15.7,146.893903220629,118.830908946977));
#781=CARTESIAN_POINT('',(15.7,115.677835879362,96.9731832813601));
#782=CARTESIAN_POINT('',(15.7,139.437409436954,129.479885681416));
#783=CARTESIAN_POINT('',(15.7,145.045373033559,121.470883649043));
#784=CARTESIAN_POINT('',(15.7,119.566598049463,115.566193757551));
#785=CARTESIAN_POINT('Origin',(-1.3,124.203391313078,102.942841463473));
#786=CARTESIAN_POINT('',(17.2,124.203391313078,102.942841463473));
#787=CARTESIAN_POINT('',(-1.3,124.203391313078,102.942841463473));
#788=CARTESIAN_POINT('',(17.2,146.893903220629,118.830908946977));
#789=CARTESIAN_POINT('',(17.2,115.677835879362,96.9731832813601));
#790=CARTESIAN_POINT('',(-1.3,146.893903220629,118.830908946977));
#791=CARTESIAN_POINT('Origin',(-1.3,116.746897529404,113.591818197912));
#792=CARTESIAN_POINT('',(17.2,116.746897529404,113.591818197912));
#793=CARTESIAN_POINT('',(-1.3,116.746897529404,113.591818197912));
#794=CARTESIAN_POINT('',(17.2,118.626614234172,110.907304532758));
#795=CARTESIAN_POINT('Origin',(-1.3,139.437409436954,129.479885681416));
#796=CARTESIAN_POINT('',(17.2,139.437409436954,129.479885681416));
#797=CARTESIAN_POINT('',(-1.3,139.437409436954,129.479885681416));
#798=CARTESIAN_POINT('',(17.2,119.566598049463,115.566193757551));
#799=CARTESIAN_POINT('Origin',(-1.3,146.893903220629,118.830908946977));
#800=CARTESIAN_POINT('',(17.2,145.045373033559,121.470883649043));
#801=CARTESIAN_POINT('Origin',(-3.3,79.0346754907748,61.4217547680145));
#802=CARTESIAN_POINT('',(15.2,144.566838992378,107.307869735389));
#803=CARTESIAN_POINT('',(15.2,95.4177163661757,72.8932835098581));
#804=CARTESIAN_POINT('',(-3.3,144.566838992378,107.307869735389));
#805=CARTESIAN_POINT('Origin',(-3.3,136.22130181193,119.226532001887));
#806=CARTESIAN_POINT('Origin',(15.2,136.22130181193,119.226532001887));
#807=CARTESIAN_POINT('Origin',(15.2,70.6891383310836,73.3404170048686));
#808=CARTESIAN_POINT('',(17.2,77.8875226165904,63.0600588555546));
#809=CARTESIAN_POINT('Origin',(15.2,77.8875226165904,63.0600588555546));
#810=CARTESIAN_POINT('',(17.2,63.4907540409263,83.6207751509264));
#811=CARTESIAN_POINT('Origin',(17.2,70.6891383310836,73.3404170048686));
#812=CARTESIAN_POINT('Origin',(15.2,63.4907540409263,83.6207751509264));
#813=CARTESIAN_POINT('Origin',(15.2,136.22130181193,119.226532001887));
#814=CARTESIAN_POINT('',(17.2,129.022917521773,129.506890147945));
#815=CARTESIAN_POINT('',(17.2,143.419686118194,108.946173822929));
#816=CARTESIAN_POINT('Origin',(17.2,136.22130181193,119.226532001887));
#817=CARTESIAN_POINT('Origin',(15.2,143.419686118194,108.946173822929));
#818=CARTESIAN_POINT('Origin',(15.2,129.022917521773,129.506890147945));
#819=CARTESIAN_POINT('Origin',(15.2,94.2705634919914,74.5315875973981));
#820=CARTESIAN_POINT('',(17.2,94.2705634919914,74.5315875973981));
#821=CARTESIAN_POINT('Origin',(-3.3,78.5184566973919,62.1589916074075));
#822=CARTESIAN_POINT('Origin',(-3.3,128.391983440564,130.407957395807));
#823=CARTESIAN_POINT('Origin',(15.2,112.639876651561,118.03536139869));
#824=CARTESIAN_POINT('',(17.2,112.639876651561,118.03536139869));
#825=CARTESIAN_POINT('Origin',(17.2,103.455220071507,96.2834745033779));
#826=UNCERTAINTY_MEASURE_WITH_UNIT(LENGTH_MEASURE(0.01),#830,
'DISTANCE_ACCURACY_VALUE',
'Maximum model space distance between geometric entities at asserted c
onnectivities');
#827=UNCERTAINTY_MEASURE_WITH_UNIT(LENGTH_MEASURE(0.01),#830,
'DISTANCE_ACCURACY_VALUE',
'Maximum model space distance between geometric entities at asserted c
onnectivities');
#828=(
GEOMETRIC_REPRESENTATION_CONTEXT(3)
GLOBAL_UNCERTAINTY_ASSIGNED_CONTEXT((#826))
GLOBAL_UNIT_ASSIGNED_CONTEXT((#830,#832,#833))
REPRESENTATION_CONTEXT('','3D')
);
#829=(
GEOMETRIC_REPRESENTATION_CONTEXT(3)
GLOBAL_UNCERTAINTY_ASSIGNED_CONTEXT((#827))
GLOBAL_UNIT_ASSIGNED_CONTEXT((#830,#832,#833))
REPRESENTATION_CONTEXT('','3D')
);
#830=(
LENGTH_UNIT()
NAMED_UNIT(*)
SI_UNIT(.MILLI.,.METRE.)
);
#831=(
LENGTH_UNIT()
NAMED_UNIT(*)
SI_UNIT($,.METRE.)
);
#832=(
NAMED_UNIT(*)
PLANE_ANGLE_UNIT()
SI_UNIT($,.RADIAN.)
);
#833=(
NAMED_UNIT(*)
SI_UNIT($,.STERADIAN.)
SOLID_ANGLE_UNIT()
);
#834=SHAPE_DEFINITION_REPRESENTATION(#835,#836);
#835=PRODUCT_DEFINITION_SHAPE('',$,#838);
#836=SHAPE_REPRESENTATION('',(#490),#828);
#837=PRODUCT_DEFINITION_CONTEXT('part definition',#842,'design');
#838=PRODUCT_DEFINITION('MiniArm UpperArm Fairing (FIXED)',
'MiniArm UpperArm Fairing (FIXED) v1',#839,#837);
#839=PRODUCT_DEFINITION_FORMATION('',$,#844);
#840=PRODUCT_RELATED_PRODUCT_CATEGORY(
'MiniArm UpperArm Fairing (FIXED) v1',
'MiniArm UpperArm Fairing (FIXED) v1',(#844));
#841=APPLICATION_PROTOCOL_DEFINITION('international standard',
'automotive_design',2009,#842);
#842=APPLICATION_CONTEXT(
'Core Data for Automotive Mechanical Design Process');
#843=PRODUCT_CONTEXT('part definition',#842,'mechanical');
#844=PRODUCT('MiniArm UpperArm Fairing (FIXED)',
'MiniArm UpperArm Fairing (FIXED) v1',$,(#843));
#845=PRESENTATION_STYLE_ASSIGNMENT((#846));
#846=SURFACE_STYLE_USAGE(.BOTH.,#847);
#847=SURFACE_SIDE_STYLE('',(#848));
#848=SURFACE_STYLE_FILL_AREA(#849);
#849=FILL_AREA_STYLE('Steel - Satin',(#850));
#850=FILL_AREA_STYLE_COLOUR('Steel - Satin',#851);
#851=COLOUR_RGB('Steel - Satin',0.627450980392157,0.627450980392157,0.627450980392157);
ENDSEC;
END-ISO-10303-21;
