ISO-10303-21;
HEADER;
/* Generated by software containing ST-Developer
 * from STEP Tools, Inc. (www.steptools.com) 
 */

FILE_DESCRIPTION(
/* description */ (''),
/* implementation_level */ '2;1');

FILE_NAME(
/* name */ 'MniArm- BaseLid v1.step',
/* time_stamp */ '2026-08-03T03:56:55+08:00',
/* author */ (''),
/* organization */ (''),
/* preprocessor_version */ 'ST-DEVELOPER v20.1',
/* originating_system */ 'Autodesk Translation Framework v15.8.0.0',
/* authorisation */ '');

FILE_SCHEMA (('AUTOMOTIVE_DESIGN { 1 0 10303 214 3 1 1 }'));
ENDSEC;

DATA;
#10=MECHANICAL_DESIGN_GEOMETRIC_PRESENTATION_REPRESENTATION('',(#13),#1387);
#11=SHAPE_REPRESENTATION_RELATIONSHIP('SRR','None',#1394,#12);
#12=ADVANCED_BREP_SHAPE_REPRESENTATION('',(#14),#1386);
#13=STYLED_ITEM('',(#1403),#14);
#14=MANIFOLD_SOLID_BREP('armlid',#807);
#15=CYLINDRICAL_SURFACE('',#831,0.9);
#16=CYLINDRICAL_SURFACE('',#833,0.9);
#17=CYLINDRICAL_SURFACE('',#835,0.9);
#18=CYLINDRICAL_SURFACE('',#837,0.9);
#19=CYLINDRICAL_SURFACE('',#839,4.);
#20=CYLINDRICAL_SURFACE('',#851,15.);
#21=CYLINDRICAL_SURFACE('',#854,5.4);
#22=CYLINDRICAL_SURFACE('',#857,15.);
#23=CYLINDRICAL_SURFACE('',#859,4.1);
#24=CYLINDRICAL_SURFACE('',#867,4.1);
#25=CYLINDRICAL_SURFACE('',#869,15.);
#26=CYLINDRICAL_SURFACE('',#871,15.);
#27=CYLINDRICAL_SURFACE('',#873,5.44364311687751);
#28=CYLINDRICAL_SURFACE('',#897,0.899999999999999);
#29=CYLINDRICAL_SURFACE('',#898,0.9);
#30=CYLINDRICAL_SURFACE('',#899,0.899999999999999);
#31=CYLINDRICAL_SURFACE('',#900,0.9);
#32=CYLINDRICAL_SURFACE('',#903,0.899999999999999);
#33=CYLINDRICAL_SURFACE('',#904,0.9);
#34=CYLINDRICAL_SURFACE('',#905,2.1);
#35=CYLINDRICAL_SURFACE('',#907,2.1);
#36=CYLINDRICAL_SURFACE('',#910,36.);
#37=FACE_BOUND('',#149,.T.);
#38=FACE_BOUND('',#150,.T.);
#39=FACE_BOUND('',#151,.T.);
#40=FACE_BOUND('',#152,.T.);
#41=FACE_BOUND('',#153,.T.);
#42=FACE_BOUND('',#154,.T.);
#43=FACE_BOUND('',#164,.T.);
#44=FACE_BOUND('',#172,.T.);
#45=FACE_BOUND('',#173,.T.);
#46=FACE_BOUND('',#174,.T.);
#47=FACE_BOUND('',#175,.T.);
#48=FACE_BOUND('',#176,.T.);
#49=FACE_BOUND('',#177,.T.);
#50=FACE_BOUND('',#187,.T.);
#51=FACE_BOUND('',#188,.T.);
#52=FACE_BOUND('',#189,.T.);
#53=FACE_BOUND('',#191,.T.);
#54=FACE_BOUND('',#192,.T.);
#55=FACE_BOUND('',#193,.T.);
#56=FACE_BOUND('',#211,.T.);
#57=CIRCLE('',#823,36.);
#58=CIRCLE('',#824,0.9);
#59=CIRCLE('',#825,0.9);
#60=CIRCLE('',#826,0.9);
#61=CIRCLE('',#827,0.9);
#62=CIRCLE('',#832,0.9);
#63=CIRCLE('',#834,0.9);
#64=CIRCLE('',#836,0.9);
#65=CIRCLE('',#838,0.9);
#66=CIRCLE('',#840,4.);
#67=CIRCLE('',#841,4.);
#68=CIRCLE('',#843,4.1);
#69=CIRCLE('',#844,15.);
#70=CIRCLE('',#845,5.4);
#71=CIRCLE('',#846,15.);
#72=CIRCLE('',#847,4.1);
#73=CIRCLE('',#848,15.);
#74=CIRCLE('',#849,5.44364311687751);
#75=CIRCLE('',#850,15.);
#76=CIRCLE('',#852,15.);
#77=CIRCLE('',#855,5.4);
#78=CIRCLE('',#858,15.);
#79=CIRCLE('',#860,4.1);
#80=CIRCLE('',#862,36.);
#81=CIRCLE('',#868,4.1);
#82=CIRCLE('',#870,15.);
#83=CIRCLE('',#872,15.);
#84=CIRCLE('',#874,5.44364311687751);
#85=CIRCLE('',#876,2.1);
#86=CIRCLE('',#877,0.9);
#87=CIRCLE('',#878,0.9);
#88=CIRCLE('',#879,0.9);
#89=CIRCLE('',#881,2.1);
#90=CIRCLE('',#882,0.899999999999999);
#91=CIRCLE('',#883,0.899999999999999);
#92=CIRCLE('',#884,0.899999999999999);
#93=CIRCLE('',#886,0.9);
#94=CIRCLE('',#888,0.899999999999999);
#95=CIRCLE('',#890,0.899999999999999);
#96=CIRCLE('',#892,0.9);
#97=CIRCLE('',#894,0.899999999999999);
#98=CIRCLE('',#896,0.9);
#99=CIRCLE('',#906,2.1);
#100=CIRCLE('',#908,2.1);
#101=FACE_OUTER_BOUND('',#147,.T.);
#102=FACE_OUTER_BOUND('',#148,.T.);
#103=FACE_OUTER_BOUND('',#155,.T.);
#104=FACE_OUTER_BOUND('',#156,.T.);
#105=FACE_OUTER_BOUND('',#157,.T.);
#106=FACE_OUTER_BOUND('',#158,.T.);
#107=FACE_OUTER_BOUND('',#159,.T.);
#108=FACE_OUTER_BOUND('',#160,.T.);
#109=FACE_OUTER_BOUND('',#161,.T.);
#110=FACE_OUTER_BOUND('',#162,.T.);
#111=FACE_OUTER_BOUND('',#163,.T.);
#112=FACE_OUTER_BOUND('',#165,.T.);
#113=FACE_OUTER_BOUND('',#166,.T.);
#114=FACE_OUTER_BOUND('',#167,.T.);
#115=FACE_OUTER_BOUND('',#168,.T.);
#116=FACE_OUTER_BOUND('',#169,.T.);
#117=FACE_OUTER_BOUND('',#170,.T.);
#118=FACE_OUTER_BOUND('',#171,.T.);
#119=FACE_OUTER_BOUND('',#178,.T.);
#120=FACE_OUTER_BOUND('',#179,.T.);
#121=FACE_OUTER_BOUND('',#180,.T.);
#122=FACE_OUTER_BOUND('',#181,.T.);
#123=FACE_OUTER_BOUND('',#182,.T.);
#124=FACE_OUTER_BOUND('',#183,.T.);
#125=FACE_OUTER_BOUND('',#184,.T.);
#126=FACE_OUTER_BOUND('',#185,.T.);
#127=FACE_OUTER_BOUND('',#186,.T.);
#128=FACE_OUTER_BOUND('',#190,.T.);
#129=FACE_OUTER_BOUND('',#194,.T.);
#130=FACE_OUTER_BOUND('',#195,.T.);
#131=FACE_OUTER_BOUND('',#196,.T.);
#132=FACE_OUTER_BOUND('',#197,.T.);
#133=FACE_OUTER_BOUND('',#198,.T.);
#134=FACE_OUTER_BOUND('',#199,.T.);
#135=FACE_OUTER_BOUND('',#200,.T.);
#136=FACE_OUTER_BOUND('',#201,.T.);
#137=FACE_OUTER_BOUND('',#202,.T.);
#138=FACE_OUTER_BOUND('',#203,.T.);
#139=FACE_OUTER_BOUND('',#204,.T.);
#140=FACE_OUTER_BOUND('',#205,.T.);
#141=FACE_OUTER_BOUND('',#206,.T.);
#142=FACE_OUTER_BOUND('',#207,.T.);
#143=FACE_OUTER_BOUND('',#208,.T.);
#144=FACE_OUTER_BOUND('',#209,.T.);
#145=FACE_OUTER_BOUND('',#210,.T.);
#146=FACE_OUTER_BOUND('',#212,.T.);
#147=EDGE_LOOP('',(#521,#522,#523,#524));
#148=EDGE_LOOP('',(#525));
#149=EDGE_LOOP('',(#526));
#150=EDGE_LOOP('',(#527));
#151=EDGE_LOOP('',(#528));
#152=EDGE_LOOP('',(#529));
#153=EDGE_LOOP('',(#530,#531,#532,#533));
#154=EDGE_LOOP('',(#534,#535,#536,#537));
#155=EDGE_LOOP('',(#538,#539,#540,#541));
#156=EDGE_LOOP('',(#542,#543,#544,#545));
#157=EDGE_LOOP('',(#546,#547,#548,#549));
#158=EDGE_LOOP('',(#550,#551,#552,#553));
#159=EDGE_LOOP('',(#554,#555,#556,#557));
#160=EDGE_LOOP('',(#558,#559,#560,#561));
#161=EDGE_LOOP('',(#562,#563,#564,#565));
#162=EDGE_LOOP('',(#566,#567,#568,#569));
#163=EDGE_LOOP('',(#570,#571,#572,#573,#574,#575,#576,#577,#578,#579,#580,
#581));
#164=EDGE_LOOP('',(#582));
#165=EDGE_LOOP('',(#583,#584,#585,#586));
#166=EDGE_LOOP('',(#587,#588,#589,#590,#591,#592));
#167=EDGE_LOOP('',(#593,#594,#595,#596));
#168=EDGE_LOOP('',(#597,#598,#599,#600,#601,#602));
#169=EDGE_LOOP('',(#603,#604,#605,#606));
#170=EDGE_LOOP('',(#607,#608,#609,#610));
#171=EDGE_LOOP('',(#611));
#172=EDGE_LOOP('',(#612,#613,#614,#615));
#173=EDGE_LOOP('',(#616));
#174=EDGE_LOOP('',(#617));
#175=EDGE_LOOP('',(#618));
#176=EDGE_LOOP('',(#619));
#177=EDGE_LOOP('',(#620));
#178=EDGE_LOOP('',(#621,#622,#623,#624));
#179=EDGE_LOOP('',(#625,#626,#627,#628));
#180=EDGE_LOOP('',(#629,#630,#631,#632));
#181=EDGE_LOOP('',(#633,#634,#635,#636));
#182=EDGE_LOOP('',(#637,#638,#639,#640));
#183=EDGE_LOOP('',(#641,#642,#643,#644));
#184=EDGE_LOOP('',(#645,#646,#647,#648));
#185=EDGE_LOOP('',(#649,#650,#651,#652));
#186=EDGE_LOOP('',(#653,#654,#655,#656));
#187=EDGE_LOOP('',(#657));
#188=EDGE_LOOP('',(#658));
#189=EDGE_LOOP('',(#659));
#190=EDGE_LOOP('',(#660,#661,#662,#663));
#191=EDGE_LOOP('',(#664));
#192=EDGE_LOOP('',(#665));
#193=EDGE_LOOP('',(#666));
#194=EDGE_LOOP('',(#667));
#195=EDGE_LOOP('',(#668));
#196=EDGE_LOOP('',(#669));
#197=EDGE_LOOP('',(#670));
#198=EDGE_LOOP('',(#671));
#199=EDGE_LOOP('',(#672));
#200=EDGE_LOOP('',(#673,#674,#675,#676));
#201=EDGE_LOOP('',(#677,#678,#679,#680));
#202=EDGE_LOOP('',(#681,#682,#683,#684));
#203=EDGE_LOOP('',(#685,#686,#687,#688));
#204=EDGE_LOOP('',(#689,#690,#691,#692,#693,#694));
#205=EDGE_LOOP('',(#695,#696,#697,#698,#699,#700));
#206=EDGE_LOOP('',(#701,#702,#703,#704));
#207=EDGE_LOOP('',(#705,#706,#707,#708));
#208=EDGE_LOOP('',(#709,#710,#711,#712));
#209=EDGE_LOOP('',(#713,#714,#715,#716));
#210=EDGE_LOOP('',(#717,#718,#719,#720));
#211=EDGE_LOOP('',(#721,#722,#723,#724,#725,#726,#727,#728,#729,#730,#731,
#732));
#212=EDGE_LOOP('',(#733,#734,#735,#736));
#213=LINE('',#1161,#277);
#214=LINE('',#1163,#278);
#215=LINE('',#1165,#279);
#216=LINE('',#1166,#280);
#217=LINE('',#1180,#281);
#218=LINE('',#1182,#282);
#219=LINE('',#1184,#283);
#220=LINE('',#1185,#284);
#221=LINE('',#1187,#285);
#222=LINE('',#1189,#286);
#223=LINE('',#1190,#287);
#224=LINE('',#1193,#288);
#225=LINE('',#1194,#289);
#226=LINE('',#1197,#290);
#227=LINE('',#1198,#291);
#228=LINE('',#1200,#292);
#229=LINE('',#1203,#293);
#230=LINE('',#1207,#294);
#231=LINE('',#1211,#295);
#232=LINE('',#1215,#296);
#233=LINE('',#1221,#297);
#234=LINE('',#1230,#298);
#235=LINE('',#1234,#299);
#236=LINE('',#1242,#300);
#237=LINE('',#1246,#301);
#238=LINE('',#1250,#302);
#239=LINE('',#1253,#303);
#240=LINE('',#1256,#304);
#241=LINE('',#1258,#305);
#242=LINE('',#1260,#306);
#243=LINE('',#1261,#307);
#244=LINE('',#1264,#308);
#245=LINE('',#1268,#309);
#246=LINE('',#1270,#310);
#247=LINE('',#1272,#311);
#248=LINE('',#1273,#312);
#249=LINE('',#1276,#313);
#250=LINE('',#1280,#314);
#251=LINE('',#1287,#315);
#252=LINE('',#1289,#316);
#253=LINE('',#1290,#317);
#254=LINE('',#1293,#318);
#255=LINE('',#1294,#319);
#256=LINE('',#1297,#320);
#257=LINE('',#1298,#321);
#258=LINE('',#1300,#322);
#259=LINE('',#1304,#323);
#260=LINE('',#1308,#324);
#261=LINE('',#1311,#325);
#262=LINE('',#1315,#326);
#263=LINE('',#1318,#327);
#264=LINE('',#1329,#328);
#265=LINE('',#1332,#329);
#266=LINE('',#1358,#330);
#267=LINE('',#1360,#331);
#268=LINE('',#1362,#332);
#269=LINE('',#1364,#333);
#270=LINE('',#1367,#334);
#271=LINE('',#1368,#335);
#272=LINE('',#1371,#336);
#273=LINE('',#1372,#337);
#274=LINE('',#1374,#338);
#275=LINE('',#1376,#339);
#276=LINE('',#1383,#340);
#277=VECTOR('',#915,10.);
#278=VECTOR('',#916,10.);
#279=VECTOR('',#917,10.);
#280=VECTOR('',#918,10.);
#281=VECTOR('',#931,10.);
#282=VECTOR('',#932,10.);
#283=VECTOR('',#933,10.);
#284=VECTOR('',#934,10.);
#285=VECTOR('',#935,10.);
#286=VECTOR('',#936,10.);
#287=VECTOR('',#937,10.);
#288=VECTOR('',#940,10.);
#289=VECTOR('',#941,10.);
#290=VECTOR('',#944,10.);
#291=VECTOR('',#945,10.);
#292=VECTOR('',#948,10.);
#293=VECTOR('',#951,0.9);
#294=VECTOR('',#956,0.9);
#295=VECTOR('',#961,0.9);
#296=VECTOR('',#966,0.9);
#297=VECTOR('',#973,4.);
#298=VECTOR('',#982,10.);
#299=VECTOR('',#985,10.);
#300=VECTOR('',#992,10.);
#301=VECTOR('',#995,10.);
#302=VECTOR('',#1000,10.);
#303=VECTOR('',#1003,10.);
#304=VECTOR('',#1006,10.);
#305=VECTOR('',#1007,10.);
#306=VECTOR('',#1008,10.);
#307=VECTOR('',#1009,10.);
#308=VECTOR('',#1012,10.);
#309=VECTOR('',#1017,10.);
#310=VECTOR('',#1018,10.);
#311=VECTOR('',#1019,10.);
#312=VECTOR('',#1020,10.);
#313=VECTOR('',#1023,10.);
#314=VECTOR('',#1028,10.);
#315=VECTOR('',#1037,10.);
#316=VECTOR('',#1038,10.);
#317=VECTOR('',#1039,10.);
#318=VECTOR('',#1042,10.);
#319=VECTOR('',#1043,10.);
#320=VECTOR('',#1046,10.);
#321=VECTOR('',#1047,10.);
#322=VECTOR('',#1050,10.);
#323=VECTOR('',#1055,10.);
#324=VECTOR('',#1060,10.);
#325=VECTOR('',#1063,10.);
#326=VECTOR('',#1068,10.);
#327=VECTOR('',#1071,10.);
#328=VECTOR('',#1084,10.);
#329=VECTOR('',#1087,10.);
#330=VECTOR('',#1120,0.899999999999999);
#331=VECTOR('',#1123,0.9);
#332=VECTOR('',#1126,0.899999999999999);
#333=VECTOR('',#1129,0.9);
#334=VECTOR('',#1132,10.);
#335=VECTOR('',#1133,10.);
#336=VECTOR('',#1136,10.);
#337=VECTOR('',#1137,10.);
#338=VECTOR('',#1140,0.899999999999999);
#339=VECTOR('',#1143,0.9);
#340=VECTOR('',#1156,36.);
#341=VERTEX_POINT('',#1159);
#342=VERTEX_POINT('',#1160);
#343=VERTEX_POINT('',#1162);
#344=VERTEX_POINT('',#1164);
#345=VERTEX_POINT('',#1168);
#346=VERTEX_POINT('',#1170);
#347=VERTEX_POINT('',#1172);
#348=VERTEX_POINT('',#1174);
#349=VERTEX_POINT('',#1176);
#350=VERTEX_POINT('',#1178);
#351=VERTEX_POINT('',#1179);
#352=VERTEX_POINT('',#1181);
#353=VERTEX_POINT('',#1183);
#354=VERTEX_POINT('',#1186);
#355=VERTEX_POINT('',#1188);
#356=VERTEX_POINT('',#1192);
#357=VERTEX_POINT('',#1196);
#358=VERTEX_POINT('',#1202);
#359=VERTEX_POINT('',#1206);
#360=VERTEX_POINT('',#1210);
#361=VERTEX_POINT('',#1214);
#362=VERTEX_POINT('',#1218);
#363=VERTEX_POINT('',#1220);
#364=VERTEX_POINT('',#1224);
#365=VERTEX_POINT('',#1225);
#366=VERTEX_POINT('',#1227);
#367=VERTEX_POINT('',#1229);
#368=VERTEX_POINT('',#1231);
#369=VERTEX_POINT('',#1233);
#370=VERTEX_POINT('',#1235);
#371=VERTEX_POINT('',#1237);
#372=VERTEX_POINT('',#1239);
#373=VERTEX_POINT('',#1241);
#374=VERTEX_POINT('',#1243);
#375=VERTEX_POINT('',#1245);
#376=VERTEX_POINT('',#1249);
#377=VERTEX_POINT('',#1251);
#378=VERTEX_POINT('',#1255);
#379=VERTEX_POINT('',#1257);
#380=VERTEX_POINT('',#1259);
#381=VERTEX_POINT('',#1263);
#382=VERTEX_POINT('',#1267);
#383=VERTEX_POINT('',#1269);
#384=VERTEX_POINT('',#1271);
#385=VERTEX_POINT('',#1275);
#386=VERTEX_POINT('',#1279);
#387=VERTEX_POINT('',#1283);
#388=VERTEX_POINT('',#1286);
#389=VERTEX_POINT('',#1288);
#390=VERTEX_POINT('',#1292);
#391=VERTEX_POINT('',#1296);
#392=VERTEX_POINT('',#1302);
#393=VERTEX_POINT('',#1306);
#394=VERTEX_POINT('',#1310);
#395=VERTEX_POINT('',#1314);
#396=VERTEX_POINT('',#1316);
#397=VERTEX_POINT('',#1321);
#398=VERTEX_POINT('',#1323);
#399=VERTEX_POINT('',#1325);
#400=VERTEX_POINT('',#1328);
#401=VERTEX_POINT('',#1330);
#402=VERTEX_POINT('',#1333);
#403=VERTEX_POINT('',#1335);
#404=VERTEX_POINT('',#1337);
#405=VERTEX_POINT('',#1340);
#406=VERTEX_POINT('',#1343);
#407=VERTEX_POINT('',#1346);
#408=VERTEX_POINT('',#1349);
#409=VERTEX_POINT('',#1352);
#410=VERTEX_POINT('',#1355);
#411=VERTEX_POINT('',#1366);
#412=VERTEX_POINT('',#1370);
#413=EDGE_CURVE('',#341,#342,#213,.T.);
#414=EDGE_CURVE('',#343,#341,#214,.T.);
#415=EDGE_CURVE('',#344,#343,#215,.T.);
#416=EDGE_CURVE('',#342,#344,#216,.T.);
#417=EDGE_CURVE('',#345,#345,#57,.T.);
#418=EDGE_CURVE('',#346,#346,#58,.T.);
#419=EDGE_CURVE('',#347,#347,#59,.T.);
#420=EDGE_CURVE('',#348,#348,#60,.T.);
#421=EDGE_CURVE('',#349,#349,#61,.T.);
#422=EDGE_CURVE('',#350,#351,#217,.T.);
#423=EDGE_CURVE('',#352,#350,#218,.T.);
#424=EDGE_CURVE('',#353,#352,#219,.T.);
#425=EDGE_CURVE('',#351,#353,#220,.T.);
#426=EDGE_CURVE('',#354,#344,#221,.T.);
#427=EDGE_CURVE('',#343,#355,#222,.T.);
#428=EDGE_CURVE('',#355,#354,#223,.T.);
#429=EDGE_CURVE('',#356,#341,#224,.T.);
#430=EDGE_CURVE('',#355,#356,#225,.T.);
#431=EDGE_CURVE('',#342,#357,#226,.T.);
#432=EDGE_CURVE('',#354,#357,#227,.T.);
#433=EDGE_CURVE('',#357,#356,#228,.T.);
#434=EDGE_CURVE('',#346,#358,#229,.T.);
#435=EDGE_CURVE('',#358,#358,#62,.T.);
#436=EDGE_CURVE('',#347,#359,#230,.T.);
#437=EDGE_CURVE('',#359,#359,#63,.T.);
#438=EDGE_CURVE('',#348,#360,#231,.T.);
#439=EDGE_CURVE('',#360,#360,#64,.T.);
#440=EDGE_CURVE('',#349,#361,#232,.T.);
#441=EDGE_CURVE('',#361,#361,#65,.T.);
#442=EDGE_CURVE('',#362,#362,#66,.T.);
#443=EDGE_CURVE('',#362,#363,#233,.T.);
#444=EDGE_CURVE('',#363,#363,#67,.T.);
#445=EDGE_CURVE('',#364,#365,#68,.T.);
#446=EDGE_CURVE('',#366,#364,#69,.T.);
#447=EDGE_CURVE('',#367,#366,#234,.T.);
#448=EDGE_CURVE('',#368,#367,#70,.T.);
#449=EDGE_CURVE('',#369,#368,#235,.T.);
#450=EDGE_CURVE('',#370,#369,#71,.T.);
#451=EDGE_CURVE('',#371,#370,#72,.T.);
#452=EDGE_CURVE('',#372,#371,#73,.T.);
#453=EDGE_CURVE('',#373,#372,#236,.T.);
#454=EDGE_CURVE('',#374,#373,#74,.T.);
#455=EDGE_CURVE('',#375,#374,#237,.T.);
#456=EDGE_CURVE('',#365,#375,#75,.T.);
#457=EDGE_CURVE('',#369,#376,#238,.T.);
#458=EDGE_CURVE('',#376,#377,#76,.T.);
#459=EDGE_CURVE('',#377,#370,#239,.T.);
#460=EDGE_CURVE('',#368,#378,#240,.F.);
#461=EDGE_CURVE('',#378,#379,#241,.T.);
#462=EDGE_CURVE('',#379,#380,#242,.T.);
#463=EDGE_CURVE('',#376,#380,#243,.T.);
#464=EDGE_CURVE('',#367,#381,#244,.T.);
#465=EDGE_CURVE('',#378,#381,#77,.T.);
#466=EDGE_CURVE('',#382,#366,#245,.T.);
#467=EDGE_CURVE('',#383,#382,#246,.T.);
#468=EDGE_CURVE('',#384,#383,#247,.T.);
#469=EDGE_CURVE('',#384,#381,#248,.T.);
#470=EDGE_CURVE('',#364,#385,#249,.T.);
#471=EDGE_CURVE('',#385,#382,#78,.T.);
#472=EDGE_CURVE('',#386,#365,#250,.T.);
#473=EDGE_CURVE('',#385,#386,#79,.F.);
#474=EDGE_CURVE('',#387,#387,#80,.T.);
#475=EDGE_CURVE('',#388,#352,#251,.T.);
#476=EDGE_CURVE('',#389,#388,#252,.T.);
#477=EDGE_CURVE('',#389,#353,#253,.T.);
#478=EDGE_CURVE('',#350,#390,#254,.T.);
#479=EDGE_CURVE('',#388,#390,#255,.T.);
#480=EDGE_CURVE('',#391,#389,#256,.T.);
#481=EDGE_CURVE('',#351,#391,#257,.T.);
#482=EDGE_CURVE('',#390,#391,#258,.T.);
#483=EDGE_CURVE('',#392,#377,#81,.F.);
#484=EDGE_CURVE('',#371,#392,#259,.T.);
#485=EDGE_CURVE('',#392,#393,#82,.T.);
#486=EDGE_CURVE('',#393,#372,#260,.T.);
#487=EDGE_CURVE('',#375,#394,#261,.T.);
#488=EDGE_CURVE('',#394,#386,#83,.T.);
#489=EDGE_CURVE('',#373,#395,#262,.T.);
#490=EDGE_CURVE('',#396,#395,#84,.T.);
#491=EDGE_CURVE('',#374,#396,#263,.F.);
#492=EDGE_CURVE('',#379,#384,#85,.T.);
#493=EDGE_CURVE('',#397,#397,#86,.T.);
#494=EDGE_CURVE('',#398,#398,#87,.T.);
#495=EDGE_CURVE('',#399,#399,#88,.T.);
#496=EDGE_CURVE('',#400,#395,#264,.T.);
#497=EDGE_CURVE('',#401,#400,#89,.T.);
#498=EDGE_CURVE('',#396,#401,#265,.T.);
#499=EDGE_CURVE('',#402,#402,#90,.T.);
#500=EDGE_CURVE('',#403,#403,#91,.T.);
#501=EDGE_CURVE('',#404,#404,#92,.T.);
#502=EDGE_CURVE('',#405,#405,#93,.T.);
#503=EDGE_CURVE('',#406,#406,#94,.T.);
#504=EDGE_CURVE('',#407,#407,#95,.T.);
#505=EDGE_CURVE('',#408,#408,#96,.T.);
#506=EDGE_CURVE('',#409,#409,#97,.T.);
#507=EDGE_CURVE('',#410,#410,#98,.T.);
#508=EDGE_CURVE('',#407,#402,#266,.T.);
#509=EDGE_CURVE('',#410,#398,#267,.T.);
#510=EDGE_CURVE('',#406,#403,#268,.T.);
#511=EDGE_CURVE('',#408,#397,#269,.T.);
#512=EDGE_CURVE('',#401,#411,#270,.T.);
#513=EDGE_CURVE('',#394,#411,#271,.T.);
#514=EDGE_CURVE('',#412,#393,#272,.T.);
#515=EDGE_CURVE('',#400,#412,#273,.T.);
#516=EDGE_CURVE('',#404,#409,#274,.T.);
#517=EDGE_CURVE('',#399,#405,#275,.T.);
#518=EDGE_CURVE('',#380,#383,#99,.T.);
#519=EDGE_CURVE('',#411,#412,#100,.T.);
#520=EDGE_CURVE('',#345,#387,#276,.T.);
#521=ORIENTED_EDGE('',*,*,#413,.F.);
#522=ORIENTED_EDGE('',*,*,#414,.F.);
#523=ORIENTED_EDGE('',*,*,#415,.F.);
#524=ORIENTED_EDGE('',*,*,#416,.F.);
#525=ORIENTED_EDGE('',*,*,#417,.F.);
#526=ORIENTED_EDGE('',*,*,#418,.T.);
#527=ORIENTED_EDGE('',*,*,#419,.T.);
#528=ORIENTED_EDGE('',*,*,#420,.T.);
#529=ORIENTED_EDGE('',*,*,#421,.T.);
#530=ORIENTED_EDGE('',*,*,#422,.F.);
#531=ORIENTED_EDGE('',*,*,#423,.F.);
#532=ORIENTED_EDGE('',*,*,#424,.F.);
#533=ORIENTED_EDGE('',*,*,#425,.F.);
#534=ORIENTED_EDGE('',*,*,#426,.T.);
#535=ORIENTED_EDGE('',*,*,#415,.T.);
#536=ORIENTED_EDGE('',*,*,#427,.T.);
#537=ORIENTED_EDGE('',*,*,#428,.T.);
#538=ORIENTED_EDGE('',*,*,#429,.F.);
#539=ORIENTED_EDGE('',*,*,#430,.F.);
#540=ORIENTED_EDGE('',*,*,#427,.F.);
#541=ORIENTED_EDGE('',*,*,#414,.T.);
#542=ORIENTED_EDGE('',*,*,#431,.F.);
#543=ORIENTED_EDGE('',*,*,#416,.T.);
#544=ORIENTED_EDGE('',*,*,#426,.F.);
#545=ORIENTED_EDGE('',*,*,#432,.T.);
#546=ORIENTED_EDGE('',*,*,#433,.F.);
#547=ORIENTED_EDGE('',*,*,#432,.F.);
#548=ORIENTED_EDGE('',*,*,#428,.F.);
#549=ORIENTED_EDGE('',*,*,#430,.T.);
#550=ORIENTED_EDGE('',*,*,#418,.F.);
#551=ORIENTED_EDGE('',*,*,#434,.T.);
#552=ORIENTED_EDGE('',*,*,#435,.F.);
#553=ORIENTED_EDGE('',*,*,#434,.F.);
#554=ORIENTED_EDGE('',*,*,#419,.F.);
#555=ORIENTED_EDGE('',*,*,#436,.T.);
#556=ORIENTED_EDGE('',*,*,#437,.F.);
#557=ORIENTED_EDGE('',*,*,#436,.F.);
#558=ORIENTED_EDGE('',*,*,#420,.F.);
#559=ORIENTED_EDGE('',*,*,#438,.T.);
#560=ORIENTED_EDGE('',*,*,#439,.F.);
#561=ORIENTED_EDGE('',*,*,#438,.F.);
#562=ORIENTED_EDGE('',*,*,#421,.F.);
#563=ORIENTED_EDGE('',*,*,#440,.T.);
#564=ORIENTED_EDGE('',*,*,#441,.F.);
#565=ORIENTED_EDGE('',*,*,#440,.F.);
#566=ORIENTED_EDGE('',*,*,#442,.F.);
#567=ORIENTED_EDGE('',*,*,#443,.T.);
#568=ORIENTED_EDGE('',*,*,#444,.F.);
#569=ORIENTED_EDGE('',*,*,#443,.F.);
#570=ORIENTED_EDGE('',*,*,#445,.F.);
#571=ORIENTED_EDGE('',*,*,#446,.F.);
#572=ORIENTED_EDGE('',*,*,#447,.F.);
#573=ORIENTED_EDGE('',*,*,#448,.F.);
#574=ORIENTED_EDGE('',*,*,#449,.F.);
#575=ORIENTED_EDGE('',*,*,#450,.F.);
#576=ORIENTED_EDGE('',*,*,#451,.F.);
#577=ORIENTED_EDGE('',*,*,#452,.F.);
#578=ORIENTED_EDGE('',*,*,#453,.F.);
#579=ORIENTED_EDGE('',*,*,#454,.F.);
#580=ORIENTED_EDGE('',*,*,#455,.F.);
#581=ORIENTED_EDGE('',*,*,#456,.F.);
#582=ORIENTED_EDGE('',*,*,#442,.T.);
#583=ORIENTED_EDGE('',*,*,#450,.T.);
#584=ORIENTED_EDGE('',*,*,#457,.T.);
#585=ORIENTED_EDGE('',*,*,#458,.T.);
#586=ORIENTED_EDGE('',*,*,#459,.T.);
#587=ORIENTED_EDGE('',*,*,#449,.T.);
#588=ORIENTED_EDGE('',*,*,#460,.T.);
#589=ORIENTED_EDGE('',*,*,#461,.T.);
#590=ORIENTED_EDGE('',*,*,#462,.T.);
#591=ORIENTED_EDGE('',*,*,#463,.F.);
#592=ORIENTED_EDGE('',*,*,#457,.F.);
#593=ORIENTED_EDGE('',*,*,#448,.T.);
#594=ORIENTED_EDGE('',*,*,#464,.T.);
#595=ORIENTED_EDGE('',*,*,#465,.F.);
#596=ORIENTED_EDGE('',*,*,#460,.F.);
#597=ORIENTED_EDGE('',*,*,#447,.T.);
#598=ORIENTED_EDGE('',*,*,#466,.F.);
#599=ORIENTED_EDGE('',*,*,#467,.F.);
#600=ORIENTED_EDGE('',*,*,#468,.F.);
#601=ORIENTED_EDGE('',*,*,#469,.T.);
#602=ORIENTED_EDGE('',*,*,#464,.F.);
#603=ORIENTED_EDGE('',*,*,#446,.T.);
#604=ORIENTED_EDGE('',*,*,#470,.T.);
#605=ORIENTED_EDGE('',*,*,#471,.T.);
#606=ORIENTED_EDGE('',*,*,#466,.T.);
#607=ORIENTED_EDGE('',*,*,#445,.T.);
#608=ORIENTED_EDGE('',*,*,#472,.F.);
#609=ORIENTED_EDGE('',*,*,#473,.F.);
#610=ORIENTED_EDGE('',*,*,#470,.F.);
#611=ORIENTED_EDGE('',*,*,#474,.T.);
#612=ORIENTED_EDGE('',*,*,#431,.T.);
#613=ORIENTED_EDGE('',*,*,#433,.T.);
#614=ORIENTED_EDGE('',*,*,#429,.T.);
#615=ORIENTED_EDGE('',*,*,#413,.T.);
#616=ORIENTED_EDGE('',*,*,#444,.T.);
#617=ORIENTED_EDGE('',*,*,#441,.T.);
#618=ORIENTED_EDGE('',*,*,#439,.T.);
#619=ORIENTED_EDGE('',*,*,#437,.T.);
#620=ORIENTED_EDGE('',*,*,#435,.T.);
#621=ORIENTED_EDGE('',*,*,#475,.F.);
#622=ORIENTED_EDGE('',*,*,#476,.F.);
#623=ORIENTED_EDGE('',*,*,#477,.T.);
#624=ORIENTED_EDGE('',*,*,#424,.T.);
#625=ORIENTED_EDGE('',*,*,#478,.T.);
#626=ORIENTED_EDGE('',*,*,#479,.F.);
#627=ORIENTED_EDGE('',*,*,#475,.T.);
#628=ORIENTED_EDGE('',*,*,#423,.T.);
#629=ORIENTED_EDGE('',*,*,#477,.F.);
#630=ORIENTED_EDGE('',*,*,#480,.F.);
#631=ORIENTED_EDGE('',*,*,#481,.F.);
#632=ORIENTED_EDGE('',*,*,#425,.T.);
#633=ORIENTED_EDGE('',*,*,#481,.T.);
#634=ORIENTED_EDGE('',*,*,#482,.F.);
#635=ORIENTED_EDGE('',*,*,#478,.F.);
#636=ORIENTED_EDGE('',*,*,#422,.T.);
#637=ORIENTED_EDGE('',*,*,#451,.T.);
#638=ORIENTED_EDGE('',*,*,#459,.F.);
#639=ORIENTED_EDGE('',*,*,#483,.F.);
#640=ORIENTED_EDGE('',*,*,#484,.F.);
#641=ORIENTED_EDGE('',*,*,#452,.T.);
#642=ORIENTED_EDGE('',*,*,#484,.T.);
#643=ORIENTED_EDGE('',*,*,#485,.T.);
#644=ORIENTED_EDGE('',*,*,#486,.T.);
#645=ORIENTED_EDGE('',*,*,#456,.T.);
#646=ORIENTED_EDGE('',*,*,#487,.T.);
#647=ORIENTED_EDGE('',*,*,#488,.T.);
#648=ORIENTED_EDGE('',*,*,#472,.T.);
#649=ORIENTED_EDGE('',*,*,#454,.T.);
#650=ORIENTED_EDGE('',*,*,#489,.T.);
#651=ORIENTED_EDGE('',*,*,#490,.F.);
#652=ORIENTED_EDGE('',*,*,#491,.F.);
#653=ORIENTED_EDGE('',*,*,#465,.T.);
#654=ORIENTED_EDGE('',*,*,#469,.F.);
#655=ORIENTED_EDGE('',*,*,#492,.F.);
#656=ORIENTED_EDGE('',*,*,#461,.F.);
#657=ORIENTED_EDGE('',*,*,#493,.T.);
#658=ORIENTED_EDGE('',*,*,#494,.T.);
#659=ORIENTED_EDGE('',*,*,#495,.T.);
#660=ORIENTED_EDGE('',*,*,#490,.T.);
#661=ORIENTED_EDGE('',*,*,#496,.F.);
#662=ORIENTED_EDGE('',*,*,#497,.F.);
#663=ORIENTED_EDGE('',*,*,#498,.F.);
#664=ORIENTED_EDGE('',*,*,#499,.T.);
#665=ORIENTED_EDGE('',*,*,#500,.T.);
#666=ORIENTED_EDGE('',*,*,#501,.T.);
#667=ORIENTED_EDGE('',*,*,#502,.F.);
#668=ORIENTED_EDGE('',*,*,#503,.F.);
#669=ORIENTED_EDGE('',*,*,#504,.F.);
#670=ORIENTED_EDGE('',*,*,#505,.F.);
#671=ORIENTED_EDGE('',*,*,#506,.F.);
#672=ORIENTED_EDGE('',*,*,#507,.F.);
#673=ORIENTED_EDGE('',*,*,#504,.T.);
#674=ORIENTED_EDGE('',*,*,#508,.T.);
#675=ORIENTED_EDGE('',*,*,#499,.F.);
#676=ORIENTED_EDGE('',*,*,#508,.F.);
#677=ORIENTED_EDGE('',*,*,#507,.T.);
#678=ORIENTED_EDGE('',*,*,#509,.T.);
#679=ORIENTED_EDGE('',*,*,#494,.F.);
#680=ORIENTED_EDGE('',*,*,#509,.F.);
#681=ORIENTED_EDGE('',*,*,#503,.T.);
#682=ORIENTED_EDGE('',*,*,#510,.T.);
#683=ORIENTED_EDGE('',*,*,#500,.F.);
#684=ORIENTED_EDGE('',*,*,#510,.F.);
#685=ORIENTED_EDGE('',*,*,#505,.T.);
#686=ORIENTED_EDGE('',*,*,#511,.T.);
#687=ORIENTED_EDGE('',*,*,#493,.F.);
#688=ORIENTED_EDGE('',*,*,#511,.F.);
#689=ORIENTED_EDGE('',*,*,#455,.T.);
#690=ORIENTED_EDGE('',*,*,#491,.T.);
#691=ORIENTED_EDGE('',*,*,#498,.T.);
#692=ORIENTED_EDGE('',*,*,#512,.T.);
#693=ORIENTED_EDGE('',*,*,#513,.F.);
#694=ORIENTED_EDGE('',*,*,#487,.F.);
#695=ORIENTED_EDGE('',*,*,#453,.T.);
#696=ORIENTED_EDGE('',*,*,#486,.F.);
#697=ORIENTED_EDGE('',*,*,#514,.F.);
#698=ORIENTED_EDGE('',*,*,#515,.F.);
#699=ORIENTED_EDGE('',*,*,#496,.T.);
#700=ORIENTED_EDGE('',*,*,#489,.F.);
#701=ORIENTED_EDGE('',*,*,#501,.F.);
#702=ORIENTED_EDGE('',*,*,#516,.T.);
#703=ORIENTED_EDGE('',*,*,#506,.T.);
#704=ORIENTED_EDGE('',*,*,#516,.F.);
#705=ORIENTED_EDGE('',*,*,#495,.F.);
#706=ORIENTED_EDGE('',*,*,#517,.T.);
#707=ORIENTED_EDGE('',*,*,#502,.T.);
#708=ORIENTED_EDGE('',*,*,#517,.F.);
#709=ORIENTED_EDGE('',*,*,#492,.T.);
#710=ORIENTED_EDGE('',*,*,#468,.T.);
#711=ORIENTED_EDGE('',*,*,#518,.F.);
#712=ORIENTED_EDGE('',*,*,#462,.F.);
#713=ORIENTED_EDGE('',*,*,#497,.T.);
#714=ORIENTED_EDGE('',*,*,#515,.T.);
#715=ORIENTED_EDGE('',*,*,#519,.F.);
#716=ORIENTED_EDGE('',*,*,#512,.F.);
#717=ORIENTED_EDGE('',*,*,#476,.T.);
#718=ORIENTED_EDGE('',*,*,#479,.T.);
#719=ORIENTED_EDGE('',*,*,#482,.T.);
#720=ORIENTED_EDGE('',*,*,#480,.T.);
#721=ORIENTED_EDGE('',*,*,#458,.F.);
#722=ORIENTED_EDGE('',*,*,#463,.T.);
#723=ORIENTED_EDGE('',*,*,#518,.T.);
#724=ORIENTED_EDGE('',*,*,#467,.T.);
#725=ORIENTED_EDGE('',*,*,#471,.F.);
#726=ORIENTED_EDGE('',*,*,#473,.T.);
#727=ORIENTED_EDGE('',*,*,#488,.F.);
#728=ORIENTED_EDGE('',*,*,#513,.T.);
#729=ORIENTED_EDGE('',*,*,#519,.T.);
#730=ORIENTED_EDGE('',*,*,#514,.T.);
#731=ORIENTED_EDGE('',*,*,#485,.F.);
#732=ORIENTED_EDGE('',*,*,#483,.T.);
#733=ORIENTED_EDGE('',*,*,#417,.T.);
#734=ORIENTED_EDGE('',*,*,#520,.T.);
#735=ORIENTED_EDGE('',*,*,#474,.F.);
#736=ORIENTED_EDGE('',*,*,#520,.F.);
#737=PLANE('',#821);
#738=PLANE('',#822);
#739=PLANE('',#828);
#740=PLANE('',#829);
#741=PLANE('',#830);
#742=PLANE('',#842);
#743=PLANE('',#853);
#744=PLANE('',#856);
#745=PLANE('',#861);
#746=PLANE('',#863);
#747=PLANE('',#864);
#748=PLANE('',#865);
#749=PLANE('',#866);
#750=PLANE('',#875);
#751=PLANE('',#880);
#752=PLANE('',#885);
#753=PLANE('',#887);
#754=PLANE('',#889);
#755=PLANE('',#891);
#756=PLANE('',#893);
#757=PLANE('',#895);
#758=PLANE('',#901);
#759=PLANE('',#902);
#760=PLANE('',#909);
#761=ADVANCED_FACE('',(#101),#737,.F.);
#762=ADVANCED_FACE('',(#102,#37,#38,#39,#40,#41,#42),#738,.T.);
#763=ADVANCED_FACE('',(#103),#739,.F.);
#764=ADVANCED_FACE('',(#104),#740,.F.);
#765=ADVANCED_FACE('',(#105),#741,.F.);
#766=ADVANCED_FACE('',(#106),#15,.F.);
#767=ADVANCED_FACE('',(#107),#16,.F.);
#768=ADVANCED_FACE('',(#108),#17,.F.);
#769=ADVANCED_FACE('',(#109),#18,.F.);
#770=ADVANCED_FACE('',(#110),#19,.F.);
#771=ADVANCED_FACE('',(#111,#43),#742,.F.);
#772=ADVANCED_FACE('',(#112),#20,.T.);
#773=ADVANCED_FACE('',(#113),#743,.T.);
#774=ADVANCED_FACE('',(#114),#21,.F.);
#775=ADVANCED_FACE('',(#115),#744,.T.);
#776=ADVANCED_FACE('',(#116),#22,.T.);
#777=ADVANCED_FACE('',(#117),#23,.F.);
#778=ADVANCED_FACE('',(#118,#44,#45,#46,#47,#48,#49),#745,.F.);
#779=ADVANCED_FACE('',(#119),#746,.T.);
#780=ADVANCED_FACE('',(#120),#747,.T.);
#781=ADVANCED_FACE('',(#121),#748,.T.);
#782=ADVANCED_FACE('',(#122),#749,.T.);
#783=ADVANCED_FACE('',(#123),#24,.F.);
#784=ADVANCED_FACE('',(#124),#25,.T.);
#785=ADVANCED_FACE('',(#125),#26,.T.);
#786=ADVANCED_FACE('',(#126),#27,.F.);
#787=ADVANCED_FACE('',(#127,#50,#51,#52),#750,.T.);
#788=ADVANCED_FACE('',(#128,#53,#54,#55),#751,.T.);
#789=ADVANCED_FACE('',(#129),#752,.T.);
#790=ADVANCED_FACE('',(#130),#753,.T.);
#791=ADVANCED_FACE('',(#131),#754,.T.);
#792=ADVANCED_FACE('',(#132),#755,.T.);
#793=ADVANCED_FACE('',(#133),#756,.T.);
#794=ADVANCED_FACE('',(#134),#757,.T.);
#795=ADVANCED_FACE('',(#135),#28,.F.);
#796=ADVANCED_FACE('',(#136),#29,.F.);
#797=ADVANCED_FACE('',(#137),#30,.F.);
#798=ADVANCED_FACE('',(#138),#31,.F.);
#799=ADVANCED_FACE('',(#139),#758,.T.);
#800=ADVANCED_FACE('',(#140),#759,.T.);
#801=ADVANCED_FACE('',(#141),#32,.F.);
#802=ADVANCED_FACE('',(#142),#33,.F.);
#803=ADVANCED_FACE('',(#143),#34,.F.);
#804=ADVANCED_FACE('',(#144),#35,.F.);
#805=ADVANCED_FACE('',(#145,#56),#760,.T.);
#806=ADVANCED_FACE('',(#146),#36,.T.);
#807=CLOSED_SHELL('',(#761,#762,#763,#764,#765,#766,#767,#768,#769,#770,
#771,#772,#773,#774,#775,#776,#777,#778,#779,#780,#781,#782,#783,#784,#785,
#786,#787,#788,#789,#790,#791,#792,#793,#794,#795,#796,#797,#798,#799,#800,
#801,#802,#803,#804,#805,#806));
#808=DERIVED_UNIT_ELEMENT(#810,1.);
#809=DERIVED_UNIT_ELEMENT(#1389,-3.);
#810=(
MASS_UNIT()
NAMED_UNIT(*)
SI_UNIT(.KILO.,.GRAM.)
);
#811=DERIVED_UNIT((#808,#809));
#812=MEASURE_REPRESENTATION_ITEM('density measure',
POSITIVE_RATIO_MEASURE(7850.),#811);
#813=PROPERTY_DEFINITION_REPRESENTATION(#818,#815);
#814=PROPERTY_DEFINITION_REPRESENTATION(#819,#816);
#815=REPRESENTATION('material name',(#817),#1386);
#816=REPRESENTATION('density',(#812),#1386);
#817=DESCRIPTIVE_REPRESENTATION_ITEM('Steel','Steel');
#818=PROPERTY_DEFINITION('material property','material name',#1396);
#819=PROPERTY_DEFINITION('material property','density of part',#1396);
#820=AXIS2_PLACEMENT_3D('',#1157,#911,#912);
#821=AXIS2_PLACEMENT_3D('',#1158,#913,#914);
#822=AXIS2_PLACEMENT_3D('',#1167,#919,#920);
#823=AXIS2_PLACEMENT_3D('',#1169,#921,#922);
#824=AXIS2_PLACEMENT_3D('',#1171,#923,#924);
#825=AXIS2_PLACEMENT_3D('',#1173,#925,#926);
#826=AXIS2_PLACEMENT_3D('',#1175,#927,#928);
#827=AXIS2_PLACEMENT_3D('',#1177,#929,#930);
#828=AXIS2_PLACEMENT_3D('',#1191,#938,#939);
#829=AXIS2_PLACEMENT_3D('',#1195,#942,#943);
#830=AXIS2_PLACEMENT_3D('',#1199,#946,#947);
#831=AXIS2_PLACEMENT_3D('',#1201,#949,#950);
#832=AXIS2_PLACEMENT_3D('',#1204,#952,#953);
#833=AXIS2_PLACEMENT_3D('',#1205,#954,#955);
#834=AXIS2_PLACEMENT_3D('',#1208,#957,#958);
#835=AXIS2_PLACEMENT_3D('',#1209,#959,#960);
#836=AXIS2_PLACEMENT_3D('',#1212,#962,#963);
#837=AXIS2_PLACEMENT_3D('',#1213,#964,#965);
#838=AXIS2_PLACEMENT_3D('',#1216,#967,#968);
#839=AXIS2_PLACEMENT_3D('',#1217,#969,#970);
#840=AXIS2_PLACEMENT_3D('',#1219,#971,#972);
#841=AXIS2_PLACEMENT_3D('',#1222,#974,#975);
#842=AXIS2_PLACEMENT_3D('',#1223,#976,#977);
#843=AXIS2_PLACEMENT_3D('',#1226,#978,#979);
#844=AXIS2_PLACEMENT_3D('',#1228,#980,#981);
#845=AXIS2_PLACEMENT_3D('',#1232,#983,#984);
#846=AXIS2_PLACEMENT_3D('',#1236,#986,#987);
#847=AXIS2_PLACEMENT_3D('',#1238,#988,#989);
#848=AXIS2_PLACEMENT_3D('',#1240,#990,#991);
#849=AXIS2_PLACEMENT_3D('',#1244,#993,#994);
#850=AXIS2_PLACEMENT_3D('',#1247,#996,#997);
#851=AXIS2_PLACEMENT_3D('',#1248,#998,#999);
#852=AXIS2_PLACEMENT_3D('',#1252,#1001,#1002);
#853=AXIS2_PLACEMENT_3D('',#1254,#1004,#1005);
#854=AXIS2_PLACEMENT_3D('',#1262,#1010,#1011);
#855=AXIS2_PLACEMENT_3D('',#1265,#1013,#1014);
#856=AXIS2_PLACEMENT_3D('',#1266,#1015,#1016);
#857=AXIS2_PLACEMENT_3D('',#1274,#1021,#1022);
#858=AXIS2_PLACEMENT_3D('',#1277,#1024,#1025);
#859=AXIS2_PLACEMENT_3D('',#1278,#1026,#1027);
#860=AXIS2_PLACEMENT_3D('',#1281,#1029,#1030);
#861=AXIS2_PLACEMENT_3D('',#1282,#1031,#1032);
#862=AXIS2_PLACEMENT_3D('',#1284,#1033,#1034);
#863=AXIS2_PLACEMENT_3D('',#1285,#1035,#1036);
#864=AXIS2_PLACEMENT_3D('',#1291,#1040,#1041);
#865=AXIS2_PLACEMENT_3D('',#1295,#1044,#1045);
#866=AXIS2_PLACEMENT_3D('',#1299,#1048,#1049);
#867=AXIS2_PLACEMENT_3D('',#1301,#1051,#1052);
#868=AXIS2_PLACEMENT_3D('',#1303,#1053,#1054);
#869=AXIS2_PLACEMENT_3D('',#1305,#1056,#1057);
#870=AXIS2_PLACEMENT_3D('',#1307,#1058,#1059);
#871=AXIS2_PLACEMENT_3D('',#1309,#1061,#1062);
#872=AXIS2_PLACEMENT_3D('',#1312,#1064,#1065);
#873=AXIS2_PLACEMENT_3D('',#1313,#1066,#1067);
#874=AXIS2_PLACEMENT_3D('',#1317,#1069,#1070);
#875=AXIS2_PLACEMENT_3D('',#1319,#1072,#1073);
#876=AXIS2_PLACEMENT_3D('',#1320,#1074,#1075);
#877=AXIS2_PLACEMENT_3D('',#1322,#1076,#1077);
#878=AXIS2_PLACEMENT_3D('',#1324,#1078,#1079);
#879=AXIS2_PLACEMENT_3D('',#1326,#1080,#1081);
#880=AXIS2_PLACEMENT_3D('',#1327,#1082,#1083);
#881=AXIS2_PLACEMENT_3D('',#1331,#1085,#1086);
#882=AXIS2_PLACEMENT_3D('',#1334,#1088,#1089);
#883=AXIS2_PLACEMENT_3D('',#1336,#1090,#1091);
#884=AXIS2_PLACEMENT_3D('',#1338,#1092,#1093);
#885=AXIS2_PLACEMENT_3D('',#1339,#1094,#1095);
#886=AXIS2_PLACEMENT_3D('',#1341,#1096,#1097);
#887=AXIS2_PLACEMENT_3D('',#1342,#1098,#1099);
#888=AXIS2_PLACEMENT_3D('',#1344,#1100,#1101);
#889=AXIS2_PLACEMENT_3D('',#1345,#1102,#1103);
#890=AXIS2_PLACEMENT_3D('',#1347,#1104,#1105);
#891=AXIS2_PLACEMENT_3D('',#1348,#1106,#1107);
#892=AXIS2_PLACEMENT_3D('',#1350,#1108,#1109);
#893=AXIS2_PLACEMENT_3D('',#1351,#1110,#1111);
#894=AXIS2_PLACEMENT_3D('',#1353,#1112,#1113);
#895=AXIS2_PLACEMENT_3D('',#1354,#1114,#1115);
#896=AXIS2_PLACEMENT_3D('',#1356,#1116,#1117);
#897=AXIS2_PLACEMENT_3D('',#1357,#1118,#1119);
#898=AXIS2_PLACEMENT_3D('',#1359,#1121,#1122);
#899=AXIS2_PLACEMENT_3D('',#1361,#1124,#1125);
#900=AXIS2_PLACEMENT_3D('',#1363,#1127,#1128);
#901=AXIS2_PLACEMENT_3D('',#1365,#1130,#1131);
#902=AXIS2_PLACEMENT_3D('',#1369,#1134,#1135);
#903=AXIS2_PLACEMENT_3D('',#1373,#1138,#1139);
#904=AXIS2_PLACEMENT_3D('',#1375,#1141,#1142);
#905=AXIS2_PLACEMENT_3D('',#1377,#1144,#1145);
#906=AXIS2_PLACEMENT_3D('',#1378,#1146,#1147);
#907=AXIS2_PLACEMENT_3D('',#1379,#1148,#1149);
#908=AXIS2_PLACEMENT_3D('',#1380,#1150,#1151);
#909=AXIS2_PLACEMENT_3D('',#1381,#1152,#1153);
#910=AXIS2_PLACEMENT_3D('',#1382,#1154,#1155);
#911=DIRECTION('axis',(0.,0.,1.));
#912=DIRECTION('refdir',(1.,0.,0.));
#913=DIRECTION('center_axis',(0.,-1.,0.));
#914=DIRECTION('ref_axis',(0.,0.,-1.));
#915=DIRECTION('',(-1.,0.,1.22464679914735E-16));
#916=DIRECTION('',(0.,0.,1.));
#917=DIRECTION('',(1.,0.,-1.22464679914735E-16));
#918=DIRECTION('',(0.,0.,-1.));
#919=DIRECTION('center_axis',(-1.22464679914735E-16,2.71926214689378E-32,
-1.));
#920=DIRECTION('ref_axis',(-2.22044604925031E-16,-1.,0.));
#921=DIRECTION('center_axis',(1.22464679914735E-16,-2.71926214689378E-32,
1.));
#922=DIRECTION('ref_axis',(-2.22044604925031E-16,-1.,0.));
#923=DIRECTION('center_axis',(1.22464679914735E-16,-2.71926214689378E-32,
1.));
#924=DIRECTION('ref_axis',(-1.,0.,0.));
#925=DIRECTION('center_axis',(1.22464679914735E-16,-2.71926214689378E-32,
1.));
#926=DIRECTION('ref_axis',(-1.,0.,0.));
#927=DIRECTION('center_axis',(1.22464679914735E-16,-2.71926214689378E-32,
1.));
#928=DIRECTION('ref_axis',(-1.,0.,0.));
#929=DIRECTION('center_axis',(1.22464679914735E-16,-2.71926214689378E-32,
1.));
#930=DIRECTION('ref_axis',(-1.,0.,0.));
#931=DIRECTION('',(-2.22044604925031E-16,-1.,0.));
#932=DIRECTION('',(1.,-2.22044604925031E-16,-1.22464679914735E-16));
#933=DIRECTION('',(2.22044604925031E-16,1.,0.));
#934=DIRECTION('',(-1.,2.22044604925031E-16,1.22464679914735E-16));
#935=DIRECTION('',(0.,-1.,-2.71926214689378E-32));
#936=DIRECTION('',(0.,1.,2.71926214689378E-32));
#937=DIRECTION('',(-1.,0.,1.22464679914735E-16));
#938=DIRECTION('center_axis',(1.,0.,0.));
#939=DIRECTION('ref_axis',(0.,1.,0.));
#940=DIRECTION('',(0.,-1.,-2.71926214689378E-32));
#941=DIRECTION('',(0.,0.,1.));
#942=DIRECTION('center_axis',(-1.,0.,0.));
#943=DIRECTION('ref_axis',(0.,-1.,0.));
#944=DIRECTION('',(0.,1.,2.71926214689378E-32));
#945=DIRECTION('',(0.,0.,1.));
#946=DIRECTION('center_axis',(0.,1.,0.));
#947=DIRECTION('ref_axis',(-1.,0.,0.));
#948=DIRECTION('',(1.,0.,-1.22464679914735E-16));
#949=DIRECTION('center_axis',(0.,0.,1.));
#950=DIRECTION('ref_axis',(-1.,0.,0.));
#951=DIRECTION('',(0.,0.,1.));
#952=DIRECTION('center_axis',(-1.22464679914735E-16,2.71926214689378E-32,
-1.));
#953=DIRECTION('ref_axis',(-1.,0.,0.));
#954=DIRECTION('center_axis',(0.,0.,1.));
#955=DIRECTION('ref_axis',(-1.,0.,0.));
#956=DIRECTION('',(0.,0.,1.));
#957=DIRECTION('center_axis',(-1.22464679914735E-16,2.71926214689378E-32,
-1.));
#958=DIRECTION('ref_axis',(-1.,0.,0.));
#959=DIRECTION('center_axis',(0.,0.,1.));
#960=DIRECTION('ref_axis',(-1.,0.,0.));
#961=DIRECTION('',(0.,0.,1.));
#962=DIRECTION('center_axis',(-1.22464679914735E-16,2.71926214689378E-32,
-1.));
#963=DIRECTION('ref_axis',(-1.,0.,0.));
#964=DIRECTION('center_axis',(0.,0.,1.));
#965=DIRECTION('ref_axis',(-1.,0.,0.));
#966=DIRECTION('',(0.,0.,1.));
#967=DIRECTION('center_axis',(-1.22464679914735E-16,2.71926214689378E-32,
-1.));
#968=DIRECTION('ref_axis',(-1.,0.,0.));
#969=DIRECTION('center_axis',(0.,0.,-1.));
#970=DIRECTION('ref_axis',(2.22044604925031E-16,1.,0.));
#971=DIRECTION('center_axis',(0.,0.,1.));
#972=DIRECTION('ref_axis',(2.22044604925031E-16,1.,0.));
#973=DIRECTION('',(0.,0.,1.));
#974=DIRECTION('center_axis',(0.,0.,-1.));
#975=DIRECTION('ref_axis',(2.22044604925031E-16,1.,0.));
#976=DIRECTION('center_axis',(0.,0.,1.));
#977=DIRECTION('ref_axis',(2.22044604925031E-16,1.,0.));
#978=DIRECTION('center_axis',(0.,0.,1.));
#979=DIRECTION('ref_axis',(-2.22044604925031E-16,-1.,0.));
#980=DIRECTION('center_axis',(0.,0.,-1.));
#981=DIRECTION('ref_axis',(0.984998895528117,-0.172560643857139,-1.20627574457219E-16));
#982=DIRECTION('',(-0.116473165178139,-0.993193838982797,0.));
#983=DIRECTION('center_axis',(0.,0.,1.));
#984=DIRECTION('ref_axis',(-0.701662587170111,0.712509378019508,8.59288841459328E-17));
#985=DIRECTION('',(-0.11712366839347,0.993117337630381,0.));
#986=DIRECTION('center_axis',(0.,0.,-1.));
#987=DIRECTION('ref_axis',(-0.984898381777088,-0.173133409753503,1.20615265072872E-16));
#988=DIRECTION('center_axis',(0.,0.,1.));
#989=DIRECTION('ref_axis',(-2.22044604925031E-16,-1.,0.));
#990=DIRECTION('center_axis',(0.,0.,-1.));
#991=DIRECTION('ref_axis',(-0.985012376203766,0.17248367669264,1.20629225363847E-16));
#992=DIRECTION('',(0.116473165178139,0.993193838982797,0.));
#993=DIRECTION('center_axis',(0.,0.,1.));
#994=DIRECTION('ref_axis',(0.694214969647589,-0.719767723586711,-8.50168140499098E-17));
#995=DIRECTION('',(0.117123668393471,-0.993117337630381,0.));
#996=DIRECTION('center_axis',(0.,0.,-1.));
#997=DIRECTION('ref_axis',(0.9849106325205,0.17306370488369,-1.20616765356243E-16));
#998=DIRECTION('center_axis',(-1.22464679914735E-16,2.71926214689378E-32,
-1.));
#999=DIRECTION('ref_axis',(-0.984898381777088,-0.173133409753503,1.20615265072872E-16));
#1000=DIRECTION('',(-1.22464679914735E-16,2.71926214689378E-32,-1.));
#1001=DIRECTION('center_axis',(1.22464679914735E-16,-2.71926214689378E-32,
1.));
#1002=DIRECTION('ref_axis',(-0.984898381777088,-0.173133409753503,1.20615265072872E-16));
#1003=DIRECTION('',(1.22464679914735E-16,-2.71926214689378E-32,1.));
#1004=DIRECTION('center_axis',(-0.993117337630381,-0.11712366839347,1.21621796870679E-16));
#1005=DIRECTION('ref_axis',(-0.11712366839347,0.993117337630381,1.4343512560246E-17));
#1006=DIRECTION('',(1.22464679914735E-16,-2.71926214689378E-32,1.));
#1007=DIRECTION('',(-0.11712366839347,0.993117337630381,1.4343512560246E-17));
#1008=DIRECTION('',(-1.22464679914735E-16,2.71926214689378E-32,-1.));
#1009=DIRECTION('',(-0.11712366839347,0.993117337630381,1.4343512560246E-17));
#1010=DIRECTION('center_axis',(-1.22464679914735E-16,2.71926214689378E-32,
-1.));
#1011=DIRECTION('ref_axis',(-0.701662587170111,0.712509378019508,8.59288841459328E-17));
#1012=DIRECTION('',(-1.22464679914735E-16,2.71926214689378E-32,-1.));
#1013=DIRECTION('center_axis',(1.22464679914735E-16,-2.71926214689378E-32,
1.));
#1014=DIRECTION('ref_axis',(-0.701662587170111,0.712509378019508,8.59288841459328E-17));
#1015=DIRECTION('center_axis',(0.993193838982797,-0.116473165178139,-1.21631165584315E-16));
#1016=DIRECTION('ref_axis',(-0.116473165178139,-0.993193838982797,1.42638488921968E-17));
#1017=DIRECTION('',(1.22464679914735E-16,-2.71926214689378E-32,1.));
#1018=DIRECTION('',(-0.116473165178139,-0.993193838982797,1.42638488921968E-17));
#1019=DIRECTION('',(-1.22464679914735E-16,2.71926214689378E-32,-1.));
#1020=DIRECTION('',(-0.116473165178139,-0.993193838982797,1.42638488921968E-17));
#1021=DIRECTION('center_axis',(-1.22464679914735E-16,2.71926214689378E-32,
-1.));
#1022=DIRECTION('ref_axis',(0.984998895528117,-0.172560643857139,-1.20627574457219E-16));
#1023=DIRECTION('',(-1.22464679914735E-16,2.71926214689378E-32,-1.));
#1024=DIRECTION('center_axis',(1.22464679914735E-16,-2.71926214689378E-32,
1.));
#1025=DIRECTION('ref_axis',(0.984998895528117,-0.172560643857139,-1.20627574457219E-16));
#1026=DIRECTION('center_axis',(-1.22464679914735E-16,2.71926214689378E-32,
-1.));
#1027=DIRECTION('ref_axis',(-2.22044604925031E-16,-1.,0.));
#1028=DIRECTION('',(1.22464679914735E-16,-2.71926214689378E-32,1.));
#1029=DIRECTION('center_axis',(-1.22464679914735E-16,2.71926214689378E-32,
-1.));
#1030=DIRECTION('ref_axis',(-2.22044604925031E-16,-1.,0.));
#1031=DIRECTION('center_axis',(-1.22464679914735E-16,2.71926214689378E-32,
-1.));
#1032=DIRECTION('ref_axis',(-2.22044604925031E-16,-1.,0.));
#1033=DIRECTION('center_axis',(1.22464679914735E-16,-2.71926214689378E-32,
1.));
#1034=DIRECTION('ref_axis',(-2.22044604925031E-16,-1.,0.));
#1035=DIRECTION('center_axis',(-1.,2.22044604925031E-16,1.22464679914735E-16));
#1036=DIRECTION('ref_axis',(2.22044604925031E-16,1.,0.));
#1037=DIRECTION('',(1.22464679914735E-16,-2.71926214689378E-32,1.));
#1038=DIRECTION('',(2.22044604925031E-16,1.,0.));
#1039=DIRECTION('',(1.22464679914735E-16,-2.71926214689378E-32,1.));
#1040=DIRECTION('center_axis',(2.22044604925031E-16,1.,0.));
#1041=DIRECTION('ref_axis',(1.,-2.22044604925031E-16,-1.22464679914735E-16));
#1042=DIRECTION('',(-1.22464679914735E-16,2.71926214689378E-32,-1.));
#1043=DIRECTION('',(1.,-2.22044604925031E-16,-1.22464679914735E-16));
#1044=DIRECTION('center_axis',(-2.22044604925031E-16,-1.,0.));
#1045=DIRECTION('ref_axis',(-1.,2.22044604925031E-16,1.22464679914735E-16));
#1046=DIRECTION('',(-1.,2.22044604925031E-16,1.22464679914735E-16));
#1047=DIRECTION('',(-1.22464679914735E-16,2.71926214689378E-32,-1.));
#1048=DIRECTION('center_axis',(1.,-2.22044604925031E-16,-1.22464679914735E-16));
#1049=DIRECTION('ref_axis',(-2.22044604925031E-16,-1.,0.));
#1050=DIRECTION('',(-2.22044604925031E-16,-1.,0.));
#1051=DIRECTION('center_axis',(-1.22464679914735E-16,2.71926214689378E-32,
-1.));
#1052=DIRECTION('ref_axis',(-2.22044604925031E-16,-1.,0.));
#1053=DIRECTION('center_axis',(-1.22464679914735E-16,2.71926214689378E-32,
-1.));
#1054=DIRECTION('ref_axis',(-2.22044604925031E-16,-1.,0.));
#1055=DIRECTION('',(-1.22464679914735E-16,2.71926214689378E-32,-1.));
#1056=DIRECTION('center_axis',(-1.22464679914735E-16,2.71926214689378E-32,
-1.));
#1057=DIRECTION('ref_axis',(-0.985012376203766,0.17248367669264,1.20629225363847E-16));
#1058=DIRECTION('center_axis',(1.22464679914735E-16,-2.71926214689378E-32,
1.));
#1059=DIRECTION('ref_axis',(-0.985012376203766,0.17248367669264,1.20629225363847E-16));
#1060=DIRECTION('',(1.22464679914735E-16,-2.71926214689378E-32,1.));
#1061=DIRECTION('center_axis',(-1.22464679914735E-16,2.71926214689378E-32,
-1.));
#1062=DIRECTION('ref_axis',(0.9849106325205,0.17306370488369,-1.20616765356243E-16));
#1063=DIRECTION('',(-1.22464679914735E-16,2.71926214689378E-32,-1.));
#1064=DIRECTION('center_axis',(1.22464679914735E-16,-2.71926214689378E-32,
1.));
#1065=DIRECTION('ref_axis',(0.9849106325205,0.17306370488369,-1.20616765356243E-16));
#1066=DIRECTION('center_axis',(-1.22464679914735E-16,2.71926214689378E-32,
-1.));
#1067=DIRECTION('ref_axis',(0.694214969647589,-0.719767723586711,-8.50168140499098E-17));
#1068=DIRECTION('',(-1.22464679914735E-16,2.71926214689378E-32,-1.));
#1069=DIRECTION('center_axis',(1.22464679914735E-16,-2.71926214689378E-32,
1.));
#1070=DIRECTION('ref_axis',(0.694214969647589,-0.719767723586711,-8.50168140499098E-17));
#1071=DIRECTION('',(1.22464679914735E-16,-2.71926214689378E-32,1.));
#1072=DIRECTION('center_axis',(-1.22464679914735E-16,2.71926214689378E-32,
-1.));
#1073=DIRECTION('ref_axis',(-2.22044604925031E-16,-1.,0.));
#1074=DIRECTION('center_axis',(1.22464679914735E-16,-2.71926214689378E-32,
1.));
#1075=DIRECTION('ref_axis',(-2.22044604925031E-16,-1.,0.));
#1076=DIRECTION('center_axis',(1.22464679914735E-16,-2.71926214689378E-32,
1.));
#1077=DIRECTION('ref_axis',(-2.22044604925031E-16,-1.,0.));
#1078=DIRECTION('center_axis',(1.22464679914735E-16,-2.71926214689378E-32,
1.));
#1079=DIRECTION('ref_axis',(-2.22044604925031E-16,-1.,0.));
#1080=DIRECTION('center_axis',(1.22464679914735E-16,-2.71926214689378E-32,
1.));
#1081=DIRECTION('ref_axis',(-2.22044604925031E-16,-1.,0.));
#1082=DIRECTION('center_axis',(-1.22464679914735E-16,2.71926214689378E-32,
-1.));
#1083=DIRECTION('ref_axis',(-2.22044604925031E-16,-1.,0.));
#1084=DIRECTION('',(0.116473165178139,0.993193838982797,-1.42638488921969E-17));
#1085=DIRECTION('center_axis',(1.22464679914735E-16,-2.71926214689378E-32,
1.));
#1086=DIRECTION('ref_axis',(-2.22044604925031E-16,-1.,0.));
#1087=DIRECTION('',(0.117123668393471,-0.993117337630381,-1.43435125602461E-17));
#1088=DIRECTION('center_axis',(1.22464679914735E-16,-2.71926214689378E-32,
1.));
#1089=DIRECTION('ref_axis',(-2.22044604925031E-16,-1.,0.));
#1090=DIRECTION('center_axis',(1.22464679914735E-16,-2.71926214689378E-32,
1.));
#1091=DIRECTION('ref_axis',(-2.22044604925031E-16,-1.,0.));
#1092=DIRECTION('center_axis',(1.22464679914735E-16,-2.71926214689378E-32,
1.));
#1093=DIRECTION('ref_axis',(-2.22044604925031E-16,-1.,0.));
#1094=DIRECTION('center_axis',(-1.22464679914735E-16,2.71926214689378E-32,
-1.));
#1095=DIRECTION('ref_axis',(-2.22044604925031E-16,-1.,0.));
#1096=DIRECTION('center_axis',(1.22464679914735E-16,-2.71926214689378E-32,
1.));
#1097=DIRECTION('ref_axis',(-2.22044604925031E-16,-1.,0.));
#1098=DIRECTION('center_axis',(-1.22464679914735E-16,2.71926214689378E-32,
-1.));
#1099=DIRECTION('ref_axis',(-2.22044604925031E-16,-1.,0.));
#1100=DIRECTION('center_axis',(1.22464679914735E-16,-2.71926214689378E-32,
1.));
#1101=DIRECTION('ref_axis',(-2.22044604925031E-16,-1.,0.));
#1102=DIRECTION('center_axis',(-1.22464679914735E-16,2.71926214689378E-32,
-1.));
#1103=DIRECTION('ref_axis',(-2.22044604925031E-16,-1.,0.));
#1104=DIRECTION('center_axis',(1.22464679914735E-16,-2.71926214689378E-32,
1.));
#1105=DIRECTION('ref_axis',(-2.22044604925031E-16,-1.,0.));
#1106=DIRECTION('center_axis',(-1.22464679914735E-16,2.71926214689378E-32,
-1.));
#1107=DIRECTION('ref_axis',(-2.22044604925031E-16,-1.,0.));
#1108=DIRECTION('center_axis',(1.22464679914735E-16,-2.71926214689378E-32,
1.));
#1109=DIRECTION('ref_axis',(-2.22044604925031E-16,-1.,0.));
#1110=DIRECTION('center_axis',(-1.22464679914735E-16,2.71926214689378E-32,
-1.));
#1111=DIRECTION('ref_axis',(-2.22044604925031E-16,-1.,0.));
#1112=DIRECTION('center_axis',(1.22464679914735E-16,-2.71926214689378E-32,
1.));
#1113=DIRECTION('ref_axis',(-2.22044604925031E-16,-1.,0.));
#1114=DIRECTION('center_axis',(-1.22464679914735E-16,2.71926214689378E-32,
-1.));
#1115=DIRECTION('ref_axis',(-2.22044604925031E-16,-1.,0.));
#1116=DIRECTION('center_axis',(1.22464679914735E-16,-2.71926214689378E-32,
1.));
#1117=DIRECTION('ref_axis',(-2.22044604925031E-16,-1.,0.));
#1118=DIRECTION('center_axis',(-1.22464679914735E-16,2.71926214689378E-32,
-1.));
#1119=DIRECTION('ref_axis',(-2.22044604925031E-16,-1.,0.));
#1120=DIRECTION('',(-1.22464679914735E-16,2.71926214689378E-32,-1.));
#1121=DIRECTION('center_axis',(-1.22464679914735E-16,2.71926214689378E-32,
-1.));
#1122=DIRECTION('ref_axis',(-2.22044604925031E-16,-1.,0.));
#1123=DIRECTION('',(-1.22464679914735E-16,2.71926214689378E-32,-1.));
#1124=DIRECTION('center_axis',(-1.22464679914735E-16,2.71926214689378E-32,
-1.));
#1125=DIRECTION('ref_axis',(-2.22044604925031E-16,-1.,0.));
#1126=DIRECTION('',(-1.22464679914735E-16,2.71926214689378E-32,-1.));
#1127=DIRECTION('center_axis',(-1.22464679914735E-16,2.71926214689378E-32,
-1.));
#1128=DIRECTION('ref_axis',(-2.22044604925031E-16,-1.,0.));
#1129=DIRECTION('',(-1.22464679914735E-16,2.71926214689378E-32,-1.));
#1130=DIRECTION('center_axis',(0.993117337630381,0.117123668393471,-1.21621796870679E-16));
#1131=DIRECTION('ref_axis',(0.117123668393471,-0.993117337630381,-1.43435125602461E-17));
#1132=DIRECTION('',(-1.22464679914735E-16,2.71926214689378E-32,-1.));
#1133=DIRECTION('',(0.117123668393471,-0.993117337630381,-1.43435125602461E-17));
#1134=DIRECTION('center_axis',(-0.993193838982797,0.116473165178139,1.21631165584315E-16));
#1135=DIRECTION('ref_axis',(0.116473165178139,0.993193838982797,-1.42638488921969E-17));
#1136=DIRECTION('',(0.116473165178139,0.993193838982797,-1.42638488921969E-17));
#1137=DIRECTION('',(-1.22464679914735E-16,2.71926214689378E-32,-1.));
#1138=DIRECTION('center_axis',(-1.22464679914735E-16,2.71926214689378E-32,
-1.));
#1139=DIRECTION('ref_axis',(-2.22044604925031E-16,-1.,0.));
#1140=DIRECTION('',(1.22464679914735E-16,-2.71926214689378E-32,1.));
#1141=DIRECTION('center_axis',(-1.22464679914735E-16,2.71926214689378E-32,
-1.));
#1142=DIRECTION('ref_axis',(-2.22044604925031E-16,-1.,0.));
#1143=DIRECTION('',(1.22464679914735E-16,-2.71926214689378E-32,1.));
#1144=DIRECTION('center_axis',(-1.22464679914735E-16,2.71926214689378E-32,
-1.));
#1145=DIRECTION('ref_axis',(-1.07443648590402E-6,0.999999999999423,1.31580520362141E-22));
#1146=DIRECTION('center_axis',(1.22464679914735E-16,-2.71926214689378E-32,
1.));
#1147=DIRECTION('ref_axis',(-2.22044604925031E-16,-1.,0.));
#1148=DIRECTION('center_axis',(-1.22464679914735E-16,2.71926214689378E-32,
-1.));
#1149=DIRECTION('ref_axis',(-2.22044604925031E-16,-1.,0.));
#1150=DIRECTION('center_axis',(1.22464679914735E-16,-2.71926214689378E-32,
1.));
#1151=DIRECTION('ref_axis',(-2.22044604925031E-16,-1.,0.));
#1152=DIRECTION('center_axis',(-1.22464679914735E-16,2.71926214689378E-32,
-1.));
#1153=DIRECTION('ref_axis',(-2.22044604925031E-16,-1.,0.));
#1154=DIRECTION('center_axis',(-1.22464679914735E-16,2.71926214689378E-32,
-1.));
#1155=DIRECTION('ref_axis',(-2.22044604925031E-16,-1.,0.));
#1156=DIRECTION('',(1.22464679914735E-16,-2.71926214689378E-32,1.));
#1157=CARTESIAN_POINT('',(0.,0.,0.));
#1158=CARTESIAN_POINT('Origin',(-21.2000002160668,41.5000008046627,40.5));
#1159=CARTESIAN_POINT('',(-14.5000002160668,41.5000008046627,42.5));
#1160=CARTESIAN_POINT('',(-21.2000002160668,41.5000008046627,42.5));
#1161=CARTESIAN_POINT('',(-10.6000001080334,41.5000008046627,42.5));
#1162=CARTESIAN_POINT('',(-14.5000002160668,41.5000008046627,40.5));
#1163=CARTESIAN_POINT('',(-14.5000002160668,41.5000008046627,40.5));
#1164=CARTESIAN_POINT('',(-21.2000002160668,41.5000008046627,40.5));
#1165=CARTESIAN_POINT('',(-10.6000001080334,41.5000008046627,40.5));
#1166=CARTESIAN_POINT('',(-21.2000002160668,41.5000008046627,40.5));
#1167=CARTESIAN_POINT('Origin',(0.,56.000000834465,40.5));
#1168=CARTESIAN_POINT('',(8.88178419700125E-15,92.000000834465,40.5));
#1169=CARTESIAN_POINT('Origin',(0.,56.000000834465,40.5));
#1170=CARTESIAN_POINT('',(-22.056286292664,55.7101753798167,40.5));
#1171=CARTESIAN_POINT('Origin',(-22.956286292664,55.7101753798167,40.5));
#1172=CARTESIAN_POINT('',(-8.54999978877604,55.7101753798167,40.5));
#1173=CARTESIAN_POINT('Origin',(-9.44999978877604,55.7101753798167,40.5));
#1174=CARTESIAN_POINT('',(-8.54999978877604,41.7101753798167,40.5));
#1175=CARTESIAN_POINT('Origin',(-9.44999978877604,41.7101753798167,40.5));
#1176=CARTESIAN_POINT('',(-22.056286292664,41.7101753798167,40.5));
#1177=CARTESIAN_POINT('Origin',(-22.956286292664,41.7101753798167,40.5));
#1178=CARTESIAN_POINT('',(5.00000007450581,76.0000011324883,40.5));
#1179=CARTESIAN_POINT('',(5.0000000745058,36.0000005364418,40.5));
#1180=CARTESIAN_POINT('',(5.0000000745058,36.0000005364418,40.5));
#1181=CARTESIAN_POINT('',(-5.50000008195638,76.0000011324883,40.5));
#1182=CARTESIAN_POINT('',(5.00000007450581,76.0000011324883,40.5));
#1183=CARTESIAN_POINT('',(-5.5000000819564,36.0000005364418,40.5));
#1184=CARTESIAN_POINT('',(-5.50000008195638,76.0000011324883,40.5));
#1185=CARTESIAN_POINT('',(-5.5000000819564,36.0000005364418,40.5));
#1186=CARTESIAN_POINT('',(-21.2000002160668,54.0000008046627,40.5));
#1187=CARTESIAN_POINT('',(-21.2000002160668,55.0000008195639,40.5));
#1188=CARTESIAN_POINT('',(-14.5000002160668,54.0000008046627,40.5));
#1189=CARTESIAN_POINT('',(-14.5000002160668,50.7500008195639,40.5));
#1190=CARTESIAN_POINT('',(-7.25000010803342,54.0000008046627,40.5));
#1191=CARTESIAN_POINT('Origin',(-14.5000002160668,45.5000008046627,40.5));
#1192=CARTESIAN_POINT('',(-14.5000002160668,54.0000008046627,42.5));
#1193=CARTESIAN_POINT('',(-14.5000002160668,50.7500008195639,42.5));
#1194=CARTESIAN_POINT('',(-14.5000002160668,54.0000008046627,40.5));
#1195=CARTESIAN_POINT('Origin',(-21.2000002160668,54.0000008046627,40.5));
#1196=CARTESIAN_POINT('',(-21.2000002160668,54.0000008046627,42.5));
#1197=CARTESIAN_POINT('',(-21.2000002160668,55.0000008195639,42.5));
#1198=CARTESIAN_POINT('',(-21.2000002160668,54.0000008046627,40.5));
#1199=CARTESIAN_POINT('Origin',(-14.5000002160668,54.0000008046627,40.5));
#1200=CARTESIAN_POINT('',(-7.25000010803342,54.0000008046627,42.5));
#1201=CARTESIAN_POINT('Origin',(-22.956286292664,55.7101753798167,43.));
#1202=CARTESIAN_POINT('',(-22.056286292664,55.7101753798167,42.5));
#1203=CARTESIAN_POINT('',(-22.056286292664,55.7101753798167,43.));
#1204=CARTESIAN_POINT('Origin',(-22.956286292664,55.7101753798167,42.5));
#1205=CARTESIAN_POINT('Origin',(-9.44999978877604,55.7101753798167,43.));
#1206=CARTESIAN_POINT('',(-8.54999978877604,55.7101753798167,42.5));
#1207=CARTESIAN_POINT('',(-8.54999978877604,55.7101753798167,43.));
#1208=CARTESIAN_POINT('Origin',(-9.44999978877604,55.7101753798167,42.5));
#1209=CARTESIAN_POINT('Origin',(-9.44999978877604,41.7101753798167,43.));
#1210=CARTESIAN_POINT('',(-8.54999978877604,41.7101753798167,42.5));
#1211=CARTESIAN_POINT('',(-8.54999978877604,41.7101753798167,43.));
#1212=CARTESIAN_POINT('Origin',(-9.44999978877604,41.7101753798167,42.5));
#1213=CARTESIAN_POINT('Origin',(-22.956286292664,41.7101753798167,43.));
#1214=CARTESIAN_POINT('',(-22.056286292664,41.7101753798167,42.5));
#1215=CARTESIAN_POINT('',(-22.056286292664,41.7101753798167,43.));
#1216=CARTESIAN_POINT('Origin',(-22.956286292664,41.7101753798167,42.5));
#1217=CARTESIAN_POINT('Origin',(-8.88178419700125E-15,56.000000834465,42.5));
#1218=CARTESIAN_POINT('',(-8.88178419700125E-15,52.000000834465,41.5));
#1219=CARTESIAN_POINT('Origin',(-8.88178419700125E-15,56.000000834465,41.5));
#1220=CARTESIAN_POINT('',(-8.88178419700125E-15,52.000000834465,42.5));
#1221=CARTESIAN_POINT('',(-1.02598213363603E-14,52.000000834465,42.5));
#1222=CARTESIAN_POINT('Origin',(-8.88178419700125E-15,56.000000834465,42.5));
#1223=CARTESIAN_POINT('Origin',(3.5762786509963E-7,55.9781790525088,41.5));
#1224=CARTESIAN_POINT('',(-3.99192031192046,56.9351847468443,41.5));
#1225=CARTESIAN_POINT('',(-3.99157729470876,55.0633534813589,41.5));
#1226=CARTESIAN_POINT('Origin',(3.5762786509963E-7,56.0000006109476,41.5));
#1227=CARTESIAN_POINT('',(-3.69860054259918,58.6094926444042,41.5));
#1228=CARTESIAN_POINT('Origin',(-18.5965081273411,60.3565901220762,41.5));
#1229=CARTESIAN_POINT('',(-3.52487706130369,60.090873278424,41.5));
#1230=CARTESIAN_POINT('',(-3.02893991268472,64.3198449888529,41.5));
#1231=CARTESIAN_POINT('',(3.52255316003215,60.0928751209068,41.5));
#1232=CARTESIAN_POINT('Origin',(3.5762786509963E-7,56.0000006109476,41.5));
#1233=CARTESIAN_POINT('',(3.69753300914521,58.6091825057221,41.5));
#1234=CARTESIAN_POINT('',(3.92686202925287,56.6646513190317,41.5));
#1235=CARTESIAN_POINT('',(3.99144539089956,56.9372127248101,41.5));
#1236=CARTESIAN_POINT('Origin',(18.5942930736009,60.3660375316241,41.5));
#1237=CARTESIAN_POINT('',(3.99206712677271,55.0654403342991,41.5));
#1238=CARTESIAN_POINT('Origin',(3.5762786509963E-7,56.0000006109476,41.5));
#1239=CARTESIAN_POINT('',(3.69928186817049,53.3934148486231,41.5));
#1240=CARTESIAN_POINT('Origin',(18.5971894529125,51.646317370951,41.5));
#1241=CARTESIAN_POINT('',(3.51777508175101,51.8456641568012,41.5));
#1242=CARTESIAN_POINT('',(3.02660176214988,47.6573147273278,41.5));
#1243=CARTESIAN_POINT('',(-3.51537149111302,51.8436306624219,41.5));
#1244=CARTESIAN_POINT('Origin',(3.5762786509963E-7,56.0000006109476,41.5));
#1245=CARTESIAN_POINT('',(-3.69815010465534,53.3934507160827,41.5));
#1246=CARTESIAN_POINT('',(-3.92479538709007,55.3152259009404,41.5));
#1247=CARTESIAN_POINT('Origin',(-18.5949101691111,51.6365956901806,41.5));
#1248=CARTESIAN_POINT('Origin',(18.5942930736009,60.3660375316241,41.5));
#1249=CARTESIAN_POINT('',(3.69753300914523,58.6091825057221,37.5));
#1250=CARTESIAN_POINT('',(3.69753300914523,58.6091825057221,41.5));
#1251=CARTESIAN_POINT('',(3.99144539089958,56.9372127248101,37.5));
#1252=CARTESIAN_POINT('Origin',(18.5942930736009,60.3660375316241,37.5));
#1253=CARTESIAN_POINT('',(3.99144539089958,56.9372127248101,41.5));
#1254=CARTESIAN_POINT('Origin',(3.90088176658987,56.8849436787292,41.5));
#1255=CARTESIAN_POINT('',(3.52255316004607,60.092875120923,39.5));
#1256=CARTESIAN_POINT('',(3.52255316006735,60.0928751208765,41.5));
#1257=CARTESIAN_POINT('',(2.09493501264806,72.1979632995944,39.5));
#1258=CARTESIAN_POINT('',(3.92387817049087,56.6899521135699,39.5));
#1259=CARTESIAN_POINT('',(2.09493501264806,72.1979632995944,37.5));
#1260=CARTESIAN_POINT('',(2.09493501264806,72.1979632995944,41.5));
#1261=CARTESIAN_POINT('',(3.90088176658987,56.8849436787292,37.5));
#1262=CARTESIAN_POINT('Origin',(3.5762786509963E-7,56.0000006109476,41.5));
#1263=CARTESIAN_POINT('',(-3.52487706131765,60.0908732784402,39.5));
#1264=CARTESIAN_POINT('',(-3.52487706133886,60.0908732783938,41.5));
#1265=CARTESIAN_POINT('Origin',(3.5762786509963E-7,56.0000006109476,39.5));
#1266=CARTESIAN_POINT('Origin',(-2.10506300801196,72.1979587869633,41.5));
#1267=CARTESIAN_POINT('',(-3.69860054259915,58.6094926444042,37.5));
#1268=CARTESIAN_POINT('',(-3.69860054259915,58.6094926444042,41.5));
#1269=CARTESIAN_POINT('',(-2.10506300801196,72.1979587869633,37.5));
#1270=CARTESIAN_POINT('',(-3.90079753456435,56.8853117451082,37.5));
#1271=CARTESIAN_POINT('',(-2.10506300801196,72.1979587869633,39.5));
#1272=CARTESIAN_POINT('',(-2.10506300801196,72.1979587869633,41.5));
#1273=CARTESIAN_POINT('',(-3.02937349832277,64.3161477030127,39.5));
#1274=CARTESIAN_POINT('Origin',(-18.5965081273411,60.3565901220762,41.5));
#1275=CARTESIAN_POINT('',(-3.99192031192046,56.9351847468443,37.5));
#1276=CARTESIAN_POINT('',(-3.99192031192046,56.9351847468443,41.5));
#1277=CARTESIAN_POINT('Origin',(-18.5965081273411,60.3565901220762,37.5));
#1278=CARTESIAN_POINT('Origin',(3.5762786509963E-7,56.0000006109476,41.5));
#1279=CARTESIAN_POINT('',(-3.99157729470875,55.0633534813589,37.5));
#1280=CARTESIAN_POINT('',(-3.99157729470875,55.0633534813589,41.5));
#1281=CARTESIAN_POINT('Origin',(3.5762786509963E-7,56.0000006109476,37.5));
#1282=CARTESIAN_POINT('Origin',(0.,56.000000834465,42.5));
#1283=CARTESIAN_POINT('',(8.88178419700125E-15,92.000000834465,42.5));
#1284=CARTESIAN_POINT('Origin',(0.,56.000000834465,42.5));
#1285=CARTESIAN_POINT('Origin',(-5.49999956786633,36.0000003129244,41.5));
#1286=CARTESIAN_POINT('',(-5.49999956786631,76.0000009089708,37.5));
#1287=CARTESIAN_POINT('',(-5.50000008195638,76.0000011324883,39.5));
#1288=CARTESIAN_POINT('',(-5.49999956786633,36.0000003129244,37.5));
#1289=CARTESIAN_POINT('',(-5.49999956786631,76.0000009089708,37.5));
#1290=CARTESIAN_POINT('',(-5.5000000819564,36.0000005364418,39.5));
#1291=CARTESIAN_POINT('Origin',(-5.49999956786631,76.0000009089708,41.5));
#1292=CARTESIAN_POINT('',(5.00000043213368,76.0000009089708,37.5));
#1293=CARTESIAN_POINT('',(5.00000043213368,76.0000009089708,41.5));
#1294=CARTESIAN_POINT('',(5.00000043213368,76.0000009089708,37.5));
#1295=CARTESIAN_POINT('Origin',(5.00000043213366,36.0000003129244,41.5));
#1296=CARTESIAN_POINT('',(5.00000043213366,36.0000003129244,37.5));
#1297=CARTESIAN_POINT('',(-5.49999956786633,36.0000003129244,37.5));
#1298=CARTESIAN_POINT('',(5.00000043213366,36.0000003129244,41.5));
#1299=CARTESIAN_POINT('Origin',(5.00000043213368,76.0000009089708,41.5));
#1300=CARTESIAN_POINT('',(5.00000043213366,36.0000003129244,37.5));
#1301=CARTESIAN_POINT('Origin',(3.5762786509963E-7,56.0000006109476,41.5));
#1302=CARTESIAN_POINT('',(3.99206712677273,55.0654403342991,37.5));
#1303=CARTESIAN_POINT('Origin',(3.5762786509963E-7,56.0000006109476,37.5));
#1304=CARTESIAN_POINT('',(3.99206712677273,55.0654403342991,41.5));
#1305=CARTESIAN_POINT('Origin',(18.5971894529125,51.646317370951,41.5));
#1306=CARTESIAN_POINT('',(3.69928186817051,53.3934148486231,37.5));
#1307=CARTESIAN_POINT('Origin',(18.5971894529125,51.646317370951,37.5));
#1308=CARTESIAN_POINT('',(3.69928186817051,53.3934148486231,41.5));
#1309=CARTESIAN_POINT('Origin',(-18.5949101691111,51.6365956901806,41.5));
#1310=CARTESIAN_POINT('',(-3.69815010465533,53.3934507160827,37.5));
#1311=CARTESIAN_POINT('',(-3.69815010465532,53.3934507160827,41.5));
#1312=CARTESIAN_POINT('Origin',(-18.5949101691111,51.6365956901806,37.5));
#1313=CARTESIAN_POINT('Origin',(3.5762786509963E-7,56.0000006109476,41.5));
#1314=CARTESIAN_POINT('',(3.51777508176083,51.8456641567897,39.5));
#1315=CARTESIAN_POINT('',(3.51777508177591,51.8456641568225,41.5));
#1316=CARTESIAN_POINT('',(-3.51537149112291,51.8436306624102,39.5));
#1317=CARTESIAN_POINT('Origin',(3.5762786509963E-7,56.0000006109476,39.5));
#1318=CARTESIAN_POINT('',(-3.51537149113806,51.843630662443,41.5));
#1319=CARTESIAN_POINT('Origin',(3.5762786509963E-7,64.5000006109476,39.5));
#1320=CARTESIAN_POINT('Origin',(-0.00506399987250106,72.1999998193514,39.5));
#1321=CARTESIAN_POINT('',(3.5762786509963E-7,67.9000006109476,39.5));
#1322=CARTESIAN_POINT('Origin',(3.5762786509963E-7,67.0000006109476,39.5));
#1323=CARTESIAN_POINT('',(3.5762786509963E-7,65.4000006109476,39.5));
#1324=CARTESIAN_POINT('Origin',(3.5762786509963E-7,64.5000006109476,39.5));
#1325=CARTESIAN_POINT('',(3.5762786509963E-7,70.4000006109476,39.5));
#1326=CARTESIAN_POINT('Origin',(3.5762786509963E-7,69.5000006109476,39.5));
#1327=CARTESIAN_POINT('Origin',(0.00509954020433412,39.8000014134681,39.5));
#1328=CARTESIAN_POINT('',(2.10509946775332,39.7994497847602,39.5));
#1329=CARTESIAN_POINT('',(3.02616817651185,47.6536174414876,39.5));
#1330=CARTESIAN_POINT('',(-2.0949002843351,39.799142964691,39.5));
#1331=CARTESIAN_POINT('Origin',(0.00509954020433412,39.8000014134681,39.5));
#1332=CARTESIAN_POINT('',(-3.92777924585205,55.3405266954785,39.5));
#1333=CARTESIAN_POINT('',(3.5762786509963E-7,48.4000006109476,39.5));
#1334=CARTESIAN_POINT('Origin',(3.5762786509963E-7,47.5000006109476,39.5));
#1335=CARTESIAN_POINT('',(3.5762786509963E-7,45.9000006109476,39.5));
#1336=CARTESIAN_POINT('Origin',(3.5762786509963E-7,45.0000006109476,39.5));
#1337=CARTESIAN_POINT('',(3.57627865164759E-7,43.4000006109476,39.5));
#1338=CARTESIAN_POINT('Origin',(3.5762786509963E-7,42.5000006109476,39.5));
#1339=CARTESIAN_POINT('Origin',(3.5762786509963E-7,69.5000006109476,41.1));
#1340=CARTESIAN_POINT('',(3.5762786509963E-7,70.4000006109476,41.1));
#1341=CARTESIAN_POINT('Origin',(3.5762786509963E-7,69.5000006109476,41.1));
#1342=CARTESIAN_POINT('Origin',(3.5762786509963E-7,45.0000006109476,41.1));
#1343=CARTESIAN_POINT('',(3.5762786509963E-7,45.9000006109476,41.1));
#1344=CARTESIAN_POINT('Origin',(3.5762786509963E-7,45.0000006109476,41.1));
#1345=CARTESIAN_POINT('Origin',(3.5762786509963E-7,47.5000006109476,41.1));
#1346=CARTESIAN_POINT('',(3.5762786509963E-7,48.4000006109476,41.1));
#1347=CARTESIAN_POINT('Origin',(3.5762786509963E-7,47.5000006109476,41.1));
#1348=CARTESIAN_POINT('Origin',(3.5762786509963E-7,67.0000006109476,41.1));
#1349=CARTESIAN_POINT('',(3.5762786509963E-7,67.9000006109476,41.1));
#1350=CARTESIAN_POINT('Origin',(3.5762786509963E-7,67.0000006109476,41.1));
#1351=CARTESIAN_POINT('Origin',(3.5762786509963E-7,42.5000006109476,41.1));
#1352=CARTESIAN_POINT('',(3.5762786509963E-7,43.4000006109476,41.1));
#1353=CARTESIAN_POINT('Origin',(3.5762786509963E-7,42.5000006109476,41.1));
#1354=CARTESIAN_POINT('Origin',(3.5762786509963E-7,64.5000006109476,41.1));
#1355=CARTESIAN_POINT('',(3.5762786509963E-7,65.4000006109476,41.1));
#1356=CARTESIAN_POINT('Origin',(3.5762786509963E-7,64.5000006109476,41.1));
#1357=CARTESIAN_POINT('Origin',(3.5762786509963E-7,47.5000006109476,41.5));
#1358=CARTESIAN_POINT('',(3.57627865409688E-7,48.4000006109476,41.5));
#1359=CARTESIAN_POINT('Origin',(3.5762786509963E-7,64.5000006109476,41.5));
#1360=CARTESIAN_POINT('',(3.57627865409688E-7,65.4000006109476,41.5));
#1361=CARTESIAN_POINT('Origin',(3.5762786509963E-7,45.0000006109476,41.5));
#1362=CARTESIAN_POINT('',(3.57627865409688E-7,45.9000006109476,41.5));
#1363=CARTESIAN_POINT('Origin',(3.5762786509963E-7,67.0000006109476,41.5));
#1364=CARTESIAN_POINT('',(3.57627865409688E-7,67.9000006109476,41.5));
#1365=CARTESIAN_POINT('Origin',(-3.90152246986663,55.11788971852,41.5));
#1366=CARTESIAN_POINT('',(-2.0949002843351,39.799142964691,37.5));
#1367=CARTESIAN_POINT('',(-2.0949002843351,39.799142964691,41.5));
#1368=CARTESIAN_POINT('',(-2.0949002843351,39.799142964691,37.5));
#1369=CARTESIAN_POINT('Origin',(2.10509946775332,39.7994497847602,41.5));
#1370=CARTESIAN_POINT('',(2.10509946775332,39.7994497847602,37.5));
#1371=CARTESIAN_POINT('',(2.10509946775332,39.7994497847602,37.5));
#1372=CARTESIAN_POINT('',(2.10509946775332,39.7994497847602,41.5));
#1373=CARTESIAN_POINT('Origin',(3.5762786509963E-7,42.5000006109476,41.5));
#1374=CARTESIAN_POINT('',(3.57627865409688E-7,43.4000006109476,41.5));
#1375=CARTESIAN_POINT('Origin',(3.5762786509963E-7,69.5000006109476,41.5));
#1376=CARTESIAN_POINT('',(3.57627865409688E-7,70.4000006109476,41.5));
#1377=CARTESIAN_POINT('Origin',(-0.00506399987250106,72.1999998193514,41.5));
#1378=CARTESIAN_POINT('Origin',(-0.00506399987250106,72.1999998193514,37.5));
#1379=CARTESIAN_POINT('Origin',(0.00509954020433412,39.8000014134681,41.5));
#1380=CARTESIAN_POINT('Origin',(0.00509954020433412,39.8000014134681,37.5));
#1381=CARTESIAN_POINT('Origin',(-0.249999567866332,56.0000006109476,37.5));
#1382=CARTESIAN_POINT('Origin',(0.,56.000000834465,41.5));
#1383=CARTESIAN_POINT('',(1.24023342542316E-14,92.000000834465,41.5));
#1384=UNCERTAINTY_MEASURE_WITH_UNIT(LENGTH_MEASURE(0.01),#1388,
'DISTANCE_ACCURACY_VALUE',
'Maximum model space distance between geometric entities at asserted c
onnectivities');
#1385=UNCERTAINTY_MEASURE_WITH_UNIT(LENGTH_MEASURE(0.01),#1388,
'DISTANCE_ACCURACY_VALUE',
'Maximum model space distance between geometric entities at asserted c
onnectivities');
#1386=(
GEOMETRIC_REPRESENTATION_CONTEXT(3)
GLOBAL_UNCERTAINTY_ASSIGNED_CONTEXT((#1384))
GLOBAL_UNIT_ASSIGNED_CONTEXT((#1388,#1390,#1391))
REPRESENTATION_CONTEXT('','3D')
);
#1387=(
GEOMETRIC_REPRESENTATION_CONTEXT(3)
GLOBAL_UNCERTAINTY_ASSIGNED_CONTEXT((#1385))
GLOBAL_UNIT_ASSIGNED_CONTEXT((#1388,#1390,#1391))
REPRESENTATION_CONTEXT('','3D')
);
#1388=(
LENGTH_UNIT()
NAMED_UNIT(*)
SI_UNIT(.MILLI.,.METRE.)
);
#1389=(
LENGTH_UNIT()
NAMED_UNIT(*)
SI_UNIT($,.METRE.)
);
#1390=(
NAMED_UNIT(*)
PLANE_ANGLE_UNIT()
SI_UNIT($,.RADIAN.)
);
#1391=(
NAMED_UNIT(*)
SI_UNIT($,.STERADIAN.)
SOLID_ANGLE_UNIT()
);
#1392=SHAPE_DEFINITION_REPRESENTATION(#1393,#1394);
#1393=PRODUCT_DEFINITION_SHAPE('',$,#1396);
#1394=SHAPE_REPRESENTATION('',(#820),#1386);
#1395=PRODUCT_DEFINITION_CONTEXT('part definition',#1400,'design');
#1396=PRODUCT_DEFINITION('MniArm- BaseLid','MniArm- BaseLid v1',#1397,#1395);
#1397=PRODUCT_DEFINITION_FORMATION('',$,#1402);
#1398=PRODUCT_RELATED_PRODUCT_CATEGORY('MniArm- BaseLid v1',
'MniArm- BaseLid v1',(#1402));
#1399=APPLICATION_PROTOCOL_DEFINITION('international standard',
'automotive_design',2009,#1400);
#1400=APPLICATION_CONTEXT(
'Core Data for Automotive Mechanical Design Process');
#1401=PRODUCT_CONTEXT('part definition',#1400,'mechanical');
#1402=PRODUCT('MniArm- BaseLid','MniArm- BaseLid v1',$,(#1401));
#1403=PRESENTATION_STYLE_ASSIGNMENT((#1404));
#1404=SURFACE_STYLE_USAGE(.BOTH.,#1405);
#1405=SURFACE_SIDE_STYLE('',(#1406));
#1406=SURFACE_STYLE_FILL_AREA(#1407);
#1407=FILL_AREA_STYLE('Steel - Satin',(#1408));
#1408=FILL_AREA_STYLE_COLOUR('Steel - Satin',#1409);
#1409=COLOUR_RGB('Steel - Satin',0.627450980392157,0.627450980392157,0.627450980392157);
ENDSEC;
END-ISO-10303-21;
